<svg xmlns="http://www.w3.org/2000/svg" viewBox="0 0 24 24"><path fill-rule="evenodd" d="M18.659 6.171c-.217 1.43-1.068 3.241-2.074 4.45l-.003.004a.304.304 0 0 1-.026.031l-.006.007a.43.43 0 0 1-.309.131.445.445 0 0 1-.43-.53.432.432 0 0 1 .02-.08 19.44 19.44 0 0 0 .553-4.088c.041-.265.334-.6.75-.67.332-.056.98-.15 1.004-.155.413-.077.648.121.52.9M7.445 10.656a.313.313 0 0 1-.026-.03l-.004-.004C6.41 9.412 5.558 7.6 5.341 6.172c-.127-.78.108-.978.521-.901.024.005.672.099 1.005.156.414.07.708.404.748.67a19.438 19.438 0 0 0 .573 4.168.445.445 0 0 1-.43.53.43.43 0 0 1-.309-.132l-.005-.007M19.05 4s-1.046.15-2.681.278c-1.2.096-2.717.176-4.37.176-1.651 0-3.168-.08-4.368-.176C5.996 4.15 4.949 4 4.949 4 4.422 4.018 4 4.468 4 5.02c0 .015 0 .029.002.044l.001.017c.177 3.47 1.964 6.144 4.568 8.039.628.457 1.16.842 1.564 1.231.554.532.871 1.072.871 1.814v.174a.899.899 0 0 1 0 .244 1.015 1.015 0 0 1-.682.854c-.053.016-.107.03-.164.038-1.138.273-1.906.79-1.906 1.387C8.254 19.588 9.931 20 12 20H12c1.035 0 1.97-.103 2.648-.297.677-.193 1.097-.478 1.097-.841 0-.596-.768-1.114-1.906-1.387a1.198 1.198 0 0 1-.163-.038 1.016 1.016 0 0 1-.69-.976c0-.04.002-.081.007-.122v-.174c0-.742.317-1.282.871-1.814.405-.39.936-.774 1.565-1.231 2.604-1.895 4.39-4.568 4.568-8.039l.001-.017L20 5.02c0-.552-.422-1.002-.95-1.02"/></svg>