<svg xmlns="http://www.w3.org/2000/svg" viewBox="0 0 24 24">
    <path d="M43 6.7c-.6-1.1-1.7-1.8-3-1.8s-2.4.7-3 1.8l-3.8 7.5c-.6 1-.5 2.3.2 3.2.6.9 1.7 1.6 2.8 1.6h7.5c1.2 0 2.2-.6 2.8-1.6.6-1 .6-2.2.2-3.2L43 6.7zm2.3 9.9c-.3.6-.9.9-1.5.9h-7.6c-.6 0-1.2-.3-1.5-.9-.3-.6-.3-1.2-.1-1.7l3.8-7.5c.3-.6.9-.9 1.6-.9.7 0 1.3.4 1.6.9l3.8 7.5c.2.6.2 1.3-.1 1.7z"/>
    <path d="M40 13.6c.5 0 .8-.3.8-.8V9.6c0-.5-.3-.8-.8-.8s-.8.3-.8.8v3.1c0 .5.4.9.8.9zM40 14.4c-.5 0-.8.3-.8.8s.4.8.8.8.8-.3.8-.8-.3-.8-.8-.8zM12 7c.4 0 .8.2 1 .6l3.9 7.7c.4.7-.1 1.7-1 1.7H8.1c-.9 0-1.4-.9-1-1.7L11 7.6c.3-.4.6-.6 1-.6m0-2c-1.1 0-2.2.6-2.7 1.6v.1l-3.9 7.7c-.5 1-.5 2.1.1 3.1C6 18.4 7 19 8.1 19h7.7c1.1 0 2.1-.6 2.7-1.5.6-.9.6-2.1.1-3l-3.8-7.7v-.1C14.2 5.6 13.1 5 12 5z"/>
    <path d="M12 13c.6 0 1-.4 1-1v-2c0-.6-.4-1-1-1s-1 .4-1 1v2c0 .5.4 1 1 1zM12 14c-.6 0-1 .4-1 1s.5 1 1 1 1-.4 1-1-.4-1-1-1z"/>
</svg>
