<svg xmlns="http://www.w3.org/2000/svg" xmlns:xlink="http://www.w3.org/1999/xlink" viewBox="0 0 24 24"><defs><path id="hsds-alert.svg-1-a" d="M20.549 14.858a4.22 4.22 0 0 1-.186 4.13A4.213 4.213 0 0 1 16.753 21H7.247c-1.48 0-2.83-.751-3.608-2.012a4.22 4.22 0 0 1-.186-4.13l4.754-9.512A4.219 4.219 0 0 1 11.999 3c1.618 0 3.072.9 3.796 2.346l4.754 9.512zm-1.887 3.078a2.232 2.232 0 0 0 .098-2.183L14.006 6.24A2.201 2.201 0 0 0 12 5.001a2.2 2.2 0 0 0-2.005 1.24L5.24 15.753a2.232 2.232 0 0 0 .098 2.183 2.227 2.227 0 0 0 1.907 1.063h9.508c.783 0 1.496-.397 1.908-1.063zM12 13.997a1 1 0 0 1-1-1V9.003a1 1 0 1 1 2 0v3.994a1 1 0 0 1-1 1zm.019 1a1 1 0 1 1 0 2.002 1.004 1.004 0 0 1-1.005-1c0-.554.443-1.001.995-1.001h.01z"/></defs><g fill-rule="evenodd"><mask id="hsds-alert.svg-1-b"><use xlink:href="#hsds-alert.svg-1-a"/></mask><use xlink:href="#hsds-alert.svg-1-a"/><g mask="url(#hsds-alert.svg-1-b)"><rect/></g></g></svg>