<svg xmlns="http://www.w3.org/2000/svg" xmlns:xlink="http://www.w3.org/1999/xlink" viewBox="0 0 24 24"><defs><path id="hsds-arrow-two-way.svg-17-a" d="M20 15a1 1 0 1 1 0 2H6.414l2.293 2.293a.999.999 0 1 1-1.414 1.414l-4-4a.999.999 0 0 1 0-1.414l4-4a.999.999 0 1 1 1.414 1.414L6.414 15H20zM16.707 3.293l4 4a.999.999 0 0 1 0 1.414l-4 4a.997.997 0 0 1-1.414 0 .999.999 0 0 1 0-1.414L17.586 9H4a1 1 0 1 1 0-2h13.586l-2.293-2.293a.999.999 0 1 1 1.414-1.414z"/></defs><g fill-rule="evenodd"><mask id="hsds-arrow-two-way.svg-17-b"><use xlink:href="#hsds-arrow-two-way.svg-17-a"/></mask><use xlink:href="#hsds-arrow-two-way.svg-17-a"/><g mask="url(#hsds-arrow-two-way.svg-17-b)"><rect/></g></g></svg>