<svg xmlns="http://www.w3.org/2000/svg" xmlns:xlink="http://www.w3.org/1999/xlink" viewBox="0 0 24 24"><defs><path id="hsds-arrow-right-small.svg-9-a" d="M9.263 11H17a1 1 0 0 1 0 2H9.263l2.792 2.578a.788.788 0 0 1 0 1.178.94.94 0 0 1-.638.244.94.94 0 0 1-.639-.244l-4.513-4.167a.788.788 0 0 1 0-1.178l4.513-4.167a.956.956 0 0 1 1.277 0 .788.788 0 0 1 0 1.179L9.263 11z"/></defs><g fill-rule="evenodd"><mask id="hsds-arrow-right-small.svg-9-b"><use xlink:href="#hsds-arrow-right-small.svg-9-a"/></mask><use transform="rotate(-180 12 12)" xlink:href="#hsds-arrow-right-small.svg-9-a"/><g mask="url(#hsds-arrow-right-small.svg-9-b)"><rect transform="translate(2 2)"/></g></g></svg>