<svg viewBox="0 0 24 24" fill="none" xmlns="http://www.w3.org/2000/svg">
  <path fill-rule="evenodd" clip-rule="evenodd"
    d="M7.24437 13.2216C6.91854 12.8687 6.91854 12.2982 7.24437 11.9452C7.5702 11.5922 8.09685 11.5922 8.42268 11.9452L11 14.7372L11 7C11 6.44772 11.4477 6 12 6C12.5523 6 13 6.44771 13 7L13 14.7374L15.5775 11.9452C15.9034 11.5922 16.43 11.5922 16.7558 11.9452C16.9183 12.1212 17 12.3523 17 12.5834C17 12.8145 16.9183 13.0456 16.7558 13.2216L12.5893 17.7353C12.2634 18.0882 11.7368 18.0882 11.4109 17.7353L7.24437 13.2216Z"
    fill="#93A1B0" />
</svg>