<svg xmlns="http://www.w3.org/2000/svg" xmlns:xlink="http://www.w3.org/1999/xlink" viewBox="0 0 24 24"><defs><path id="hsds-arrow-swerve.svg-14-a" d="M16.707 3.293a.999.999 0 0 0-1.414 0l-4 4a.999.999 0 1 0 1.414 1.414L15 6.414V8c0 2.206-1.794 4-4 4H9c-3.309 0-6 2.691-6 6v2a1 1 0 1 0 2 0v-2c0-2.206 1.794-4 4-4h2c3.309 0 6-2.691 6-6V6.414l2.293 2.293a.997.997 0 0 0 1.414 0 .999.999 0 0 0 0-1.414l-4-4z"/></defs><g fill-rule="evenodd"><mask id="hsds-arrow-swerve.svg-14-b"><use xlink:href="#hsds-arrow-swerve.svg-14-a"/></mask><use xlink:href="#hsds-arrow-swerve.svg-14-a"/><g mask="url(#hsds-arrow-swerve.svg-14-b)"><rect/></g></g></svg>