<svg xmlns="http://www.w3.org/2000/svg" viewBox="0 0 24 24"><path fill-rule="evenodd" d="M12 6c2.216 0 4.02 1.794 4.02 4s-1.804 4-4.02 4c-2.217 0-4.02-1.794-4.02-4S9.784 6 12 6M4.006 18.893a1 1 0 0 0 .891 1.101 1.01 1.01 0 0 0 1.106-.887 3.01 3.01 0 0 1 2.487-2.64l2.589-.429h1.842l2.589.429a3.01 3.01 0 0 1 2.486 2.64 1.003 1.003 0 0 0 1.107.887 1 1 0 0 0 .891-1.101 5.016 5.016 0 0 0-4.044-4.371A5.969 5.969 0 0 0 18.029 10c0-3.309-2.704-6-6.03-6-3.324 0-6.028 2.691-6.028 6 0 1.805.808 3.421 2.08 4.522a5.016 5.016 0 0 0-4.045 4.371"/></svg>