<svg xmlns="http://www.w3.org/2000/svg" xmlns:xlink="http://www.w3.org/1999/xlink" viewBox="0 0 24 24"><defs><path id="hsds-assign.svg-10-a" d="M12 5c2.206 0 4 1.794 4 4s-1.794 4-4 4-4-1.794-4-4 1.794-4 4-4M4 21a1 1 0 0 0 1-1v-1.877c0-1.379.935-2.576 2.273-2.91l.85-.213h7.754l.851.213A2.996 2.996 0 0 1 19 18.123V20a1 1 0 1 0 2 0v-1.877a4.994 4.994 0 0 0-3.787-4.851l-.816-.204A5.965 5.965 0 0 0 18 9c0-3.309-2.691-6-6-6S6 5.691 6 9c0 1.571.611 2.998 1.603 4.068l-.815.204A4.994 4.994 0 0 0 3 18.123V20a1 1 0 0 0 1 1"/></defs><g fill-rule="evenodd"><mask id="hsds-assign.svg-10-b"><use xlink:href="#hsds-assign.svg-10-a"/></mask><use xlink:href="#hsds-assign.svg-10-a"/><g mask="url(#hsds-assign.svg-10-b)"><rect/></g></g></svg>