<svg xmlns="http://www.w3.org/2000/svg" viewBox="0 0 24 24"><path fill-rule="evenodd" d="M13.035 11.501l-.145.729c-.224 1.161-.948 1.923-1.72 1.923-.723 0-1.077-.563-1.077-1.459 0-1.342.595-3.117 1.898-3.117.884 0 1.237.912 1.044 1.924M11.727 3C6.914 3 3 7.037 3 12s3.914 9 8.727 9a8.442 8.442 0 0 0 3.519-.762c.49-.223.712-.813.495-1.319a.96.96 0 0 0-1.279-.511 6.548 6.548 0 0 1-2.735.592c-3.742 0-6.788-3.141-6.788-7s3.046-7 6.788-7c3.966 0 6.334 2.301 6.334 6.156 0 1.317-.364 2.46-.974 3.057-.17.167-.438.371-.746.346-.43-.023-.62-.208-.737-.369-.597-.81-.49-2.737-.267-3.921l.014-.034.255-1.238a.517.517 0 0 0-.494-.63h-1.014a.51.51 0 0 0-.498.424l-.099.538h-.032c-.225-.664-.868-1.227-1.913-1.227-2.25 0-3.618 2.321-3.618 4.592 0 1.858 1.083 3.306 2.82 3.306 1.384 0 2.23-.858 2.772-1.669.127.386.294.75.527 1.066.523.71 1.278 1.112 2.187 1.16.79.034 1.55-.278 2.18-.894C19.424 14.681 20 13.038 20 11.156 20 6.201 16.753 3 11.727 3"/></svg>