<svg height="20" viewBox="0 0 20 20" width="20" xmlns="http://www.w3.org/2000/svg"><path d="m16.127 4.971a3.042 3.042 0 0 0 -4.224 0l-4.926 4.805a.953.953 0 0 0 0 1.373 1.014 1.014 0 0 0 1.407 0l4.927-4.805a1.015 1.015 0 0 1 1.408 0 .955.955 0 0 1 0 1.372l-5.63 5.492a3.043 3.043 0 0 1 -4.223 0 2.857 2.857 0 0 1 0-4.119l3.518-3.432a.955.955 0 0 0 0-1.372 1.01 1.01 0 0 0 -1.407 0l-3.52 3.431a4.76 4.76 0 0 0 -1.457 3.434c0 1.297.517 2.515 1.457 3.432a5.026 5.026 0 0 0 3.52 1.418 5.025 5.025 0 0 0 3.519-1.42l5.63-5.491a2.864 2.864 0 0 0 0-4.118" fill="#c1cbd4" fill-rule="evenodd"/></svg>