<svg xmlns="http://www.w3.org/2000/svg" xmlns:xlink="http://www.w3.org/1999/xlink" viewBox="0 0 24 24"><defs><path id="hsds-attach-large.svg-22-a" d="M18.127 6.971a3.042 3.042 0 0 0-4.224 0l-4.926 4.805a.953.953 0 0 0 0 1.373 1.014 1.014 0 0 0 1.407 0l4.927-4.805a1.015 1.015 0 0 1 1.408 0 .955.955 0 0 1 0 1.372l-5.63 5.492a3.043 3.043 0 0 1-4.223 0 2.857 2.857 0 0 1 0-4.119l3.518-3.432a.955.955 0 0 0 0-1.372c-.389-.38-1.019-.38-1.407 0l-3.52 3.431A4.76 4.76 0 0 0 4 13.15c0 1.297.517 2.515 1.457 3.432A5.026 5.026 0 0 0 8.977 18a5.025 5.025 0 0 0 3.519-1.42l5.63-5.491a2.864 2.864 0 0 0 0-4.118"/></defs><g fill-rule="evenodd"><mask id="hsds-attach-large.svg-22-b"><use xlink:href="#hsds-attach-large.svg-22-a"/></mask><use xlink:href="#hsds-attach-large.svg-22-a"/><g mask="url(#hsds-attach-large.svg-22-b)"><rect transform="translate(2 2)"/></g></g></svg>