<svg xmlns="http://www.w3.org/2000/svg" xmlns:xlink="http://www.w3.org/1999/xlink" viewBox="0 0 24 24"><defs><path id="hsds-attach-small.svg-21-a" d="M16.5 15h-8C6.57 15 5 13.43 5 11.5S6.57 8 8.5 8h7a.5.5 0 0 1 0 1h-7A2.503 2.503 0 0 0 6 11.5C6 12.878 7.122 14 8.5 14h8c.827 0 1.5-.673 1.5-1.5s-.673-1.5-1.5-1.5h-7a.5.5 0 0 0 0 1h6a.5.5 0 0 1 0 1h-6c-.827 0-1.5-.673-1.5-1.5S8.673 10 9.5 10h7c1.379 0 2.5 1.122 2.5 2.5S17.879 15 16.5 15"/></defs><g fill-rule="evenodd"><mask id="hsds-attach-small.svg-21-b"><use xlink:href="#hsds-attach-small.svg-21-a"/></mask><use xlink:href="#hsds-attach-small.svg-21-a"/><g mask="url(#hsds-attach-small.svg-21-b)"><rect/></g></g></svg>