<svg xmlns="http://www.w3.org/2000/svg" xmlns:xlink="http://www.w3.org/1999/xlink" viewBox="0 0 24 24"><defs><path id="hsds-bcc.svg-16-a" d="M6 11.941c0-.555.449-1.007 1-1.007h1v2.015c0 1.666 1.346 3.022 3 3.022h3v1.007c0 .555-.449 1.007-1 1.007H7c-.551 0-1-.452-1-1.007v-5.037zm7.366-5.702a.997.997 0 0 1 1.267 0l2.762 2.277-2.785 2.157a.996.996 0 0 1-1.219 0l-2.786-2.158 2.761-2.276zM17 13.956h-6c-.551 0-1-.452-1-1.007v-2.361l2.171 1.68a2.98 2.98 0 0 0 3.658.001L18 10.589v2.36c0 .556-.449 1.008-1 1.008zM4 11.941v5.037C4 18.644 5.346 20 7 20h6c1.654 0 3-1.356 3-3.022v-1.007h1c1.654 0 3-1.356 3-3.022V9.492a3.02 3.02 0 0 0-1.1-2.34l-3.001-2.471a2.99 2.99 0 0 0-3.799 0l-3 2.472A3.004 3.004 0 0 0 8.063 8.92H7c-1.654 0-3 1.355-3 3.021z"/></defs><g fill-rule="evenodd"><mask id="hsds-bcc.svg-16-b"><use xlink:href="#hsds-bcc.svg-16-a"/></mask><use xlink:href="#hsds-bcc.svg-16-a"/><g mask="url(#hsds-bcc.svg-16-b)"><rect/></g></g></svg>