<svg xmlns="http://www.w3.org/2000/svg" xmlns:xlink="http://www.w3.org/1999/xlink" viewBox="0 0 24 24"><defs><path id="hsds-bell-small.svg-18-a" d="M16.879 15H7.12a1.122 1.122 0 0 1-.793-1.914l.758-.758A3.142 3.142 0 0 0 8 10.121V10c0-2.206 1.794-4 4-4s4 1.794 4 4v.121c0 .822.333 1.626.914 2.207l.758.758A1.122 1.122 0 0 1 16.879 15m-4.88 3a1.995 1.995 0 0 1-1.721-1h3.444c-.347.595-.986 1-1.722 1m7.086-6.328l-.758-.758a1.129 1.129 0 0 1-.328-.793V10c0-2.967-2.167-5.432-5-5.91V4a1 1 0 1 0-2 0v.09C8.167 4.568 6 7.033 6 10v.121c0 .295-.12.584-.328.793l-.758.758A3.142 3.142 0 0 0 4 13.879C4 15.6 5.4 17 7.12 17h1.022c.447 1.721 2 3 3.858 3s3.41-1.279 3.858-3h1.02C18.6 17 20 15.6 20 13.879c0-.822-.333-1.626-.914-2.207"/></defs><g fill-rule="evenodd"><mask id="hsds-bell-small.svg-18-b"><use xlink:href="#hsds-bell-small.svg-18-a"/></mask><use xlink:href="#hsds-bell-small.svg-18-a"/><g mask="url(#hsds-bell-small.svg-18-b)"><rect/></g></g></svg>