<svg xmlns="http://www.w3.org/2000/svg" xmlns:xlink="http://www.w3.org/1999/xlink" viewBox="0 0 24 24"><defs><path id="hsds-bell.svg-25-a" d="M20.1 13.7l-.8-.8c-.2-.2-.3-.5-.3-.8V10c0-3.5-2.6-6.4-6-6.9V2c0-.6-.4-1-1-1s-1 .4-1 1v1.1c-3.4.5-6 3.4-6 6.9v2.1c0 .3-.1.6-.3.8l-.8.8c-.6.6-.9 1.3-.9 2.2C3 17.6 4.4 19 6.1 19h2c.4 1.7 2 3 3.9 3s3.4-1.3 3.9-3h2c1.7 0 3.1-1.4 3.1-3.1 0-.8-.3-1.6-.9-2.2zM12 20c-.7 0-1.4-.4-1.7-1h3.4c-.3.6-1 1-1.7 1zm5.9-3H6.1c-.6 0-1.1-.5-1.1-1.1 0-.3.1-.6.3-.8l.8-.8c.6-.6.9-1.3.9-2.2V10c0-2.8 2.2-5 5-5s5 2.2 5 5v2.1c0 .8.3 1.6.9 2.2l.8.8c.2.2.3.5.3.8 0 .6-.5 1.1-1.1 1.1z"/></defs><g fill-rule="evenodd"><mask id="hsds-bell.svg-25-b"><use xlink:href="#hsds-bell.svg-25-a"/></mask><use xlink:href="#hsds-bell.svg-25-a"/><g mask="url(#hsds-bell.svg-25-b)"><rect/></g></g></svg>