<svg xmlns="http://www.w3.org/2000/svg" xmlns:xlink="http://www.w3.org/1999/xlink" viewBox="0 0 24 24"><defs><path id="hsds-bin.svg-19-a" d="M16 18c0 .551-.448 1-1 1H8c-.552 0-1-.449-1-1V9h9v9zM10 6c0-.551.448-1 1-1h1c.552 0 1 .449 1 1v1h-3V6zm2-3h-1C9.346 3 8 4.346 8 6v1H5a1 1 0 1 0 0 2v9c0 1.654 1.346 3 3 3h7c1.654 0 3-1.346 3-3V9a1 1 0 1 0 0-2h-3V6c0-1.654-1.346-3-3-3zm-2 8a1 1 0 0 0-1 1v4a1 1 0 1 0 2 0v-4a1 1 0 0 0-1-1m3 0a1 1 0 0 0-1 1v4a1 1 0 1 0 2 0v-4a1 1 0 0 0-1-1"/></defs><g fill-rule="evenodd"><mask id="hsds-bin.svg-19-b"><use xlink:href="#hsds-bin.svg-19-a"/></mask><use xlink:href="#hsds-bin.svg-19-a"/><g mask="url(#hsds-bin.svg-19-b)"><rect/></g></g></svg>