<svg viewBox="0 0 24 24" fill="none" xmlns="http://www.w3.org/2000/svg">
  <path fill-rule="evenodd" clip-rule="evenodd"
    d="M6 7C5.44772 7 5 7.44772 5 8V16C5 16.5523 5.44772 17 6 17C6.55228 17 7 16.5523 7 16V8C7 7.44772 6.55228 7 6 7ZM10 9H18C18.552 9 19 8.553 19 8C19 7.447 18.552 7 18 7H10C9.448 7 9 7.447 9 8C9 8.553 9.448 9 10 9ZM10 13H18C18.552 13 19 12.553 19 12C19 11.447 18.552 11 18 11H10C9.448 11 9 11.447 9 12C9 12.553 9.448 13 10 13ZM18 17H10C9.448 17 9 16.553 9 16C9 15.447 9.448 15 10 15H18C18.552 15 19 15.447 19 16C19 16.553 18.552 17 18 17Z"
    fill="#93A1B0" />
</svg>