<svg height="20" width="20" xmlns="http://www.w3.org/2000/svg"><path d="m5.003 11.003a1 1 0 1 1 0 2 1 1 0 0 1 0-2zm9 1.003v-3.01c0-.801-.312-1.553-.878-2.119a2.977 2.977 0 0 0 -2.119-.877h-.001l-6.01.002a3 3 0 0 0 -2.995 2.996v3.01c0 .801.312 1.555.879 2.121a2.976 2.976 0 0 0 2.117.876h.007c.265 0 .52.105.707.293l2.292 2.291 2.294-2.293a.997.997 0 0 1 .707-.293h.007a3 3 0 0 0 2.993-2.997zm-2.997-8.006c1.334 0 2.589.519 3.533 1.463a4.961 4.961 0 0 1 1.464 3.533v3.01c0 2.61-2.013 4.76-4.567 4.979l-2.727 2.726a.997.997 0 0 1 -1.414 0l-2.724-2.724a4.962 4.962 0 0 1 -3.105-1.443 4.966 4.966 0 0 1 -1.466-3.536v-3.01a5.002 5.002 0 0 1 4.995-4.996l6.009-.002zm-3.003 7.003a1 1 0 1 1 0 2 1 1 0 0 1 0-2zm3 0a1 1 0 1 1 0 2 1 1 0 0 1 0-2zm-3.003-9.003a1 1 0 1 1 0-2h7a5 5 0 0 1 5 5v4a1 1 0 0 1 -2 0v-4a3 3 0 0 0 -3-3z"/></svg>