<svg xmlns="http://www.w3.org/2000/svg" xmlns:xlink="http://www.w3.org/1999/xlink" width="19" height="19">
    <defs>
        <path id="a" d="M7.955 3.001L8 3a1 1 0 1 1 0 2v.001l-3.005.001A3 3 0 0 0 2 7.998v3.01c0 .801.312 1.555.879 2.121a2.98 2.98 0 0 0 2.124.876c.265 0 .52.105.707.293l2.292 2.291 2.294-2.293c.187-.188.442-.293.714-.293a3.001 3.001 0 0 0 2.992-2.934A1 1 0 1 1 16 11v.006h.003c0 2.61-2.013 4.76-4.567 4.979l-2.727 2.726a.997.997 0 0 1-1.414 0l-2.724-2.724a4.962 4.962 0 0 1-3.105-1.443A4.966 4.966 0 0 1 0 11.008v-3.01a5.002 5.002 0 0 1 4.995-4.996l2.96-.001zm-3.952 8.002a1 1 0 1 1 2 0 1 1 0 0 1-2 0zm3 0a1 1 0 1 1 2 0 1 1 0 0 1-2 0zm3 0a1 1 0 1 1 2 0 1 1 0 0 1-2 0zM14 1a1 1 0 0 1 2 0v2h2a1 1 0 0 1 0 2h-2v2a1 1 0 0 1-2 0V5h-2a1 1 0 0 1 0-2h2V1z"/>
    </defs>
    <g fill="none" fill-rule="evenodd">
        <mask id="b" fill="#fff">
            <use xlink:href="#a"/>
        </mask>
        <use fill="#B4C0CA" xlink:href="#a"/>
        <g fill="#86929E" mask="url(#b)">
            <path d="M-3-2h24v24H-3z"/>
        </g>
    </g>
</svg>
