<svg xmlns="http://www.w3.org/2000/svg" xmlns:xlink="http://www.w3.org/1999/xlink" width="20" height="20">
    <defs>
        <path id="a" d="M5.003 11.003a1 1 0 1 1 0 2 1 1 0 0 1 0-2zm9 1.003v-3.01c0-.801-.312-1.553-.878-2.119A2.977 2.977 0 0 0 11.006 6h-.001l-6.01.002A3 3 0 0 0 2 8.998v3.01c0 .801.312 1.555.879 2.121a2.976 2.976 0 0 0 2.117.876h.007c.265 0 .52.105.707.293l2.292 2.291 2.294-2.293a.997.997 0 0 1 .707-.293h.007a3 3 0 0 0 2.993-2.997zM11.006 4c1.334 0 2.589.519 3.533 1.463a4.961 4.961 0 0 1 1.464 3.533v3.01c0 2.61-2.013 4.76-4.567 4.979l-2.727 2.726a.997.997 0 0 1-1.414 0l-2.724-2.724a4.962 4.962 0 0 1-3.105-1.443A4.966 4.966 0 0 1 0 12.008v-3.01a5.002 5.002 0 0 1 4.995-4.996L11.004 4h.002zm-3.003 7.003a1 1 0 1 1 0 2 1 1 0 0 1 0-2zm3 0a1 1 0 1 1 0 2 1 1 0 0 1 0-2zM8 2a1 1 0 1 1 0-2h7a5 5 0 0 1 5 5v4a1 1 0 0 1-2 0V5a3 3 0 0 0-3-3H8z"/>
    </defs>
    <g fill="none" fill-rule="evenodd">
        <mask id="b" fill="#fff">
            <use xlink:href="#a"/>
        </mask>
        <use fill="#000" xlink:href="#a"/>
        <g fill="#86929E" mask="url(#b)">
            <path d="M-2-2h24v24H-2z"/>
        </g>
    </g>
</svg>
