<svg height="20" width="20" xmlns="http://www.w3.org/2000/svg"><path d="m7.955 3.001.045-.001a1 1 0 1 1 0 2v.001l-3.005.001a3 3 0 0 0 -2.995 2.996v3.01c0 .801.312 1.555.879 2.121a2.98 2.98 0 0 0 2.124.876c.265 0 .52.105.707.293l2.292 2.291 2.294-2.293c.187-.188.442-.293.714-.293a3.001 3.001 0 0 0 2.992-2.934 1 1 0 1 1 1.998-.069v.006h.003c0 2.61-2.013 4.76-4.567 4.979l-2.727 2.726a.997.997 0 0 1 -1.414 0l-2.724-2.724a4.962 4.962 0 0 1 -3.105-1.443 4.966 4.966 0 0 1 -1.466-3.536v-3.01a5.002 5.002 0 0 1 4.995-4.996zm-3.952 8.002a1 1 0 1 1 2 0 1 1 0 0 1 -2 0zm3 0a1 1 0 1 1 2 0 1 1 0 0 1 -2 0zm3 0a1 1 0 1 1 2 0 1 1 0 0 1 -2 0zm3.997-10.003a1 1 0 0 1 2 0v2h2a1 1 0 0 1 0 2h-2v2a1 1 0 0 1 -2 0v-2h-2a1 1 0 0 1 0-2h2z"/></svg>