<svg xmlns="http://www.w3.org/2000/svg" xmlns:xlink="http://www.w3.org/1999/xlink" viewBox="0 0 24 24"><defs><path id="hsds-bubble-tick.svg-30-a" d="M6 9.105c0-1.71 1.344-3.102 2.996-3.102L15.006 6h.001c.8 0 1.553.323 2.119.909.566.586.878 1.364.878 2.194v3.116c0 1.71-1.343 3.1-2.993 3.102h-.007c-.265 0-.52.11-.707.303L12.003 18l-2.292-2.374a.986.986 0 0 0-.707-.303h-.007c-.8 0-1.552-.322-2.118-.907A3.137 3.137 0 0 1 6 12.221V9.105zm-2 2.903c0 1.337.521 2.593 1.467 3.537a4.96 4.96 0 0 0 3.105 1.443l2.724 2.723a.993.993 0 0 0 .707.293.993.993 0 0 0 .707-.294l2.727-2.726a5.004 5.004 0 0 0 4.567-4.978v-3.01c0-1.335-.52-2.59-1.464-3.534A4.968 4.968 0 0 0 15.007 4h-.002l-6.01.003A5.002 5.002 0 0 0 4 8.998v3.01zm6.295 1.702a.997.997 0 0 0 1.414 0l4-4a.999.999 0 1 0-1.414-1.414l-3.293 3.293-1.293-1.293a.999.999 0 1 0-1.414 1.414l2 2z"/></defs><g fill-rule="evenodd"><mask id="hsds-bubble-tick.svg-30-b"><use xlink:href="#hsds-bubble-tick.svg-30-a"/></mask><use xlink:href="#hsds-bubble-tick.svg-30-a"/><g mask="url(#hsds-bubble-tick.svg-30-b)"><rect/></g></g></svg>