<svg xmlns="http://www.w3.org/2000/svg" xmlns:xlink="http://www.w3.org/1999/xlink" viewBox="0 0 24 24"><defs><path id="hsds-buoy.svg-28-a" d="M12 2C6.5 2 2 6.5 2 12s4.5 10 10 10 10-4.5 10-10S17.5 2 12 2zm4.9 3.7l-2 2s-.1.1-.1.2C14 7.3 13 7 12 7c-1 0-2 .3-2.8.9 0-.1-.1-.1-.1-.2l-2-2C8.5 4.6 10.2 4 12 4c1.8 0 3.5.6 4.9 1.7zM9 12c0-1.7 1.3-3 3-3s3 1.3 3 3-1.3 3-3 3-3-1.3-3-3zm-5 0c0-1.8.6-3.5 1.7-4.9l2 2s.1.1.2.1C7.3 10 7 11 7 12c0 1 .3 2 .9 2.8-.1 0-.1.1-.2.1l-2 2C4.6 15.5 4 13.8 4 12zm3.1 6.3l2-2s.1-.1.1-.2c.8.6 1.8.9 2.8.9 1 0 2-.3 2.8-.9 0 .1.1.1.1.2l2 2C15.5 19.4 13.8 20 12 20c-1.8 0-3.5-.6-4.9-1.7zm11.2-1.4l-2-2s-.1-.1-.2-.1c.6-.8.9-1.8.9-2.8 0-1-.3-2-.9-2.8.1 0 .1-.1.2-.1l2-2C19.4 8.5 20 10.2 20 12c0 1.8-.6 3.5-1.7 4.9z"/></defs><g fill-rule="evenodd"><mask id="hsds-buoy.svg-28-b"><use xlink:href="#hsds-buoy.svg-28-a"/></mask><use xlink:href="#hsds-buoy.svg-28-a"/><g mask="url(#hsds-buoy.svg-28-b)"><rect/></g></g></svg>