<svg xmlns="http://www.w3.org/2000/svg" xmlns:xlink="http://www.w3.org/1999/xlink" viewBox="0 0 24 24"><defs><path id="hsds-calendar.svg-26-a" d="M18 5c1.654 0 3 1.346 3 3v10c0 1.654-1.346 3-3 3H6c-1.654 0-3-1.346-3-3V8c0-1.654 1.346-3 3-3h1V4a1 1 0 1 1 2 0v1h6V4a1 1 0 1 1 2 0v1h1zm1 13v-7H5v7c0 .552.449 1 1 1h12c.551 0 1-.448 1-1zM8 14a1 1 0 1 1 0-2 1 1 0 0 1 0 2zm4 0a1 1 0 1 1 0-2 1 1 0 0 1 0 2zm4 0a1 1 0 1 1 0-2 1 1 0 0 1 0 2zm0 4a1 1 0 1 1 0-2 1 1 0 0 1 0 2zm-4 0a1 1 0 1 1 0-2 1 1 0 0 1 0 2zm-4 0a1 1 0 1 1 0-2 1 1 0 0 1 0 2z"/></defs><g fill-rule="evenodd"><mask id="hsds-calendar.svg-26-b"><use xlink:href="#hsds-calendar.svg-26-a"/></mask><use xlink:href="#hsds-calendar.svg-26-a"/><g mask="url(#hsds-calendar.svg-26-b)"><rect/></g></g></svg>