<svg xmlns="http://www.w3.org/2000/svg" xmlns:xlink="http://www.w3.org/1999/xlink" viewBox="0 0 24 24"><defs><path id="hsds-call-large.svg-31-a" d="M8.594 5.987c-.026 0-.053.008-.068.024L6.99 7.551a3.41 3.41 0 0 0-.567 4.046 15.371 15.371 0 0 0 5.97 5.978 3.396 3.396 0 0 0 4.042-.567l1.537-1.54c.032-.031.032-.104 0-.136l-1.551-1.554c-.034-.033-.104-.031-.136 0l-.434.435a3.186 3.186 0 0 1-3.687.598 6.706 6.706 0 0 1-2.98-2.983 3.199 3.199 0 0 1 .599-3.693l.432-.433v-.137L8.662 6.01a.097.097 0 0 0-.068-.024M14.028 20c-.893 0-1.791-.22-2.607-.674a17.355 17.355 0 0 1-6.748-6.756 5.423 5.423 0 0 1 .9-6.436l1.539-1.539c.795-.794 2.176-.792 2.965 0l1.551 1.553c.397.396.615.924.615 1.485 0 .56-.218 1.089-.615 1.485l-.432.433c-.365.365-.455.92-.224 1.381a4.69 4.69 0 0 0 2.086 2.088c.457.228 1.012.14 1.377-.225l.433-.433c.792-.792 2.173-.794 2.966 0l1.552 1.553c.397.397.614.924.614 1.485s-.217 1.088-.614 1.485l-1.538 1.54A5.398 5.398 0 0 1 14.028 20"/></defs><g fill-rule="evenodd"><mask id="hsds-call-large.svg-31-b"><use xlink:href="#hsds-call-large.svg-31-a"/></mask><use xlink:href="#hsds-call-large.svg-31-a"/><g mask="url(#hsds-call-large.svg-31-b)"><rect/></g></g></svg>