<svg xmlns="http://www.w3.org/2000/svg" xmlns:xlink="http://www.w3.org/1999/xlink" viewBox="0 0 24 24"><defs><path id="hsds-call.svg-29-a" d="M10.947 18.001a19.267 19.267 0 0 1-2.688-2.226 19.184 19.184 0 0 1-2.245-2.667 4.442 4.442 0 0 1-.896-1.877 5.003 5.003 0 0 1-.01-2.117 4.97 4.97 0 0 1 1.41-2.596l.906-.999C7.773 5.173 8.209 5 8.732 5c.524 0 .96.173 1.309.52l1.812 1.897c.349.346.523.778.523 1.298 0 .519-.174.952-.523 1.298l-.705.699c.255.453.574.869.956 1.248.383.38.802.696 1.259.949l.704-.7c.35-.345.786-.519 1.31-.519.523 0 .959.174 1.308.52l1.812 1.797c.147.147.268.336.362.57.094.232.141.475.141.728s-.047.496-.14.73a1.667 1.667 0 0 1-.363.568l-.906.9a5.034 5.034 0 0 1-2.618 1.397c-.2.067-.536.1-1.006.1-1.007 0-2.014-.333-3.02-.999zM7.122 9.514c-.094.399-.098.815-.01 1.248.087.432.258.849.513 1.248 1.315 1.797 2.825 3.295 4.53 4.494.362.253.761.422 1.198.509a3.26 3.26 0 0 0 1.318-.01c.712-.24 1.249-.54 1.611-.899l.805-.799-1.61-1.597-1.108 1.098c-.255.253-.624.32-1.107.2a7.88 7.88 0 0 1-2.527-1.688 7.809 7.809 0 0 1-1.7-2.506 1.452 1.452 0 0 1-.061-.54c.04-.213.127-.366.262-.459l1.208-1.098-1.611-1.598-.805.799c-.242.2-.44.44-.594.719-.155.28-.259.572-.312.879z"/></defs><g fill-rule="evenodd"><mask id="hsds-call.svg-29-b"><use xlink:href="#hsds-call.svg-29-a"/></mask><use xlink:href="#hsds-call.svg-29-a"/><g mask="url(#hsds-call.svg-29-b)"><rect/></g></g></svg>