<svg xmlns="http://www.w3.org/2000/svg" xmlns:xlink="http://www.w3.org/1999/xlink" viewBox="0 0 24 24"><defs><path id="hsds-camera.svg-34-a" d="M18 6c1.654 0 3 1.346 3 3v9c0 1.654-1.346 3-3 3H6c-1.654 0-3-1.346-3-3V9c0-1.654 1.346-3 3-3h1.465l1.703-2.555C9.354 3.167 9.666 3 10 3h4c.334 0 .646.167.832.445L16.535 6H18zm1 12V9c0-.551-.448-1-1-1h-2c-.334 0-.646-.167-.832-.445L13.465 5h-2.93L8.832 7.555A1.001 1.001 0 0 1 8 8H6c-.552 0-1 .449-1 1v9c0 .551.448 1 1 1h12c.552 0 1-.449 1-1zm-7-3c-1.103 0-2-.897-2-2s.897-2 2-2 2 .897 2 2-.897 2-2 2zm0-6c-2.206 0-4 1.794-4 4s1.794 4 4 4 4-1.794 4-4-1.794-4-4-4"/></defs><g fill-rule="evenodd"><mask id="hsds-camera.svg-34-b"><use xlink:href="#hsds-camera.svg-34-a"/></mask><use xlink:href="#hsds-camera.svg-34-a"/><g mask="url(#hsds-camera.svg-34-b)"><rect/></g></g></svg>