<svg xmlns="http://www.w3.org/2000/svg" xmlns:xlink="http://www.w3.org/1999/xlink" viewBox="0 0 24 24"><defs><path id="hsds-chat-small.svg-33-a" d="M9.297 16.352c.156 0 .311.037.451.107A4.95 4.95 0 0 0 12 17c2.757 0 5-2.243 5-5 0-2.756-2.243-5-5-5s-5 2.244-5 5c0 .766.174 1.508.519 2.206.095.193.125.412.086.624l-.353 1.905 1.852-.364a.971.971 0 0 1 .193-.019M6 19a.999.999 0 0 1-.983-1.182l.563-3.039A6.916 6.916 0 0 1 5 12c0-3.859 3.14-7 7-7s7 3.141 7 7c0 3.86-3.14 7-7 7a6.919 6.919 0 0 1-2.833-.603l-2.974.584A.971.971 0 0 1 6 19"/></defs><g fill-rule="evenodd"><mask id="hsds-chat-small.svg-33-b"><use xlink:href="#hsds-chat-small.svg-33-a"/></mask><use xlink:href="#hsds-chat-small.svg-33-a"/><g mask="url(#hsds-chat-small.svg-33-b)"><rect/></g></g></svg>