<svg height="20" viewBox="0 0 20 20" width="20" xmlns="http://www.w3.org/2000/svg"><path d="m16.003 10.006a3 3 0 0 1 -2.993 2.997h-.007a.997.997 0 0 0 -.707.293l-2.294 2.293-2.292-2.291a.997.997 0 0 0 -.707-.293h-.007c-.8 0-1.551-.311-2.117-.876a2.978 2.978 0 0 1 -.879-2.121v-3.01a3 3 0 0 1 2.995-2.996l6.01-.002h.001c.8 0 1.553.311 2.119.877s.878 1.318.878 2.119zm-2.997-8.006h-.002l-6.009.002a5.002 5.002 0 0 0 -4.995 4.996v3.01c0 1.336.521 2.592 1.466 3.536a4.962 4.962 0 0 0 3.105 1.443l2.724 2.724a.997.997 0 0 0 1.414 0l2.727-2.726a5.005 5.005 0 0 0 4.567-4.979v-3.01c0-1.335-.52-2.59-1.464-3.533a4.964 4.964 0 0 0 -3.533-1.463zm-6.003 7.003a1 1 0 1 0 0 2 1 1 0 0 0 0-2m3 0a1 1 0 1 0 0 2 1 1 0 0 0 0-2m3 0a1 1 0 1 0 0 2 1 1 0 0 0 0-2" fill="#c1cbd4" fill-rule="evenodd"/></svg>