<svg xmlns="http://www.w3.org/2000/svg" xmlns:xlink="http://www.w3.org/1999/xlink" viewBox="0 0 24 24"><defs><path id="hsds-chat.svg-32-a" d="M8.847 17.243c.156 0 .312.037.452.108.85.431 1.759.649 2.701.649 3.309 0 6-2.692 6-6 0-3.309-2.691-6-6-6-3.308 0-6 2.691-6 6 0 .918.209 1.809.622 2.646a1 1 0 0 1 .087.625l-.457 2.463 2.402-.472a.971.971 0 0 1 .193-.019M5 20a1 1 0 0 1-.983-1.183l.667-3.595A7.901 7.901 0 0 1 4 12c0-4.411 3.589-8 8-8s8 3.589 8 8-3.589 8-8 8a7.878 7.878 0 0 1-3.286-.712l-3.52.693A1.063 1.063 0 0 1 5 20"/></defs><g fill-rule="evenodd"><mask id="hsds-chat.svg-32-b"><use xlink:href="#hsds-chat.svg-32-a"/></mask><use xlink:href="#hsds-chat.svg-32-a"/><g mask="url(#hsds-chat.svg-32-b)"><rect/></g></g></svg>