<svg xmlns="http://www.w3.org/2000/svg" xmlns:xlink="http://www.w3.org/1999/xlink" viewBox="0 0 24 24"><defs><path id="hsds-checkbox-small.svg-38-a" d="M14.293 9.293L11 12.586l-1.293-1.293a.999.999 0 1 0-1.414 1.414l2 2a.997.997 0 0 0 1.414 0l4-4a.999.999 0 1 0-1.414-1.414M19 18a1 1 0 0 1-1 1H6a1 1 0 0 1-1-1V6a1 1 0 0 1 1-1h12a1 1 0 0 1 1 1v12zM18 3H6C4.346 3 3 4.346 3 6v12c0 1.654 1.346 3 3 3h12c1.654 0 3-1.346 3-3V6c0-1.654-1.346-3-3-3z"/></defs><g fill-rule="evenodd"><mask id="hsds-checkbox-small.svg-38-b"><use xlink:href="#hsds-checkbox-small.svg-38-a"/></mask><use xlink:href="#hsds-checkbox-small.svg-38-a"/><g mask="url(#hsds-checkbox-small.svg-38-b)"><rect/></g></g></svg>