<svg xmlns="http://www.w3.org/2000/svg" xmlns:xlink="http://www.w3.org/1999/xlink" viewBox="0 0 24 24"><defs><path id="hsds-checkbox-large.svg-37-a" d="M20 13a1 1 0 0 1 1 1v4c0 1.654-1.346 3-3 3H6c-1.654 0-3-1.346-3-3V6c0-1.654 1.346-3 3-3h9a1 1 0 1 1 0 2H6a1 1 0 0 0-1 1v12a1 1 0 0 0 1 1h12a1 1 0 0 0 1-1v-4a1 1 0 0 1 1-1zM8.707 10.293L12 13.586l7.293-7.293a.999.999 0 1 1 1.414 1.414l-8 8a.997.997 0 0 1-1.414 0l-4-4a.999.999 0 1 1 1.414-1.414z"/></defs><g fill-rule="evenodd"><mask id="hsds-checkbox-large.svg-37-b"><use xlink:href="#hsds-checkbox-large.svg-37-a"/></mask><use xlink:href="#hsds-checkbox-large.svg-37-a"/><g mask="url(#hsds-checkbox-large.svg-37-b)"><rect/></g></g></svg>