<svg xmlns="http://www.w3.org/2000/svg" xmlns:xlink="http://www.w3.org/1999/xlink" viewBox="0 0 24 24"><defs><path id="hsds-circle-arrow-down.svg-40-a" d="M14.293 11.293L13 12.586V9.5a1 1 0 1 0-2 0v3.086l-1.293-1.293a.999.999 0 1 0-1.414 1.414l3 3a.997.997 0 0 0 1.414 0l3-3a.999.999 0 1 0-1.414-1.414M12 19c-3.859 0-7-3.141-7-7s3.141-7 7-7 7 3.141 7 7-3.141 7-7 7m0-16c-4.963 0-9 4.037-9 9s4.037 9 9 9 9-4.037 9-9-4.037-9-9-9"/></defs><g fill-rule="evenodd"><mask id="hsds-circle-arrow-down.svg-40-b"><use xlink:href="#hsds-circle-arrow-down.svg-40-a"/></mask><use xlink:href="#hsds-circle-arrow-down.svg-40-a"/><g mask="url(#hsds-circle-arrow-down.svg-40-b)"><rect/></g></g></svg>