<svg xmlns="http://www.w3.org/2000/svg" xmlns:xlink="http://www.w3.org/1999/xlink" viewBox="0 0 24 24"><defs><path id="hsds-circle-cross.svg-43-a" d="M12 19c-3.86 0-7-3.141-7-7s3.14-7 7-7 7 3.141 7 7-3.14 7-7 7m0-16c4.962 0 9 4.037 9 9s-4.038 9-9 9-9-4.037-9-9 4.038-9 9-9zm3.207 5.793a.999.999 0 0 0-1.414 0L12 10.586l-1.793-1.793a.999.999 0 1 0-1.414 1.414L10.586 12l-1.793 1.793a.999.999 0 1 0 1.414 1.414L12 13.414l1.793 1.793a.997.997 0 0 0 1.414 0 .999.999 0 0 0 0-1.414L13.414 12l1.793-1.793a.999.999 0 0 0 0-1.414z"/></defs><g fill-rule="evenodd"><mask id="hsds-circle-cross.svg-43-b"><use xlink:href="#hsds-circle-cross.svg-43-a"/></mask><use xlink:href="#hsds-circle-cross.svg-43-a"/><g mask="url(#hsds-circle-cross.svg-43-b)"><rect/></g></g></svg>