<svg viewBox="0 0 24 24" fill="none" xmlns="http://www.w3.org/2000/svg">
  <path fill-rule="evenodd" clip-rule="evenodd"
    d="M7.56522 6.78261C7.56522 6.35039 7.21483 6 6.78261 6C6.35039 6 6 6.35039 6 6.78261V10.6957H10.0778C10.51 10.6957 10.8604 10.3453 10.8604 9.91304C10.8604 9.48082 10.51 9.13043 10.0778 9.13043H8.62025C9.0413 8.63439 9.56941 8.23391 10.1697 7.96172C11.0544 7.56063 12.0467 7.46044 12.9941 7.67666C13.9414 7.89287 14.7911 8.41343 15.4127 9.15798C16.0343 9.9025 16.3936 10.8299 16.4355 11.7975C16.4543 12.2293 16.8195 12.5642 17.2513 12.5455C17.6831 12.5267 18.018 12.1615 17.9993 11.7297C17.9424 10.4186 17.4557 9.16271 16.6142 8.15484C15.7728 7.147 14.6232 6.44301 13.3423 6.15068C12.0615 5.85835 10.7198 5.99375 9.52341 6.53618C8.77588 6.87511 8.11081 7.36128 7.56522 7.9603V6.78261ZM13.9222 13.3043C13.49 13.3043 13.1396 13.6547 13.1396 14.087C13.1396 14.5192 13.49 14.8696 13.9222 14.8696H15.3775C14.9593 15.3622 14.4355 15.7607 13.8401 16.0328C12.9595 16.4352 11.971 16.539 11.0256 16.3283C10.0802 16.1175 9.23023 15.6039 8.60532 14.8662C7.98043 14.1285 7.61487 13.2072 7.56416 12.2431C7.54145 11.8115 7.17314 11.48 6.74152 11.5027C6.30989 11.5254 5.97839 11.8937 6.0011 12.3253C6.06981 13.6315 6.56509 14.8792 7.411 15.8778C8.25687 16.8764 9.4068 17.5711 10.685 17.856C11.9632 18.1409 13.2998 18.0006 14.4907 17.4564C15.2327 17.1173 15.8928 16.6329 16.4348 16.0372V17.2174C16.4348 17.6496 16.7852 18 17.2174 18C17.6496 18 18 17.6496 18 17.2174V13.3043H13.9222Z"
    fill="#93A1B0" />
</svg>