<svg xmlns="http://www.w3.org/2000/svg" xmlns:xlink="http://www.w3.org/1999/xlink" viewBox="0 0 24 24"><defs><path id="hsds-clock.svg-47-a" d="M14 15a.997.997 0 0 1-.707-.293l-2-2A.997.997 0 0 1 11 12V8a1 1 0 1 1 2 0v3.586l1.707 1.707A.999.999 0 0 1 14 15m-2-9c-3.309 0-6 2.691-6 6s2.691 6 6 6 6-2.691 6-6-2.691-6-6-6m0 14c-4.411 0-8-3.589-8-8s3.589-8 8-8 8 3.589 8 8-3.589 8-8 8"/></defs><g fill-rule="evenodd"><mask id="hsds-clock.svg-47-b"><use xlink:href="#hsds-clock.svg-47-a"/></mask><use xlink:href="#hsds-clock.svg-47-a"/><g mask="url(#hsds-clock.svg-47-b)"><rect/></g></g></svg>