<svg xmlns="http://www.w3.org/2000/svg" xmlns:xlink="http://www.w3.org/1999/xlink" viewBox="0 0 24 24"><defs><path id="hsds-clock-small.svg-48-a" d="M12.5 18a5.5 5.5 0 1 1 0-11 5.5 5.5 0 0 1 0 11zm0-1a4.5 4.5 0 1 0 0-9 4.5 4.5 0 0 0 0 9zm.5-4.83c.022.017-.02.037 0 .058l.848.813a.596.596 0 0 1 0 .794.49.49 0 0 1-.733 0l-.749-.812c-.2-.217-.366-.366-.366-.765v-2.113c0-.31.232-.562.518-.562.286 0 .482.252.482.562v2.025z"/></defs><g fill-rule="evenodd"><mask id="hsds-clock-small.svg-48-b"><use xlink:href="#hsds-clock-small.svg-48-a"/></mask><use xlink:href="#hsds-clock-small.svg-48-a"/><g mask="url(#hsds-clock-small.svg-48-b)"><rect transform="translate(2 2)"/></g></g></svg>