<svg xmlns="http://www.w3.org/2000/svg" xmlns:xlink="http://www.w3.org/1999/xlink" viewBox="0 0 24 24"><defs><path id="hsds-closed.svg-50-a" d="M6 7c0-.551.448-1 1-1h10c.552 0 1 .449 1 1v1.063a1 1 0 0 1-1 1H7a1 1 0 0 1-1-1V7zm11 10c0 .551-.448 1-1 1H8c-.552 0-1-.449-1-1v-5.937h10V17zM5 10.283V17c0 1.654 1.346 3 3 3h8c1.654 0 3-1.346 3-3v-6.717c.609-.549 1-1.336 1-2.22V7c0-1.654-1.346-3-3-3H7C5.346 4 4 5.346 4 7v1.063c0 .884.391 1.671 1 2.22zm5 4.78h4a1 1 0 1 0 0-2h-4a1 1 0 1 0 0 2"/></defs><g fill-rule="evenodd"><mask id="hsds-closed.svg-50-b"><use xlink:href="#hsds-closed.svg-50-a"/></mask><use xlink:href="#hsds-closed.svg-50-a"/><g mask="url(#hsds-closed.svg-50-b)"><rect/></g></g></svg>