<svg xmlns="http://www.w3.org/2000/svg" viewBox="0 0 24 24"><path fill-rule="evenodd" d="M6 11.68c0-.13.105-.235.235-.235.73 0 1.375-.437 1.677-1.188a1.764 1.764 0 0 0-.381-1.94.236.236 0 0 1-.001-.333l.453-.453a.236.236 0 0 1 .333 0c.511.512 1.276.66 2.016.35a1.762 1.762 0 0 0 1.112-1.645c0-.13.106-.236.236-.236h.64c.13 0 .236.106.236.236 0 .729.436 1.375 1.187 1.676a1.765 1.765 0 0 0 1.941-.381.235.235 0 0 1 .333 0l.452.453a.236.236 0 0 1 .002.332c-.514.512-.664 1.274-.352 2.017a1.764 1.764 0 0 0 1.646 1.112c.13 0 .235.105.235.235v.641c0 .13-.105.235-.235.235-.73 0-1.375.436-1.676 1.187a1.761 1.761 0 0 0 .38 1.94.238.238 0 0 1 .001.334l-.452.452a.236.236 0 0 1-.332.003c-.514-.515-1.276-.665-2.018-.353a1.763 1.763 0 0 0-1.112 1.646c0 .13-.106.235-.236.235h-.64a.236.236 0 0 1-.236-.235c0-.73-.436-1.375-1.187-1.676a1.764 1.764 0 0 0-1.94.38.237.237 0 0 1-.334.001l-.452-.452a.237.237 0 0 1-.003-.332c.515-.513.665-1.276.353-2.018a1.763 1.763 0 0 0-1.646-1.112.235.235 0 0 1-.235-.235v-.641zm-2 .641v-.641c0-1.116.822-2.044 1.894-2.209a2.24 2.24 0 0 1 .221-2.9l.454-.454a2.24 2.24 0 0 1 2.902-.223A2.238 2.238 0 0 1 11.68 4h.64c1.117 0 2.044.823 2.209 1.894a2.237 2.237 0 0 1 2.902.223l.453.453c.788.79.862 2.027.222 2.901A2.238 2.238 0 0 1 20 11.68v.641a2.238 2.238 0 0 1-1.894 2.209 2.24 2.24 0 0 1-.221 2.9l-.454.454a2.241 2.241 0 0 1-2.902.223A2.238 2.238 0 0 1 12.32 20h-.64a2.238 2.238 0 0 1-2.209-1.893 2.243 2.243 0 0 1-2.901-.222l-.454-.454a2.241 2.241 0 0 1-.222-2.901A2.238 2.238 0 0 1 4 12.321zm8 2.68c1.654 0 3-1.347 3-3 0-1.655-1.346-3-3-3s-3 1.345-3 3c0 1.653 1.346 3 3 3zm0-4a1.001 1.001 0 0 1 0 2 1.001 1.001 0 0 1 0-2z"/></svg>