<svg viewBox="0 0 24 24" fill="none" xmlns="http://www.w3.org/2000/svg">
  <path fill-rule="evenodd" clip-rule="evenodd" d="M 2.574 4.37 C 1.582 4.37 0.778 5.173 0.778 6.166 L 0.778 16.039 C 0.778 17.031 1.582 17.835 2.574 17.835 L 13.346 17.835 L 13.346 16.039 L 13.346 13.347 L 13.346 6.166 L 16.937 6.166 L 16.937 13.347 C 16.937 13.842 17.338 14.244 17.834 14.244 C 18.33 14.244 18.733 13.842 18.733 13.347 L 18.733 6.166 C 18.733 5.173 17.927 4.37 16.937 4.37 L 2.574 4.37 Z M 7.96 6.166 L 11.551 6.166 L 11.551 16.039 L 7.96 16.039 L 7.96 6.166 Z M 6.165 6.166 L 6.165 16.039 L 2.574 16.039 L 2.574 6.166 L 6.165 6.166 Z M 17.2 19.368 C 17.375 19.543 17.605 19.631 17.834 19.631 C 18.064 19.631 18.295 19.543 18.469 19.368 L 22.959 14.878 C 23.309 14.528 23.309 13.962 22.959 13.609 C 22.606 13.259 22.04 13.259 21.689 13.609 L 17.834 17.464 L 16.674 16.303 C 16.323 15.951 15.756 15.951 15.405 16.303 C 15.054 16.654 15.054 17.221 15.405 17.573 L 17.2 19.368 Z" fill="#93A1B0" style=""></path>
</svg>