<svg viewBox="0 0 24 24" fill="none" xmlns="http://www.w3.org/2000/svg">
  <path fill-rule="evenodd" clip-rule="evenodd" d="M18 4C18.5523 4 19 4.44772 19 5V7H21C21.5523 7 22 7.44772 22 8C22 8.55228 21.5523 9 21 9H19V11C19 11.5523 18.5523 12 18 12C17.4477 12 17 11.5523 17 11V9H15C14.4477 9 14 8.55228 14 8C14 7.44772 14.4477 7 15 7H17V5C17 4.44772 17.4477 4 18 4ZM3 8C3 6.89543 3.89543 6 5 6H12V9V14V17H17V14H19V17C19 18.1046 18.1046 19 17 19H5C3.89543 19 3 18.1046 3 17V8ZM10 9H5V17H10V9Z" fill="#405261"></path>
</svg>
