<svg xmlns="http://www.w3.org/2000/svg" xmlns:xlink="http://www.w3.org/1999/xlink" viewBox="0 0 24 24"><defs><path id="hsds-compose.svg-52-a" d="M20 13.004a1 1 0 0 1 1 1v4c0 1.654-1.346 3-3 3h-8a1 1 0 0 1 0-2h8c.551 0 1-.449 1-1v-4a1 1 0 0 1 1-1zm-15 1a1 1 0 0 1-2 0v-8c0-1.654 1.346-3 3-3h2a1 1 0 0 1 0 2H6c-.551 0-1 .45-1 1v8zm11.64.31c-2.095 1.745-4.566 2.692-6.89 2.692-.418 0-.828-.043-1.232-.105l-2.811 2.81a.996.996 0 0 1-1.414 0 1 1 0 0 1 0-1.414l2.82-2.82c-.462-3.016.78-6.407 3.367-8.993 2.75-2.752 6.418-4.01 9.57-3.28a.998.998 0 0 1 .75.75c.468 2.023.099 4.337-1.038 6.513-.173.33-.514.537-.887.537H17v2.542a.998.998 0 0 1-.36.769zm-4.746-6.416C9.852 9.94 8.776 12.645 9.04 14.965c1.902.21 4.1-.484 5.96-1.901v-3.06a1 1 0 0 1 1-1h2.25c.605-1.35.85-2.72.71-3.96-2.32-.263-5.023.812-7.066 2.854z"/></defs><g fill-rule="evenodd"><mask id="hsds-compose.svg-52-b"><use xlink:href="#hsds-compose.svg-52-a"/></mask><use xlink:href="#hsds-compose.svg-52-a"/><g mask="url(#hsds-compose.svg-52-b)"><rect/></g></g></svg>