<svg width="24" height="24" viewBox="0 0 24 24" fill="none" xmlns="http://www.w3.org/2000/svg">
<path fill-rule="evenodd" clip-rule="evenodd" d="M6 8C6 6.89543 6.89543 6 8 6H13C14.1046 6 15 6.89543 15 8H14C14 7.44772 13.5523 7 13 7H8C7.44772 7 7 7.44772 7 8V13C7 13.5523 7.44772 14 8 14V15C6.89543 15 6 14.1046 6 13V8Z" fill="#93A1B0"/>
<path fill-rule="evenodd" clip-rule="evenodd" d="M11 9H16C17.1046 9 18 9.89543 18 11V16C18 17.1046 17.1046 18 16 18H11C9.89543 18 9 17.1046 9 16V11C9 9.89543 9.89543 9 11 9ZM11 10C10.4477 10 10 10.4477 10 11V16C10 16.5523 10.4477 17 11 17H16C16.5523 17 17 16.5523 17 16V11C17 10.4477 16.5523 10 16 10H11Z" fill="#93A1B0"/>
</svg>
