<svg xmlns="http://www.w3.org/2000/svg" xmlns:xlink="http://www.w3.org/1999/xlink" viewBox="0 0 24 24"><defs><path id="hsds-copy.svg-53-a" d="M18 17h2a1 1 0 0 1 0 2h-2v2a1 1 0 0 1-2 0v-2h-2a1 1 0 0 1 0-2h2v-2a1 1 0 0 1 2 0v2zm2-4.197a5.96 5.96 0 0 0-2-.72V8a1 1 0 0 0-1-1h-7a1 1 0 0 0-1 1v10a1 1 0 0 0 1 1h1.083a5.96 5.96 0 0 0 .72 2H10a3 3 0 0 1-3-3V8a3 3 0 0 1 3-3h7a3 3 0 0 1 3 3v4.803zm-2.513-8.764A3.021 3.021 0 0 0 17 4H8a2 2 0 0 0-2 2v12c0 .166.013.329.04.487A3.999 3.999 0 0 1 4 15V6a4 4 0 0 1 4-4h6c1.497 0 2.802.822 3.487 2.04z"/></defs><g fill-rule="evenodd"><mask id="hsds-copy.svg-53-b"><use xlink:href="#hsds-copy.svg-53-a"/></mask><use fill-rule="nonzero" xlink:href="#hsds-copy.svg-53-a"/><g mask="url(#hsds-copy.svg-53-b)"><rect/></g></g></svg>