<svg xmlns="http://www.w3.org/2000/svg" xmlns:xlink="http://www.w3.org/1999/xlink" viewBox="0 0 24 24"><defs><path id="hsds-dashboard.svg-59-a" d="M13.897 15.44h-.009c.056.183.094.374.094.575a1.982 1.982 0 1 1-3.964 0c0-.206.04-.401.098-.588h-.012l1.409-4.081h.003a.51.51 0 0 1 .482-.35c.229 0 .417.153.483.36h.006l1.41 4.084zM12 6c4.942 0 8.979 4.032 9 8.986a1 1 0 0 1-1 1.009h-1.984c-.553 0-1-.45-1-1.004s.447-1.004 1-1.004h.907a6.967 6.967 0 0 0-1.351-3.191l-.892.92a.994.994 0 0 1-1.414-.022 1.006 1.006 0 0 1 .023-1.42l.862-.891c-.927-.688-1.956-1.154-3.151-1.314v.943c0 .554-.448 1.003-1 1.003s-1-.45-1-1.003v-.923c-1.165.182-2.309.658-3.211 1.342l.901.822a1.005 1.005 0 0 1-.685 1.735.994.994 0 0 1-.684-.272l-.94-.858a7 7 0 0 0-1.304 3.129h.907c.553 0 1 .45 1 1.004s-.447 1.004-1 1.004H4a1.006 1.006 0 0 1-1-1.009C3.021 10.032 7.058 6 12 6z"/></defs><g fill-rule="evenodd"><mask id="hsds-dashboard.svg-59-b"><use xlink:href="#hsds-dashboard.svg-59-a"/></mask><use xlink:href="#hsds-dashboard.svg-59-a"/><g mask="url(#hsds-dashboard.svg-59-b)"><rect/></g></g></svg>