<svg xmlns="http://www.w3.org/2000/svg" xmlns:xlink="http://www.w3.org/1999/xlink" viewBox="0 0 24 24"><defs><path id="hsds-document.svg-62-a" d="M17 18c0 .552-.449 1-1 1H8c-.551 0-1-.448-1-1V6c0-.552.449-1 1-1h4v2c0 1.654 1.346 3 3 3h2v8zM14 5.414L16.586 8H15c-.551 0-1-.448-1-1V5.414zm4.121 1.293l-2.828-2.828A2.978 2.978 0 0 0 13.171 3H8C6.346 3 5 4.346 5 6v12c0 1.654 1.346 3 3 3h8c1.654 0 3-1.346 3-3V8.828c0-.801-.312-1.555-.879-2.121z"/></defs><g fill-rule="evenodd"><mask id="hsds-document.svg-62-b"><use xlink:href="#hsds-document.svg-62-a"/></mask><use xlink:href="#hsds-document.svg-62-a"/><g mask="url(#hsds-document.svg-62-b)"><rect/></g></g></svg>