<svg xmlns="http://www.w3.org/2000/svg" viewBox="0 0 24 24"><path fill-rule="evenodd" d="M11 5.414L13.586 8H12c-.551 0-1-.448-1-1V5.414zM14 19a1 1 0 1 1 0 2H6c-1.654 0-3-1.346-3-3V6c0-1.654 1.346-3 3-3h4.171c.802 0 1.556.312 2.122.879l2.828 2.828c.567.566.879 1.32.879 2.121V9a1 1 0 0 1-1 1h-3c-1.654 0-3-1.346-3-3V5H6c-.551 0-1 .448-1 1v12c0 .552.449 1 1 1h8zm6.707-4.707a.999.999 0 0 1 0 1.414l-3 3a.997.997 0 0 1-1.414 0 .999.999 0 0 1 0-1.414L17.586 16H10a1 1 0 1 1 0-2h7.586l-1.293-1.293a.999.999 0 1 1 1.414-1.414l3 3z"/></svg>