<svg xmlns="http://www.w3.org/2000/svg" xmlns:xlink="http://www.w3.org/1999/xlink" viewBox="0 0 24 24"><defs><path id="hsds-document-in.svg-64-a" d="M17 8c-.551 0-1-.448-1-1V5.414L18.586 8H17zm3.121-1.293c.567.566.879 1.32.879 2.121V18c0 1.654-1.346 3-3 3h-7a3.001 3.001 0 0 1-3-3 1 1 0 1 1 2 0 .995.995 0 0 0 1 1h7c.551 0 1-.448 1-1v-8h-2c-1.654 0-3-1.346-3-3V5h-3a.997.997 0 0 0-1 1 1 1 0 1 1-2 0 2.993 2.993 0 0 1 3-3h4.171c.802 0 1.556.313 2.122.879l2.828 2.828zM8.293 14.293L9.586 13H4a1 1 0 1 1 0-2h5.586L8.293 9.707a.999.999 0 1 1 1.414-1.414l3 3a.999.999 0 0 1 0 1.414l-3 3a.997.997 0 0 1-1.414 0 .999.999 0 0 1 0-1.414z"/></defs><g fill-rule="evenodd"><mask id="hsds-document-in.svg-64-b"><use xlink:href="#hsds-document-in.svg-64-a"/></mask><use xlink:href="#hsds-document-in.svg-64-a"/><g mask="url(#hsds-document-in.svg-64-b)"><rect/></g></g></svg>