<svg xmlns="http://www.w3.org/2000/svg" viewBox="0 0 24 24"><path fill-rule="evenodd" d="M6 11.028c0-.554.449-1.004 1-1.004h1v2.948a3.01 3.01 0 0 0 3 3.012h3.122v1.004c0 .553-.449 1.004-1 1.004H7c-.551 0-1-.45-1-1.004v-5.96zm4-4.016c0-.553.449-1.004 1-1.004h2V9.96c0 .555.448 1.004 1 1.004h4v2.008c0 .554-.449 1.004-1 1.004h-6c-.551 0-1-.45-1-1.004v-5.96zm7.574 1.945H15V6.412l2.574 2.545zM7 20h6.122c1.654 0 3-1.351 3-3.012v-1.004H17c1.654 0 3-1.351 3-3.012V9.376c0-.535-.218-1.057-.597-1.43l-3.409-3.369A1.985 1.985 0 0 0 14.59 4H11a3.01 3.01 0 0 0-3 3.012v1.004H7a3.01 3.01 0 0 0-3 3.012v5.96A3.01 3.01 0 0 0 7 20z"/></svg>