<svg height="24" viewBox="0 0 24 24" width="24" xmlns="http://www.w3.org/2000/svg"><path d="m16 19c.552 0 1 .447 1 1s-.448 1-1 1h-10c-1.654 0-3-1.346-3-3v-9c0-.553.448-1 1-1s1 .447 1 1v9c0 .552.449 1 1 1zm2-16c1.654 0 3 1.346 3 3v8c0 1.654-1.346 3-3 3h-8c-1.654 0-3-1.346-3-3v-8c0-1.654 1.346-3 3-3zm1 11v-8c0-.552-.449-1-1-1h-8c-.551 0-1 .448-1 1v8c0 .552.449 1 1 1h8c.551 0 1-.448 1-1zm-2-5c.552 0 1 .447 1 1s-.448 1-1 1h-2v2c0 .553-.448 1-1 1s-1-.447-1-1v-2h-2c-.552 0-1-.447-1-1s.448-1 1-1h2v-2c0-.553.448-1 1-1s1 .447 1 1v2z" fill="#c1cbd4" fill-rule="evenodd"/></svg>