<svg xmlns="http://www.w3.org/2000/svg" xmlns:xlink="http://www.w3.org/1999/xlink" viewBox="0 0 24 24"><defs><path id="hsds-duplicate.svg-66-a" d="M16 19a1 1 0 1 1 0 2H6c-1.654 0-3-1.346-3-3V9a1 1 0 1 1 2 0v9c0 .552.449 1 1 1h10zm2-16c1.654 0 3 1.346 3 3v8c0 1.654-1.346 3-3 3h-8c-1.654 0-3-1.346-3-3V6c0-1.654 1.346-3 3-3h8zm1 11V6c0-.552-.449-1-1-1h-8c-.551 0-1 .448-1 1v8c0 .552.449 1 1 1h8c.551 0 1-.448 1-1zm-2-5a1 1 0 1 1 0 2h-2v2a1 1 0 1 1-2 0v-2h-2a1 1 0 1 1 0-2h2V7a1 1 0 1 1 2 0v2h2z"/></defs><g fill-rule="evenodd"><mask id="hsds-duplicate.svg-66-b"><use xlink:href="#hsds-duplicate.svg-66-a"/></mask><use xlink:href="#hsds-duplicate.svg-66-a"/><g mask="url(#hsds-duplicate.svg-66-b)"><rect/></g></g></svg>