<svg xmlns="http://www.w3.org/2000/svg" xmlns:xlink="http://www.w3.org/1999/xlink" viewBox="0 0 24 24"><defs><path id="hsds-ellipsis-small.svg-67-a" d="M15 16H9c-2.206 0-4-1.794-4-4s1.794-4 4-4h6c2.206 0 4 1.794 4 4s-1.794 4-4 4zm-6-6c-1.103 0-2 .897-2 2s.897 2 2 2h6c1.103 0 2-.897 2-2s-.897-2-2-2H9zm6 3a1 1 0 1 1 0-2 1 1 0 0 1 0 2zm-3 0a1 1 0 1 1 0-2 1 1 0 0 1 0 2zm-3 0a1 1 0 1 1 0-2 1 1 0 0 1 0 2z"/></defs><g fill-rule="evenodd"><mask id="hsds-ellipsis-small.svg-67-b"><use xlink:href="#hsds-ellipsis-small.svg-67-a"/></mask><use xlink:href="#hsds-ellipsis-small.svg-67-a"/><g mask="url(#hsds-ellipsis-small.svg-67-b)"><rect/></g></g></svg>