<svg height="20" viewBox="0 0 20 20" width="20" xmlns="http://www.w3.org/2000/svg"><path d="m13.452 5.065-.006.003a.305.305 0 0 1 -.073.047 31.809 31.809 0 0 0 -8.48 7.786c-.4.53-.744 1.033-1.08 1.555-.328.416-.723.241-.821.03-.118-.258-.11-.835.152-1.217a33.217 33.217 0 0 1 9.863-8.767.292.292 0 0 1 .093-.052.325.325 0 0 1 .125-.026c.199 0 .357.161.357.362 0 .111-.05.212-.13.28m6.385-3.717a.82.82 0 0 0 -.789-.343 30.65 30.65 0 0 0 -3.467.357 30.72 30.72 0 0 0 -8.166 2.507c-3.3 1.765-5.55 5.293-5.55 9.353 0 .172.005.343.012.514.016.11.024.226.024.343v.015a2.58 2.58 0 0 1 -.343 1.274c-.017.035-.039.067-.06.1-.02.034-.044.068-.07.103a33.765 33.765 0 0 0 -1.308 2.26c-.002 0-.002.002-.002.002l-.049.091a.755.755 0 0 0 .598 1.07.733.733 0 0 0 .717-.371l.056-.117a38.102 38.102 0 0 1 .876-1.711.97.97 0 0 1 .082-.152l.003-.005a.93.93 0 0 1 .136-.169 1.106 1.106 0 0 1 1.204-.251c.846.228 1.664.46 2.58.46.156 0 .31-.002.464-.01 4.473-.2 8.209-3.287 9.457-7.477.046-.18.092-.36.145-.538a16.318 16.318 0 0 1 3.337-6.173l.12-.138a.841.841 0 0 0 .156-.493v-.008a.859.859 0 0 0 -.163-.493" fill="#c1cbd4" fill-rule="evenodd"/></svg>