<svg width="20" height="20" viewBox="0 0 20 20" xmlns="http://www.w3.org/2000/svg"><title>Emoji - Travel &amp; Places</title><path d="M11.526 17.149a.311.311 0 0 0-.112.022c-.054.01-.109.021-.164.03-.425.011-.6-.562-.574-.897v.001a4.7 4.7 0 0 1 .38-1.345c.65-1.474 2.818-2.434 1.3-3.69-1.516-1.258-4.16.14-4.681-1.063-.684-1.571.884-2.246 1.451-1.723.566.518.808.86 1.095.758.386-.134.039-.562-.01-1.084-.087-.91.131-1.108 1.29-1.842.857-.543.732-1.41.346-1.885-.352-.433-1.199-.45-1.847-.174-.873.371-1.306-.078-1.431-.647a1.505 1.505 0 0 1-.032-.218.679.679 0 0 1 .613-.651 7.312 7.312 0 0 1 7.625 4.514c.2.774-.213 1.705-1.47 1.923-1.256.216-.91 1.257.174 1.82 1.083.564 1.42 1.42 1.184 2.01a7.324 7.324 0 0 1-5.137 4.14M2.691 10a7.31 7.31 0 0 1 4.307-6.665c.281-.12.653-.07.506.307-.607 1.147-2.297 1.198-2.431 3.107-.074 1.051.216 2.211 1.582 3.643.71.742.27 1.916.889 3.804.384 1.169.809 1.835 1.277 2.356.317.326.235.724-.235.619l-.013-.003-.065-.012A7.311 7.311 0 0 1 2.691 10M10 1a9 9 0 1 0 0 18 9 9 0 0 0 0-18" fill="#C1CBD4" fill-rule="evenodd"/></svg>