<svg width="20" height="20" viewBox="0 0 20 20" xmlns="http://www.w3.org/2000/svg"><title>Emoji - Objects</title><path d="M14 15.304c0 .026-.002.05-.005.075-.04.348-.367.62-.762.62H6.769c-.425 0-.767-.311-.767-.695H6V4.694h.002c0-.344.275-.628.636-.684a.78.78 0 0 1 .262 0h6.202a.787.787 0 0 1 .262 0c.335.052.595.3.631.609a.595.595 0 0 1 0 .149v10.46c.003.026.005.05.005.076m-3.998 3.007c-.544 0-.986-.373-.986-.835 0-.461.442-.835.986-.835.542 0 .982.374.982.835 0 .462-.44.835-.982.835M8.886 2h2.17v.003c.245 0 .444.224.444.5 0 .254-.169.465-.386.497h-2.17v-.004c-.245 0-.444-.224-.444-.5 0-.255.169-.466.386-.496m5.57-1H5.543C4.69 1 4 1.587 4 2.311v15.377C4 18.412 4.69 19 5.543 19h8.913C15.31 19 16 18.412 16 17.688V2.311C16 1.587 15.31 1 14.456 1" fill="#C1CBD4" fill-rule="evenodd"/></svg>