<svg width="20" height="20" viewBox="0 0 20 20" xmlns="http://www.w3.org/2000/svg"><title>Emoji</title><path d="M10 17c-3.859 0-7-3.141-7-7s3.141-7 7-7c3.86 0 7 3.141 7 7s-3.14 7-7 7m0-16c-4.962 0-9 4.037-9 9s4.038 9 9 9c4.963 0 9-4.037 9-9s-4.037-9-9-9M7.5 9a1.501 1.501 0 0 0 0-3 1.501 1.501 0 0 0 0 3m5-3A1.501 1.501 0 1 0 14 7.5c0-.826-.673-1.5-1.5-1.5m.804 5.059c-.547-.186-1.146.086-1.339.607C11.666 12.465 10.877 13 10 13s-1.666-.535-1.964-1.334c-.195-.521-.795-.793-1.34-.607-.545.186-.83.758-.635 1.277C6.655 13.93 8.238 15 10 15c1.76 0 3.344-1.07 3.939-2.664.195-.52-.09-1.091-.635-1.277" fill="#C1CBD4" fill-rule="evenodd"/></svg>