<svg width="20" height="20" viewBox="0 0 20 20" xmlns="http://www.w3.org/2000/svg"><title>Emoji - Food &amp; Drink</title><path d="M14.262 9.046v.023h-.001c.051 1.34.143 3.68.229 5.619a194.33 194.33 0 0 0 .152 3.113 1.18 1.18 0 0 1-.327.826c-.209.224-.497.37-.807.373h-.017a1.126 1.126 0 0 1-.807-.373 1.176 1.176 0 0 1-.327-.826l.002-.039c.037-.57.093-1.738.15-3.074.087-1.938.177-4.278.23-5.62h-.001v-.022a.465.465 0 0 0-.006-.076.448.448 0 0 0-.268-.346 2.393 2.393 0 0 1-.586-.423C11.392 7.726 11 6.805 11 6.043 11 3.466 12.104 1 13.5 1S16 3.466 16 6.043c0 .762-.392 1.683-.878 2.158-.174.17-.372.313-.587.423l-.003.002a.448.448 0 0 0-.27.42zM8.47 1.306v.002c.347 1.63.53 3.324.53 5.063A2.595 2.595 0 0 1 7.573 8.71h-.004a.45.45 0 0 0-.28.442c.053 1.337.148 3.622.236 5.552.061 1.332.119 2.495.157 3.064 0 .013.002.025.001.039.009.304-.124.6-.34.822a1.186 1.186 0 0 1-.835.372h-.016a1.19 1.19 0 0 1-.836-.372 1.15 1.15 0 0 1-.34-.822c0-.014 0-.026.002-.039.038-.569.095-1.732.156-3.064.088-1.93.183-4.215.237-5.551H5.71v-.024a.449.449 0 0 0-.225-.392A2.593 2.593 0 0 1 4 6.372c-.001-1.738.181-3.432.529-5.062l.011-.052v-.004A.352.352 0 0 1 4.877 1c.19 0 .345.158.35.353l-.005.067c-.017.27-.08 1.322-.11 2.798-.008.45-.013.94-.013 1.459 0 .248.195.449.435.449a.44.44 0 0 0 .432-.404v-.004a.37.37 0 0 0 .002-.04v-.001l.083-1.852.11-2.473c0-.195.152-.352.34-.352.187 0 .34.157.34.352l.11 2.473.083 1.846v.006c0 .016 0 .033.002.048a.438.438 0 0 0 .43.399.44.44 0 0 0 .431-.447c0-.523-.003-1.012-.012-1.46a65.604 65.604 0 0 0-.105-2.797l-.004-.067A.354.354 0 0 1 8.124 1a.351.351 0 0 1 .346.307z" fill="#C1CBD4" fill-rule="evenodd"/></svg>