<svg xmlns="http://www.w3.org/2000/svg" viewBox="0 0 24 24"><path fill-rule="evenodd" d="M18 16.04c0 1.092-.897 1.98-2 1.98H8c-1.103 0-2-.888-2-1.98v-3.786l3.375 2.903a4.015 4.015 0 0 0 2.623.965c.939 0 1.878-.323 2.627-.968L18 12.246v3.795zM7 9.113h10v1.37l-3.688 3.18a2.024 2.024 0 0 1-2.626 0L7 10.492v-1.38zm3.75-2.693a2.007 2.007 0 0 1 2.5 0l.899.713H9.85l.9-.713zm8.915 3.004L19 8.838v-.716a.995.995 0 0 0-1-.99h-.649l-2.852-2.258a4.01 4.01 0 0 0-4.998 0L6.649 7.131H6c-.552 0-1 .444-1 .99v.716l-.665.585a.988.988 0 0 0-.335.74v5.878C4 18.224 5.794 20 8 20h8c2.206 0 4-1.776 4-3.96v-5.877a.988.988 0 0 0-.335-.74z"/></svg>