<svg viewBox="0 0 24 24" fill="none" xmlns="http://www.w3.org/2000/svg">
<mask id="path-1-inside-1_11672_51055" fill="white">
<path fill-rule="evenodd" clip-rule="evenodd" d="M13.7437 5.24557C12.7006 4.5005 11.2994 4.5005 10.2563 5.24557L6.25629 8.10271C5.4679 8.66584 5 9.57506 5 10.5439V12.0001V15.0001C5 16.6569 6.34315 18.0001 8 18.0001H16C17.6569 18.0001 19 16.6569 19 15.0001V12.0001V10.5439C19 9.57506 18.5321 8.66584 17.7437 8.10271L13.7437 5.24557Z"/>
</mask>
<path d="M6.25629 8.10271L5.38443 6.88211L6.25629 8.10271ZM7.12814 9.32331L11.1281 6.46617L9.38443 4.02497L5.38443 6.88211L7.12814 9.32331ZM6.5 12.0001V10.5439H3.5V12.0001H6.5ZM6.5 15.0001V12.0001H3.5V15.0001H6.5ZM16 16.5001H8V19.5001H16V16.5001ZM17.5 12.0001V15.0001H20.5V12.0001H17.5ZM17.5 10.5439V12.0001H20.5V10.5439H17.5ZM12.8719 6.46617L16.8719 9.32331L18.6156 6.88211L14.6156 4.02497L12.8719 6.46617ZM16 19.5001C18.4853 19.5001 20.5 17.4853 20.5 15.0001H17.5C17.5 15.8285 16.8284 16.5001 16 16.5001V19.5001ZM3.5 15.0001C3.5 17.4853 5.51472 19.5001 8 19.5001V16.5001C7.17157 16.5001 6.5 15.8285 6.5 15.0001H3.5ZM20.5 10.5439C20.5 9.09063 19.7982 7.72681 18.6156 6.88211L16.8719 9.32331C17.2661 9.60488 17.5 10.0595 17.5 10.5439H20.5ZM11.1281 6.46617C11.6497 6.09363 12.3503 6.09363 12.8719 6.46617L14.6156 4.02497C13.0509 2.90737 10.9491 2.90737 9.38443 4.02497L11.1281 6.46617ZM5.38443 6.88211C4.20185 7.72681 3.5 9.09063 3.5 10.5439H6.5C6.5 10.0595 6.73395 9.60488 7.12814 9.32331L5.38443 6.88211Z" fill="#748494" mask="url(#path-1-inside-1_11672_51055)"/>
<path d="M16 11L12 14L8 11" stroke="#748494" stroke-width="1.5" stroke-linejoin="round"/>
</svg>
