<svg viewBox="0 0 14 14" fill="none" xmlns="http://www.w3.org/2000/svg">
<path fill-rule="evenodd" clip-rule="evenodd" d="M2.12814 5.32331L6.12814 2.46617C6.64969 2.09363 7.35031 2.09363 7.87186 2.46617L11.8719 5.32331C12.2661 5.60488 12.5 6.05948 12.5 6.54391V11.0001C12.5 11.8285 11.8284 12.5001 11 12.5001H3C2.17157 12.5001 1.5 11.8285 1.5 11.0001V6.54391C1.5 6.05948 1.73395 5.60488 2.12814 5.32331ZM8.74371 1.24557C7.70062 0.500501 6.29938 0.500501 5.25629 1.24557L1.25629 4.10271C0.467897 4.66584 0 5.57506 0 6.54391V11.0001C0 12.6569 1.34315 14.0001 3 14.0001H11C12.6569 14.0001 14 12.6569 14 11.0001V6.54391C14 5.57506 13.5321 4.66584 12.7437 4.10271L8.74371 1.24557ZM6.5502 10.6C6.81686 10.8 7.18353 10.8 7.4502 10.6L11.4502 7.6L10.5502 6.4L7.0002 9.0625L3.4502 6.4L2.5502 7.6L6.5502 10.6Z" fill="#748494"/>
</svg>
