<svg viewBox="0 0 24 24" fill="none" xmlns="http://www.w3.org/2000/svg">
  <path fill-rule="evenodd" clip-rule="evenodd"
    d="M16 6C16.56 6 17.07 6.13 17.53 6.39C17.99 6.65 18.35 7.01 18.61 7.47C18.87 7.93 19 8.44 19 9V15C19 15.56 18.87 16.07 18.61 16.53C18.35 16.99 17.99 17.35 17.53 17.61C17.07 17.87 16.56 18 16 18H8C7.44 18 6.93 17.87 6.47 17.61C6.01 17.35 5.65 16.99 5.39 16.53C5.13 16.07 5 15.56 5 15V9C5 8.44 5.13 7.93 5.39 7.47C5.65 7.01 6.01 6.65 6.47 6.39C6.93 6.13 7.44 6 8 6H16ZM16 8H8C7.92 8 7.82333 8.01667 7.71 8.05C7.59667 8.08333 7.52667 8.1 7.5 8.1C7.5 8.14 7.52 8.16667 7.56 8.18L7.6 8.2L12 11.7L16.4 8.3C16.4 8.26 16.42 8.23333 16.46 8.22L16.5 8.2C16.4467 8.14667 16.3733 8.1 16.28 8.06C16.1867 8.02 16.0933 8 16 8ZM16 16C16.2933 16 16.5333 15.91 16.72 15.73C16.9067 15.55 17 15.3067 17 15V10.3L12.6 13.8C12.3333 13.9333 12.1333 14 12 14C11.8667 14 11.6667 13.9333 11.4 13.8L7 10.3V15C7 15.2933 7.09333 15.5333 7.28 15.72C7.46667 15.9067 7.70667 16 8 16H16Z"
    fill="#93A1B0" />
</svg>