<svg xmlns="http://www.w3.org/2000/svg" viewBox="0 0 24 24"><path fill-rule="evenodd" d="M16 6c.56 0 1.07.13 1.53.39.46.26.82.62 1.08 1.08.26.46.39.97.39 1.53v6c0 .56-.13 1.07-.39 1.53-.26.46-.62.82-1.08 1.08-.46.26-.97.39-1.53.39H8c-.56 0-1.07-.13-1.53-.39-.46-.26-.82-.62-1.08-1.08C5.13 16.07 5 15.56 5 15V9c0-.56.13-1.07.39-1.53.26-.46.62-.82 1.08-1.08C6.93 6.13 7.44 6 8 6h8zm0 2H8c-.08 0-.177.017-.29.05-.113.033-.183.05-.21.05 0 .04.02.067.06.08l.04.02 4.4 3.5 4.4-3.4c0-.04.02-.067.06-.08l.04-.02a.695.695 0 0 0-.22-.14A.706.706 0 0 0 16 8zm0 8c.293 0 .533-.09.72-.27.187-.18.28-.423.28-.73v-4.7l-4.4 3.5c-.267.133-.467.2-.6.2-.133 0-.333-.067-.6-.2L7 10.3V15c0 .293.093.533.28.72.187.187.427.28.72.28h8z"/></svg>