<svg viewBox="0 0 24 24" fill="none" xmlns="http://www.w3.org/2000/svg">
<path fill-rule="evenodd" clip-rule="evenodd" d="M7.12814 9.63654L11.1281 6.7794C11.6497 6.40687 12.3503 6.40687 12.8719 6.7794L16.8719 9.63654C17.2661 9.91811 17.5 10.3727 17.5 10.8571V15.3133C17.5 16.1417 16.8284 16.8133 16 16.8133H8C7.17157 16.8133 6.5 16.1417 6.5 15.3133V10.8571C6.5 10.3727 6.73395 9.91811 7.12814 9.63654ZM13.7437 5.5588C12.7006 4.81373 11.2994 4.81373 10.2563 5.5588L6.25629 8.41594C5.4679 8.97908 5 9.88829 5 10.8571V15.3133C5 16.9701 6.34315 18.3133 8 18.3133H16C17.6569 18.3133 19 16.9701 19 15.3133V10.8571C19 9.88829 18.5321 8.97908 17.7437 8.41594L13.7437 5.5588ZM11.5502 14.9132C11.8169 15.1132 12.1835 15.1132 12.4502 14.9132L16.4502 11.9132L15.5502 10.7132L12.0002 13.3757L8.4502 10.7132L7.5502 11.9132L11.5502 14.9132Z" fill="#748494"/>
</svg>
