<svg xmlns="http://www.w3.org/2000/svg" xmlns:xlink="http://www.w3.org/1999/xlink" viewBox="0 0 24 24"><defs><path id="hsds-eye.svg-73-a" d="M12 13a.99.99 0 0 1-.977-1c0-.552.439-1 .977-1a.99.99 0 0 1 .977 1A.99.99 0 0 1 12 13m0-4c-1.616 0-2.931 1.346-2.931 3s1.315 3 2.931 3 2.931-1.346 2.931-3S13.616 9 12 9m0 7c-2.389 0-4.72-1.414-6.616-4C7.281 9.414 9.611 8 12 8c2.389 0 4.718 1.414 6.616 4-1.898 2.586-4.227 4-6.616 4m0-10c-3.222 0-6.286 1.931-8.624 5.437L3 12l.376.563C5.714 16.069 8.778 18 12 18c3.222 0 6.285-1.931 8.624-5.437L21 12l-.376-.563C18.284 7.931 15.222 6 12 6"/></defs><g fill-rule="evenodd"><mask id="hsds-eye.svg-73-b"><use xlink:href="#hsds-eye.svg-73-a"/></mask><use xlink:href="#hsds-eye.svg-73-a"/><g mask="url(#hsds-eye.svg-73-b)"><rect/></g></g></svg>