<svg viewBox="0 0 52 52" xmlns="http://www.w3.org/2000/svg"><path d="m38.6 17.9c.2-.4.4-.8.4-1.3 0-.7-.3-1.3-.8-1.8l-1.1-1.1c-.8-.8-2.1-1-3.1-.4-4.9-3.1-11.2-3.1-16.1 0-1-.5-2.3-.4-3.1.4l-1.1 1.1c-.8.8-1 2.1-.4 3.1-3.1 4.9-3.1 11.2 0 16.1-.6 1-.4 2.3.4 3.1l1.1 1.1c.5.5 1.1.7 1.8.7.4 0 .9-.1 1.3-.4 2.4 1.5 5.2 2.4 8.1 2.4s5.7-.8 8.1-2.4c.4.2.8.4 1.3.4.7 0 1.3-.2 1.8-.7l1.1-1.1c.8-.8 1-2.1.4-3.1 3.1-4.9 3.1-11.1-.1-16.1zm-3.6-2.7c.2-.2.6-.2.8 0l1.1 1.1c.2.2.2.6 0 .8l-4.9 4.8c-.5-.7-1.1-1.4-1.9-1.9zm-3.8 10.8c0 2.9-2.3 5.2-5.2 5.2s-5.2-2.3-5.2-5.2 2.3-5.2 5.2-5.2 5.2 2.3 5.2 5.2zm1.3-11.2-4.4 4.4c-1.4-.4-2.9-.4-4.3 0l-4.4-4.4c4.1-2.4 9.1-2.4 13.1 0zm-17.3 1.5 1.1-1.1c.2-.2.6-.2.8 0l4.9 4.9c-.7.5-1.4 1.1-1.9 1.9l-4.9-5c-.3-.2-.3-.5 0-.7zm-.4 16.2c-2.3-4-2.3-9 0-13.1l4.4 4.4c-.4 1.4-.4 2.9 0 4.3zm2.2 4.3c-.2.2-.6.2-.8 0l-1.1-1.1c-.2-.2-.2-.6 0-.8l4.9-4.9c.5.7 1.1 1.4 1.9 1.9zm2.5.4 4.4-4.4c1.4.4 2.9.4 4.3 0l4.4 4.4c-4.1 2.4-9.1 2.4-13.1 0zm17.4-1.5c-.1 0-.1 0 0 0l-1.1 1.1c-.2.2-.6.2-.8 0l-4.9-4.8c.7-.5 1.4-1.1 1.9-1.9l4.9 4.9c.2.2.2.5 0 .7zm.3-3.2-4.4-4.4c.4-1.4.4-2.9 0-4.3l4.4-4.4c2.4 4.1 2.4 9.1 0 13.1z"/></svg>