<svg width="16" height="24" fill="none" xmlns="http://www.w3.org/2000/svg"><path d="M5.988 17.566l.032-2.085c0-.535.106-.952.319-1.252.255-.577.691-1.005 1.308-1.283.638-.3 1.361-.63 2.17-.994 1.042-.385 1.85-.93 2.425-1.636.574-.727.86-1.722.86-2.983 0-1.412-.467-2.513-1.403-3.304-.936-.813-2.148-1.22-3.637-1.22-1.468 0-2.68.3-3.638.899-.935.599-1.403 1.56-1.403 2.887H.5c0-1.946.67-3.443 2.01-4.491C3.871 1.034 5.733.5 8.094.5c1.51 0 2.818.3 3.924.898 1.127.599 2 1.422 2.616 2.47.617 1.048.904 2.224.862 3.529-.021 1.71-.426 3.09-1.213 4.138-.787 1.026-1.946 1.86-3.477 2.502-.66.3-1.16.535-1.5.706-.34.17-.574.363-.702.577-.127.193-.202.46-.223.802v1.444H5.988zm1.18 5.934c-.446 0-.84-.16-1.18-.481a1.688 1.688 0 01-.479-1.187c0-.47.16-.866.479-1.187a1.67 1.67 0 011.18-.481c.447 0 .83.16 1.149.481.32.32.49.716.51 1.187 0 .449-.17.845-.51 1.187-.32.32-.702.481-1.149.481z" fill="#314351"/></svg>
