<svg xmlns="http://www.w3.org/2000/svg" viewBox="0 0 52 52"><circle cx="26" cy="35.5" r="1.5"/><path d="M32.4 17.4c-.4-.7-.9-1.4-1.5-1.9s-1.3-.9-2.2-1.2c-.8-.3-1.7-.4-2.7-.4-1.8 0-3.4.5-4.7 1.5-1.3 1-2.1 2.4-2.4 4.2l2.4.4c.2-1.2.7-2.1 1.5-2.9.8-.7 1.8-1.1 3.1-1.1.6 0 1.2.1 1.7.3.5.2 1 .4 1.4.8.4.3.7.8 1 1.3.2.5.4 1.1.4 1.7 0 .9-.2 1.6-.6 2.2-.4.6-.9 1.1-1.5 1.6l-1 .9c-.4.3-.7.6-1 1-.3.3-.7.7-.9 1.1-.3.4-.5.9-.6 1.4-.2.5-.2 1.1-.2 1.7v2H27v-1.6c0-.6 0-1.1.1-1.6.1-.4.2-.8.5-1.2.2-.4.5-.7.8-1 .3-.3.8-.7 1.3-1.1.4-.4.9-.7 1.3-1.1.4-.3.7-.7 1-1.2.3-.5.5-.9.7-1.5.2-.5.2-1.2.2-1.9.1-.8-.1-1.6-.5-2.4z"/></svg>