<svg id="Layer_1" data-name="Layer 1" xmlns="http://www.w3.org/2000/svg" viewBox="0 0 24 24"><path d="M16.23,7.57a2,2,0,0,0-1.74-.38c-1.3.31-1.53.08-1.88-.27-.75-.77-1.58-1.29-4.23-.53A.74.74,0,0,0,7.73,6,.75.75,0,0,0,7,6.75v10.5a.75.75,0,0,0,1.5,0V14.76c2.28-.7,2.69-.33,3.06,0a2.49,2.49,0,0,0,2,.87,7,7,0,0,0,2-.38,2.07,2.07,0,0,0,1.48-2V9.2A2.08,2.08,0,0,0,16.23,7.57Zm-.71,5.74a.59.59,0,0,1-.41.55c-1.84.56-2.13.26-2.5-.11-.74-.75-1.55-1.27-4.13-.55V7.93c2.28-.71,2.69-.34,3.06,0,.65.65,1.34,1.15,3.3.68a.52.52,0,0,1,.46.1.56.56,0,0,1,.22.45Z"/></svg>