<svg xmlns="http://www.w3.org/2000/svg" viewBox="0 0 24 24"><path fill-rule="evenodd" d="M8.156 12.792l2.093 7.082c.132.452-.105.931-.532 1.08l-.041.013a.83.83 0 0 1-1.023-.58L4.037 4.76c-.136-.46.112-.946.552-1.088a.823.823 0 0 1 .99.439 1.236 1.236 0 0 1 .575-.618h.003c1.65-.915 3.888-.482 5.698.67 1.698 1.08 3.568 1.602 4.966.977l.001.001a.749.749 0 0 1 .346-.082c.358 0 .661.246.762.584l2.006 6.793.02.073c.029.105.044.216.044.33a1.25 1.25 0 0 1-.748 1.157c-1.389.596-3.231.319-4.68-.629-1.945-1.272-4.034-1.606-5.686-.664-.037.02-.072.041-.109.063a.765.765 0 0 1-.62.025z"/></svg>