<svg xmlns="http://www.w3.org/2000/svg" xmlns:xlink="http://www.w3.org/1999/xlink" viewBox="0 0 24 24"><defs><path id="hsds-folder-open-small.svg-76-a" d="M17.106 18l-.001 1v-1H6.896l-.778-7h11.765l-.778 7h.001zM7.001 7c0-.551.448-1 1-1h1.585l.415.414A2.01 2.01 0 0 0 11.415 7h4.586c.551 0 1 .449 1 1v1h-10V7zm12.745 2.333A1 1 0 0 0 19.001 9V8c0-1.654-1.346-3-3-3h-4.586l-.414-.414A2.013 2.013 0 0 0 9.586 4H8.001c-1.655 0-3 1.346-3 3v2a1.001 1.001 0 0 0-.995 1.11l.902 8.11A1.998 1.998 0 0 0 6.896 20h10.209a1.997 1.997 0 0 0 1.988-1.779l.902-8.111a1.004 1.004 0 0 0-.249-.777z"/></defs><g fill-rule="evenodd"><mask id="hsds-folder-open-small.svg-76-b"><use xlink:href="#hsds-folder-open-small.svg-76-a"/></mask><use xlink:href="#hsds-folder-open-small.svg-76-a"/><g mask="url(#hsds-folder-open-small.svg-76-b)"><rect/></g></g></svg>