<svg xmlns="http://www.w3.org/2000/svg" xmlns:xlink="http://www.w3.org/1999/xlink" viewBox="0 0 24 24"><defs><path id="hsds-folder-open.svg-78-a" d="M18.185 18.1a.996.996 0 0 1-.994.9H6.81a.995.995 0 0 1-.994-.9l-.71-7.1h13.789l-.71 7.1zM6 6c0-.551.449-1 1-1h2.586l1.707 1.707c.188.187.442.293.707.293h5c.552 0 1 .449 1 1v1H6V6zm14.742 3.329A1.003 1.003 0 0 0 20 9V8c0-1.654-1.345-3-3-3h-4.586l-1.707-1.707A.996.996 0 0 0 10 3H7C5.346 3 4 4.346 4 6v3a1.002 1.002 0 0 0-.995 1.1l.82 8.198A2.99 2.99 0 0 0 6.81 21h10.38a2.99 2.99 0 0 0 2.985-2.701l.82-8.199a1.002 1.002 0 0 0-.253-.771z"/></defs><g fill-rule="evenodd"><mask id="hsds-folder-open.svg-78-b"><use xlink:href="#hsds-folder-open.svg-78-a"/></mask><use xlink:href="#hsds-folder-open.svg-78-a"/><g mask="url(#hsds-folder-open.svg-78-b)"><rect/></g></g></svg>