<svg xmlns="http://www.w3.org/2000/svg" xmlns:xlink="http://www.w3.org/1999/xlink" viewBox="0 0 24 24"><defs><path id="hsds-folder-check.svg-75-a" d="M19 10v8a1 1 0 0 1-1 1H6a1 1 0 0 1-1-1V6a1 1 0 0 1 1-1h2.586l1.707 1.707A.996.996 0 0 0 11 7h7a1 1 0 0 1 1 1v2zm-1-5c1.654 0 3 1.346 3 3v10c0 1.654-1.346 3-3 3H6c-1.654 0-3-1.346-3-3V6c0-1.654 1.346-3 3-3h3c.266 0 .52.105.707.293L11.414 5H18zm-3.707 5.293L11 13.586l-1.293-1.293a.999.999 0 1 0-1.414 1.414l2 2a.997.997 0 0 0 1.414 0l4-4a.999.999 0 1 0-1.414-1.414z"/></defs><g fill-rule="evenodd"><mask id="hsds-folder-check.svg-75-b"><use xlink:href="#hsds-folder-check.svg-75-a"/></mask><use xlink:href="#hsds-folder-check.svg-75-a"/><g mask="url(#hsds-folder-check.svg-75-b)"><rect/></g></g></svg>