<svg xmlns="http://www.w3.org/2000/svg" xmlns:xlink="http://www.w3.org/1999/xlink" viewBox="0 0 24 24"><defs><path id="hsds-forward.svg-79-a" d="M9 21h9a1 1 0 1 0 0-2H9c-2.206 0-4-1.794-4-4v-1c0-2.206 1.794-4 4-4h8.586l-3.293 3.293a.999.999 0 1 0 1.414 1.414l5-5a.999.999 0 0 0 0-1.414l-5-5a.999.999 0 1 0-1.414 1.414L17.586 8H9c-3.309 0-6 2.691-6 6v1c0 3.31 2.691 6 6 6"/></defs><g fill-rule="evenodd"><mask id="hsds-forward.svg-79-b"><use xlink:href="#hsds-forward.svg-79-a"/></mask><use xlink:href="#hsds-forward.svg-79-a"/><g mask="url(#hsds-forward.svg-79-b)"><rect/></g></g></svg>