<svg xmlns="http://www.w3.org/2000/svg" xmlns:xlink="http://www.w3.org/1999/xlink" viewBox="0 0 24 24"><defs><path id="hsds-fullscreen.svg-81-a" d="M15 8a1 1 0 1 1 0-2h2c1.654 0 3 1.346 3 3v8c0 1.654-1.346 3-3 3H9c-1.654 0-3-1.346-3-3v-2a1 1 0 1 1 2 0v2a1 1 0 0 0 1 1h8a1 1 0 0 0 1-1V9a1 1 0 0 0-1-1h-2zm-4-3a1 1 0 1 1 0 2H8.414l5.293 5.293a.999.999 0 1 1-1.414 1.414L7 8.414V11a1 1 0 1 1-2 0V6a1 1 0 0 1 1-1h5z"/></defs><g fill-rule="evenodd"><mask id="hsds-fullscreen.svg-81-b"><use xlink:href="#hsds-fullscreen.svg-81-a"/></mask><use xlink:href="#hsds-fullscreen.svg-81-a"/><g mask="url(#hsds-fullscreen.svg-81-b)"><rect transform="translate(2 2)"/></g></g></svg>