<svg xmlns="http://www.w3.org/2000/svg" xmlns:xlink="http://www.w3.org/1999/xlink" viewBox="0 0 24 24"><defs><path id="hsds-globe.svg-80-a" d="M13.03 6.462c1.378 0 2.5 1.123 2.5 2.501a2.504 2.504 0 0 1-2.5 2.502 2.504 2.504 0 0 1-2.5-2.502 2.504 2.504 0 0 1 2.5-2.501m0 7.004c-2.48 0-4.5-2.02-4.5-4.503a4.507 4.507 0 0 1 4.5-4.503c2.481 0 4.5 2.02 4.5 4.503a4.507 4.507 0 0 1-4.5 4.503zm5.678 1.178a7.964 7.964 0 0 1-4.707 2.29v1.065h4a1 1 0 0 1 0 2.001h-10a1 1 0 0 1 0-2.001h4v-1.074a7.963 7.963 0 0 1-4.648-2.28 8.04 8.04 0 0 1-.958-10.21 1.001 1.001 0 0 1 1.652 1.13 6.037 6.037 0 0 0 .72 7.664 5.988 5.988 0 0 0 4.264 1.768c1.61 0 3.124-.628 4.263-1.768a1 1 0 1 1 1.414 1.415z"/></defs><g fill-rule="evenodd"><mask id="hsds-globe.svg-80-b"><use xlink:href="#hsds-globe.svg-80-a"/></mask><use xlink:href="#hsds-globe.svg-80-a"/><g mask="url(#hsds-globe.svg-80-b)"><rect/></g></g></svg>