<svg xmlns="http://www.w3.org/2000/svg" viewBox="0 0 24 24"><path fill-rule="evenodd" d="M15.53 8.963a2.504 2.504 0 0 1-2.5 2.502 2.504 2.504 0 0 1-2.5-2.502 2.504 2.504 0 0 1 2.5-2.501c1.378 0 2.5 1.123 2.5 2.501zm2 0a4.507 4.507 0 0 1-4.5 4.503c-2.48 0-4.5-2.02-4.5-4.503a4.507 4.507 0 0 1 4.5-4.503c2.481 0 4.5 2.02 4.5 4.503zm1.178 4.266a1 1 0 0 1 0 1.415 7.964 7.964 0 0 1-4.707 2.29v1.065h4a1 1 0 0 1 0 2.001h-10a1 1 0 0 1 0-2.001h4v-1.074a7.963 7.963 0 0 1-4.648-2.28 8.04 8.04 0 0 1-.958-10.21 1.001 1.001 0 0 1 1.652 1.13 6.037 6.037 0 0 0 .72 7.664 5.988 5.988 0 0 0 4.264 1.768c1.61 0 3.124-.628 4.263-1.768a.998.998 0 0 1 1.414 0z"/></svg>