<svg xmlns="http://www.w3.org/2000/svg" xmlns:xlink="http://www.w3.org/1999/xlink" viewBox="0 0 24 24"><defs><path id="hsds-graph.svg-82-a" d="M15 9V6.126A4.015 4.015 0 0 1 17.873 9H15zm-1-5a1 1 0 0 0-1 1v5a1 1 0 0 0 1 1h5a1 1 0 0 0 1-1c0-3.309-2.69-6-6-6zm-4.948 6.123v3.825a1 1 0 0 0 1 1h3.835A4.009 4.009 0 0 1 10 18c-2.206 0-4-1.794-4-4a3.998 3.998 0 0 1 3.052-3.877M10 20c3.309 0 6-2.691 6-6l-.005-.108a.999.999 0 0 0-.998-.944h-3.945V9.002C11.052 8.45 10.553 8 10 8c-3.308 0-6 2.691-6 6s2.692 6 6 6"/></defs><g fill-rule="evenodd"><mask id="hsds-graph.svg-82-b"><use xlink:href="#hsds-graph.svg-82-a"/></mask><use xlink:href="#hsds-graph.svg-82-a"/><g mask="url(#hsds-graph.svg-82-b)"><rect/></g></g></svg>