<svg viewBox="0 0 24 24" fill="none" xmlns="http://www.w3.org/2000/svg">
  <path fill-rule="evenodd" clip-rule="evenodd"
    d="M7 7C6.44772 7 6 7.44772 6 8V12V16C6 16.5523 6.44772 17 7 17C7.55228 17 8 16.5523 8 16V13H12V16C12 16.5523 12.4477 17 13 17C13.5523 17 14 16.5523 14 16V12V8C14 7.44772 13.5523 7 13 7C12.4477 7 12 7.44772 12 8V11H8V8C8 7.44772 7.55228 7 7 7ZM15.5 7C15.2239 7 15 7.22386 15 7.5C15 7.77614 15.2239 8 15.5 8H16V10H15.5C15.2239 10 15 10.2239 15 10.5C15 10.7761 15.2239 11 15.5 11H16H17H17.5C17.7761 11 18 10.7761 18 10.5C18 10.2239 17.7761 10 17.5 10H17V8V7H15.5Z"
    fill="#93A1B0" />
</svg>