<svg viewBox="0 0 24 24" xmlns="http://www.w3.org/2000/svg"><path fill-rule="evenodd" clip-rule="evenodd" d="M14.166 3.219c.016.005 1.573.542 1.867 2.697a.625.625 0 001.238-.17c-.397-2.918-2.62-3.683-2.714-3.714a.625.625 0 00-.39 1.187zM4.683 17.278c-.05-.03-1.19-.753-1.393-2.743a.646.646 0 00-.695-.575H2.58a.646.646 0 00-.578.706c.273 2.67 1.948 3.675 2.019 3.717a.646.646 0 00.878-.224.646.646 0 00-.217-.881zm13.685-1.816l1.05-4.5a.817.817 0 00-.576-.997.807.807 0 00-.988.581l-.333 1.273c-.435 1.711-1.35.087-1.352.082l-2.836-5.8a.805.805 0 00-1.083-.37.819.819 0 00-.368 1.091l2.018 4.13-.004.007.264.538c.147.298.047.65-.222.784-.27.134-.608 0-.753-.298l-.252-.513h-.003l-2.488-5.052a.806.806 0 00-1.083-.37.821.821 0 00-.368 1.093l2.137 4.34.306.632c.145.3.046.65-.224.784s-.606.001-.753-.298L8.36 8.346a.756.756 0 00-1.016-.348.762.762 0 00-.359.97l2.607 5.298c.146.3.047.65-.224.784-.269.135-.606.001-.753-.298l-1.849-3.76a.806.806 0 00-1.076-.36.821.821 0 00-.368 1.093l2.935 5.995a4.431 4.431 0 002.385 2.221 4.398 4.398 0 003.41-.084l1.658-.74c.424-.19 1.483-.765 2.142-1.989.186-.346.36-.954.516-1.664l.001-.002zm-1.014-6.784A2.298 2.298 0 0119.11 8.3c1.107.204 1.818 1.145 1.9 2.516a.866.866 0 01-.002.144l-.004.046a8.252 8.252 0 01-.004.05l-1.072 5.18s-.373 2.884-2.934 4.227c-3.424 1.788-5.27 1.494-5.27 1.494-1.488-.089-2.64-.67-3.484-1.308A5.311 5.311 0 016.818 18.7l-.006.003-2.994-6.126-.115-.262a2.368 2.368 0 01-.044-1.81A2.344 2.344 0 014.897 9.19c.134-.06.271-.102.41-.135a2.371 2.371 0 011.344-2.65c.262-.117.534-.173.804-.19a2.356 2.356 0 011.336-1.669 2.33 2.33 0 012.132.126 2.325 2.325 0 012.5-.535 2.35 2.35 0 011.302 1.25l1.854 4.22c.174-.369.433-.69.775-.929z"/></svg>