<svg xmlns="http://www.w3.org/2000/svg" xmlns:xlink="http://www.w3.org/1999/xlink" viewBox="0 0 24 24"><defs><path id="hsds-heart.svg-85-a" d="M19.29 10.324l-7.28 9.668-7.278-9.64c-.66-.939-.883-2.09-.629-3.247.335-1.52 1.596-2.739 3.136-3.03.261-.05.523-.074.78-.074 1.243 0 2.42.556 3.195 1.546.38.482 1.195.482 1.574 0 .937-1.195 2.457-1.758 3.975-1.473 1.54.292 2.8 1.51 3.135 3.03.255 1.157.032 2.31-.608 3.22zm-8.06 10.294l.797-.603h.001l-.799.603zM21.851 6.674c-.506-2.292-2.402-4.126-4.718-4.565a6.072 6.072 0 0 0-5.133 1.374A6.073 6.073 0 0 0 6.868 2.11c-2.316.44-4.212 2.273-4.718 4.566a6.047 6.047 0 0 0 .966 4.854l7.316 9.691c.375.498.947.78 1.57.78.622 0 1.194-.282 1.57-.78l7.334-9.718c.987-1.403 1.322-3.117.946-4.828z"/></defs><g fill-rule="evenodd"><mask id="hsds-heart.svg-85-b"><use xlink:href="#hsds-heart.svg-85-a"/></mask><use xlink:href="#hsds-heart.svg-85-a"/><g mask="url(#hsds-heart.svg-85-b)"><rect/></g></g></svg>