<svg xmlns="http://www.w3.org/2000/svg" xmlns:xlink="http://www.w3.org/1999/xlink" viewBox="0 0 24 24"><defs><path id="hsds-house.svg-83-a" d="M18 10c0 .551-.448 1-1 1v-1a1 1 0 1 0-2 0v1h-2v-1a1 1 0 1 0-2 0v1H9v-1a1 1 0 1 0-2 0v1c-.552 0-1-.449-1-1v-.877l.591-2.365A1 1 0 0 1 7.562 6h8.876a1 1 0 0 1 .971.758L18 9.123V10zm-2 8h-5v-4H9v4H8v-5h8v5zm3.349-11.728A2.997 2.997 0 0 0 16.438 4H7.562a2.997 2.997 0 0 0-2.911 2.272L4.03 8.757A.998.998 0 0 0 4 9v1c0 1.302.839 2.401 2 2.815V19a1 1 0 0 0 1 1h10a1 1 0 0 0 1-1v-6.184A2.997 2.997 0 0 0 20 10V9a.998.998 0 0 0-.03-.243l-.621-2.485zM13 16h1a1 1 0 1 0 0-2h-1a1 1 0 1 0 0 2"/></defs><g fill-rule="evenodd"><mask id="hsds-house.svg-83-b"><use xlink:href="#hsds-house.svg-83-a"/></mask><use xlink:href="#hsds-house.svg-83-a"/><g mask="url(#hsds-house.svg-83-b)"><rect/></g></g></svg>