<svg xmlns="http://www.w3.org/2000/svg" xmlns:xlink="http://www.w3.org/1999/xlink" viewBox="0 0 24 24"><defs><path id="hsds-hs-logo.svg-84-a" d="M10.63 7.5L4.37 14c-.783-.813-1.272-1.93-1.37-3.25 0-1.219.587-2.438 1.37-3.25L10.728 1C11.511 1.812 12 3.031 12 4.25c0 1.219-.587 2.437-1.37 3.25zm2.755 9l6.33-6.5c.79.914 1.285 2.031 1.285 3.25 0 1.219-.593 2.438-1.385 3.25l-6.33 6.5c-.79-.813-1.285-2.031-1.285-3.25 0-1.219.593-2.438 1.385-3.25zm-.155-9l1.868-1.9L19.721 1C20.508 1.8 21 3 21 4.2c0 1.2-.59 2.4-1.377 3.2L15.098 12l-1.868 1.9-2.656 2.7-1.87 1.9L4.28 23C3.492 22.2 3 21 3 19.8c0-1.2.59-2.4 1.377-3.2l4.426-4.5 1.77-1.9 2.657-2.7z"/></defs><g fill-rule="evenodd"><mask id="hsds-hs-logo.svg-84-b"><use xlink:href="#hsds-hs-logo.svg-84-a"/></mask><use xlink:href="#hsds-hs-logo.svg-84-a"/><g mask="url(#hsds-hs-logo.svg-84-b)"><rect transform="translate(3 1)"/></g></g></svg>