<svg xmlns="http://www.w3.org/2000/svg" xmlns:xlink="http://www.w3.org/1999/xlink" viewBox="0 0 24 24"><defs><path id="hsds-image-large.svg-86-a" d="M6 5h12c.551 0 1 .449 1 1v5.586l-2.293-2.293a.999.999 0 0 0-1.414 0L11 13.586l-1.293-1.293a.999.999 0 0 0-1.414 0L5 15.586V6c0-.551.449-1 1-1m12 14H6c-.551 0-1-.449-1-1a.997.997 0 0 0 .707-.293L9 14.414l1.293 1.293a.999.999 0 0 0 1.414 0L16 11.414l3 3V18c0 .551-.449 1-1 1M6 21h12c1.654 0 3-1.346 3-3V6c0-1.654-1.346-3-3-3H6C4.346 3 3 4.346 3 6v12c0 1.654 1.346 3 3 3m2.5-11a1.5 1.5 0 1 0 .001-2.999A1.5 1.5 0 0 0 8.5 10"/></defs><g fill-rule="evenodd"><mask id="hsds-image-large.svg-86-b"><use xlink:href="#hsds-image-large.svg-86-a"/></mask><use xlink:href="#hsds-image-large.svg-86-a"/><g mask="url(#hsds-image-large.svg-86-b)"><rect/></g></g></svg>