<svg xmlns="http://www.w3.org/2000/svg" xmlns:xlink="http://www.w3.org/1999/xlink" viewBox="0 0 24 24"><defs><path id="hsds-image-plus.svg-89-a" d="M21 5a1 1 0 1 1 0 2h-2v2a1 1 0 1 1-2 0V7h-2a1 1 0 1 1 0-2h2V3a1 1 0 1 1 2 0v2h2zm-5 14H5c-1.654 0-3-1.346-3-3V8c0-1.654 1.346-3 3-3h6a1 1 0 1 1 0 2H5c-.552 0-1 .449-1 1v3.586l2.293-2.293a.999.999 0 0 1 1.414 0L11 12.586l1.293-1.293a.999.999 0 0 1 1.414 0L17 14.586v-1.664a1 1 0 1 1 2 0V16c0 1.654-1.346 3-3 3zM4 16c0 .551.448 1 1 1h11a.97.97 0 0 0 .501-.154c-.071-.043-.147-.077-.208-.139L13 13.414l-1.293 1.293a.999.999 0 0 1-1.414 0L7 11.414l-3 3V16z"/></defs><g fill-rule="evenodd"><mask id="hsds-image-plus.svg-89-b"><use xlink:href="#hsds-image-plus.svg-89-a"/></mask><use xlink:href="#hsds-image-plus.svg-89-a"/><g mask="url(#hsds-image-plus.svg-89-b)"><rect/></g></g></svg>