<svg width="20" height="20" viewBox="0 0 20 20" xmlns="http://www.w3.org/2000/svg"><title>Image</title><path d="M5 5h10.001A1 1 0 0 1 16 6v5.586l-2.293-2.293a.999.999 0 0 0-1.414 0L11 10.586 7.707 7.293a.999.999 0 0 0-1.414 0L4 9.586V6c0-.551.448-1 1-1zm10 10H5c-.552 0-1-.449-1-1v-1.586l3-3 3.293 3.293a.999.999 0 0 0 1.414 0L13 11.414l2.931 2.93A.995.995 0 0 1 15 15zM2 14c0 1.654 1.346 3 3 3h10c1.654 0 3-1.346 3-3V6c0-1.654-1.346-3-2.999-3H5C3.346 3 2 4.346 2 6v8z" fill="#C1CBD4" fill-rule="evenodd"/></svg>