<svg viewBox="0 0 24 24" fill="none" xmlns="http://www.w3.org/2000/svg">
  <path fill-rule="evenodd" clip-rule="evenodd"
    d="M21.8284 8.41455L20.4142 7.00034L21.8284 5.58613C22.2188 5.1958 22.2195 4.56294 21.8284 4.17191C21.4374 3.78088 20.8045 3.78159 20.4142 4.17191L19 5.58613L17.5858 4.17191C17.1948 3.78088 16.5619 3.78159 16.1716 4.17191C15.7812 4.56224 15.7805 5.1951 16.1716 5.58613L17.5858 7.00034L16.1716 8.41455C15.7812 8.80488 15.7805 9.43774 16.1716 9.82877C16.5626 10.2198 17.1955 10.2191 17.5858 9.82877L19 8.41455L20.4142 9.82877C20.8052 10.2198 21.4381 10.2191 21.8284 9.82877C22.2188 9.43845 22.2195 8.80558 21.8284 8.41455ZM17 20.0003C18.654 20.0003 20 18.6543 20 17.0003V12.9223C20 12.3703 19.553 11.9223 19 11.9223C18.447 11.9223 18 12.3703 18 12.9223V15.5863L14.707 12.2933C14.316 11.9023 13.684 11.9023 13.293 12.2933L12 13.5863L8.707 10.2933C8.316 9.90229 7.684 9.90229 7.293 10.2933L5 12.5863V9.00029C5 8.44929 5.448 8.00029 6 8.00029L13 8.00029C13.553 8.00029 14 7.55229 14 7.00029C14 6.44829 13.553 6.00029 13 6.00029L6 6.00029C4.346 6.00029 3 7.34629 3 9.00029V17.0003C3 18.6543 4.346 20.0003 6 20.0003H17ZM5 15.4143V17.0003C5 17.5513 5.448 18.0003 6 18.0003H17C17.187 18.0003 17.352 17.9353 17.501 17.8463C17.4836 17.8358 17.4659 17.8258 17.4482 17.8158C17.3937 17.785 17.3391 17.7541 17.293 17.7073L14 14.4143L12.707 15.7073C12.316 16.0983 11.684 16.0983 11.293 15.7073L8 12.4143L5 15.4143Z"
    fill="#93A1B0" />
</svg>