<svg xmlns="http://www.w3.org/2000/svg" xmlns:xlink="http://www.w3.org/1999/xlink" viewBox="0 0 24 24"><defs><path id="hsds-inbox.svg-90-a" d="M20 15v2c0 1.654-1.346 3-3 3H7c-1.654 0-3-1.346-3-3v-2a1 1 0 1 1 2 0v2a1 1 0 0 0 1 1h10a1 1 0 0 0 1-1v-2a1 1 0 1 1 2 0zm-4.707-4.707a.999.999 0 1 1 1.414 1.414l-4 4a.997.997 0 0 1-1.414 0l-4-4a.999.999 0 1 1 1.414-1.414L11 12.586V5a1 1 0 1 1 2 0v7.586l2.293-2.293z"/></defs><g fill-rule="evenodd"><mask id="hsds-inbox.svg-90-b"><use xlink:href="#hsds-inbox.svg-90-a"/></mask><use xlink:href="#hsds-inbox.svg-90-a"/><g mask="url(#hsds-inbox.svg-90-b)"><rect/></g></g></svg>