<svg xmlns="http://www.w3.org/2000/svg" xmlns:xlink="http://www.w3.org/1999/xlink" viewBox="0 0 24 24"><defs><path id="hsds-information.svg-92-a" d="M12 18c-3.309 0-6-2.691-6-6s2.691-6 6-6 6 2.691 6 6-2.691 6-6 6m0-14c-4.411 0-8 3.589-8 8s3.589 8 8 8 8-3.589 8-8-3.589-8-8-8m.126 7a1 1 0 0 0-.962.729l-1.135 4.029a1.002 1.002 0 0 0 1.942.484l1.117-3.971A1 1 0 0 0 12.126 11M13 8a1 1 0 1 0 0 2 1 1 0 0 0 0-2"/></defs><g fill-rule="evenodd"><mask id="hsds-information.svg-92-b"><use xlink:href="#hsds-information.svg-92-a"/></mask><use xlink:href="#hsds-information.svg-92-a"/><g mask="url(#hsds-information.svg-92-b)"><rect/></g></g></svg>