<svg xmlns="http://www.w3.org/2000/svg" xmlns:xlink="http://www.w3.org/1999/xlink" viewBox="0 0 24 24"><defs><path id="hsds-key.svg-94-a" d="M18 7.586l-4.02 4.02a.999.999 0 0 0-.234 1.045c.171.474.254.915.254 1.349 0 2.206-1.794 4-4 4s-4-1.794-4-4 1.794-4 4-4c.435 0 .876.083 1.349.253.363.13.772.04 1.046-.233L13.414 9H15a1 1 0 0 0 1-1V6.414L16.414 6H18v1.586zM19 4h-3a1 1 0 0 0-.707.293l-1 1A1 1 0 0 0 14 6v1h-1a1 1 0 0 0-.707.293l-.888.888A5.727 5.727 0 0 0 10 8c-3.309 0-6 2.69-6 6 0 3.309 2.691 6 6 6s6-2.691 6-6c0-.467-.06-.931-.181-1.405l3.888-3.888A.997.997 0 0 0 20 8V5a1 1 0 0 0-1-1zM9.02 14h-.01a.996.996 0 0 0-.995 1c0 .552.452 1 1.005 1a1 1 0 1 0 0-2"/></defs><g fill-rule="evenodd"><mask id="hsds-key.svg-94-b"><use xlink:href="#hsds-key.svg-94-a"/></mask><use xlink:href="#hsds-key.svg-94-a"/><g mask="url(#hsds-key.svg-94-b)"><rect/></g></g></svg>