<svg xmlns="http://www.w3.org/2000/svg" xmlns:xlink="http://www.w3.org/1999/xlink" viewBox="0 0 24 24"><defs><path id="hsds-keyboard.svg-95-a" d="M14.445 16.168a1 1 0 1 1 1.11 1.664l-3 2a.998.998 0 0 1-1.11 0l-3-2a1.001 1.001 0 0 1 1.11-1.664L12 17.798l2.445-1.63zM18 4c1.654 0 3 1.346 3 3v5c0 1.654-1.346 3-3 3H6c-1.654 0-3-1.346-3-3V7c0-1.654 1.346-3 3-3h12zm1 8V7c0-.552-.449-1-1-1H6c-.551 0-1 .448-1 1v5c0 .552.449 1 1 1h12c.551 0 1-.448 1-1zm-5-2a1 1 0 1 1 0 2h-4a1 1 0 1 1 0-2h4zm-7 0a1 1 0 1 1 0 2 1 1 0 0 1 0-2zm10 0a1 1 0 1 1 0 2 1 1 0 0 1 0-2zm0-3a1 1 0 1 1 0 2 1 1 0 0 1 0-2zm-3 0a1 1 0 1 1 0 2 1 1 0 0 1 0-2zm-3 2a1 1 0 1 1 0-2 1 1 0 0 1 0 2zM8 7a1 1 0 1 1 0 2H7a1 1 0 1 1 0-2h1z"/></defs><g fill-rule="evenodd"><mask id="hsds-keyboard.svg-95-b"><use xlink:href="#hsds-keyboard.svg-95-a"/></mask><use xlink:href="#hsds-keyboard.svg-95-a"/><g mask="url(#hsds-keyboard.svg-95-b)"><rect/></g></g></svg>