<svg xmlns="http://www.w3.org/2000/svg" xmlns:xlink="http://www.w3.org/1999/xlink" viewBox="0 0 24 24"><defs><path id="hsds-large-double-arrow-right.svg-97-a" d="M6.293 17.707a.999.999 0 0 1 0-1.414L10.586 12 6.293 7.707a.999.999 0 1 1 1.414-1.414l5 5a.999.999 0 0 1 0 1.414l-5 5a.997.997 0 0 1-1.414 0zM12 18a.999.999 0 0 1-.707-1.707L15.586 12l-4.293-4.293a.999.999 0 1 1 1.414-1.414l5 5a.999.999 0 0 1 0 1.414l-5 5A.997.997 0 0 1 12 18z"/></defs><g fill-rule="evenodd"><mask id="hsds-large-double-arrow-right.svg-97-b"><use xlink:href="#hsds-large-double-arrow-right.svg-97-a"/></mask><use xlink:href="#hsds-large-double-arrow-right.svg-97-a"/><g mask="url(#hsds-large-double-arrow-right.svg-97-b)"><rect/></g></g></svg>