<svg width="20" height="20" viewBox="0 0 20 20" xmlns="http://www.w3.org/2000/svg"><title>Link</title><path d="M5.587 11.6a1.963 1.963 0 0 0-.44.815c-.101.42-.06 1.075.222 1.544.584.968 1.859 1.29 2.847.72l2.685-1.555a2.02 2.02 0 0 0 .276-3.321 1.009 1.009 0 0 1-.133-1.437 1.056 1.056 0 0 1 1.465-.13c.363.297.67.653.914 1.058 1.166 1.936.508 4.442-1.465 5.586l-2.686 1.555A4.198 4.198 0 0 1 7.167 17c-1.424 0-2.813-.716-3.588-2.003a3.983 3.983 0 0 1-.446-3.09c.278-1.057.725-1.576 1.397-2.065.45-.328 1.1-.372 1.47.158.312.667 0 1.064-.413 1.6zm9.676-2.997c.975-.57.833-1.594.257-2.563a2.06 2.06 0 0 0-2.809-.718l-2.65 1.554c-.47.278-.806.72-.943 1.247a2.019 2.019 0 0 0 .22 1.546c.12.202.273.38.451.53.435.36.493 1.003.13 1.435a1.024 1.024 0 0 1-1.445.128 4.066 4.066 0 0 1-.902-1.057 4.03 4.03 0 0 1-.44-3.09A4.052 4.052 0 0 1 9.019 5.12l2.65-1.555c1.947-1.144 4.468-.5 5.619 1.438 1.15 1.937.966 4.212-.982 5.356a1.037 1.037 0 0 1-1.41-.36 1.018 1.018 0 0 1 .367-1.397z" fill="#C1CBD4" fill-rule="evenodd"/></svg>