<svg viewBox="0 0 24 24" xmlns="http://www.w3.org/2000/svg">
  <path fill-rule="evenodd" clip-rule="evenodd"
    d="M10 9H18C18.552 9 19 8.553 19 8C19 7.447 18.552 7 18 7H10C9.448 7 9 7.447 9 8C9 8.553 9.448 9 10 9ZM10 13H18C18.552 13 19 12.553 19 12C19 11.447 18.552 11 18 11H10C9.448 11 9 11.447 9 12C9 12.553 9.448 13 10 13ZM18 17H10C9.448 17 9 16.553 9 16C9 15.447 9.448 15 10 15H18C18.552 15 19 15.447 19 16C19 16.553 18.552 17 18 17ZM5.29 16.71C5.48 16.89 5.74 17 6 17C6.26 17 6.52 16.89 6.71 16.71C6.89 16.52 7 16.27 7 16C7 15.74 6.89 15.479 6.71 15.29C6.34 14.92 5.66 14.92 5.29 15.29C5.11 15.479 5 15.74 5 16C5 16.26 5.11 16.52 5.29 16.71ZM6 13C5.74 13 5.48 12.89 5.29 12.71C5.11 12.52 5 12.26 5 12C5 11.729 5.11 11.479 5.29 11.29C5.67 10.92 6.33 10.92 6.71 11.29C6.89 11.479 7 11.729 7 12C7 12.26 6.89 12.52 6.71 12.71C6.52 12.89 6.26 13 6 13ZM5.29 8.71C5.48 8.89 5.74 9 6 9C6.26 9 6.52 8.89 6.71 8.71C6.89 8.52 7 8.27 7 8C7 7.74 6.89 7.479 6.71 7.29C6.33 6.92 5.67 6.92 5.29 7.29C5.11 7.479 5 7.729 5 8C5 8.27 5.11 8.52 5.29 8.71Z" />
</svg>