<svg xmlns="http://www.w3.org/2000/svg" viewBox="0 0 24 24"><path fill-rule="evenodd" d="M18 9h-8a1 1 0 110-2h8a1 1 0 110 2zm0 4h-8a1 1 0 110-2h8a1 1 0 110 2zm0 4h-8a1 1 0 110-2h8a1 1 0 110 2zM6 17c-.26 0-.52-.11-.71-.29-.18-.19-.29-.45-.29-.71 0-.26.11-.521.29-.71.37-.37 1.05-.37 1.42 0 .18.189.29.45.29.71 0 .27-.11.52-.29.71-.19.18-.45.29-.71.29zm0-4c-.26 0-.52-.11-.71-.29-.18-.19-.29-.45-.29-.71 0-.271.11-.521.29-.71.38-.37 1.04-.37 1.42 0 .18.189.29.439.29.71 0 .26-.11.52-.29.71-.19.18-.45.29-.71.29zm0-4c-.26 0-.52-.11-.71-.29C5.11 8.52 5 8.27 5 8c0-.271.11-.521.29-.71.38-.37 1.04-.37 1.42 0 .18.189.29.45.29.71 0 .27-.11.52-.29.71-.19.18-.45.29-.71.29z"/></svg>