<svg xmlns="http://www.w3.org/2000/svg" xmlns:xlink="http://www.w3.org/1999/xlink" viewBox="0 0 24 24"><defs><path id="hsds-lock-closed.svg-106-a" d="M17 17c0 .551-.448 1-1 1H8c-.552 0-1-.449-1-1v-4c0-.551.448-1 1-1h8c.552 0 1 .449 1 1v4zM9 9c0-1.654 1.346-3 3-3s3 1.346 3 3v1H9V9zm8 1.184V9c0-2.757-2.243-5-5-5S7 6.243 7 9v1.184A2.997 2.997 0 0 0 5 13v4c0 1.654 1.346 3 3 3h8c1.654 0 3-1.346 3-3v-4a2.997 2.997 0 0 0-2-2.816z"/></defs><g fill-rule="evenodd"><mask id="hsds-lock-closed.svg-106-b"><use xlink:href="#hsds-lock-closed.svg-106-a"/></mask><use xlink:href="#hsds-lock-closed.svg-106-a"/><g mask="url(#hsds-lock-closed.svg-106-b)"><rect/></g></g></svg>