<svg xmlns="http://www.w3.org/2000/svg" xmlns:xlink="http://www.w3.org/1999/xlink" viewBox="0 0 24 24"><defs><path id="hsds-magazine.svg-102-a" d="M18 17h-.538c-1.609 0-2.345.186-3.681.523l-.781.196V6.781l1.271-.319C15.528 6.145 16.102 6 17.462 6H18v11zm-7 .719l-.781-.196C8.883 17.186 8.147 17 6.538 17H6V6h.538c1.36 0 1.934.145 3.191.462L11 6.781v10.938zM18 4h-.538c-1.609 0-2.345.186-3.681.523L12 4.969l-1.781-.446C8.883 4.186 8.147 4 6.538 4H6c-1.103 0-2 .897-2 2v11c0 1.103.897 2 2 2h.538c1.36 0 1.934.145 3.191.462l2.028.508c.079.02.16.03.239.03h.007c.079 0 .159-.01.24-.03l2.028-.508c1.257-.317 1.831-.462 3.191-.462H18c1.103 0 2-.897 2-2V6c0-1.103-.897-2-2-2z"/></defs><g fill-rule="evenodd"><mask id="hsds-magazine.svg-102-b"><use xlink:href="#hsds-magazine.svg-102-a"/></mask><use xlink:href="#hsds-magazine.svg-102-a"/><g mask="url(#hsds-magazine.svg-102-b)"><rect/></g></g></svg>