<svg xmlns="http://www.w3.org/2000/svg" xmlns:xlink="http://www.w3.org/1999/xlink" viewBox="0 0 24 24"><defs><path id="hsds-markup.svg-103-a" d="M8.707 7.293a.999.999 0 0 1 0 1.414L5.414 12l3.293 3.293a.999.999 0 1 1-1.414 1.414l-4-4a.999.999 0 0 1 0-1.414l4-4a.999.999 0 0 1 1.414 0zm8 0l4 4a.999.999 0 0 1 0 1.414l-4 4a.997.997 0 0 1-1.414 0 .999.999 0 0 1 0-1.414L18.586 12l-3.293-3.293a.999.999 0 1 1 1.414-1.414zM13.142 4.01a1 1 0 0 1 .849 1.131l-2 14a1.001 1.001 0 0 1-1.981-.283l2-14a1 1 0 0 1 1.132-.848z"/></defs><g fill-rule="evenodd"><mask id="hsds-markup.svg-103-b"><use xlink:href="#hsds-markup.svg-103-a"/></mask><use xlink:href="#hsds-markup.svg-103-a"/><g mask="url(#hsds-markup.svg-103-b)"><rect/></g></g></svg>