<svg xmlns="http://www.w3.org/2000/svg" xmlns:xlink="http://www.w3.org/1999/xlink" viewBox="0 0 24 24"><defs><path id="hsds-mine.svg-105-a" d="M18 8.5V13c0 2.757-2.243 5-5 5h-2c-1.116 0-2.862-.596-3.355-1.336l-.785-1.176-.064-.123C6.558 14.918 6 13.873 6 12.787a.781.781 0 1 1 1.163-.683c.394.399.691.743.902.988.239.275.37.427.531.546.253.188.404.488.404.803V15a1 1 0 1 0 2 0v-.559c0-.946-.454-1.847-1.169-2.373-.059-.056-.141-.154-.253-.285-.25-.288-.607-.7-1.088-1.181a1.371 1.371 0 0 0-.205-.159c-.09-.058-.19-.087-.285-.133V7.5a.5.5 0 0 1 1 0V10a1 1 0 1 0 2 0V6.5a.5.5 0 0 1 1 0V11a1 1 0 1 0 2 0V6.5a.5.5 0 0 1 1 0V11a1 1 0 1 0 2 0V8.5a.5.5 0 0 1 1 0m-1.044-2.437A2.5 2.5 0 0 0 14.5 4c-.565 0-1.081.195-1.5.513A2.471 2.471 0 0 0 11.5 4c-.89 0-1.666.47-2.109 1.171A2.495 2.495 0 0 0 8.5 5 2.503 2.503 0 0 0 6 7.5v2.633a2.742 2.742 0 0 0-.552.211A2.785 2.785 0 0 0 4 12.787c0 1.586.723 2.941 1.031 3.52l.074.14c.019.037.04.073.063.108l.812 1.218C7.005 19.309 9.532 20 11 20h2c3.859 0 7-3.14 7-7V8.5C20 7.122 18.879 6 17.5 6c-.187 0-.368.024-.544.063"/></defs><g fill-rule="evenodd"><mask id="hsds-mine.svg-105-b"><use xlink:href="#hsds-mine.svg-105-a"/></mask><use xlink:href="#hsds-mine.svg-105-a"/><g mask="url(#hsds-mine.svg-105-b)"><rect/></g></g></svg>