<svg version="1.1" id="Layer_1" xmlns="http://www.w3.org/2000/svg" xmlns:xlink="http://www.w3.org/1999/xlink" x="0px" y="0px"
	 viewBox="0 0 20 20" style="enable-background:new 0 0 20 20;" xml:space="preserve">
<path d="M17,6v8c0,1.7-1.3,3-3,3H6c-1.7,0-3-1.3-3-3v-3c0-0.6,0.4-1,1-1s1,0.4,1,1v3c0,0.6,0.4,1,1,1h8c0.6,0,1-0.4,1-1V6
	c0-0.6-0.4-1-1-1h-3c-0.6,0-1-0.4-1-1s0.4-1,1-1h3C15.7,3,17,4.3,17,6z M9.6,11H7c-0.6,0-1,0.4-1,1s0.4,1,1,1h5c0.6,0,1-0.4,1-1V7
	c0-0.6-0.4-1-1-1s-1,0.4-1,1v2.6L5.7,4.3c-0.4-0.4-1-0.4-1.4,0c-0.4,0.4-0.4,1,0,1.4L9.6,11z"/>
</svg>
