<svg xmlns="http://www.w3.org/2000/svg" xmlns:xlink="http://www.w3.org/1999/xlink" viewBox="0 0 24 24"><defs><path id="hsds-minimize.svg-108-a" d="M13 7a1 1 0 1 1 0-2h3c1.654 0 3 1.346 3 3v8c0 1.654-1.346 3-3 3H8c-1.654 0-3-1.346-3-3v-3a1 1 0 1 1 2 0v3a1 1 0 0 0 1 1h8a1 1 0 0 0 1-1V8a1 1 0 0 0-1-1h-3zm-4 8a1 1 0 1 1 0-2h2.586L6.293 7.707a.999.999 0 1 1 1.414-1.414L13 11.586V9a1 1 0 1 1 2 0v5a1 1 0 0 1-1 1H9z"/></defs><g fill-rule="evenodd"><mask id="hsds-minimize.svg-108-b"><use xlink:href="#hsds-minimize.svg-108-a"/></mask><use xlink:href="#hsds-minimize.svg-108-a"/><g mask="url(#hsds-minimize.svg-108-b)"><rect transform="translate(2 2)"/></g></g></svg>