<svg xmlns="http://www.w3.org/2000/svg" xmlns:xlink="http://www.w3.org/1999/xlink" viewBox="0 0 24 24"><defs><path id="hsds-new-window-large.svg-110-a" d="M18 13a1 1 0 0 1 1 1v4c0 1.654-1.346 3-3 3H6c-1.654 0-3-1.346-3-3V8c0-1.654 1.346-3 3-3h4a1 1 0 1 1 0 2H6a1 1 0 0 0-1 1v10a1 1 0 0 0 1 1h10a1 1 0 0 0 1-1v-4a1 1 0 0 1 1-1zm2-10a1 1 0 0 1 1 1v6a1 1 0 1 1-2 0V6.414l-6.293 6.293a.997.997 0 0 1-1.414 0 .999.999 0 0 1 0-1.414L17.586 5H14a1 1 0 1 1 0-2h6z"/></defs><g fill-rule="evenodd"><mask id="hsds-new-window-large.svg-110-b"><use xlink:href="#hsds-new-window-large.svg-110-a"/></mask><use xlink:href="#hsds-new-window-large.svg-110-a"/><g mask="url(#hsds-new-window-large.svg-110-b)"><rect/></g></g></svg>