<svg xmlns="http://www.w3.org/2000/svg" xmlns:xlink="http://www.w3.org/1999/xlink" viewBox="0 0 24 24"><defs><path id="hsds-new-window.svg-116-a" d="M13 7a1 1 0 0 1 1-1c1.654 0 3 1.346 3 3v5c0 1.654-1.346 3-3 3H9c-1.654 0-3-1.346-3-3a1 1 0 1 1 2 0 1 1 0 0 0 1 1h5a1 1 0 0 0 1-1V9a1 1 0 0 0-1-1 1 1 0 0 1-1-1zm-2-1a1 1 0 1 1 0 2H9.414l3.293 3.293a.999.999 0 1 1-1.414 1.414L8 9.414V11a1 1 0 1 1-2 0V7a1 1 0 0 1 1-1h4z"/></defs><g fill-rule="evenodd"><mask id="hsds-new-window.svg-116-b"><use xlink:href="#hsds-new-window.svg-116-a"/></mask><use transform="matrix(-1 0 0 1 23 0)" xlink:href="#hsds-new-window.svg-116-a"/><g mask="url(#hsds-new-window.svg-116-b)"><rect/></g></g></svg>