<svg height="24" viewBox="0 0 24 24" width="24" xmlns="http://www.w3.org/2000/svg"><path d="m2 15.9961v-3.447l.566-.573 3.52 3.52-.5.5zm10.833-13.996h.003c.268 0 .518.104.707.292l2.164 2.164c.39.391.39 1.025 0 1.415l-1.209 1.209-3.571-3.571 1.197-1.212c.189-.191.44-.296.709-.297zm-3.312 2.932 3.563 3.563-5.584 5.586-3.529-3.528zm-2.814 12.771c-.187.188-.441.293-.707.293h-5c-.553 0-1-.448-1-1v-4.857c0-.264.104-.516.288-.703l10.413-10.545c.568-.573 1.321-.889 2.126-.891h.009c.802 0 1.554.311 2.121.878l2.164 2.164c1.17 1.17 1.17 3.073 0 4.243zm14.293-4.707c.553 0 1 .448 1 1s-.447 1-1 1h-2v2c0 .552-.447 1-1 1s-1-.448-1-1v-2h-2c-.553 0-1-.448-1-1s.447-1 1-1h2v-2c0-.552.447-1 1-1s1 .448 1 1v2z" fill="#4f5d6b" fill-rule="evenodd" transform="translate(1 3)"/></svg>