<svg xmlns="http://www.w3.org/2000/svg" viewBox="0 0 24 24"><path fill-rule="evenodd" d="M3 18.996v-3.447l.566-.573 3.52 3.52-.5.5H3zM13.833 5h.003c.268 0 .518.104.707.292l2.164 2.164c.39.391.39 1.025 0 1.415l-1.209 1.209-3.571-3.571 1.197-1.212A.994.994 0 0 1 13.833 5zm-3.312 2.932l3.563 3.563L8.5 17.081l-3.529-3.528 5.55-5.621zM7.707 20.703a.996.996 0 0 1-.707.293H2a1 1 0 0 1-1-1v-4.857c0-.264.104-.516.288-.703L11.701 3.891A2.981 2.981 0 0 1 13.827 3h.009c.802 0 1.554.311 2.121.878l2.164 2.164a3.003 3.003 0 0 1 0 4.243L7.707 20.703zM22 15.996a1 1 0 1 1 0 2h-2v2a1 1 0 1 1-2 0v-2h-2a1 1 0 1 1 0-2h2v-2a1 1 0 1 1 2 0v2h2z"/></svg>