<svg xmlns="http://www.w3.org/2000/svg" viewBox="0 0 24 24"><path fill-rule="evenodd" d="M16 17.304c0 .026-.002.05-.005.075-.04.348-.367.62-.762.62H8.769c-.425 0-.767-.311-.767-.695H8V6.694h.002c0-.344.275-.628.636-.684a.78.78 0 0 1 .262 0h6.202a.787.787 0 0 1 .262 0c.335.052.595.3.631.609a.595.595 0 0 1 0 .149v10.46c.003.026.005.05.005.076m-3.998 3.007c-.544 0-.986-.373-.986-.835 0-.461.442-.835.986-.835.542 0 .982.374.982.835 0 .462-.44.835-.982.835M10.886 4h2.17v.003c.245 0 .444.224.444.5 0 .254-.169.465-.386.497h-2.17v-.004c-.245 0-.444-.224-.444-.5 0-.255.169-.466.386-.496m5.57-1H7.543C6.69 3 6 3.587 6 4.311v15.377C6 20.412 6.69 21 7.543 21h8.913C17.31 21 18 20.412 18 19.688V4.311C18 3.587 17.31 3 16.456 3"/></svg>