<svg xmlns="http://www.w3.org/2000/svg" xmlns:xlink="http://www.w3.org/1999/xlink" viewBox="0 0 24 24"><defs><path id="hsds-offline.svg-113-a" d="M13.707 6.293a.999.999 0 0 0-1.414 0l-2 2a.999.999 0 0 0 0 1.414L11.586 11l-1.293 1.293a.999.999 0 0 0 0 1.414L11.586 15l-1.293 1.293a.999.999 0 1 0 1.414 1.414l2-2a.999.999 0 0 0 0-1.414L12.414 13l1.293-1.293a.999.999 0 0 0 0-1.414L12.414 9l1.293-1.293a.999.999 0 0 0 0-1.414M12 20c-4.411 0-8-3.589-8-8s3.589-8 8-8 8 3.589 8 8-3.589 8-8 8m0-18C6.486 2 2 6.486 2 12s4.486 10 10 10 10-4.486 10-10S17.514 2 12 2"/></defs><g fill-rule="evenodd"><mask id="hsds-offline.svg-113-b"><use xlink:href="#hsds-offline.svg-113-a"/></mask><use xlink:href="#hsds-offline.svg-113-a"/><g mask="url(#hsds-offline.svg-113-b)"><rect/></g></g></svg>