<svg viewBox="0 0 24 24" xmlns="http://www.w3.org/2000/svg">
    <path fill-rule="evenodd"
        d="M19 5H10L10 19H19V5ZM5 5L8 5L8 19H5L5 5ZM5 3C3.89543 3 3 3.89543 3 5V19C3 20.1046 3.89543 21 5 21H19C20.1046 21 21 20.1046 21 19V5C21 3.89543 20.1046 3 19 3H5ZM12.2929 13.2929C11.9024 13.6834 11.9024 14.3166 12.2929 14.7071C12.6834 15.0976 13.3166 15.0976 13.7071 14.7071L15.7071 12.7071C16.0976 12.3166 16.0976 11.6834 15.7071 11.2929L13.7071 9.29289C13.3166 8.90237 12.6834 8.90237 12.2929 9.29289C11.9024 9.68342 11.9024 10.3166 12.2929 10.7071L13.5858 12L12.2929 13.2929Z" />
</svg>