<svg viewBox="0 0 24 24" xmlns="http://www.w3.org/2000/svg">
    <path fill-rule="evenodd"
        d="M19 5H10L10 19H19V5ZM5 5L8 5L8 19H5L5 5ZM5 3C3.89543 3 3 3.89543 3 5V19C3 20.1046 3.89543 21 5 21H19C20.1046 21 21 20.1046 21 19V5C21 3.89543 20.1046 3 19 3H5ZM15.7071 10.7071C16.0976 10.3166 16.0976 9.68342 15.7071 9.29289C15.3166 8.90237 14.6834 8.90237 14.2929 9.29289L12.2929 11.2929C11.9024 11.6834 11.9024 12.3166 12.2929 12.7071L14.2929 14.7071C14.6834 15.0976 15.3166 15.0976 15.7071 14.7071C16.0976 14.3166 16.0976 13.6834 15.7071 13.2929L14.4142 12L15.7071 10.7071Z" />
</svg>