<svg xmlns="http://www.w3.org/2000/svg" xmlns:xlink="http://www.w3.org/1999/xlink" viewBox="0 0 24 24"><defs><path id="hsds-paper-plane.svg-114-a" d="M17.405 16.697l-6.486-3.244 7.716-6.6-1.23 9.844zm-7.405.89V15.23l1.57.786-1.57 1.57zM8.873 12.57l-2.267-.755 7.583-3.792-5.316 4.547zm11.704-9.387a1 1 0 0 0-1.025-.078l-16 8a.999.999 0 0 0-.55.966c.029.403.298.75.68.877L8 14.388V20a1 1 0 0 0 1.707.707l3.749-3.75 4.319 2.16a1.005 1.005 0 0 0 .919-.013 1 1 0 0 0 .52-.758l1.778-14.222a.999.999 0 0 0-.415-.941z"/></defs><g fill-rule="evenodd"><mask id="hsds-paper-plane.svg-114-b"><use xlink:href="#hsds-paper-plane.svg-114-a"/></mask><use xlink:href="#hsds-paper-plane.svg-114-a"/><g mask="url(#hsds-paper-plane.svg-114-b)"><rect/></g></g></svg>