<svg xmlns="http://www.w3.org/2000/svg" xmlns:xlink="http://www.w3.org/1999/xlink" viewBox="0 0 24 24"><defs><path id="hsds-pause.svg-119-a" d="M9 9a1 1 0 1 1 2 0v6a1 1 0 1 1-2 0V9zm4 0a1 1 0 1 1 2 0v6a1 1 0 1 1-2 0V9zm6 3c0-3.86-3.141-7-7-7s-7 3.14-7 7 3.141 7 7 7 7-3.14 7-7zM3 12c0-4.962 4.037-9 9-9s9 4.038 9 9-4.037 9-9 9-9-4.038-9-9z"/></defs><g fill-rule="evenodd"><mask id="hsds-pause.svg-119-b"><use xlink:href="#hsds-pause.svg-119-a"/></mask><use xlink:href="#hsds-pause.svg-119-a"/><g mask="url(#hsds-pause.svg-119-b)"><rect/></g></g></svg>