<svg height="24" viewBox="0 0 24 24" width="24" xmlns="http://www.w3.org/2000/svg"><path d="m13.707 5.8736-1.209 1.209-3.569-3.569 1.194-1.213c.189-.192.441-.297.709-.298h.004c.267 0 .518.104.707.292l2.164 2.164v.001c.189.188.293.439.293.706 0 .268-.105.519-.293.708zm-8.121 8.127h-3.586v-3.448l.564-.574 3.522 3.522zm1.913-1.915-3.532-3.532 3.559-3.615 3.559 3.559zm5.458-11.205c-.569-.569-1.318-.914-2.131-.878-.805.002-1.559.319-2.126.892l-8.414 8.548c-.183.187-.286.438-.286.701v3.857c0 1.103.897 2 2 2h4c.266 0 .52-.106.707-.294l8.414-8.419c.566-.566.879-1.32.879-2.122 0-.801-.313-1.554-.879-2.121z" fill-rule="evenodd" transform="translate(4 4)"/></svg>