<svg xmlns="http://www.w3.org/2000/svg" viewBox="0 0 24 24"><path fill-rule="evenodd" d="M20 17h-1v-1a1 1 0 0 0-2 0v1h-1a1 1 0 0 0 0 2h1v1a1 1 0 0 0 2 0v-1h1a1 1 0 0 0 0-2m-9-4c-2.206 0-4-1.794-4-4s1.794-4 4-4 4 1.794 4 4-1.794 4-4 4m4.94 1.485a1 1 0 0 0-.727-1.213l-.005-.001A5.985 5.985 0 0 0 17 9c0-3.309-2.691-6-6-6S5 5.691 5 9c0 1.67.688 3.182 1.793 4.271l-.005.001A4.994 4.994 0 0 0 3 18.123V20a1 1 0 0 0 2 0v-1.877c0-1.379.935-2.576 2.272-2.91L8.123 15h5.754l.851.213a.999.999 0 0 0 1.212-.728"/></svg>