<svg xmlns="http://www.w3.org/2000/svg" viewBox="0 0 24 24"><path fill-rule="evenodd" d="M14.982 11.821a4.983 4.983 0 0 0-3.418-4.546A2.976 2.976 0 0 1 14 6c1.654 0 3 1.345 3 3a2.996 2.996 0 0 1-2.018 2.821M10 15c-1.655 0-3-1.346-3-3 0-1.655 1.345-3 3-3 1.654 0 3 1.345 3 3 0 1.654-1.346 3-3 3m7.727-2.349l-.258-.065A4.974 4.974 0 0 0 19 9c0-2.757-2.244-5-5-5a4.978 4.978 0 0 0-4.587 3.059C6.935 7.354 5 9.444 5 12c0 1.408.589 2.676 1.53 3.586l-.259.065A2.996 2.996 0 0 0 4 18.561V19a1 1 0 1 0 2 0v-.439c0-.459.311-.859.756-.97L9.123 17h1.754l2.365.591a.999.999 0 0 1 .758.97V19a1 1 0 1 0 2 0v-.439a2.996 2.996 0 0 0-2.273-2.91l-.258-.065a5.015 5.015 0 0 0 1.139-1.648l.068-.007c.029.011.051.032.081.039l2.485.621a.999.999 0 0 1 .758.97V16a1 1 0 1 0 2 0v-.439a2.996 2.996 0 0 0-2.273-2.91"/></svg>