<svg xmlns="http://www.w3.org/2000/svg" viewBox="0 0 24 24"><path fill-rule="evenodd" d="M11 13c-2.206 0-4-1.794-4-4s1.794-4 4-4 4 1.794 4 4-1.794 4-4 4m3.888.562A.978.978 0 0 1 15 14a1 1 0 0 1-1 1H8.123l-.85.213A2.995 2.995 0 0 0 5 18.123V20a1 1 0 1 1-2 0v-1.877a4.994 4.994 0 0 1 3.788-4.851l.005-.001A5.98 5.98 0 0 1 5 9c0-3.309 2.691-6 6-6s6 2.691 6 6c0 1.825-.822 3.46-2.112 4.562zM19.414 18l1.293 1.293a.999.999 0 1 1-1.414 1.414L18 19.414l-1.293 1.293a.997.997 0 0 1-1.414 0 .999.999 0 0 1 0-1.414L16.586 18l-1.293-1.293a.999.999 0 1 1 1.414-1.414L18 16.586l1.293-1.293a.999.999 0 1 1 1.414 1.414L19.414 18z"/></svg>