<svg xmlns="http://www.w3.org/2000/svg" xmlns:xlink="http://www.w3.org/1999/xlink" viewBox="0 0 24 24"><defs><path id="hsds-power.svg-125-a" d="M12 11a1 1 0 0 1-1-1V4a1 1 0 1 1 2 0v6a1 1 0 0 1-1 1zm4.504-6.793A9.033 9.033 0 0 1 21 12c0 4.963-4.038 9-9 9s-9-4.037-9-9a9.035 9.035 0 0 1 4.499-7.795 1 1 0 1 1 1.002 1.731A7.028 7.028 0 0 0 5 12c0 3.859 3.14 7 7 7s7-3.141 7-7c0-2.49-1.34-4.813-3.498-6.063a.999.999 0 1 1 1.002-1.73z"/></defs><g fill-rule="evenodd"><mask id="hsds-power.svg-125-b"><use xlink:href="#hsds-power.svg-125-a"/></mask><use xlink:href="#hsds-power.svg-125-a"/><g mask="url(#hsds-power.svg-125-b)"><rect/></g></g></svg>