<svg xmlns="http://www.w3.org/2000/svg" xmlns:xlink="http://www.w3.org/1999/xlink" viewBox="0 0 24 24"><defs><path id="hsds-quote.svg-143-a" d="M16.406 11.865a2.56 2.56 0 0 1 2.552 2.567A2.56 2.56 0 0 1 16.406 17h-.077C14.549 17 13 15.728 13 13.139c0-2.909 1.954-5.367 4.615-6.092a1.07 1.07 0 0 1 1.338.717c.172.57-.14 1.201-.713 1.347-1.263.3-2.35 1.297-2.554 2.575v.006c-.013.096-.015.197-.02.296.236-.073.48-.123.74-.123zm-8 0a2.56 2.56 0 0 1 2.552 2.567A2.56 2.56 0 0 1 8.406 17h-.077C6.549 17 5 15.728 5 13.139c0-2.909 1.954-5.367 4.615-6.092a1.07 1.07 0 0 1 1.338.717c.172.57-.14 1.201-.713 1.347-1.263.3-2.35 1.297-2.554 2.575v.006c-.013.096-.015.197-.02.296.236-.073.48-.123.74-.123z"/></defs><g fill-rule="evenodd"><mask id="hsds-quote.svg-143-b"><use xlink:href="#hsds-quote.svg-143-a"/></mask><use xlink:href="#hsds-quote.svg-143-a"/><g mask="url(#hsds-quote.svg-143-b)"><rect/></g></g></svg>