<svg xmlns="http://www.w3.org/2000/svg" xmlns:xlink="http://www.w3.org/1999/xlink" viewBox="0 0 24 24"><defs><path id="hsds-refresh.svg-129-a" d="M12 6h-.586l1.293-1.293a.999.999 0 1 0-1.414-1.414l-3 3a.999.999 0 0 0 0 1.414l3 3a.997.997 0 0 0 1.414 0 .999.999 0 0 0 0-1.414L11.414 8H12c2.757 0 5 2.243 5 5s-2.243 5-5 5-5-2.243-5-5a1 1 0 1 0-2 0c0 3.859 3.14 7 7 7s7-3.141 7-7-3.14-7-7-7"/></defs><g fill-rule="evenodd"><mask id="hsds-refresh.svg-129-b"><use xlink:href="#hsds-refresh.svg-129-a"/></mask><use xlink:href="#hsds-refresh.svg-129-a"/><g mask="url(#hsds-refresh.svg-129-b)"><rect/></g></g></svg>