<svg xmlns="http://www.w3.org/2000/svg" viewBox="0 0 24 24"><path fill-rule="evenodd" d="M13.293 9.293l-4 4a.999.999 0 1 0 1.414 1.414l4-4a.999.999 0 1 0-1.414-1.414M18 12.32c0 .13-.105.235-.235.235-.73 0-1.375.437-1.677 1.188a1.764 1.764 0 0 0 .381 1.94.236.236 0 0 1 .001.333l-.453.453a.235.235 0 0 1-.333 0c-.512-.513-1.277-.662-2.016-.35a1.762 1.762 0 0 0-1.112 1.645c0 .13-.106.236-.236.236h-.64a.236.236 0 0 1-.236-.236c0-.729-.436-1.375-1.187-1.676a1.765 1.765 0 0 0-1.941.381.235.235 0 0 1-.333 0l-.452-.453a.236.236 0 0 1-.002-.332c.514-.512.664-1.274.352-2.017a1.764 1.764 0 0 0-1.646-1.112A.235.235 0 0 1 6 12.32v-.641c0-.13.105-.235.235-.235.73 0 1.375-.436 1.677-1.187a1.763 1.763 0 0 0-.381-1.94.236.236 0 0 1-.001-.333l.453-.454a.238.238 0 0 1 .333 0c.511.512 1.276.662 2.016.351a1.763 1.763 0 0 0 1.112-1.646c0-.13.106-.235.236-.235h.64c.13 0 .236.105.236.235 0 .73.436 1.375 1.187 1.676a1.763 1.763 0 0 0 1.941-.381.236.236 0 0 1 .333 0l.452.453a.236.236 0 0 1 .002.332c-.514.512-.664 1.275-.352 2.017a1.763 1.763 0 0 0 1.646 1.112c.13 0 .235.105.235.235v.641zm.106-2.85a2.24 2.24 0 0 0-.222-2.9l-.453-.454a2.238 2.238 0 0 0-2.902-.223A2.238 2.238 0 0 0 12.32 4h-.64a2.238 2.238 0 0 0-2.209 1.893 2.241 2.241 0 0 0-2.902.223l-.454.454a2.24 2.24 0 0 0-.221 2.9A2.238 2.238 0 0 0 4 11.679v.641c0 1.116.822 2.044 1.894 2.209a2.241 2.241 0 0 0 .222 2.901l.453.453a2.239 2.239 0 0 0 2.902.223A2.238 2.238 0 0 0 11.68 20h.64a2.238 2.238 0 0 0 2.209-1.894 2.237 2.237 0 0 0 2.902-.223l.454-.454a2.24 2.24 0 0 0 .221-2.9A2.238 2.238 0 0 0 20 12.32v-.641a2.238 2.238 0 0 0-1.894-2.209z"/></svg>