<svg xmlns="http://www.w3.org/2000/svg" xmlns:xlink="http://www.w3.org/1999/xlink" viewBox="0 0 24 24"><defs><path id="hsds-screen.svg-131-a" d="M7 7c-.552 0-1 .524-1 1.167v4.666C6 13.476 6.448 14 7 14h10c.552 0 1-.524 1-1.167V8.167C18 7.524 17.552 7 17 7H7zm0 9c-1.654 0-3-1.346-3-3V8c0-1.654 1.346-3 3-3h10c1.654 0 3 1.346 3 3v5c0 1.654-1.346 3-3 3H7zm7 3h-4a1 1 0 1 1 0-2h4a1 1 0 1 1 0 2z"/></defs><g fill-rule="evenodd"><mask id="hsds-screen.svg-131-b"><use xlink:href="#hsds-screen.svg-131-a"/></mask><use xlink:href="#hsds-screen.svg-131-a"/><g mask="url(#hsds-screen.svg-131-b)"><rect/></g></g></svg>