<svg xmlns="http://www.w3.org/2000/svg" xmlns:xlink="http://www.w3.org/1999/xlink" viewBox="0 0 24 24"><defs><path id="hsds-search-medium.svg-132-a" d="M6 10.5C6 8.019 8.019 6 10.5 6S15 8.019 15 10.5 12.981 15 10.5 15A4.505 4.505 0 0 1 6 10.5m13.707 7.793l-3.965-3.966A6.456 6.456 0 0 0 17 10.5C17 6.916 14.084 4 10.5 4A6.508 6.508 0 0 0 4 10.5c0 3.584 2.916 6.5 6.5 6.5a6.455 6.455 0 0 0 3.828-1.259l3.965 3.966a.997.997 0 0 0 1.414 0 .999.999 0 0 0 0-1.414"/></defs><g fill-rule="evenodd"><mask id="hsds-search-medium.svg-132-b"><use xlink:href="#hsds-search-medium.svg-132-a"/></mask><use xlink:href="#hsds-search-medium.svg-132-a"/><g mask="url(#hsds-search-medium.svg-132-b)"><rect/></g></g></svg>