<svg xmlns="http://www.w3.org/2000/svg" xmlns:xlink="http://www.w3.org/1999/xlink" viewBox="0 0 24 24"><defs><path id="hsds-search-small.svg-141-a" d="M10.5 14C8.57 14 7 12.43 7 10.5S8.57 7 10.5 7 14 8.57 14 10.5 12.43 14 10.5 14m8.207 3.293l-3.679-3.679A5.46 5.46 0 0 0 16 10.5C16 7.467 13.533 5 10.5 5A5.506 5.506 0 0 0 5 10.5c0 3.032 2.467 5.5 5.5 5.5a5.46 5.46 0 0 0 3.114-.972l3.679 3.679a.997.997 0 0 0 1.414 0 .999.999 0 0 0 0-1.414"/></defs><g fill-rule="evenodd"><mask id="hsds-search-small.svg-141-b"><use xlink:href="#hsds-search-small.svg-141-a"/></mask><use xlink:href="#hsds-search-small.svg-141-a"/><g mask="url(#hsds-search-small.svg-141-b)"><rect/></g></g></svg>