<svg xmlns="http://www.w3.org/2000/svg" xmlns:xlink="http://www.w3.org/1999/xlink" viewBox="0 0 24 24"><defs><path id="hsds-shopping-cart.svg-135-a" d="M17.292 11.165a.995.995 0 0 1-.986.835H8V8h9.819l-.527 3.165zM19 16H9a1 1 0 0 1-1-1v-1h8.306a2.99 2.99 0 0 0 2.959-2.506l.721-4.329A.999.999 0 0 0 19 6H8V5a1 1 0 0 0-1-1H5a1 1 0 1 0 0 2h1v9c0 1.421.995 2.608 2.323 2.917A1.992 1.992 0 0 0 8 19c0 1.103.897 2 2 2s2-.897 2-2c0-.365-.105-.704-.278-1h3.556A1.974 1.974 0 0 0 15 19c0 1.103.897 2 2 2s2-.897 2-2c0-.365-.105-.704-.278-1H19a1 1 0 1 0 0-2z"/></defs><g fill-rule="evenodd"><mask id="hsds-shopping-cart.svg-135-b"><use xlink:href="#hsds-shopping-cart.svg-135-a"/></mask><use xlink:href="#hsds-shopping-cart.svg-135-a"/><g mask="url(#hsds-shopping-cart.svg-135-b)"><rect/></g></g></svg>