<svg xmlns="http://www.w3.org/2000/svg" xmlns:xlink="http://www.w3.org/1999/xlink" viewBox="0 0 24 24"><defs><path id="hsds-sign.svg-136-a" d="M18 16.972c0 .551-.449 1-1 1H7c-.551 0-1-.449-1-1v-4c0-.55.449-1 1-1h10c.551 0 1 .45 1 1v4zM12 6.775l2.131 3.197H9.869L12 6.775zm5 3.197h-.465l-3.703-5.555c-.371-.556-1.293-.556-1.664 0L7.465 9.972H7c-1.654 0-3 1.346-3 3v4c0 1.654 1.346 3 3 3h10c1.654 0 3-1.346 3-3v-4c0-1.654-1.346-3-3-3z"/></defs><g fill-rule="evenodd"><mask id="hsds-sign.svg-136-b"><use xlink:href="#hsds-sign.svg-136-a"/></mask><use xlink:href="#hsds-sign.svg-136-a"/><g mask="url(#hsds-sign.svg-136-b)"><rect/></g></g></svg>