<svg width="24" height="24" viewBox="0 0 24 24" fill="none" xmlns="http://www.w3.org/2000/svg">
<g opacity="0.1">
<path d="M9.5 9C10.3284 9 11 8.32843 11 7.5C11 6.67157 10.3284 6 9.5 6C8.67157 6 8 6.67157 8 7.5C8 8.32843 8.67157 9 9.5 9Z" fill="#405261"/>
<path d="M9.5 13C10.3284 13 11 12.3284 11 11.5C11 10.6716 10.3284 10 9.5 10C8.67157 10 8 10.6716 8 11.5C8 12.3284 8.67157 13 9.5 13Z" fill="#405261"/>
<path d="M11 15.5C11 16.3284 10.3284 17 9.5 17C8.67157 17 8 16.3284 8 15.5C8 14.6716 8.67157 14 9.5 14C10.3284 14 11 14.6716 11 15.5Z" fill="#405261"/>
<path d="M13.5 9C14.3284 9 15 8.32843 15 7.5C15 6.67157 14.3284 6 13.5 6C12.6716 6 12 6.67157 12 7.5C12 8.32843 12.6716 9 13.5 9Z" fill="#405261"/>
<path d="M15 11.5C15 12.3284 14.3284 13 13.5 13C12.6716 13 12 12.3284 12 11.5C12 10.6716 12.6716 10 13.5 10C14.3284 10 15 10.6716 15 11.5Z" fill="#405261"/>
<path d="M13.5 17C14.3284 17 15 16.3284 15 15.5C15 14.6716 14.3284 14 13.5 14C12.6716 14 12 14.6716 12 15.5C12 16.3284 12.6716 17 13.5 17Z" fill="#405261"/>
</g>
<g opacity="0.5">
<path d="M10.5 7.5C10.5 8.05228 10.0523 8.5 9.5 8.5C8.94772 8.5 8.5 8.05228 8.5 7.5C8.5 6.94772 8.94772 6.5 9.5 6.5C10.0523 6.5 10.5 6.94772 10.5 7.5Z" fill="#405261"/>
<path d="M10.5 11.5C10.5 12.0523 10.0523 12.5 9.5 12.5C8.94772 12.5 8.5 12.0523 8.5 11.5C8.5 10.9477 8.94772 10.5 9.5 10.5C10.0523 10.5 10.5 10.9477 10.5 11.5Z" fill="#405261"/>
<path d="M10.5 15.5C10.5 16.0523 10.0523 16.5 9.5 16.5C8.94772 16.5 8.5 16.0523 8.5 15.5C8.5 14.9477 8.94772 14.5 9.5 14.5C10.0523 14.5 10.5 14.9477 10.5 15.5Z" fill="#405261"/>
<path d="M14.5 7.5C14.5 8.05228 14.0523 8.5 13.5 8.5C12.9477 8.5 12.5 8.05228 12.5 7.5C12.5 6.94772 12.9477 6.5 13.5 6.5C14.0523 6.5 14.5 6.94772 14.5 7.5Z" fill="#405261"/>
<path d="M14.5 11.5C14.5 12.0523 14.0523 12.5 13.5 12.5C12.9477 12.5 12.5 12.0523 12.5 11.5C12.5 10.9477 12.9477 10.5 13.5 10.5C14.0523 10.5 14.5 10.9477 14.5 11.5Z" fill="#405261"/>
<path d="M14.5 15.5C14.5 16.0523 14.0523 16.5 13.5 16.5C12.9477 16.5 12.5 16.0523 12.5 15.5C12.5 14.9477 12.9477 14.5 13.5 14.5C14.0523 14.5 14.5 14.9477 14.5 15.5Z" fill="#405261"/>
</g>
<path d="M10 7.5C10 7.77614 9.77614 8 9.5 8C9.22386 8 9 7.77614 9 7.5C9 7.22386 9.22386 7 9.5 7C9.77614 7 10 7.22386 10 7.5Z" fill="#405261"/>
<path d="M10 11.5C10 11.7761 9.77614 12 9.5 12C9.22386 12 9 11.7761 9 11.5C9 11.2239 9.22386 11 9.5 11C9.77614 11 10 11.2239 10 11.5Z" fill="#405261"/>
<path d="M10 15.5C10 15.7761 9.77614 16 9.5 16C9.22386 16 9 15.7761 9 15.5C9 15.2239 9.22386 15 9.5 15C9.77614 15 10 15.2239 10 15.5Z" fill="#405261"/>
<path d="M14 7.5C14 7.77614 13.7761 8 13.5 8C13.2239 8 13 7.77614 13 7.5C13 7.22386 13.2239 7 13.5 7C13.7761 7 14 7.22386 14 7.5Z" fill="#405261"/>
<path d="M14 11.5C14 11.7761 13.7761 12 13.5 12C13.2239 12 13 11.7761 13 11.5C13 11.2239 13.2239 11 13.5 11C13.7761 11 14 11.2239 14 11.5Z" fill="#405261"/>
<path d="M14 15.5C14 15.7761 13.7761 16 13.5 16C13.2239 16 13 15.7761 13 15.5C13 15.2239 13.2239 15 13.5 15C13.7761 15 14 15.2239 14 15.5Z" fill="#405261"/>
</svg>
