<svg xmlns="http://www.w3.org/2000/svg" xmlns:xlink="http://www.w3.org/1999/xlink" viewBox="0 0 14 7"><defs><path id="hsds-small-paperclip.svg-137-a" d="M11.5 7h-8C1.57 7 0 5.43 0 3.5S1.57 0 3.5 0h7a.5.5 0 0 1 0 1h-7A2.503 2.503 0 0 0 1 3.5C1 4.878 2.122 6 3.5 6h8c.827 0 1.5-.673 1.5-1.5S12.327 3 11.5 3h-7a.5.5 0 0 0 0 1h6a.5.5 0 0 1 0 1h-6C3.673 5 3 4.327 3 3.5S3.673 2 4.5 2h7C12.879 2 14 3.122 14 4.5S12.879 7 11.5 7"/></defs><g fill-rule="evenodd"><mask id="hsds-small-paperclip.svg-137-b"><use xlink:href="#hsds-small-paperclip.svg-137-a"/></mask><use xlink:href="#hsds-small-paperclip.svg-137-a"/><g mask="url(#hsds-small-paperclip.svg-137-b)"><rect/></g></g></svg>