<svg viewBox="0 0 24 24" fill="none" xmlns="http://www.w3.org/2000/svg"><g opacity=".1" fill="#405261"><path d="M9.5 9a1.5 1.5 0 100-3 1.5 1.5 0 000 3zM9.5 13a1.5 1.5 0 100-3 1.5 1.5 0 000 3zM11 15.5a1.5 1.5 0 11-3 0 1.5 1.5 0 013 0zM13.5 9a1.5 1.5 0 100-3 1.5 1.5 0 000 3zM15 11.5a1.5 1.5 0 11-3 0 1.5 1.5 0 013 0zM13.5 17a1.5 1.5 0 100-3 1.5 1.5 0 000 3z"/></g><g opacity=".5" fill="#405261"><path d="M10.5 7.5a1 1 0 11-2 0 1 1 0 012 0zM10.5 11.5a1 1 0 11-2 0 1 1 0 012 0zM10.5 15.5a1 1 0 11-2 0 1 1 0 012 0zM14.5 7.5a1 1 0 11-2 0 1 1 0 012 0zM14.5 11.5a1 1 0 11-2 0 1 1 0 012 0zM14.5 15.5a1 1 0 11-2 0 1 1 0 012 0z"/></g><path d="M10 7.5a.5.5 0 11-1 0 .5.5 0 011 0zM10 11.5a.5.5 0 11-1 0 .5.5 0 011 0zM10 15.5a.5.5 0 11-1 0 .5.5 0 011 0zM14 7.5a.5.5 0 11-1 0 .5.5 0 011 0zM14 11.5a.5.5 0 11-1 0 .5.5 0 011 0zM14 15.5a.5.5 0 11-1 0 .5.5 0 011 0z" fill="#405261"/></svg>
