<svg xmlns="http://www.w3.org/2000/svg" xmlns:xlink="http://www.w3.org/1999/xlink" viewBox="0 0 24 24"><defs><path id="hsds-social-facebook.svg-138-a" d="M20 3H4c-.293 0-.533.09-.72.27-.187.18-.28.423-.28.73v16c0 .267.093.5.28.7.187.2.427.3.72.3h8.6v-7h-2.3v-2.7h2.3v-2c0-1.133.317-2.017.95-2.65s1.483-.95 2.55-.95c.387 0 .827.013 1.32.04l.78.06v2.4h-1.4c-.52 0-.873.113-1.06.34-.16.2-.24.52-.24.96v1.7h2.7l-.4 2.8h-2.3v7H20c.267 0 .5-.093.7-.28A.94.94 0 0 0 21 20V4c0-.307-.09-.55-.27-.73-.18-.18-.423-.27-.73-.27z"/></defs><g fill-rule="evenodd"><mask id="hsds-social-facebook.svg-138-b"><use xlink:href="#hsds-social-facebook.svg-138-a"/></mask><use xlink:href="#hsds-social-facebook.svg-138-a"/><g mask="url(#hsds-social-facebook.svg-138-b)"><rect/></g></g></svg>