<svg xmlns="http://www.w3.org/2000/svg" fill="currentColor" viewBox="0 0 24 24">
  <path fill-rule="evenodd" d="M16.803 9.513c.156 3.462-2.427 7.323-6.998 7.323a6.962 6.962 0 0 1-3.774-1.107 4.95 4.95 0 0 0 3.645-1.019 2.464 2.464 0 0 1-2.3-1.71c.386.074.765.053 1.112-.042a2.465 2.465 0 0 1-1.975-2.445 2.45 2.45 0 0 0 1.115.308 2.465 2.465 0 0 1-.762-3.287 6.99 6.99 0 0 0 5.075 2.573 2.465 2.465 0 0 1 4.195-2.246 4.94 4.94 0 0 0 1.564-.597 2.472 2.472 0 0 1-1.083 1.362 4.92 4.92 0 0 0 1.414-.388c-.33.494-.747.928-1.228 1.275"/>
</svg>