<svg xmlns="http://www.w3.org/2000/svg" fill="currentColor" viewBox="0 0 24 24">
  <path d="M3.923 15V8.604h1.651v.78c.087-.156.2-.295.338-.416.139-.121.292-.221.462-.299a2.76 2.76 0 0 1 .533-.182 2.38 2.38 0 0 1 .539-.065c.442 0 .828.091 1.157.273.33.182.576.446.741.793.251-.39.546-.665.884-.825.338-.16.72-.241 1.144-.241.295 0 .58.045.858.136.277.092.524.237.741.436.217.2.39.453.52.76.13.308.195.674.195 1.099V15h-1.677v-3.796c0-.347-.089-.635-.267-.865-.177-.23-.465-.344-.864-.344-.373 0-.663.123-.871.37a1.337 1.337 0 0 0-.312.891V15H7.979v-3.796c0-.347-.091-.635-.273-.865-.182-.23-.468-.344-.858-.344-.381 0-.676.121-.884.364a1.33 1.33 0 0 0-.312.897V15H3.923zm15.639-3.926a1.569 1.569 0 0 0-.098-.461 1.112 1.112 0 0 0-.26-.403 1.343 1.343 0 0 0-.442-.287 1.64 1.64 0 0 0-.63-.11 1.444 1.444 0 0 0-1.04.416 1.323 1.323 0 0 0-.39.845h2.86zm1.612 2.093a2.72 2.72 0 0 1-.988 1.43 2.975 2.975 0 0 1-.852.435 3.375 3.375 0 0 1-1.072.163 3.51 3.51 0 0 1-1.261-.228 3.053 3.053 0 0 1-1.053-.669 3.21 3.21 0 0 1-.722-1.079 3.708 3.708 0 0 1-.266-1.443c0-.511.087-.975.26-1.391a3.122 3.122 0 0 1 2.886-1.976c.997 0 1.772.295 2.327.884.555.59.832 1.4.832 2.431 0 .121-.004.236-.013.345a4.334 4.334 0 0 0-.013.188h-4.576c.009.208.058.4.15.579a1.585 1.585 0 0 0 .852.767c.19.073.393.11.61.11.407 0 .726-.091.956-.273a1.55 1.55 0 0 0 .5-.702l1.443.429z"/>
</svg>