<svg xmlns="http://www.w3.org/2000/svg" fill="currentColor" viewBox="0 0 24 24">
  <path fill-rule="evenodd" d="M18.337 6.972c-.005.035-.034.187-.083.43a80.655 80.655 0 0 0-1.623 7.939l-.004.02c-.005.019-.008.035-.01.049l-.009.034a.262.262 0 0 1-.108.144.274.274 0 0 1-.141.04.25.25 0 0 1-.104-.023.951.951 0 0 0-.22-.057.922.922 0 0 0-.294.002l-.08.003-.1-.031-.035-.034a.259.259 0 0 1-.085-.225l.007-.075c.367-2.64.604-5.347.707-8.058l.013-.152c.023-.247.028-.298.033-.326.04-.277.19-.529.422-.702a1.082 1.082 0 0 1 1.715 1.021zm-1.51 10.681a1.068 1.068 0 0 1-.422.708 1.073 1.073 0 0 1-.8.203 1.074 1.074 0 0 1-.71-.423 1.072 1.072 0 0 1-.204-.8c.041-.286.192-.538.423-.71.232-.173.517-.246.802-.204.285.041.538.192.71.424.173.232.244.517.202.802zm-5.307.348c0 .1-.058.188-.144.23l-.096.071-.131-.07a1.653 1.653 0 0 0-.637-.12c-.235 0-.46.043-.636.121l-.044.03-.081.001a.257.257 0 0 1-.258-.26l.07-5.061-3.877-6.774a.256.256 0 0 1 .038-.308.26.26 0 0 1 .303-.05c.178.085.414.133.665.133.251 0 .488-.048.667-.135a.262.262 0 0 1 .342.114l2.811 4.86 2.816-4.87a.26.26 0 0 1 .34-.102c.176.085.413.133.664.133.25 0 .486-.048.667-.135a.256.256 0 0 1 .304.054.26.26 0 0 1 .052.273l-.015.032-3.892 6.797L11.52 18z"/>
</svg>