<svg xmlns="http://www.w3.org/2000/svg" fill="currentColor" viewBox="0 0 24 24">
  <path fill-rule="evenodd" d="M16.63 17.43c-.782.67-.884.754-1.803 1.57-.885-1.8-1.957-2.793-3.423-3.19-.861 1.172-2.262 2.54-4.453 3.172A47.705 47.705 0 0 1 6 16.758c1.752-.43 2.39-1.015 3.249-2.75-.062-2.107.45-4.18 1.73-5.008.665.23 1.764.923 2.077 1.028-.044.214.102.457.638.581.408.095 1.366.243 2.29-.643.568.92 1.016 1.81 1.016 1.81s-1.77 1.857-3.865 1.274c-.014.289-.024.38-.037.749 1.425.732 2.922 2.077 3.532 3.631M13.993 5C15.078 5 16 5.895 16 7c0 1.104-.922 2-2.007 2A2.007 2.007 0 0 1 12 7c0-1.105.908-2 1.993-2"/>
</svg>