<svg xmlns="http://www.w3.org/2000/svg" fill="currentColor" viewBox="0 0 24 24">
  <path fill-rule="evenodd" d="M15.573 7.358H9.648a.351.351 0 0 0-.35.35v8.97L11.5 14.08c.26-.307.723-.52 1.125-.52h1.65a.451.451 0 0 0 .422-.344l.364-1.736a.274.274 0 0 0-.28-.343h-2.337a.718.718 0 0 1 0-1.437h2.638a.452.452 0 0 0 .422-.343l.019-.089.08-.382.247-1.185a.274.274 0 0 0-.278-.343m1.865-.228l-1.453 6.952a1.17 1.17 0 0 1-1.125.914h-2.215a.248.248 0 0 0-.06.028l-3.231 3.81c-.241.283-.506.343-.685.343-.392 0-.808-.312-.808-.891V6.99c0-.589.48-1.068 1.069-1.068h7.527c.309 0 .595.133.784.366.189.232.26.54.197.842"/>
</svg>