<svg xmlns="http://www.w3.org/2000/svg" fill="currentColor" viewBox="0 0 24 24">
  <path fill-rule="evenodd" d="M11.625 9c.187 0 .375.179.375.357v2.5C12 13.036 10.988 14 9.75 14v-1.072c.637 0 1.125-.464 1.125-1.07h-1.5c-.188 0-.375-.18-.375-.358V9.357C9 9.18 9.187 9 9.375 9h2.25zm4 0c.187 0 .375.179.375.357v2.5C16 13.036 14.988 14 13.75 14v-1.072c.637 0 1.125-.464 1.125-1.07h-1.5c-.188 0-.375-.18-.375-.358V9.357c0-.178.187-.357.375-.357h2.25zM12 18.88v-1.966c-3.243 0-5.897-2.654-5.897-5.897C6.103 7.774 8.757 5.12 12 5.12c3.243 0 5.897 2.654 5.897 5.897 0 3.243-1.9 6.716-5.897 7.863"/>
</svg>