<svg xmlns="http://www.w3.org/2000/svg" fill="currentColor" viewBox="0 0 24 24">
  <path fill-rule="evenodd" d="M13.043 16.143c.907.731 1.94 1.288 3.069 1.572v.077l.003.001v.153a9.923 9.923 0 0 1-3.287-.872c-.28-.116-.56-.242-.837-.379-.852.405-1.725.717-2.596.914-.427.106-.866.19-1.317.247v-.154h.003v-.078c1.07-.27 2.053-.783 2.925-1.459C7.19 13.93 4.018 9.918 3.92 6.054l2.318.898.699.25 2.099.621a6.306 6.306 0 0 0-.011.37c0 2.268 1.136 5.03 3.029 7.032 1.945-2.008 3.116-4.82 3.116-7.122 0-.124-.004-.248-.011-.37l2.13-.63.665-.224 2.128-.825c-.1 3.893-3.234 7.89-7.038 10.089"/>
</svg>