<svg xmlns="http://www.w3.org/2000/svg" fill="currentColor" viewBox="0 0 24 24">
  <path fill-rule="evenodd" d="M12.5 7C10.566 7 9 8.855 9 11.144v1.712C9 15.145 10.566 17 12.5 17c.28 0 .55-.04.811-.113-.695-1.144-1.711-1.182-1.711-1.182v-1.306a4.431 4.431 0 0 1 3.431 1.317c.6-.744.969-1.75.969-2.86v-1.712C16 8.855 14.433 7 12.5 7m4.86 11.725v1.179c-2.106.4-3.099-.438-3.75-1.623a6.785 6.785 0 0 1-1.617.196c-3.789 0-6.86-3.112-6.86-6.953 0-3.84 3.071-6.954 6.86-6.954s6.86 3.113 6.86 6.954a6.97 6.97 0 0 1-3.255 5.916c.411.945 1.762 1.285 1.762 1.285"/>
</svg>