<svg xmlns="http://www.w3.org/2000/svg" fill="currentColor" viewBox="0 0 24 24">
  <path fill-rule="evenodd" d="M10 14l5-2-5-2v4zm8.332.877c-.11.933-.333 1.206-.49 1.33-.254.198-.714.267-1.327.309-.987.066-2.655.106-4.464.106-1.809 0-3.477-.04-4.463-.106-.613-.042-1.073-.11-1.327-.31-.158-.123-.381-.396-.491-1.329-.158-1.345-.158-4.412 0-5.757.11-.934.333-1.206.491-1.33.254-.198.714-.267 1.327-.309.986-.067 2.654-.107 4.463-.107 1.808 0 3.477.04 4.464.107.613.042 1.073.11 1.326.308.158.125.382.397.491 1.33.159 1.346.159 4.413 0 5.758"/>
</svg>