<svg xmlns="http://www.w3.org/2000/svg" fill="currentColor" viewBox="0 0 24 24">
  <path fill-rule="evenodd" d="M19.792 16.85c-.156.261-.4.42-.745.486l-.19.037-.06.181c-.039.121-.094.232-.168.339l-.114.165c-.219.225-.967.755-3.243.903l-.031.003c-.072.012-.143.023-.214.036h-1.943a5.886 5.886 0 0 0-.06-.01l-.093-.014c-2.392-.114-3.041-.612-3.18-.754v-.037l-.1-.095a1.248 1.248 0 0 1-.337-.535l-.057-.175-.183-.041a1.361 1.361 0 0 1-.44-.19l.002-.067-.214-.078c-.019-.007-.443-.2-.421-1.053.403-3.6 3.526-4.865 3.881-4.998l.54-.201-.453-.35a2.977 2.977 0 0 1-1.183-2.364C10.786 6.363 12.214 5 13.969 5a3.24 3.24 0 0 1 2.253.892c.6.574.93 1.336.93 2.146 0 .912-.423 1.768-1.162 2.348l-.46.36.556.193c1.749.603 3.108 1.902 3.636 3.474.344 1.026.37 1.937.07 2.438M5.169 14.59v-.023l-.099-.092a.73.73 0 0 1-.198-.312l-.057-.17-.18-.041c-.189-.042-.314-.15-.316-.152l-.018-.041-.08-.021c-.01-.005-.231-.115-.22-.597.264-2.317 2.291-3.13 2.522-3.214l.534-.197-.448-.343a1.861 1.861 0 0 1-.75-1.482C5.86 6.855 6.765 6 7.878 6s2.019.855 2.019 1.906c0 .571-.269 1.108-.737 1.472l-.455.354.55.187c.257.088.509.202.745.34-1.117.65-2.895 2.081-3.278 4.741-1.07-.098-1.444-.32-1.553-.408"/>
</svg>