<svg xmlns="http://www.w3.org/2000/svg" fill="currentColor" viewBox="0 0 24 24">
  <path fill-rule="evenodd" d="M10.243 9.858c0-.724.684-1.058 1.495-1.058 1.796 0 1.903 1.378 2.946 1.378.715 0 1.126-.477 1.062-1.09-.131-.939-1.483-1.943-3.789-2.077C9.54 6.87 8 8.149 8 10.004c0 3.427 5.791 2.31 5.791 4.133 0 .504-.457 1.228-1.797 1.228-1.91 0-1.899-1.765-3.098-1.765-.476 0-.834.435-.838.91-.01 1.575 2.037 2.49 4.074 2.49C14.448 17 16 15.742 16 13.822c0-3.33-5.757-2.451-5.757-3.964m5.15 9.306c-.749 0-1.448-.208-2.045-.57a6.789 6.789 0 0 1-7.952-7.874 3.962 3.962 0 0 1 5.43-5.466 6.788 6.788 0 0 1 7.934 7.856 3.962 3.962 0 0 1-3.366 6.052"/>
</svg>