<svg xmlns="http://www.w3.org/2000/svg" fill="currentColor" viewBox="0 0 24 24">
  <path fill-rule="evenodd" d="M10.177 8.614a.306.306 0 0 0-.04-.046c-.906-.859-1.253-1.879-1.103-2.232.085-.202.362-.336.508-.336.217 0 1.07.298 1.29 1.758L11 8.887a1.967 1.967 0 0 0-.331.113 31.977 31.977 0 0 1-.492-.386zm2.049 1.002l-.22-1.873A.879.879 0 0 0 12 7.701a.8.8 0 0 0 .01-.15V7.55c-.017-.63.244-1.77.776-2.269.306-.286.682-.353 1.151-.203.579.184.913.509 1.022.994.166.738-.205 1.75-.543 2.149-.176.207-.371.44-.567.672l-.018.019a.384.384 0 0 0-.049.062L12.926 10a2.06 2.06 0 0 0-.7-.384zM10 10.268a1.968 1.968 0 0 0-.21.344c-.329.035-.978.123-1.811.325a3.356 3.356 0 0 0-.156.043c-.382.044-1.17.04-1.58-.28-.166-.13-.243-.303-.243-.542C6 9.113 6.86 9 7.23 9c.77 0 1.518.283 2.22.843.175.138.378.294.55.425zm4 .476c.23-.216.59-.556.96-.901C15.812 9.22 16.27 9 17.123 9c.643 0 .821.311.87.497.062.235-.301.822-.96 1.007a7.226 7.226 0 0 1-.938.21L14.113 11a2.006 2.006 0 0 0-.113-.256zm-3.023 4.718a.409.409 0 0 0-.002.1c.077.683-.007 1.58-.476 2.052-.261.263-.617.386-1.12.386-1.3 0-1.375-1.036-1.379-1.147 0-.37.27-.935.614-1.285.307-.312 1.106-1.13 1.534-1.568.205.105.427.184.659.232.034.252.09.664.17 1.23zm6.57-2.881c.305.299.453.664.453 1.118 0 .888-.335 1.301-1.053 1.301-.334 0-.977-.083-1.539-.64A245.817 245.817 0 0 0 14 12.98c.108-.216.185-.449.228-.69l1.386-.242.18-.028c.504-.082 1.268.084 1.753.56zm-2.837 2.65a.41.41 0 0 0 .013.023c.065.105.277.556.277 1.937 0 .694-.39.795-.481.809-.271.016-1.21-.765-1.311-1.73-.097-.906-.166-1.569-.208-1.98.19-.068.37-.165.54-.29.28.293.715.75 1.17 1.231zM13 12a1.001 1.001 0 1 1-1-1c.551 0 1 .449 1 1zm4.312 4.608a4.07 4.07 0 0 1-1.504-.296c.016.213.024.438.024.675 0 1.332-.987 1.894-1.65 1.947a1.197 1.197 0 0 1-.107.005c-.543 0-1.175-.322-1.692-.837a2.88 2.88 0 0 1-.555.939c-.501.554-1.189.835-2.044.835-2.14 0-2.622-1.855-2.622-2.505 0-.413.128-.897.348-1.356a5.927 5.927 0 0 1-.394.014c-1.151 0-1.956-.507-2.153-1.357-.16-.688.086-1.419.665-2.037a2.49 2.49 0 0 1-.832-.46c-.466-.399-.703-.936-.703-1.596 0-1.27.813-2.637 2.596-2.637.328 0 .657.038.985.115-.391-.891-.487-1.729-.25-2.328.321-.815 1.175-1.254 1.816-1.254.472 0 1.436.3 2.14 1.356.19-.388.464-.793.856-1.104.657-.52 1.452-.66 2.365-.415 1.357.363 1.84 1.183 2.006 1.807.14.523.106 1.135-.087 1.743.247-.044.505-.065.785-.065 1.302 0 1.957.786 2.136 1.522.192.791-.294 1.723-1.112 2.274.177.105.342.222.492.353.623.541.952 1.262.952 2.085 0 1.59-.943 2.577-2.46 2.577"/>
</svg>