<svg xmlns="http://www.w3.org/2000/svg" fill="currentColor" viewBox="0 0 24 24">
  <path fill-rule="evenodd" d="M18.727 15.405a.626.626 0 0 1-.01.054c-.054.341-.171.594-.365.736-.245.181-.53.167-.859-.078a4.066 4.066 0 0 1-.29-.3c-.089.188-.184.362-.286.523a4.138 4.138 0 0 1-.233.33c.057.039.111.081.162.127.243.22.392.506.482.834h.002a1.362 1.362 0 0 1 .017.443c-.016.12-.05.254-.115.38l.001.001a.463.463 0 0 1-.05.08c-.363.532-1.153.847-2.028.949-.905.104-1.932-.008-2.65-.34h-.002a.41.41 0 0 1-.031-.016c-.085-.041-.178-.09-.261-.133l-.21-.11c-.043.02-.116.06-.212.11-.083.043-.176.092-.26.133a.38.38 0 0 1-.032.016h-.001c-.719.332-1.746.444-2.65.34-.876-.102-1.666-.417-2.028-.95a.456.456 0 0 1-.051-.079 1.19 1.19 0 0 1-.114-.382 1.364 1.364 0 0 1 .017-.443l.002.001c.09-.328.24-.615.482-.834.05-.046.105-.088.163-.126a4.138 4.138 0 0 1-.233-.33 4.82 4.82 0 0 1-.287-.524 4.09 4.09 0 0 1-.29.3c-.33.245-.614.26-.86.078-.193-.142-.31-.395-.364-.736a.651.651 0 0 1-.01-.054c-.12-.969.012-1.802.335-2.532.287-.65.723-1.21 1.265-1.705 0-.165.007-.326.027-.48.03-.223.088-.434.19-.629.019-.155.043-.31.092-.46a.99.99 0 0 1 .227-.395c.167-1.381.65-2.58 1.44-3.426.773-.829 1.827-1.314 3.148-1.3h.006c1.321-.014 2.376.471 3.149 1.3.788.847 1.273 2.045 1.439 3.426a.99.99 0 0 1 .227.396c.049.149.073.304.092.46.102.194.16.405.19.627.02.155.027.316.027.48.542.496.978 1.056 1.265 1.706.323.73.455 1.563.334 2.531l.001.001z"/>
</svg>