<svg xmlns="http://www.w3.org/2000/svg" xmlns:xlink="http://www.w3.org/1999/xlink" viewBox="0 0 24 24"><defs><path id="hsds-spam.svg-140-a" d="M12 6c1.294 0 2.49.416 3.471 1.115l-8.356 8.356A5.961 5.961 0 0 1 6 12c0-3.309 2.691-6 6-6m6 6c0 3.309-2.691 6-6 6a5.961 5.961 0 0 1-3.471-1.115l8.356-8.356A5.961 5.961 0 0 1 18 12m-6 8c4.411 0 8-3.589 8-8s-3.589-8-8-8-8 3.589-8 8 3.589 8 8 8"/></defs><g fill-rule="evenodd"><mask id="hsds-spam.svg-140-b"><use xlink:href="#hsds-spam.svg-140-a"/></mask><use xlink:href="#hsds-spam.svg-140-a"/><g mask="url(#hsds-spam.svg-140-b)"><rect/></g></g></svg>