<svg version="1.1" id="Layer_1" xmlns="http://www.w3.org/2000/svg" xmlns:xlink="http://www.w3.org/1999/xlink" x="0px" y="0px" viewBox="0 0 20 20" style="enable-background:new 0 0 20 20;" xml:space="preserve">
  <g>
    <path d="M10,19c-5,0-9-4-9-9c0-5,4-9,9-9c5,0,9,4,9,9C19,15,15,19,10,19z M10,3c-3.9,0-7,3.1-7,7c0,3.9,3.1,7,7,7
      c3.9,0,7-3.1,7-7C17,6.1,13.9,3,10,3z" fill="#B4C0CA" style="opacity: 0.2;" />
    <path d="M10,19c-5,0-9-4-9-9c0-5,4-9,9-9c5,0,9,4,9,9c0,0.6-0.4,1-1,1s-1-0.4-1-1c0-3.9-3.1-7-7-7c-3.9,0-7,3.1-7,7
      c0,3.9,3.1,7,7,7c0.6,0,1,0.4,1,1S10.6,19,10,19z" fill="#B4C0CA" />
  </g>
</svg>
