<svg width="20" height="20" viewBox="0 0 20 20" xmlns="http://www.w3.org/2000/svg"><title>Star</title><path d="M12.83 6.76h.01-.01zm1.506 5.442zm-8.67.002h.002-.002zM5.41 9.016l1.635 1.65c.404.404.588.994.491 1.575l-.392 2.36 2.086-1.134a1.6 1.6 0 0 1 1.544.001l2.084 1.134-.392-2.363c-.095-.583.09-1.171.494-1.575l1.633-1.648-2.284-.344a1.685 1.685 0 0 1-1.263-.956l-1.044-2.19-1.045 2.19a1.686 1.686 0 0 1-1.263.956l-2.284.344zM13.292 17c-.264 0-.528-.066-.774-.2L10 15.432l-2.518 1.37a1.602 1.602 0 0 1-1.774-.153 1.797 1.797 0 0 1-.65-1.715l.475-2.865-2.016-2.033A1.81 1.81 0 0 1 3.08 8.23c.196-.652.72-1.116 1.362-1.212l2.807-.423L8.5 3.972c.287-.6.862-.972 1.501-.972.638 0 1.213.372 1.5.971v.001l1.251 2.624 2.807.423c.642.095 1.165.558 1.362 1.21a1.815 1.815 0 0 1-.437 1.806l-2.016 2.033.475 2.865c.11.66-.14 1.317-.65 1.716a1.623 1.623 0 0 1-1 .35z" fill="#C1CBD4" fill-rule="evenodd"/></svg>