<svg xmlns="http://www.w3.org/2000/svg" xmlns:xlink="http://www.w3.org/1999/xlink" viewBox="0 0 24 24"><defs><path id="hsds-star-small.svg-142-a" d="M14.83 8.76h.01-.01zm1.506 5.442zm-8.67.002h.002-.002zm-.257-3.188l1.635 1.65c.404.404.588.994.491 1.575l-.392 2.36 2.086-1.134a1.6 1.6 0 0 1 1.544.001l2.084 1.134-.392-2.363c-.095-.583.09-1.171.494-1.575l1.633-1.648-2.284-.344a1.685 1.685 0 0 1-1.263-.956l-1.044-2.19-1.045 2.19a1.686 1.686 0 0 1-1.263.956l-2.284.344zM15.292 19c-.264 0-.528-.066-.774-.2L12 17.432l-2.518 1.37a1.602 1.602 0 0 1-1.774-.153 1.797 1.797 0 0 1-.65-1.715l.475-2.865-2.016-2.033a1.81 1.81 0 0 1-.437-1.804c.196-.652.72-1.116 1.362-1.212l2.807-.423L10.5 5.972c.287-.6.862-.972 1.501-.972.638 0 1.213.372 1.5.971v.001l1.251 2.624 2.807.423c.642.095 1.165.558 1.362 1.21a1.815 1.815 0 0 1-.437 1.806l-2.016 2.033.475 2.865c.11.66-.14 1.317-.65 1.716a1.623 1.623 0 0 1-1 .35z"/></defs><g fill-rule="evenodd"><mask id="hsds-star-small.svg-142-b"><use xlink:href="#hsds-star-small.svg-142-a"/></mask><use xlink:href="#hsds-star-small.svg-142-a"/><g mask="url(#hsds-star-small.svg-142-b)"><rect transform="translate(2 2)"/></g></g></svg>