<svg height="20" viewBox="0 0 20 20" width="20" xmlns="http://www.w3.org/2000/svg"><path d="m12.83 6.76h.01zm-7.164 5.444h.002zm-.256-3.188 1.635 1.65c.404.404.588.994.491 1.575l-.392 2.36 2.086-1.134a1.6 1.6 0 0 1 1.544.001l2.084 1.134-.392-2.363a1.814 1.814 0 0 1 .494-1.575l1.633-1.648-2.284-.344a1.685 1.685 0 0 1 -1.263-.956l-1.044-2.19-1.045 2.19a1.686 1.686 0 0 1 -1.263.956zm7.882 7.984c-.264 0-.528-.066-.774-.2l-2.518-1.368-2.518 1.37a1.602 1.602 0 0 1 -1.774-.153 1.797 1.797 0 0 1 -.65-1.715l.475-2.865-2.016-2.033a1.81 1.81 0 0 1 -.437-1.806c.196-.652.72-1.116 1.362-1.212l2.807-.423 1.251-2.623c.287-.6.862-.972 1.501-.972.638 0 1.213.372 1.5.971v.001l1.251 2.624 2.807.423c.642.095 1.165.558 1.362 1.21a1.815 1.815 0 0 1 -.437 1.806l-2.016 2.033.475 2.865c.11.66-.14 1.317-.65 1.716a1.623 1.623 0 0 1 -1 .35z" fill="#c1cbd4" fill-rule="evenodd"/></svg>