<svg xmlns="http://www.w3.org/2000/svg" xmlns:xlink="http://www.w3.org/1999/xlink" viewBox="0 0 24 24"><defs><path id="hsds-status.svg-145-a" d="M18 14c0 .443-.292.83-.727.964-2.879.884-3.349.405-3.946-.197-1.118-1.131-2.338-1.903-6.327-.754V5.685c3.675-1.162 4.302-.536 4.905.074.949.961 1.975 1.697 4.891.996a.95.95 0 0 1 .817.184c.246.194.387.484.387.795V14zm2-6.266c0-.928-.418-1.79-1.148-2.365a2.947 2.947 0 0 0-2.523-.558c-2.06.495-2.435.116-3.002-.458-1.126-1.139-2.356-1.912-6.404-.732A.997.997 0 0 0 6 3a1 1 0 0 0-1 1v16a1 1 0 1 0 2 0v-3.902c3.674-1.161 4.302-.535 4.905.075.703.711 1.424 1.276 2.857 1.276.782 0 1.777-.169 3.097-.573A3.001 3.001 0 0 0 20 14V7.734z"/></defs><g fill-rule="evenodd"><mask id="hsds-status.svg-145-b"><use xlink:href="#hsds-status.svg-145-a"/></mask><use xlink:href="#hsds-status.svg-145-a"/><g mask="url(#hsds-status.svg-145-b)"><rect/></g></g></svg>