<svg xmlns="http://www.w3.org/2000/svg" xmlns:xlink="http://www.w3.org/1999/xlink" viewBox="0 0 24 24"><defs><path id="hsds-stop.svg-146-a" d="M15.707 14.293a.999.999 0 1 1-1.414 1.414L12 13.414l-2.293 2.293a.997.997 0 0 1-1.414 0 .999.999 0 0 1 0-1.414L10.586 12 8.293 9.707a.999.999 0 1 1 1.414-1.414L12 10.586l2.293-2.293a.999.999 0 1 1 1.414 1.414L13.414 12l2.293 2.293zM12 4a8 8 0 1 0 0 16 8 8 0 0 0 0-16z"/></defs><g fill-rule="evenodd"><mask id="hsds-stop.svg-146-b"><use xlink:href="#hsds-stop.svg-146-a"/></mask><use xlink:href="#hsds-stop.svg-146-a"/><g mask="url(#hsds-stop.svg-146-b)"><rect/></g></g></svg>