<svg xmlns="http://www.w3.org/2000/svg" xmlns:xlink="http://www.w3.org/1999/xlink" viewBox="0 0 24 24"><defs><path id="hsds-suitcase.svg-147-a" d="M18 17c0 .551-.449 1-1 1h-1v-8h1c.551 0 1 .449 1 1v6zM6 17v-6c0-.551.449-1 1-1h1v8H7c-.551 0-1-.449-1-1zm4-9h4V6h-4v2zm0 10h4v-8h-4v8zm7-10h-1V6c0-1.103-.897-2-2-2h-4c-1.103 0-2 .897-2 2v2H7c-1.654 0-3 1.346-3 3v6c0 1.654 1.346 3 3 3h10c1.654 0 3-1.346 3-3v-6c0-1.654-1.346-3-3-3z"/></defs><g fill-rule="evenodd"><mask id="hsds-suitcase.svg-147-b"><use xlink:href="#hsds-suitcase.svg-147-a"/></mask><use xlink:href="#hsds-suitcase.svg-147-a"/><g mask="url(#hsds-suitcase.svg-147-b)"><rect/></g></g></svg>