<svg xmlns="http://www.w3.org/2000/svg" xmlns:xlink="http://www.w3.org/1999/xlink" viewBox="0 0 24 24"><defs><path id="hsds-tag.svg-149-a" d="M18.977 11.14a.998.998 0 0 1-.289.704l-6.626 6.691a1.454 1.454 0 0 1-1.037.435h-.004c-.392 0-.76-.153-1.037-.43l-4.556-4.556a1.456 1.456 0 0 1-.43-1.036c0-.392.153-.76.43-1.037l6.618-6.618c.186-.186.444-.293.707-.293h3.711c.263 0 .521.107.707.293l1.513 1.513c.186.186.293.443.293.707v3.627zm2-3.627a2.98 2.98 0 0 0-.879-2.122L18.585 3.88A2.976 2.976 0 0 0 16.465 3h-3.712c-.8 0-1.555.312-2.12.88l-6.619 6.616a3.47 3.47 0 0 0 0 4.902l4.556 4.556a3.443 3.443 0 0 0 2.45 1.016h.01a3.442 3.442 0 0 0 2.454-1.029l6.625-6.69c.56-.566.868-1.316.868-2.11V7.512zm-6-.513c-1.103 0-2 .897-2 2s.897 2 2 2 2-.897 2-2-.897-2-2-2m-5.293 4.293a.999.999 0 1 0-1.414 1.414l3 3a.997.997 0 0 0 1.414 0 .999.999 0 0 0 0-1.414l-3-3z"/></defs><g fill-rule="evenodd"><mask id="hsds-tag.svg-149-b"><use xlink:href="#hsds-tag.svg-149-a"/></mask><use xlink:href="#hsds-tag.svg-149-a"/><g mask="url(#hsds-tag.svg-149-b)"><rect/></g></g></svg>