<svg xmlns="http://www.w3.org/2000/svg" width="20" height="20" viewBox="0 0 20 20"><path fill="#4F5D6B" d="M10.695 12.308a.997.997 0 0 1 0 1.414.996.996 0 0 1-1.414 0l-3-3a.999.999 0 1 1 1.414-1.414l3 3zm8.293-6.78v3.627c0 .795-.308 1.545-.867 2.111l-6.625 6.69a3.45 3.45 0 0 1-2.454 1.029h-.01a3.44 3.44 0 0 1-2.45-1.017l-4.556-4.556a3.47 3.47 0 0 1 0-4.902l6.618-6.617a2.978 2.978 0 0 1 2.121-.879h3.711c.802 0 1.556.312 2.121.879l1.513 1.512c.567.568.878 1.321.878 2.123zm-2 0c0-.264-.106-.521-.293-.707l-1.513-1.513a1.008 1.008 0 0 0-.707-.293h-3.711c-.263 0-.521.107-.707.293L3.44 9.926c-.277.276-.43.646-.43 1.037 0 .391.153.759.43 1.036l4.556 4.556c.277.276.645.431 1.037.431h.004a1.455 1.455 0 0 0 1.037-.436l6.625-6.691a.994.994 0 0 0 .289-.704V5.528zm-4-.513c-1.103 0-2 .897-2 2s.897 2 2 2c1.104 0 2-.897 2-2s-.896-2-2-2z"/></svg>