<svg height="24" viewBox="0 0 24 24" width="24" xmlns="http://www.w3.org/2000/svg"><path d="m15.9771 8.1401c0 .265-.103.515-.289.704l-6.626 6.691c-.276.279-.644.434-1.037.435h-.004c-.392 0-.76-.153-1.037-.43l-4.556-4.556c-.277-.277-.43-.645-.43-1.036 0-.392.153-.761.43-1.037l6.618-6.618c.186-.186.444-.293.707-.293h3.711c.263 0 .521.107.707.293l1.513 1.513c.186.186.293.443.293.707zm2-3.627c0-.802-.312-1.555-.879-2.122l-1.513-1.512c-.566-.567-1.319-.879-2.121-.879h-3.711c-.801 0-1.555.312-2.121.879l-6.618 6.617c-1.352 1.352-1.352 3.551 0 4.902l4.556 4.556c.655.655 1.525 1.016 2.45 1.016h.01c.929-.003 1.801-.368 2.454-1.029l6.625-6.69c.56-.566.868-1.316.868-2.111zm-6-.5131c-1.103 0-2 .897-2 2s.897 2 2 2 2-.897 2-2-.897-2-2-2m-5.293 4.2929c-.391-.391-1.023-.391-1.414 0s-.391 1.023 0 1.414l3 3c.195.195.451.293.707.293s.512-.098.707-.293c.391-.391.391-1.023 0-1.414z" fill="#4f5d6b" fill-rule="evenodd" transform="translate(3 3)"/></svg>