<svg xmlns="http://www.w3.org/2000/svg" xmlns:xlink="http://www.w3.org/1999/xlink" viewBox="0 0 24 24"><defs><path id="hsds-text.svg-152-a" d="M10.335 14.938H5.97l-.96 2.953H3L7.035 6h2.37l4.08 11.89h-2.19l-.96-2.952zm-2.64-5.363l-1.2 3.731H9.81l-1.2-3.73c-.3-.918-.435-1.648-.435-1.648h-.03c-.015.062-.165.777-.45 1.647zm11.3 4.725v-.233c-1.41.078-2.16.202-2.58.513-.285.202-.405.513-.405.902 0 .684.435 1.119 1.17 1.119.885 0 1.815-.684 1.815-2.3zM14.36 12c.06-1.586 1.275-2.58 3.3-2.58 2.37 0 3.285 1.01 3.285 3.218v3.046c0 .528.15.73.675.73v1.508h-.57c-1.185 0-1.695-.31-1.905-1.259H19.1c-.465.854-1.305 1.337-2.46 1.337-1.635 0-2.64-.902-2.64-2.426 0-.947.39-1.647 1.2-2.082.84-.45 2.055-.56 3.78-.637v-.42c0-1.12-.42-1.632-1.335-1.632-.93 0-1.32.544-1.35 1.197H14.36z"/></defs><g fill-rule="evenodd"><mask id="hsds-text.svg-152-b"><use xlink:href="#hsds-text.svg-152-a"/></mask><use xlink:href="#hsds-text.svg-152-a"/><g mask="url(#hsds-text.svg-152-b)"><rect/></g></g></svg>