<svg viewBox="0 0 24 24" xmlns="http://www.w3.org/2000/svg"><path d="m12 4.385c.467 0 .846-.378.846-.847v-1.692c0-.466-.379-.846-.846-.846-.468 0-.846.379-.846.846v1.692c0 .469.378.847.846.847zm0 15.23c-.468 0-.846.38-.846.847v1.692c0 .468.378.846.846.846.467 0 .846-.378.846-.846v-1.692c0-.468-.379-.847-.846-.847zm6.58-13 1.196-1.197c.33-.33.33-.866 0-1.196-.33-.331-.866-.331-1.196 0l-1.197 1.196c-.33.33-.33.866 0 1.197.33.33.866.33 1.197 0zm-13.162 10.772-1.196 1.196c-.331.33-.331.866 0 1.197.33.33.866.33 1.196 0l1.197-1.197c.33-.333.33-.866 0-1.196-.33-.331-.866-.333-1.197 0zm-1.033-5.387c0-.467-.38-.846-.847-.846h-1.692c-.468 0-.846.379-.846.846 0 .468.378.846.846.846h1.692c.468 0 .847-.378.847-.846zm17.769-.846h-1.692c-.469 0-.847.379-.847.846 0 .468.378.846.847.846h1.692c.467 0 .846-.378.846-.846 0-.467-.379-.846-.846-.846zm-16.737-4.54c.33.331.866.331 1.196 0 .331-.33.331-.865 0-1.196l-1.196-1.196c-.33-.331-.866-.331-1.197 0-.33.33-.33.866 0 1.196l1.197 1.197zm13.165 10.77c-.333-.33-.866-.33-1.197 0-.33.33-.332.866 0 1.197l1.197 1.196c.33.33.866.33 1.196 0 .331-.33.331-.866 0-1.196zm-6.582-11.307c-3.265 0-5.923 2.658-5.923 5.923s2.658 5.923 5.923 5.923 5.923-2.658 5.923-5.923-2.658-5.923-5.923-5.923zm0 2c2.16 0 3.923 1.762 3.923 3.923 0 2.16-1.762 3.923-3.923 3.923-2.16 0-3.923-1.762-3.923-3.923 0-2.16 1.762-3.923 3.923-3.923z" fill="currentColor"/></svg>