<svg xmlns="http://www.w3.org/2000/svg" viewBox="0 0 24 24">
    <path d="M14.026462,13.5960933 C10.8238462,16.8013022 5.60924918,16.8013022 2.40393642,13.5960933 C-0.801312139,10.3907559 -0.801312139,5.17628749 2.40393642,1.97236276 C3.25212393,1.12559838 4.28614344,0.479432467 5.47536539,0.0580729584 C5.84998315,-0.0730480591 6.26473394,0.0219857831 6.542904,0.301565073 C6.82389943,0.582492816 6.91887023,0.997174271 6.78646334,1.3690905 C5.98110579,3.64059196 6.52961194,6.09933578 8.21519922,7.78496646 C9.89815377,9.46912025 12.356928,10.0163354 14.6310902,9.21368469 C15.003011,9.08127943 15.4190461,9.17631328 15.6986288,9.45724102 C15.9796242,9.73540764 16.0732466,10.1515018 15.9407755,10.5247664 C15.5220435,11.7139095 14.8745853,12.7479162 14.026462,13.5960933 Z M3.85675212,3.42516052 C1.45275149,5.82913145 1.45275149,9.74067303 3.85675212,12.1432955 C6.42526606,14.7131262 10.7997664,14.4816417 13.0391895,11.6188114 C10.7301597,11.7632886 8.4559974,10.9298803 6.76238352,9.23757158 C5.06876964,7.54532706 4.23669954,5.27112869 4.38111424,2.9621916 C4.19656651,3.10679715 4.02126543,3.26064923 3.85675212,3.42516052 Z" transform="translate(4 4)"/>
</svg>
