<svg xmlns="http://www.w3.org/2000/svg" xmlns:xlink="http://www.w3.org/1999/xlink" viewBox="0 0 24 24"><defs><path id="hsds-toggle.svg-151-a" d="M9 9c-1.654 0-3 1.346-3 3s1.346 3 3 3h6c1.654 0 3-1.346 3-3s-1.346-3-3-3H9zm6 8H9c-2.757 0-5-2.243-5-5s2.243-5 5-5h6c2.757 0 5 2.243 5 5s-2.243 5-5 5zm0-3c-1.103 0-2-.897-2-2s.897-2 2-2 2 .897 2 2-.897 2-2 2"/></defs><g fill-rule="evenodd"><mask id="hsds-toggle.svg-151-b"><use xlink:href="#hsds-toggle.svg-151-a"/></mask><use xlink:href="#hsds-toggle.svg-151-a"/><g mask="url(#hsds-toggle.svg-151-b)"><rect/></g></g></svg>