<svg xmlns="http://www.w3.org/2000/svg" viewBox="0 0 24 24"><path fill-rule="evenodd" d="M19 18c0 .551-.449 1-1 1H6c-.551 0-1-.449-1-1v-3h2.586l1.707 1.707A.997.997 0 0 0 10 17h4c.265 0 .52-.105.707-.293L16.414 15H19v3zM6.82 5h10.36l1.6 8H16a.997.997 0 0 0-.707.293L13.586 15h-3.172l-1.707-1.707A.997.997 0 0 0 8 13H5.22l1.6-8zm14.16 8.902c-.003-.033.007-.065 0-.098l-2-10A.998.998 0 0 0 18 3H6a.998.998 0 0 0-.98.804l-2 10c-.007.033.003.065 0 .098-.004.034-.02.063-.02.098v4c0 1.654 1.346 3 3 3h12c1.654 0 3-1.346 3-3v-4c0-.035-.016-.064-.02-.098z"/></svg>