<svg xmlns="http://www.w3.org/2000/svg" xmlns:xlink="http://www.w3.org/1999/xlink" viewBox="0 0 24 24"><defs><path id="hsds-unassigned.svg-156-a" d="M10.664 6.519a1.993 1.993 0 0 1 2.673 0l4.106 3.695-4.184 3.4a2.004 2.004 0 0 1-2.518 0l-4.185-3.4 4.108-3.695zM16 17.996H8c-1.103 0-2-.898-2-2.004v-3.648l3.481 2.827c.73.593 1.624.889 2.519.889s1.79-.297 2.519-.89L18 12.342v3.65a2.004 2.004 0 0 1-2 2.004zM8 20h8c2.206 0 4-1.798 4-4.008v-5.724a1 1 0 0 0-.332-.746l-4.995-4.494a3.988 3.988 0 0 0-5.345 0L4.332 9.522c-.211.19-.332.461-.332.746v5.724A4.01 4.01 0 0 0 8 20z"/></defs><g fill-rule="evenodd"><mask id="hsds-unassigned.svg-156-b"><use xlink:href="#hsds-unassigned.svg-156-a"/></mask><use xlink:href="#hsds-unassigned.svg-156-a"/><g mask="url(#hsds-unassigned.svg-156-b)"><rect/></g></g></svg>