<svg xmlns="http://www.w3.org/2000/svg" xmlns:xlink="http://www.w3.org/1999/xlink" viewBox="0 0 24 24"><defs><path id="hsds-user.svg-161-a" d="M16.1 14.5l-.4-.1c.8-.9 1.3-2.1 1.3-3.4 0-2.8-2.2-5-5-5s-5 2.2-5 5c0 1.3.5 2.5 1.3 3.4l-.4.1c-1.1.2-2.1.9-2.7 2-.3.5-.2 1.1.3 1.4.5.3 1.1.2 1.4-.3.4-.6.9-1 1.5-1.1l.6-.1c2-.4 4.2-.4 6.2 0l.6.1c.6.1 1.1.5 1.5 1.1.2.3.5.5.8.5.2 0 .4 0 .5-.2.5-.3.6-.9.3-1.4-.7-1.1-1.7-1.8-2.8-2zM12 8c1.7 0 3 1.3 3 3s-1.3 3-3 3-3-1.3-3-3 1.3-3 3-3zM7 4a3 3 0 0 0-3 3v10a3 3 0 0 0 3 3h10a3 3 0 0 0 3-3V7a3 3 0 0 0-3-3H7zm0-2h10a5 5 0 0 1 5 5v10a5 5 0 0 1-5 5H7a5 5 0 0 1-5-5V7a5 5 0 0 1 5-5z"/></defs><g fill-rule="evenodd"><mask id="hsds-user.svg-161-b"><use xlink:href="#hsds-user.svg-161-a"/></mask><use xlink:href="#hsds-user.svg-161-a"/><g mask="url(#hsds-user.svg-161-b)"><rect/></g></g></svg>