<svg xmlns="http://www.w3.org/2000/svg" viewBox="0 0 24 24"><path fill-rule="evenodd" d="M17.414 17l1.293 1.293a.999.999 0 1 1-1.414 1.414L16 18.414l-1.293 1.293a.997.997 0 0 1-1.414 0 .999.999 0 0 1 0-1.414L14.586 17l-1.293-1.293a.999.999 0 1 1 1.414-1.414L16 15.586l1.293-1.293a.999.999 0 1 1 1.414 1.414L17.414 17zM16 9c0 2.757-2.243 5-5 5h-.877l-.85.213A2.995 2.995 0 0 0 7 17.123V19a1 1 0 1 1-2 0v-1.877a4.978 4.978 0 0 1 2.682-4.412C6.657 11.795 6 10.479 6 9c0-2.757 2.243-5 5-5s5 2.243 5 5zm-5 3c1.654 0 3-1.346 3-3s-1.346-3-3-3-3 1.346-3 3 1.346 3 3 3z"/></svg>