<svg xmlns="http://www.w3.org/2000/svg" xmlns:xlink="http://www.w3.org/1999/xlink" viewBox="0 0 24 24"><defs><path id="hsds-video.svg-163-a" d="M7 8c-.552 0-1 .449-1 1v7c0 .551.448 1 1 1h10c.552 0 1-.449 1-1V9c0-.551-.448-1-1-1H7zm10 11H7c-1.654 0-3-1.346-3-3V9c0-1.654 1.346-3 3-3h10c1.654 0 3 1.346 3 3v7c0 1.654-1.346 3-3 3zm-7-9l5 2.5-5 2.5v-5z"/></defs><g fill-rule="evenodd"><mask id="hsds-video.svg-163-b"><use xlink:href="#hsds-video.svg-163-a"/></mask><use xlink:href="#hsds-video.svg-163-a"/><g mask="url(#hsds-video.svg-163-b)"><rect transform="translate(2 2)"/></g></g></svg>