<svg xmlns="http://www.w3.org/2000/svg" xmlns:xlink="http://www.w3.org/1999/xlink" viewBox="0 0 24 24"><defs><path id="hsds-workflow-small.svg-164-a" d="M13.15 11.525c.182.295.503.475.85.475h1.37l-4.918 4.371.534-3.207A.997.997 0 0 0 10 12H8.281l1.5-6h5.6l-2.276 4.552a.998.998 0 0 0 .044.973m4.701-7.05A.999.999 0 0 0 17 4H9a1 1 0 0 0-.97.757l-2 8A.998.998 0 0 0 7 14h1.82l-.807 4.836a1 1 0 0 0 1.651.911l9-8A1 1 0 0 0 18 10h-2.382l2.276-4.553a.998.998 0 0 0-.044-.973"/></defs><g fill-rule="evenodd"><mask id="hsds-workflow-small.svg-164-b"><use xlink:href="#hsds-workflow-small.svg-164-a"/></mask><use xlink:href="#hsds-workflow-small.svg-164-a"/><g mask="url(#hsds-workflow-small.svg-164-b)"><rect/></g></g></svg>