<svg version="1.1" id="Layer_1" xmlns="http://www.w3.org/2000/svg" xmlns:xlink="http://www.w3.org/1999/xlink" x="0px" y="0px"
	 viewBox="0 0 24 24" style="enable-background:new 0 0 24 24;" xml:space="preserve">
<style type="text/css">
	.st0{fill:none;stroke:#000000;stroke-width:1.5;stroke-linecap:round;stroke-linejoin:round;stroke-miterlimit:10;}
	.st1{fill:none;stroke:#000000;stroke-width:1.25;stroke-linecap:round;stroke-linejoin:round;stroke-miterlimit:10;}
</style>
<g>
	<path d="M9.38,17.87c-0.1,0-0.21-0.03-0.3-0.08c-0.23-0.13-0.36-0.39-0.31-0.65l0.63-3.77H7.88c-0.19,0-0.37-0.09-0.49-0.24
		c-0.12-0.15-0.16-0.35-0.11-0.54l1.5-5.99c0.07-0.28,0.32-0.47,0.61-0.47h5.99c0.22,0,0.42,0.11,0.53,0.3s0.12,0.41,0.03,0.61
		l-1.8,3.59h1.99c0.26,0,0.49,0.16,0.58,0.4c0.09,0.24,0.03,0.52-0.17,0.69l-6.74,5.99C9.68,17.82,9.53,17.87,9.38,17.87z
		 M8.68,12.12h1.45c0.18,0,0.36,0.08,0.48,0.22c0.12,0.14,0.17,0.33,0.14,0.51l-0.46,2.75l4.19-3.73h-1.35
		c-0.22,0-0.42-0.11-0.53-0.3s-0.12-0.41-0.03-0.61l1.8-3.59h-4.5L8.68,12.12z"/>
</g>
</svg>
