<svg xmlns="http://www.w3.org/2000/svg" xmlns:xlink="http://www.w3.org/1999/xlink" viewBox="0 0 24 24"><defs><path id="hsds-workflow.svg-166-a" d="M7.247 12l1.555-7h5.681l-2.402 5.606a1 1 0 0 0 .92 1.394h1.585l-5.172 5.172.576-4.03A1.002 1.002 0 0 0 9 12H7.247zm.306 8.895a.997.997 0 0 0 1.154-.188l9-9A1 1 0 0 0 17 10h-2.483l2.402-5.606c.133-.309.1-.664-.084-.945A1.003 1.003 0 0 0 16 3H8c-.469 0-.874.325-.977.783l-2 9A1.004 1.004 0 0 0 6 14h1.847l-.837 5.858c-.06.427.158.844.543 1.037z"/></defs><g fill-rule="evenodd"><mask id="hsds-workflow.svg-166-b"><use xlink:href="#hsds-workflow.svg-166-a"/></mask><use xlink:href="#hsds-workflow.svg-166-a"/><g mask="url(#hsds-workflow.svg-166-b)"><rect/></g></g></svg>