<svg height="24" viewBox="0 0 24 24" width="24" xmlns="http://www.w3.org/2000/svg"><path d="m2.24738969 9 1.555-7h5.681l-2.402 5.606c-.133.309-.101.664.084.945.186.28.499.449.835.449h1.586l-5.172 5.172.576-4.03c.041-.288-.045-.579-.234-.797-.191-.219-.466-.345-.756-.345zm.306 8.895c.142.071.295.105.447.105.259 0 .515-.101.707-.293l9.00000001-9c.286-.286.372-.716.217-1.09s-.52-.617-.924-.617h-2.48300001l2.40200001-5.606c.133-.309.1-.664-.084-.945-.186-.28-.499-.449-.835-.449h-8.00000001c-.469 0-.874.325-.977.783l-2 9c-.065.296.007.606.197.843.19.236.476.374.78.374h1.847l-.837 5.858c-.061.427.158.844.543 1.037z" fill="#2b363c" fill-rule="evenodd" transform="translate(5 3)"/></svg>