<svg height="24" viewBox="0 0 24 24" width="24" xmlns="http://www.w3.org/2000/svg"><path d="m7.1493 7.5254c.183.295.504.475.851.475h1.37l-4.918 4.371.534-3.207c.049-.29-.033-.586-.224-.811-.189-.224-.468-.353-.762-.353h-1.719l1.5-6h5.6l-2.276 4.552c-.155.31-.139.678.044.973m4.701-7.051c-.182-.295-.504-.474-.85-.474h-8c-.459 0-.859.312-.97.757l-2 8c-.075.299-.008.616.182.858.189.243.48.385.788.385h1.819l-.806 4.836c-.069.418.132.834.503 1.039.152.084.318.125.484.125.239 0 .476-.086.664-.253l9-8c.31-.276.418-.715.27-1.103-.147-.388-.519-.644-.934-.644h-2.382l2.276-4.553c.155-.31.139-.678-.044-.973" fill-rule="evenodd" transform="translate(6 4)"/></svg>