<?xml version="1.0" encoding="utf-8"?>
<!-- Generator: Adobe Illustrator 19.0.1, SVG Export Plug-In . SVG Version: 6.00 Build 0)  -->
<svg version="1.1" xmlns="http://www.w3.org/2000/svg" xmlns:xlink="http://www.w3.org/1999/xlink" x="0px" y="0px"
	 viewBox="0 0 200 200" style="enable-background:new 0 0 200 200;" xml:space="preserve">
<style type="text/css">
	.st0{fill:#F1F3F5;stroke:#253540;stroke-width:4;stroke-linecap:round;stroke-linejoin:round;stroke-miterlimit:10;}
	.st1{fill:#D6DDE3;}
	.st2{fill:#FFC646;stroke:#253540;stroke-width:4;stroke-linecap:round;stroke-miterlimit:10;}
	.st3{fill:#FFC646;stroke:#253540;stroke-width:4;stroke-linecap:round;stroke-linejoin:round;stroke-miterlimit:10;}
	.st4{fill:none;stroke:#253540;stroke-width:4;stroke-linecap:round;stroke-linejoin:round;stroke-miterlimit:10;}
	.st5{fill:#D79400;}
	.st6{fill:#FFFFFF;stroke:#253540;stroke-width:4;stroke-miterlimit:10;}
	.st7{fill:#6A6DC7;stroke:#253540;stroke-width:4;stroke-miterlimit:10;}
	.st8{fill:none;stroke:#D1D3F5;stroke-width:4;stroke-linecap:round;stroke-miterlimit:10;}
	.st9{fill:none;stroke:#A3A6F1;stroke-width:4;stroke-linecap:round;stroke-linejoin:round;stroke-miterlimit:10;}
	.st10{fill:none;stroke:#6A6DC7;stroke-width:4;stroke-linecap:round;stroke-linejoin:round;stroke-miterlimit:10;}
	.st11{fill:none;stroke:#F5B126;stroke-width:4;stroke-linecap:round;stroke-linejoin:round;stroke-miterlimit:10;}
	.st12{fill:none;stroke:#FFFFFF;stroke-width:4;stroke-linecap:round;stroke-linejoin:round;stroke-miterlimit:10;}
	.st13{fill:none;stroke:#D6DDE3;stroke-width:4;stroke-linecap:round;stroke-linejoin:round;stroke-miterlimit:10;}
	.st14{fill:none;stroke:#3CB170;stroke-width:4;stroke-linecap:round;stroke-linejoin:round;stroke-miterlimit:10;}
	.st15{fill:#E52F28;stroke:#253540;stroke-width:4;stroke-linecap:round;stroke-linejoin:round;stroke-miterlimit:10;}
	.st16{fill:#FFA2A2;stroke:#253540;stroke-width:4;stroke-linecap:round;stroke-linejoin:round;stroke-miterlimit:10;}
	.st17{fill:none;stroke:#FFE3E2;stroke-width:4;stroke-linecap:round;stroke-linejoin:round;stroke-miterlimit:10;}
	.st18{fill:none;stroke:#D21B14;stroke-width:4;stroke-linecap:round;stroke-linejoin:round;stroke-miterlimit:10;}
	.st19{fill:#FFFFFF;stroke:#253540;stroke-width:4;stroke-linecap:round;stroke-linejoin:round;stroke-miterlimit:10;}
	.st20{fill:#E3E8EB;}
	.st21{fill:none;stroke:#BA1F19;stroke-width:4;stroke-linecap:round;stroke-linejoin:round;stroke-miterlimit:10;}
	.st22{fill:#C4F0CE;stroke:#253540;stroke-width:4;stroke-linejoin:round;stroke-miterlimit:10;}
	.st23{fill:#81DC9E;stroke:#253540;stroke-width:4;stroke-linejoin:round;stroke-miterlimit:10;}
	.st24{fill:#81DC9E;stroke:#253540;stroke-width:4;stroke-miterlimit:10;}
	.st25{fill:#FFFFFF;stroke:#253540;stroke-width:4;stroke-linejoin:round;stroke-miterlimit:10;}
	.st26{fill:none;stroke:#FFC646;stroke-width:4;stroke-linecap:round;stroke-miterlimit:10;}
	.st27{fill:none;stroke:#3197D6;stroke-width:4;stroke-linecap:round;stroke-miterlimit:10;}
	.st28{fill:none;stroke:#AEDFFF;stroke-width:4;stroke-linecap:round;stroke-miterlimit:10;}
	.st29{fill:none;stroke:#FFE8B5;stroke-width:4;stroke-linecap:round;stroke-miterlimit:10;}
	.st30{fill:none;stroke:#D79400;stroke-width:4;stroke-linecap:round;stroke-miterlimit:10;}
	.st31{fill:#B37100;stroke:#253540;stroke-width:4;stroke-linecap:round;stroke-linejoin:round;stroke-miterlimit:10;}
	.st32{fill:#875200;}
	.st33{fill:none;stroke:#FFFDF6;stroke-width:4;stroke-linecap:round;stroke-miterlimit:10;}
	.st34{fill:#72808E;stroke:#253540;stroke-width:4;stroke-linecap:round;stroke-linejoin:round;stroke-miterlimit:10;}
	.st35{fill:#D6DDE3;stroke:#253540;stroke-width:4;stroke-linecap:round;stroke-miterlimit:10;}
	.st36{fill:none;stroke:#C1CBD4;stroke-width:4;stroke-linecap:round;stroke-miterlimit:10;}
	.st37{fill:#72808E;stroke:#253540;stroke-width:4;stroke-linecap:round;stroke-miterlimit:10;}
	.st38{fill:#4F5D6B;}
	.st39{fill:#F9FAFA;stroke:#253540;stroke-width:4;stroke-linecap:round;stroke-miterlimit:10;}
	.st40{fill:#E3E8EB;stroke:#253540;stroke-width:4;stroke-linecap:round;stroke-miterlimit:10;}
	.st41{fill:#93A1AF;}
	.st42{fill:#C1CBD4;}
	.st43{fill:none;stroke:#FFFFFF;stroke-width:4;stroke-linecap:round;stroke-miterlimit:10;}
	.st44{fill:#4F5D6B;stroke:#253540;stroke-width:4;stroke-miterlimit:10;}
	.st45{fill:#F5B126;}
	.st46{fill:#93A1AF;stroke:#253540;stroke-width:4;stroke-miterlimit:10;}
	.st47{fill:#FFFFFF;stroke:#D79400;stroke-width:4;stroke-linecap:round;stroke-miterlimit:10;}
	.st48{fill:none;stroke:#F5B126;stroke-width:4;stroke-linecap:round;stroke-miterlimit:10;}
	.st49{fill:#EDDD38;stroke:#272822;stroke-width:4;stroke-linejoin:round;stroke-miterlimit:10;}
	.st50{fill:#F45B55;}
	.st51{fill:#FFE3E2;}
	.st52{fill:#F1F1F0;stroke:#272822;stroke-width:4;stroke-linecap:round;stroke-linejoin:round;stroke-miterlimit:10;}
	.st53{fill:#FFD56D;}
	.st54{fill:#C1CBD4;stroke:#253540;stroke-width:4;stroke-miterlimit:10;}
	.st55{fill:none;stroke:#253540;stroke-width:4;stroke-linecap:round;stroke-miterlimit:10;stroke-dasharray:8,8,92,8,4;}
	.st56{fill:#F9FAFA;stroke:#E52F28;stroke-width:4;stroke-linecap:round;stroke-linejoin:round;stroke-miterlimit:10;}
	.st57{fill:none;stroke:#93A1AF;stroke-width:4;stroke-linecap:round;stroke-miterlimit:10;}
	.st58{fill:#FFC646;stroke:#875200;stroke-width:4;stroke-linecap:round;stroke-linejoin:round;stroke-miterlimit:10;}
	.st59{fill:#81DC9E;}
	.st60{fill:none;stroke:#585B9E;stroke-width:4;stroke-miterlimit:10;}
	.st61{fill:none;stroke:#6A6DC7;stroke-width:4;stroke-linecap:round;stroke-miterlimit:10;}
	.st62{fill:#FFFFFF;stroke:#DD9400;stroke-width:4;stroke-linecap:round;stroke-linejoin:round;stroke-miterlimit:10;}
	.st63{fill:none;stroke:#FFC646;stroke-width:4;stroke-linecap:round;stroke-linejoin:round;stroke-miterlimit:10;}
	.st64{fill:#FFFFFF;stroke:#D21B14;stroke-width:4;stroke-linecap:round;stroke-linejoin:round;stroke-miterlimit:10;}
	.st65{fill:#E52F28;stroke:#BA1F19;stroke-width:4;stroke-linecap:round;stroke-linejoin:round;stroke-miterlimit:10;}
	.st66{fill:#FFC646;stroke:#DD9400;stroke-width:4;stroke-linecap:round;stroke-linejoin:round;stroke-miterlimit:10;}
	.st67{fill:#FFFFFF;stroke:#BA1F19;stroke-width:4;stroke-linecap:round;stroke-linejoin:round;stroke-miterlimit:10;}
	.st68{fill:#DD9400;stroke:#DD9400;stroke-width:4;stroke-linecap:round;stroke-linejoin:round;stroke-miterlimit:10;}
	.st69{fill:#BA1F19;}
	.st70{fill:#7F83E4;stroke:#585B9E;stroke-width:4;stroke-miterlimit:10;}
	.st71{fill:#FFFFFF;stroke:#585B9E;stroke-width:4;stroke-miterlimit:10;}
	.st72{fill:#585B9E;}
	.st73{fill:#A3A6F1;stroke:#585B9E;stroke-width:4;stroke-miterlimit:10;}
	.st74{fill:#6A6DC7;stroke:#585B9E;stroke-width:4;stroke-miterlimit:10;}
	.st75{fill:#A3A6F1;}
	.st76{fill:#C4F0CE;stroke:#3CB170;stroke-width:4;stroke-linejoin:round;stroke-miterlimit:10;}
	.st77{fill:#81DC9E;stroke:#3CB170;stroke-width:4;stroke-linejoin:round;stroke-miterlimit:10;}
	.st78{fill:#81DC9E;stroke:#3CB170;stroke-width:4;stroke-miterlimit:10;}
	.st79{fill:#FFFFFF;stroke:#3CB170;stroke-width:4;stroke-linejoin:round;stroke-miterlimit:10;}
	.st80{fill:none;stroke:#FED475;stroke-width:4;stroke-linecap:round;stroke-linejoin:round;stroke-miterlimit:10;}
	.st81{fill:none;stroke:#71BFF1;stroke-width:4;stroke-linecap:round;stroke-miterlimit:10;}
	.st82{fill:#253540;}
	.st83{fill:none;stroke:#253540;stroke-width:4;stroke-miterlimit:10;}
	.st84{fill:#FFC646;}
	.st85{fill:#FFF6E2;}
	.st86{fill:none;stroke:#D6DDE3;stroke-width:4;stroke-linecap:round;stroke-miterlimit:10;}
	.st87{fill:#B37100;stroke:#875200;stroke-width:4;stroke-linecap:round;stroke-linejoin:round;stroke-miterlimit:10;}
	.st88{fill:none;stroke:#FFD56D;stroke-width:4;stroke-linecap:round;stroke-linejoin:round;stroke-miterlimit:10;}
	.st89{fill:#394956;}
	.st90{fill:#FFC646;stroke:#D79400;stroke-width:4;stroke-linecap:round;stroke-miterlimit:10;}
	.st91{fill:#D79400;stroke:#D79400;stroke-width:2;stroke-miterlimit:10;}
	.st92{fill:#FFE8B5;stroke:#D79400;stroke-width:4;stroke-linecap:round;stroke-miterlimit:10;}
	.st93{fill:#FFC646;stroke:#D79400;stroke-width:4;stroke-linecap:round;stroke-linejoin:round;stroke-miterlimit:10;}
	.st94{fill:#FFA2A2;stroke:#BA1F19;stroke-width:4;stroke-linecap:round;stroke-linejoin:round;stroke-miterlimit:10;}
	.st95{fill:none;stroke:#D79400;stroke-width:4;stroke-linecap:round;stroke-linejoin:round;stroke-miterlimit:10;}
	.st96{fill:none;stroke:#E52F28;stroke-width:4;stroke-linecap:round;stroke-linejoin:round;stroke-miterlimit:10;}
	.st97{fill:#FFE8B5;stroke:#253540;stroke-width:4;stroke-linecap:round;stroke-linejoin:round;stroke-miterlimit:10;}
	.st98{fill:#D21B14;}
	.st99{fill:#FFC646;stroke:#253540;stroke-width:4;stroke-linejoin:round;stroke-miterlimit:10;}
	.st100{fill:#4BC27D;stroke:#253540;stroke-width:4;stroke-linejoin:round;stroke-miterlimit:10;}
	.st101{fill:#359E64;}
	.st102{fill:none;stroke:#359E64;stroke-width:4;stroke-linejoin:round;stroke-miterlimit:10;}
	.st103{fill:none;stroke:#E3E8EB;stroke-width:4;stroke-linejoin:round;stroke-miterlimit:10;}
	.st104{fill:#3CB170;}
	.st105{fill:none;stroke:#3CB170;stroke-width:4;stroke-linejoin:round;stroke-miterlimit:10;}
	.st106{fill:none;stroke:#4BC27D;stroke-width:4;stroke-linecap:round;stroke-linejoin:round;stroke-miterlimit:10;}
	.st107{fill:#7F83E4;stroke:#253540;stroke-width:4;stroke-miterlimit:10;}
	.st108{fill:#A3A6F1;stroke:#253540;stroke-width:4;stroke-miterlimit:10;}
	.st109{fill:#B4C0CA;stroke:#253540;stroke-width:4;stroke-miterlimit:10;}
	.st110{fill:#6A6DC7;}
	.st111{fill:#7F83E4;stroke:#253540;stroke-width:4;stroke-linecap:round;stroke-miterlimit:10;}
	.st112{fill:none;stroke:#253540;stroke-width:4;stroke-linecap:round;stroke-miterlimit:10;}
	.st113{fill:#D6DDE3;stroke:#253540;stroke-width:4;stroke-linecap:round;stroke-linejoin:round;stroke-miterlimit:10;}
	.st114{fill:#B4C0CA;}
	.st115{fill:#3197D6;stroke:#253540;stroke-width:4;stroke-linecap:round;stroke-linejoin:round;stroke-miterlimit:10;}
	.st116{fill:none;stroke:#AEDFFF;stroke-width:4;stroke-linecap:round;stroke-linejoin:round;stroke-miterlimit:10;}
	.st117{fill:none;stroke:#93A1AF;stroke-width:4;stroke-linecap:round;stroke-linejoin:round;stroke-miterlimit:10;}
	.st118{fill:#4F5D6B;stroke:#253540;stroke-width:4;stroke-linecap:round;stroke-linejoin:round;stroke-miterlimit:10;}
	.st119{fill:#237AB3;}
	.st120{fill:none;stroke:#FFE8B5;stroke-width:4;stroke-linecap:round;stroke-linejoin:round;stroke-miterlimit:10;}
	.st121{fill:#FFFFFF;}
</style>
<g id="Layer_1">
	<g>
		<line class="st26" x1="8" y1="39" x2="8" y2="51"/>
		<line class="st26" x1="2" y1="45" x2="14" y2="45"/>
	</g>
	<g>
		<line class="st29" x1="150" y1="189.5" x2="158.5" y2="198"/>
		<line class="st29" x1="150" y1="198" x2="158.5" y2="189.5"/>
	</g>
	<g>
		<line class="st26" x1="189" y1="146" x2="189" y2="158"/>
		<line class="st26" x1="183" y1="152" x2="195" y2="152"/>
	</g>
	<g>
		<line class="st30" x1="2" y1="134" x2="10.5" y2="125.5"/>
		<line class="st30" x1="10.5" y1="134" x2="2" y2="125.5"/>
	</g>
	<g>
		<line class="st29" x1="145" y1="2" x2="145" y2="14"/>
		<line class="st29" x1="139" y1="8" x2="151" y2="8"/>
	</g>
	<circle class="st30" cx="197" cy="49" r="1"/>
	<circle class="st29" cx="33" cy="182" r="1"/>
	<circle class="st26" cx="42" cy="20" r="1"/>
	<g>
		<path class="st3" d="M100,28c-39.8,0-72,32.2-72,72s32.2,72,72,72s72-32.2,72-72S139.8,28,100,28z M100,120c-11,0-20-9-20-20
			s9-20,20-20s20,9,20,20S111,120,100,120z"/>
		<g>
			<path class="st5" d="M153.9,55.4c5.1,9.7,8.1,20.8,8.1,32.6c0,38.6-31.4,70-70,70c-21.7,0-41.1-9.9-53.9-25.4
				C49.8,154.8,73.2,170,100,170c38.6,0,70-31.4,70-70C170,83.1,164,67.5,153.9,55.4z"/>
		</g>
		<path class="st31" d="M158.8,89.1L158.8,89.1c-4.3-3.5-6.2-9.2-4.7-14.6v0c2.3-8.6-3.9-17.2-12.8-17.7h0c-5.5-0.3-10.4-3.8-12.4-9
			v0c-3.2-8.3-13.3-11.6-20.8-6.7l0,0c-4.7,3-10.7,3-15.3,0l0,0c-7.5-4.9-17.6-1.6-20.8,6.7v0c-2,5.2-6.8,8.7-12.4,9h0
			c-8.9,0.5-15.2,9-12.8,17.7v0c1.4,5.4-0.4,11.1-4.7,14.6l0,0c-6.9,5.6-6.9,16.2,0,21.8l0,0c4.3,3.5,6.2,9.2,4.7,14.6
			c-2.3,8.6,3.9,17.2,12.8,17.7h0c5.5,0.3,10.4,3.8,12.4,9v0c3.2,8.3,13.3,11.6,20.8,6.7h0c4.7-3,10.7-3,15.3,0h0
			c7.5,4.9,17.6,1.6,20.8-6.7v0c2-5.2,6.8-8.7,12.4-9h0c8.9-0.5,15.2-9,12.8-17.7c-1.4-5.4,0.4-11.1,4.7-14.6l0,0
			C165.8,105.3,165.8,94.7,158.8,89.1z M128,105.1L128,105.1c-2,1.6-2.9,4.3-2.2,6.9l0,0c1.1,4.1-1.8,8.1-6.1,8.3l0,0
			c-2.6,0.1-4.9,1.8-5.8,4.2l0,0c-1.5,3.9-6.3,5.5-9.8,3.2l0,0c-2.2-1.4-5-1.4-7.2,0l0,0c-3.5,2.3-8.3,0.8-9.8-3.2l0,0
			c-0.9-2.4-3.2-4.1-5.8-4.2l0,0c-4.2-0.2-7.1-4.3-6.1-8.3l0,0c0.7-2.5-0.2-5.2-2.2-6.9l0,0c-3.3-2.7-3.3-7.6,0-10.3l0,0
			c2-1.6,2.9-4.3,2.2-6.9l0,0c-1.1-4.1,1.8-8.1,6.1-8.3l0,0c2.6-0.1,4.9-1.8,5.8-4.2l0,0c1.5-3.9,6.3-5.5,9.8-3.2l0,0
			c2.2,1.4,5,1.4,7.2,0l0,0c3.5-2.3,8.3-0.8,9.8,3.2l0,0c0.9,2.4,3.2,4.1,5.8,4.2l0,0c4.2,0.2,7.1,4.3,6.1,8.3l0,0
			c-0.7,2.5,0.2,5.2,2.2,6.9l0,0C131.3,97.5,131.3,102.5,128,105.1z"/>
		<path class="st12" d="M80,49.7c0.2-0.3,0.3-0.5,0.5-0.7 M66.8,63.4c4.1-1.6,7.7-4.4,10.2-8"/>
		<g>
			<path class="st32" d="M157.5,90.6c-4.9-4-7-10.5-5.4-16.6c0.9-3.5,0.3-7.2-1.9-10.2c-1.5-2.1-3.6-3.6-6.1-4.4
				c0.1,0.1,0.1,0.1,0.2,0.2c2.1,3,2.8,6.7,1.9,10.2c-1.6,6.1,0.5,12.6,5.4,16.6c2.8,2.3,4.5,5.7,4.5,9.4s-1.6,7.1-4.5,9.4
				c-4.9,4-7,10.5-5.4,16.6c0.9,3.5,0.3,7.2-1.9,10.2s-5.5,4.8-9.1,4.9c-6.3,0.3-11.9,4.4-14.1,10.3c-1.8,4.7-6.2,7.7-11.3,7.7
				c0,0,0,0,0,0c-2.3,0-4.6-0.7-6.5-2c-2.6-1.7-5.6-2.6-8.7-2.6s-6.1,0.9-8.7,2.6c-2,1.3-4.2,2-6.5,2c-1.3,0-2.5-0.2-3.7-0.6
				c2.2,2.9,5.7,4.7,9.6,4.7c2.3,0,4.6-0.7,6.5-2c2.6-1.7,5.6-2.6,8.7-2.6s6.1,0.9,8.7,2.6c2,1.3,4.2,2,6.5,2c0,0,0,0,0,0
				c5,0,9.5-3,11.3-7.7c2.3-5.9,7.8-10,14.1-10.3c3.6-0.2,7-2,9.1-4.9s2.8-6.7,1.9-10.2c-1.6-6.1,0.5-12.6,5.4-16.6
				c2.8-2.3,4.5-5.7,4.5-9.4S160.4,92.9,157.5,90.6z"/>
		</g>
		<line class="st33" x1="141.8" y1="94.6" x2="147.9" y2="93.6"/>
		<line class="st33" x1="56.5" y1="118" x2="62.6" y2="117"/>
		<line class="st33" x1="113.4" y1="149.6" x2="115.6" y2="143.9"/>
		<line class="st33" x1="115.4" y1="58.7" x2="121.4" y2="57.6"/>
		<line class="st33" x1="54.3" y1="131.8" x2="60.4" y2="130.7"/>
		<line class="st33" x1="139" y1="110.9" x2="144.3" y2="114.1"/>
		<line class="st33" x1="97.4" y1="51.6" x2="102.6" y2="54.8"/>
		<line class="st33" x1="88.5" y1="145.2" x2="86" y2="139.5"/>
		<line class="st33" x1="143.7" y1="69.1" x2="139.6" y2="73.7"/>
		<line class="st33" x1="51.8" y1="102.5" x2="51.7" y2="96.4"/>
		<line class="st33" x1="59" y1="82.4" x2="63.5" y2="78.1"/>
		<line class="st33" x1="136.8" y1="131" x2="141.3" y2="126.7"/>
	</g>
</g>
<g id="Layer_2">
</g>
</svg>
