<svg enable-background="new 0 0 200 200" viewBox="0 0 200 200" xmlns="http://www.w3.org/2000/svg"><g stroke-linecap="round" stroke-miterlimit="10" stroke-width="4"><path d="m8 39v12" fill="none" stroke="#ffc646"/><path d="m2 45h12" fill="none" stroke="#ffc646"/><path d="m150 189.5 8.5 8.5" fill="none" stroke="#ffe8b5"/><path d="m150 198 8.5-8.5" fill="none" stroke="#ffe8b5"/><path d="m189 146v12" fill="none" stroke="#ffc646"/><path d="m183 152h12" fill="none" stroke="#ffc646"/><path d="m2 134 8.5-8.5" fill="none" stroke="#d79400"/><path d="m10.5 134-8.5-8.5" fill="none" stroke="#d79400"/><path d="m145 2v12" fill="none" stroke="#ffe8b5"/><path d="m139 8h12" fill="none" stroke="#ffe8b5"/><circle cx="197" cy="49" fill="none" r="1" stroke="#d79400"/><circle cx="33" cy="182" fill="none" r="1" stroke="#ffe8b5"/><circle cx="42" cy="20" fill="none" r="1" stroke="#ffc646"/><path d="m100 28c-39.8 0-72 32.2-72 72s32.2 72 72 72 72-32.2 72-72-32.2-72-72-72zm0 92c-11 0-20-9-20-20s9-20 20-20 20 9 20 20-9 20-20 20z" fill="#ffc646" stroke="#253540" stroke-linejoin="round"/></g><path d="m153.9 55.4c5.1 9.7 8.1 20.8 8.1 32.6 0 38.6-31.4 70-70 70-21.7 0-41.1-9.9-53.9-25.4 11.7 22.2 35.1 37.4 61.9 37.4 38.6 0 70-31.4 70-70 0-16.9-6-32.5-16.1-44.6z" fill="#d79400"/><path d="m158.8 89.1c-4.3-3.5-6.2-9.2-4.7-14.6 2.3-8.6-3.9-17.2-12.8-17.7-5.5-.3-10.4-3.8-12.4-9-3.2-8.3-13.3-11.6-20.8-6.7-4.7 3-10.7 3-15.3 0-7.5-4.9-17.6-1.6-20.8 6.7-2 5.2-6.8 8.7-12.4 9-8.9.5-15.2 9-12.8 17.7 1.4 5.4-.4 11.1-4.7 14.6-6.9 5.6-6.9 16.2 0 21.8 4.3 3.5 6.2 9.2 4.7 14.6-2.3 8.6 3.9 17.2 12.8 17.7 5.5.3 10.4 3.8 12.4 9 3.2 8.3 13.3 11.6 20.8 6.7 4.7-3 10.7-3 15.3 0 7.5 4.9 17.6 1.6 20.8-6.7 2-5.2 6.8-8.7 12.4-9 8.9-.5 15.2-9 12.8-17.7-1.4-5.4.4-11.1 4.7-14.6 7-5.6 7-16.2 0-21.8zm-30.8 16c-2 1.6-2.9 4.3-2.2 6.9 1.1 4.1-1.8 8.1-6.1 8.3-2.6.1-4.9 1.8-5.8 4.2-1.5 3.9-6.3 5.5-9.8 3.2-2.2-1.4-5-1.4-7.2 0-3.5 2.3-8.3.8-9.8-3.2-.9-2.4-3.2-4.1-5.8-4.2-4.2-.2-7.1-4.3-6.1-8.3.7-2.5-.2-5.2-2.2-6.9-3.3-2.7-3.3-7.6 0-10.3 2-1.6 2.9-4.3 2.2-6.9-1.1-4.1 1.8-8.1 6.1-8.3 2.6-.1 4.9-1.8 5.8-4.2 1.5-3.9 6.3-5.5 9.8-3.2 2.2 1.4 5 1.4 7.2 0 3.5-2.3 8.3-.8 9.8 3.2.9 2.4 3.2 4.1 5.8 4.2 4.2.2 7.1 4.3 6.1 8.3-.7 2.5.2 5.2 2.2 6.9 3.3 2.7 3.3 7.7 0 10.3z" style="fill:#b37100;stroke:#253540;stroke-width:4;stroke-linecap:round;stroke-linejoin:round;stroke-miterlimit:10"/><path d="m80 49.7c.2-.3.3-.5.5-.7m-13.7 14.4c4.1-1.6 7.7-4.4 10.2-8" style="fill:none;stroke:#fff;stroke-width:4;stroke-linecap:round;stroke-linejoin:round;stroke-miterlimit:10"/><path d="m157.5 90.6c-4.9-4-7-10.5-5.4-16.6.9-3.5.3-7.2-1.9-10.2-1.5-2.1-3.6-3.6-6.1-4.4l.2.2c2.1 3 2.8 6.7 1.9 10.2-1.6 6.1.5 12.6 5.4 16.6 2.8 2.3 4.5 5.7 4.5 9.4s-1.6 7.1-4.5 9.4c-4.9 4-7 10.5-5.4 16.6.9 3.5.3 7.2-1.9 10.2s-5.5 4.8-9.1 4.9c-6.3.3-11.9 4.4-14.1 10.3-1.8 4.7-6.2 7.7-11.3 7.7-2.3 0-4.6-.7-6.5-2-2.6-1.7-5.6-2.6-8.7-2.6s-6.1.9-8.7 2.6c-2 1.3-4.2 2-6.5 2-1.3 0-2.5-.2-3.7-.6 2.2 2.9 5.7 4.7 9.6 4.7 2.3 0 4.6-.7 6.5-2 2.6-1.7 5.6-2.6 8.7-2.6s6.1.9 8.7 2.6c2 1.3 4.2 2 6.5 2 5 0 9.5-3 11.3-7.7 2.3-5.9 7.8-10 14.1-10.3 3.6-.2 7-2 9.1-4.9s2.8-6.7 1.9-10.2c-1.6-6.1.5-12.6 5.4-16.6 2.8-2.3 4.5-5.7 4.5-9.4s-1.6-7-4.5-9.3z" fill="#875200"/><path d="m141.8 94.6 6.1-1" fill="none" stroke="#fffdf6" stroke-linecap="round" stroke-miterlimit="10" stroke-width="4"/><path d="m56.5 118 6.1-1" fill="none" stroke="#fffdf6" stroke-linecap="round" stroke-miterlimit="10" stroke-width="4"/><path d="m113.4 149.6 2.2-5.7" fill="none" stroke="#fffdf6" stroke-linecap="round" stroke-miterlimit="10" stroke-width="4"/><path d="m115.4 58.7 6-1.1" fill="none" stroke="#fffdf6" stroke-linecap="round" stroke-miterlimit="10" stroke-width="4"/><path d="m54.3 131.8 6.1-1.1" fill="none" stroke="#fffdf6" stroke-linecap="round" stroke-miterlimit="10" stroke-width="4"/><path d="m139 110.9 5.3 3.2" fill="none" stroke="#fffdf6" stroke-linecap="round" stroke-miterlimit="10" stroke-width="4"/><path d="m97.4 51.6 5.2 3.2" fill="none" stroke="#fffdf6" stroke-linecap="round" stroke-miterlimit="10" stroke-width="4"/><path d="m88.5 145.2-2.5-5.7" fill="none" stroke="#fffdf6" stroke-linecap="round" stroke-miterlimit="10" stroke-width="4"/><path d="m143.7 69.1-4.1 4.6" fill="none" stroke="#fffdf6" stroke-linecap="round" stroke-miterlimit="10" stroke-width="4"/><path d="m51.8 102.5-.1-6.1" fill="none" stroke="#fffdf6" stroke-linecap="round" stroke-miterlimit="10" stroke-width="4"/><path d="m59 82.4 4.5-4.3" fill="none" stroke="#fffdf6" stroke-linecap="round" stroke-miterlimit="10" stroke-width="4"/><path d="m136.8 131 4.5-4.3" fill="none" stroke="#fffdf6" stroke-linecap="round" stroke-miterlimit="10" stroke-width="4"/></svg>