<svg enable-background="new 0 0 200 200" viewBox="0 0 200 200" xmlns="http://www.w3.org/2000/svg"><g stroke-linecap="round" stroke-linejoin="round" stroke-miterlimit="10" stroke-width="4"><path d="m158.6 188.6c12.5-12.5 12.5-32.8 0-45.3l-45.3 45.3c12.6 12.5 32.8 12.5 45.3 0z" fill="#ffc646" stroke="#253540"/><path d="m158.6 188.6-22.6-22.6" fill="none" stroke="#253540"/><path d="m136 198v-32h32" fill="none" stroke="#253540"/><path d="m161 198c17.7 0 32-14.3 32-32h-64c0 17.7 14.3 32 32 32z" fill="#ffc646" stroke="#253540"/><path d="m161 198v-32" fill="none" stroke="#253540"/><path d="m138.4 188.6 22.6-22.6 22.6 22.6" fill="none" stroke="#253540"/><circle cx="180" cy="22" fill="none" r="6" stroke="#d6dde3"/><circle cx="20" cy="113" fill="none" r="8" stroke="#d6dde3"/><circle cx="190" cy="93" fill="none" r="8" stroke="#d6dde3"/><circle cx="6" cy="26" fill="none" r="4" stroke="#d6dde3"/><circle cx="36" cy="68" fill="none" r="4" stroke="#d6dde3"/><circle cx="172" cy="125" fill="none" r="4" stroke="#d6dde3"/><circle cx="154" cy="65" fill="none" r="4" stroke="#d6dde3"/><path d="m87.3 125.8c1.6 1.4 2.9 3 4 4.8l.7 1.2c.1.2.6.9 1.2 1.7 1.5 2.1 3.9 3.4 6.4 3.4s5-1.3 6.4-3.4c.6-.8 1.1-1.6 1.2-1.7l.7-1.2c1.1-1.8 2.4-3.5 4-4.8 3.3-2.9 7-5.3 10.8-7.5 8.9-5 14.9-14.6 14.9-25.5 0-5-1.3-9.8-3.5-13.9l-2.9-5.2c-1-1.8-1.8-3.7-2.5-5.6-11.5 8.9-32-9.2-59.2 2.3-.5 1.1-1 2.2-1.6 3.3l-2.8 5.3c-2.2 4.1-3.5 8.9-3.5 13.9 0 10.9 6 20.5 14.9 25.5 3.8 2.1 7.5 4.5 10.8 7.4z" fill="#e52f28" stroke="#253540"/><path d="m69.2 42.6c4.1 8.9 4.2 19 .4 27.9 27.2-11.5 47.6 6.6 59.2-2.3-2.8-8.3-2.4-17.5 1.3-25.6 1.2-2.6-.7-5.6-3.6-5.6h-57.6c-1.1 0-1.8 1.1-1.3 2.1z" fill="#ffa2a2" stroke="#253540"/><path d="m73.6 80.1-1.5 2.7c-1.6 3-2.5 6.5-2.5 10m7-18.3c-.1.1-.1.3-.2.4" fill="none" stroke="#ffe3e2"/><path d="m100 138.3v51.7" fill="#fff" stroke="#253540"/><path d="m194 198h4" fill="#fff" stroke="#253540"/><path d="m12 198h174" fill="#fff" stroke="#253540"/><path d="m2 198h2" fill="#fff" stroke="#253540"/><circle cx="100" cy="163" fill="#fff" r="8" stroke="#253540"/><path d="m73.6 44c-6.3 0-11.8-5-11.9-11.3-.1-6.4 5.1-11.7 11.6-11.7.5 0 1.9 0 2.4.1.5-6.2 5.6-11.1 12-11.1 2.8 0 5.4 1 7.4 2.6 2.8-4.6 7.8-7.6 13.5-7.6 8.8 0 16 7.2 16 16v.1c.5-.1 1-.1 1.5-.1 6.4 0 11.6 5.3 11.5 11.7-.1 6.3-5.5 11.3-11.8 11.3h-1.1c-3.3 0-6 2.7-6 6v4c0 3.3-2.7 6-6 6-3.3 0-6-2.7-6-6v2c0-3.3-2.7-6-6-6h-2c-2.2 0-4-1.8-4-4 0-2.2-1.8-4-4-4-2.2 0-4 1.8-4 4v1c0 3.3-2.7 6-6 6-3.3 0-6-2.7-6-6v-3z" fill="#fff" stroke="#253540"/></g><path d="m72 41h-2.7c.9.4 1.8.7 2.7.9z" fill="#e3e8eb"/><path d="m118 19.9v.1 2.3l2.3-.3c.5-.1.9-.1 1.2-.1.4 0 .7 0 1.1.1v-1-.1c0-7.5-6-13.6-13.4-13.9 5.2 2.1 8.8 7.1 8.8 12.9z" fill="#e3e8eb"/><path d="m89.2 13.1 1.8 1.4 1-1.6c-1.3-.6-2.8-1-4.3-1-.1 0-.2 0-.3 0 .6.4 1.2.8 1.8 1.2z" fill="#e3e8eb"/><path d="m132.9 25.8c-1.8-1.8-4.2-2.8-6.8-2.8-.1 0-.2 0-.4 0 .9.5 1.8 1.1 2.5 1.8 1.8 1.8 2.8 4.3 2.7 6.8-.1 5.1-4.5 9.3-9.9 9.3h-1c-4.4 0-8 3.6-8 8v4c0 1.6-1 3-2.4 3.6.7.8 1.8 1.4 3 1.4 2.2 0 4-1.8 4-4v-4c0-4.4 3.6-8 8-8h1.1c5.4 0 9.8-4.2 9.9-9.3.1-2.5-.9-4.9-2.7-6.8z" fill="#e3e8eb"/><path d="m86 39c-3.3 0-6 2.7-6 6v1c0 1.6-1 3-2.4 3.6.7.8 1.8 1.4 3 1.4 2.2 0 4-1.8 4-4v-1c0-2.9 2.1-5.3 4.8-5.9-.9-.7-2.1-1.1-3.4-1.1z" fill="#e3e8eb"/><path d="m96.9 47.1c.4.6 1 .9 1.7.9h1.2c-.8-.5-1.8-.8-2.9-.9z" fill="#e3e8eb"/><path d="m117.4 25c2.1-2.4 5.2-4 8.7-4" style="fill:none;stroke:#253540;stroke-width:4;stroke-linecap:round;stroke-linejoin:round;stroke-miterlimit:10"/><path d="m93.9 11.6c2.6 1.9 4.4 4.9 4.7 8.4" style="fill:none;stroke:#253540;stroke-width:4;stroke-linecap:round;stroke-linejoin:round;stroke-miterlimit:10"/><path d="m53 2 24 30" style="fill:none;stroke:#ba1f19;stroke-width:4;stroke-linecap:round;stroke-linejoin:round;stroke-miterlimit:10"/><path d="m120 198h-40c-2.2 0-4-1.8-4-4 0-2.2 1.8-4 4-4h40c2.2 0 4 1.8 4 4 0 2.2-1.8 4-4 4z" style="fill:#fff;stroke:#253540;stroke-width:4;stroke-linecap:round;stroke-linejoin:round;stroke-miterlimit:10"/><path d="m132.4 79.9-2.9-5.2c-.6-1.2-1.2-2.3-1.7-3.6-.2.1-.4.1-.5.2-2 .9-4.3 1.3-6.9 1.3-.1 0-.1 0-.2 0l.7 1.2c3.3 25.6-23.7 45.5-45.5 41.2.7.5 1.5 1 2.3 1.5 4.4 2.5 8.1 5 11.1 7.7 1.2 1 2.2 2.1 3.1 3.3.2.3.4.6.6.9.2.4.5.7.7 1.1l.7 1.2c.1.2.6.8 1.1 1.6 1.1 1.6 2.9 2.5 4.8 2.5s3.7-.9 4.8-2.5c.5-.8 1-1.4 1.1-1.6l.7-1.2c1.2-2 2.7-3.8 4.4-5.3 3.1-2.7 6.7-5.2 11.1-7.7 8.5-4.8 13.9-13.9 13.9-23.7-.2-4.5-1.3-8.9-3.4-12.9z" fill="#d21b14"/><path d="m46 198c15.9 0 23.6-12.3 28.5-17.3 1.6-1.6 2.5-4 2.5-6.5v-.4c0-2.5-.9-4.9-2.5-6.5-4.9-5-12.5-17.3-28.5-17.3h-2c-15.9 0-23.6 12.3-28.5 17.3-1.6 1.6-2.5 4-2.5 6.5v.4c0 2.5.9 4.9 2.5 6.5 4.9 5 12.5 17.3 28.5 17.3z" style="fill:#ffc646;stroke:#253540;stroke-width:4;stroke-linecap:round;stroke-linejoin:round;stroke-miterlimit:10"/><path d="m73 168.7c-.8-.8-1.7-1.9-2.7-3-2.4-2.8-5.5-6.3-9.6-9.1.1.9.2 1.9.2 2.9 0 15.2-16.1 27.5-36 27.5-.4 0-.7 0-1 0 4.6 4.5 10.9 9 20 9h2c12.5 0 19.6-8.3 24.4-13.7 1-1.1 1.9-2.1 2.7-3 1.2-1.3 2-3.1 2-5.1v-.4c0-2-.7-3.8-2-5.1z" fill="#f5b126"/></svg>