<?xml version="1.0" encoding="utf-8"?>
<!-- Generator: Adobe Illustrator 19.0.1, SVG Export Plug-In . SVG Version: 6.00 Build 0)  -->
<svg version="1.1" xmlns="http://www.w3.org/2000/svg" xmlns:xlink="http://www.w3.org/1999/xlink" x="0px" y="0px"
	 viewBox="0 0 200 200" style="enable-background:new 0 0 200 200;" xml:space="preserve">
<style type="text/css">
	.st0{fill:#F1F3F5;stroke:#253540;stroke-width:4;stroke-linecap:round;stroke-linejoin:round;stroke-miterlimit:10;}
	.st1{fill:#D6DDE3;}
	.st2{fill:#FFC646;stroke:#253540;stroke-width:4;stroke-linecap:round;stroke-miterlimit:10;}
	.st3{fill:#FFC646;stroke:#253540;stroke-width:4;stroke-linecap:round;stroke-linejoin:round;stroke-miterlimit:10;}
	.st4{fill:none;stroke:#253540;stroke-width:4;stroke-linecap:round;stroke-linejoin:round;stroke-miterlimit:10;}
	.st5{fill:#D79400;}
	.st6{fill:#FFFFFF;stroke:#253540;stroke-width:4;stroke-miterlimit:10;}
	.st7{fill:#6A6DC7;stroke:#253540;stroke-width:4;stroke-miterlimit:10;}
	.st8{fill:none;stroke:#D1D3F5;stroke-width:4;stroke-linecap:round;stroke-miterlimit:10;}
	.st9{fill:none;stroke:#A3A6F1;stroke-width:4;stroke-linecap:round;stroke-linejoin:round;stroke-miterlimit:10;}
	.st10{fill:none;stroke:#6A6DC7;stroke-width:4;stroke-linecap:round;stroke-linejoin:round;stroke-miterlimit:10;}
	.st11{fill:none;stroke:#F5B126;stroke-width:4;stroke-linecap:round;stroke-linejoin:round;stroke-miterlimit:10;}
	.st12{fill:none;stroke:#FFFFFF;stroke-width:4;stroke-linecap:round;stroke-linejoin:round;stroke-miterlimit:10;}
	.st13{fill:none;stroke:#D6DDE3;stroke-width:4;stroke-linecap:round;stroke-linejoin:round;stroke-miterlimit:10;}
	.st14{fill:none;stroke:#3CB170;stroke-width:4;stroke-linecap:round;stroke-linejoin:round;stroke-miterlimit:10;}
	.st15{fill:#E52F28;stroke:#253540;stroke-width:4;stroke-linecap:round;stroke-linejoin:round;stroke-miterlimit:10;}
	.st16{fill:#FFA2A2;stroke:#253540;stroke-width:4;stroke-linecap:round;stroke-linejoin:round;stroke-miterlimit:10;}
	.st17{fill:none;stroke:#FFE3E2;stroke-width:4;stroke-linecap:round;stroke-linejoin:round;stroke-miterlimit:10;}
	.st18{fill:none;stroke:#D21B14;stroke-width:4;stroke-linecap:round;stroke-linejoin:round;stroke-miterlimit:10;}
	.st19{fill:#FFFFFF;stroke:#253540;stroke-width:4;stroke-linecap:round;stroke-linejoin:round;stroke-miterlimit:10;}
	.st20{fill:#E3E8EB;}
	.st21{fill:none;stroke:#BA1F19;stroke-width:4;stroke-linecap:round;stroke-linejoin:round;stroke-miterlimit:10;}
	.st22{fill:#C4F0CE;stroke:#253540;stroke-width:4;stroke-linejoin:round;stroke-miterlimit:10;}
	.st23{fill:#81DC9E;stroke:#253540;stroke-width:4;stroke-linejoin:round;stroke-miterlimit:10;}
	.st24{fill:#81DC9E;stroke:#253540;stroke-width:4;stroke-miterlimit:10;}
	.st25{fill:#FFFFFF;stroke:#253540;stroke-width:4;stroke-linejoin:round;stroke-miterlimit:10;}
	.st26{fill:none;stroke:#FFC646;stroke-width:4;stroke-linecap:round;stroke-miterlimit:10;}
	.st27{fill:none;stroke:#3197D6;stroke-width:4;stroke-linecap:round;stroke-miterlimit:10;}
	.st28{fill:none;stroke:#AEDFFF;stroke-width:4;stroke-linecap:round;stroke-miterlimit:10;}
	.st29{fill:none;stroke:#FFE8B5;stroke-width:4;stroke-linecap:round;stroke-miterlimit:10;}
	.st30{fill:none;stroke:#D79400;stroke-width:4;stroke-linecap:round;stroke-miterlimit:10;}
	.st31{fill:#B37100;stroke:#253540;stroke-width:4;stroke-linecap:round;stroke-linejoin:round;stroke-miterlimit:10;}
	.st32{fill:#875200;}
	.st33{fill:none;stroke:#FFFDF6;stroke-width:4;stroke-linecap:round;stroke-miterlimit:10;}
	.st34{fill:#72808E;stroke:#253540;stroke-width:4;stroke-linecap:round;stroke-linejoin:round;stroke-miterlimit:10;}
	.st35{fill:#D6DDE3;stroke:#253540;stroke-width:4;stroke-linecap:round;stroke-miterlimit:10;}
	.st36{fill:none;stroke:#C1CBD4;stroke-width:4;stroke-linecap:round;stroke-miterlimit:10;}
	.st37{fill:#72808E;stroke:#253540;stroke-width:4;stroke-linecap:round;stroke-miterlimit:10;}
	.st38{fill:#4F5D6B;}
	.st39{fill:#F9FAFA;stroke:#253540;stroke-width:4;stroke-linecap:round;stroke-miterlimit:10;}
	.st40{fill:#E3E8EB;stroke:#253540;stroke-width:4;stroke-linecap:round;stroke-miterlimit:10;}
	.st41{fill:#93A1AF;}
	.st42{fill:#C1CBD4;}
	.st43{fill:none;stroke:#FFFFFF;stroke-width:4;stroke-linecap:round;stroke-miterlimit:10;}
	.st44{fill:#4F5D6B;stroke:#253540;stroke-width:4;stroke-miterlimit:10;}
	.st45{fill:#F5B126;}
	.st46{fill:#93A1AF;stroke:#253540;stroke-width:4;stroke-miterlimit:10;}
	.st47{fill:#FFFFFF;stroke:#D79400;stroke-width:4;stroke-linecap:round;stroke-miterlimit:10;}
	.st48{fill:none;stroke:#F5B126;stroke-width:4;stroke-linecap:round;stroke-miterlimit:10;}
	.st49{fill:#EDDD38;stroke:#272822;stroke-width:4;stroke-linejoin:round;stroke-miterlimit:10;}
	.st50{fill:#F45B55;}
	.st51{fill:#FFE3E2;}
	.st52{fill:#F1F1F0;stroke:#272822;stroke-width:4;stroke-linecap:round;stroke-linejoin:round;stroke-miterlimit:10;}
	.st53{fill:#FFD56D;}
	.st54{fill:#C1CBD4;stroke:#253540;stroke-width:4;stroke-miterlimit:10;}
	.st55{fill:none;stroke:#253540;stroke-width:4;stroke-linecap:round;stroke-miterlimit:10;stroke-dasharray:8,8,92,8,4;}
	.st56{fill:#F9FAFA;stroke:#E52F28;stroke-width:4;stroke-linecap:round;stroke-linejoin:round;stroke-miterlimit:10;}
	.st57{fill:none;stroke:#93A1AF;stroke-width:4;stroke-linecap:round;stroke-miterlimit:10;}
	.st58{fill:#FFC646;stroke:#875200;stroke-width:4;stroke-linecap:round;stroke-linejoin:round;stroke-miterlimit:10;}
	.st59{fill:#81DC9E;}
	.st60{fill:none;stroke:#585B9E;stroke-width:4;stroke-miterlimit:10;}
	.st61{fill:none;stroke:#6A6DC7;stroke-width:4;stroke-linecap:round;stroke-miterlimit:10;}
	.st62{fill:#FFFFFF;stroke:#DD9400;stroke-width:4;stroke-linecap:round;stroke-linejoin:round;stroke-miterlimit:10;}
	.st63{fill:none;stroke:#FFC646;stroke-width:4;stroke-linecap:round;stroke-linejoin:round;stroke-miterlimit:10;}
	.st64{fill:#FFFFFF;stroke:#D21B14;stroke-width:4;stroke-linecap:round;stroke-linejoin:round;stroke-miterlimit:10;}
	.st65{fill:#E52F28;stroke:#BA1F19;stroke-width:4;stroke-linecap:round;stroke-linejoin:round;stroke-miterlimit:10;}
	.st66{fill:#FFC646;stroke:#DD9400;stroke-width:4;stroke-linecap:round;stroke-linejoin:round;stroke-miterlimit:10;}
	.st67{fill:#FFFFFF;stroke:#BA1F19;stroke-width:4;stroke-linecap:round;stroke-linejoin:round;stroke-miterlimit:10;}
	.st68{fill:#DD9400;stroke:#DD9400;stroke-width:4;stroke-linecap:round;stroke-linejoin:round;stroke-miterlimit:10;}
	.st69{fill:#BA1F19;}
	.st70{fill:#7F83E4;stroke:#585B9E;stroke-width:4;stroke-miterlimit:10;}
	.st71{fill:#FFFFFF;stroke:#585B9E;stroke-width:4;stroke-miterlimit:10;}
	.st72{fill:#585B9E;}
	.st73{fill:#A3A6F1;stroke:#585B9E;stroke-width:4;stroke-miterlimit:10;}
	.st74{fill:#6A6DC7;stroke:#585B9E;stroke-width:4;stroke-miterlimit:10;}
	.st75{fill:#A3A6F1;}
	.st76{fill:#C4F0CE;stroke:#3CB170;stroke-width:4;stroke-linejoin:round;stroke-miterlimit:10;}
	.st77{fill:#81DC9E;stroke:#3CB170;stroke-width:4;stroke-linejoin:round;stroke-miterlimit:10;}
	.st78{fill:#81DC9E;stroke:#3CB170;stroke-width:4;stroke-miterlimit:10;}
	.st79{fill:#FFFFFF;stroke:#3CB170;stroke-width:4;stroke-linejoin:round;stroke-miterlimit:10;}
	.st80{fill:none;stroke:#FED475;stroke-width:4;stroke-linecap:round;stroke-linejoin:round;stroke-miterlimit:10;}
	.st81{fill:none;stroke:#71BFF1;stroke-width:4;stroke-linecap:round;stroke-miterlimit:10;}
	.st82{fill:#253540;}
	.st83{fill:none;stroke:#253540;stroke-width:4;stroke-miterlimit:10;}
	.st84{fill:#FFC646;}
	.st85{fill:#FFF6E2;}
	.st86{fill:none;stroke:#D6DDE3;stroke-width:4;stroke-linecap:round;stroke-miterlimit:10;}
	.st87{fill:#B37100;stroke:#875200;stroke-width:4;stroke-linecap:round;stroke-linejoin:round;stroke-miterlimit:10;}
	.st88{fill:none;stroke:#FFD56D;stroke-width:4;stroke-linecap:round;stroke-linejoin:round;stroke-miterlimit:10;}
	.st89{fill:#394956;}
	.st90{fill:#FFC646;stroke:#D79400;stroke-width:4;stroke-linecap:round;stroke-miterlimit:10;}
	.st91{fill:#D79400;stroke:#D79400;stroke-width:2;stroke-miterlimit:10;}
	.st92{fill:#FFE8B5;stroke:#D79400;stroke-width:4;stroke-linecap:round;stroke-miterlimit:10;}
	.st93{fill:#FFC646;stroke:#D79400;stroke-width:4;stroke-linecap:round;stroke-linejoin:round;stroke-miterlimit:10;}
	.st94{fill:#FFA2A2;stroke:#BA1F19;stroke-width:4;stroke-linecap:round;stroke-linejoin:round;stroke-miterlimit:10;}
	.st95{fill:none;stroke:#D79400;stroke-width:4;stroke-linecap:round;stroke-linejoin:round;stroke-miterlimit:10;}
	.st96{fill:none;stroke:#E52F28;stroke-width:4;stroke-linecap:round;stroke-linejoin:round;stroke-miterlimit:10;}
	.st97{fill:#FFE8B5;stroke:#253540;stroke-width:4;stroke-linecap:round;stroke-linejoin:round;stroke-miterlimit:10;}
	.st98{fill:#D21B14;}
	.st99{fill:#FFC646;stroke:#253540;stroke-width:4;stroke-linejoin:round;stroke-miterlimit:10;}
	.st100{fill:#4BC27D;stroke:#253540;stroke-width:4;stroke-linejoin:round;stroke-miterlimit:10;}
	.st101{fill:#359E64;}
	.st102{fill:none;stroke:#359E64;stroke-width:4;stroke-linejoin:round;stroke-miterlimit:10;}
	.st103{fill:none;stroke:#E3E8EB;stroke-width:4;stroke-linejoin:round;stroke-miterlimit:10;}
	.st104{fill:#3CB170;}
	.st105{fill:none;stroke:#3CB170;stroke-width:4;stroke-linejoin:round;stroke-miterlimit:10;}
	.st106{fill:none;stroke:#4BC27D;stroke-width:4;stroke-linecap:round;stroke-linejoin:round;stroke-miterlimit:10;}
	.st107{fill:#7F83E4;stroke:#253540;stroke-width:4;stroke-miterlimit:10;}
	.st108{fill:#A3A6F1;stroke:#253540;stroke-width:4;stroke-miterlimit:10;}
	.st109{fill:#B4C0CA;stroke:#253540;stroke-width:4;stroke-miterlimit:10;}
	.st110{fill:#6A6DC7;}
	.st111{fill:#7F83E4;stroke:#253540;stroke-width:4;stroke-linecap:round;stroke-miterlimit:10;}
	.st112{fill:none;stroke:#253540;stroke-width:4;stroke-linecap:round;stroke-miterlimit:10;}
	.st113{fill:#D6DDE3;stroke:#253540;stroke-width:4;stroke-linecap:round;stroke-linejoin:round;stroke-miterlimit:10;}
	.st114{fill:#B4C0CA;}
	.st115{fill:#3197D6;stroke:#253540;stroke-width:4;stroke-linecap:round;stroke-linejoin:round;stroke-miterlimit:10;}
	.st116{fill:none;stroke:#AEDFFF;stroke-width:4;stroke-linecap:round;stroke-linejoin:round;stroke-miterlimit:10;}
	.st117{fill:none;stroke:#93A1AF;stroke-width:4;stroke-linecap:round;stroke-linejoin:round;stroke-miterlimit:10;}
	.st118{fill:#4F5D6B;stroke:#253540;stroke-width:4;stroke-linecap:round;stroke-linejoin:round;stroke-miterlimit:10;}
	.st119{fill:#237AB3;}
	.st120{fill:none;stroke:#FFE8B5;stroke-width:4;stroke-linecap:round;stroke-linejoin:round;stroke-miterlimit:10;}
	.st121{fill:#FFFFFF;}
</style>
<g id="Layer_1">
	<g>
		<path class="st3" d="M158.6,188.6c12.5-12.5,12.5-32.8,0-45.3l-45.3,45.3C125.9,201.1,146.1,201.1,158.6,188.6z"/>
		<line class="st4" x1="158.6" y1="188.6" x2="136" y2="166"/>
		<polyline class="st4" points="136,198 136,166 168,166 		"/>
	</g>
	<g>
		<path class="st3" d="M161,198c17.7,0,32-14.3,32-32h-64C129,183.7,143.3,198,161,198z"/>
		<line class="st4" x1="161" y1="198" x2="161" y2="166"/>
		<polyline class="st4" points="138.4,188.6 161,166 183.6,188.6 		"/>
	</g>
	<circle class="st13" cx="180" cy="22" r="6"/>
	<circle class="st13" cx="20" cy="113" r="8"/>
	<circle class="st13" cx="190" cy="93" r="8"/>
	<circle class="st13" cx="6" cy="26" r="4"/>
	<circle class="st13" cx="36" cy="68" r="4"/>
	<circle class="st13" cx="172" cy="125" r="4"/>
	<circle class="st13" cx="154" cy="65" r="4"/>
	<path class="st15" d="M87.3,125.8L87.3,125.8c1.6,1.4,2.9,3,4,4.8l0.7,1.2c0.1,0.2,0.6,0.9,1.2,1.7c1.5,2.1,3.9,3.4,6.4,3.4
		s5-1.3,6.4-3.4c0.6-0.8,1.1-1.6,1.2-1.7l0.7-1.2c1.1-1.8,2.4-3.5,4-4.8l0,0c3.3-2.9,7-5.3,10.8-7.5c8.9-5,14.9-14.6,14.9-25.5
		c0-5-1.3-9.8-3.5-13.9l-2.9-5.2c-1-1.8-1.8-3.7-2.5-5.6c-11.5,8.9-32-9.2-59.2,2.3c-0.5,1.1-1,2.2-1.6,3.3L65.1,79
		c-2.2,4.1-3.5,8.9-3.5,13.9c0,10.9,6,20.5,14.9,25.5C80.3,120.5,84,122.9,87.3,125.8z"/>
	<path class="st16" d="M69.2,42.6c4.1,8.9,4.2,19,0.4,27.9c27.2-11.5,47.6,6.6,59.2-2.3c-2.8-8.3-2.4-17.5,1.3-25.6l0,0
		c1.2-2.6-0.7-5.6-3.6-5.6H68.9c-1.1,0-1.8,1.1-1.3,2.1L69.2,42.6z"/>
	<g>
		<path class="st17" d="M73.6,80.1l-1.5,2.7c-1.6,3-2.5,6.5-2.5,10 M76.6,74.5c-0.1,0.1-0.1,0.3-0.2,0.4"/>
	</g>
	<line class="st19" x1="100" y1="138.3" x2="100" y2="190"/>
	<line class="st19" x1="194" y1="198" x2="198" y2="198"/>
	<line class="st19" x1="12" y1="198" x2="186" y2="198"/>
	<line class="st19" x1="2" y1="198" x2="4" y2="198"/>
	<circle class="st19" cx="100" cy="163" r="8"/>
	<path class="st19" d="M73.6,44c-6.3,0-11.8-5-11.9-11.3C61.6,26.3,66.8,21,73.3,21c0.5,0,1.9,0,2.4,0.1c0.5-6.2,5.6-11.1,12-11.1
		c2.8,0,5.4,1,7.4,2.6C97.9,8,102.9,5,108.6,5c8.8,0,16,7.2,16,16c0,0,0,0.1,0,0.1c0.5-0.1,1-0.1,1.5-0.1c6.4,0,11.6,5.3,11.5,11.7
		C137.5,39,132.1,44,125.8,44h-1.1c-3.3,0-6,2.7-6,6v4c0,3.3-2.7,6-6,6h0c-3.3,0-6-2.7-6-6v2c0-3.3-2.7-6-6-6h-2c-2.2,0-4-1.8-4-4v0
		c0-2.2-1.8-4-4-4h0c-2.2,0-4,1.8-4,4v1c0,3.3-2.7,6-6,6h0c-3.3,0-6-2.7-6-6v-3H73.6z"/>
	<g>
		<path class="st20" d="M72,41h-2.7c0.9,0.4,1.8,0.7,2.7,0.9V41z"/>
		<path class="st20" d="M118,19.9c0,0,0,0.1,0,0.1l0,2.3l2.3-0.3c0.5-0.1,0.9-0.1,1.2-0.1c0.4,0,0.7,0,1.1,0.1l0-1c0,0,0-0.1,0-0.1
			c0-7.5-6-13.6-13.4-13.9C114.4,9.1,118,14.1,118,19.9z"/>
		<path class="st20" d="M89.2,13.1l1.8,1.4l1-1.6c-1.3-0.6-2.8-1-4.3-1c-0.1,0-0.2,0-0.3,0C88,12.3,88.6,12.7,89.2,13.1z"/>
		<path class="st20" d="M132.9,25.8c-1.8-1.8-4.2-2.8-6.8-2.8c-0.1,0-0.2,0-0.4,0c0.9,0.5,1.8,1.1,2.5,1.8c1.8,1.8,2.8,4.3,2.7,6.8
			c-0.1,5.1-4.5,9.3-9.9,9.3H120c-4.4,0-8,3.6-8,8v4c0,1.6-1,3-2.4,3.6c0.7,0.8,1.8,1.4,3,1.4c2.2,0,4-1.8,4-4v-4c0-4.4,3.6-8,8-8
			h1.1c5.4,0,9.8-4.2,9.9-9.3C135.7,30.1,134.7,27.7,132.9,25.8z"/>
		<path class="st20" d="M86,39c-3.3,0-6,2.7-6,6v1c0,1.6-1,3-2.4,3.6c0.7,0.8,1.8,1.4,3,1.4c2.2,0,4-1.8,4-4v-1
			c0-2.9,2.1-5.3,4.8-5.9C88.5,39.4,87.3,39,86,39z"/>
		<path class="st20" d="M96.9,47.1c0.4,0.6,1,0.9,1.7,0.9h1.2C99,47.5,98,47.2,96.9,47.1z"/>
	</g>
	<path class="st4" d="M117.4,25c2.1-2.4,5.2-4,8.7-4"/>
	<path class="st4" d="M93.9,11.6c2.6,1.9,4.4,4.9,4.7,8.4"/>
	<line class="st21" x1="53" y1="2" x2="77" y2="32"/>
	<path class="st19" d="M120,198H80c-2.2,0-4-1.8-4-4l0,0c0-2.2,1.8-4,4-4h40c2.2,0,4,1.8,4,4l0,0C124,196.2,122.2,198,120,198z"/>
	<path class="st98" d="M132.4,79.9l-2.9-5.2c-0.6-1.2-1.2-2.3-1.7-3.6c-0.2,0.1-0.4,0.1-0.5,0.2l0,0c-2,0.9-4.3,1.3-6.9,1.3h0
		c-0.1,0-0.1,0-0.2,0l0.7,1.2c3.3,25.6-23.7,45.5-45.5,41.2c0.7,0.5,1.5,1,2.3,1.5c4.4,2.5,8.1,5,11.1,7.7c1.2,1,2.2,2.1,3.1,3.3
		c0.2,0.3,0.4,0.6,0.6,0.9c0.2,0.4,0.5,0.7,0.7,1.1l0.7,1.2c0.1,0.2,0.6,0.8,1.1,1.6c1.1,1.6,2.9,2.5,4.8,2.5c1.9,0,3.7-0.9,4.8-2.5
		c0.5-0.8,1-1.4,1.1-1.6l0.7-1.2c1.2-2,2.7-3.8,4.4-5.3c3.1-2.7,6.7-5.2,11.1-7.7c8.5-4.8,13.9-13.9,13.9-23.7
		C135.6,88.3,134.5,83.9,132.4,79.9z"/>
	<g>
		<path class="st3" d="M46,198c15.9,0,23.6-12.3,28.5-17.3c1.6-1.6,2.5-4,2.5-6.5v-0.4c0-2.5-0.9-4.9-2.5-6.5
			c-4.9-5-12.5-17.3-28.5-17.3h-2c-15.9,0-23.6,12.3-28.5,17.3c-1.6,1.6-2.5,4-2.5,6.5v0.4c0,2.5,0.9,4.9,2.5,6.5
			c4.9,5,12.5,17.3,28.5,17.3H46z"/>
		<path class="st45" d="M73,168.7c-0.8-0.8-1.7-1.9-2.7-3c-2.4-2.8-5.5-6.3-9.6-9.1c0.1,0.9,0.2,1.9,0.2,2.9
			c0,15.2-16.1,27.5-36,27.5c-0.4,0-0.7,0-1,0c4.6,4.5,10.9,9,20,9h2c12.5,0,19.6-8.3,24.4-13.7c1-1.1,1.9-2.1,2.7-3
			c1.2-1.3,2-3.1,2-5.1v-0.4C75,171.8,74.3,170,73,168.7z"/>
	</g>
</g>
<g id="Layer_2">
</g>
</svg>
