<svg enable-background="new 0 0 200 200" viewBox="0 0 200 200" xmlns="http://www.w3.org/2000/svg"><path d="m85.9 28.1-62.4 62.4c-2.2 2.2-3.5 5.3-3.5 8.5v79c0 11 9 20 20 20h120c11 0 20-9 20-20v-79c0-3.2-1.3-6.2-3.5-8.5l-62.3-62.3c-7.9-7.9-20.5-7.9-28.3-.1z" style="fill:#ffc646;stroke:#253540;stroke-width:4;stroke-linecap:round;stroke-linejoin:round;stroke-miterlimit:10"/><path d="m170 106.5v59.5c0 9.9-8.1 18-18 18h-120c-3.6 0-6.9-1.1-9.7-2.9 1.5 8.4 8.9 14.9 17.7 14.9h120c9.9 0 18-8.1 18-18v-79c0-.2 0-.3 0-.4z" fill="#d79400"/><g stroke-linecap="round" stroke-linejoin="round" stroke-miterlimit="10" stroke-width="4"><path d="m190 46v16" fill="none" stroke="#f5b126"/><path d="m182 54h16" fill="none" stroke="#f5b126"/><path d="m46 16v12" fill="none" stroke="#f5b126"/><path d="m40 22h12" fill="none" stroke="#f5b126"/><path d="m144 2v12" fill="none" stroke="#f5b126"/><path d="m138 8h12" fill="none" stroke="#f5b126"/><path d="m114 56v16" fill="none" stroke="#fff"/><path d="m106 64h16" fill="none" stroke="#fff"/><circle cx="10" cy="59" fill="none" r="8" stroke="#f5b126"/><circle cx="157" cy="148" fill="none" r="6" stroke="#fff"/><path d="m22 96 50 50 13.9-13.9c7.8-7.8 20.5-7.8 28.3 0l13.8 13.9 50-50z" fill="#ffe8b5" stroke="#253540"/><path d="m128 146 46 46" fill="none" stroke="#253540"/><path d="m72 146-46 46" fill="none" stroke="#253540"/><path d="m72 104v16" fill="none" stroke="#fff"/><path d="m64 112h16" fill="none" stroke="#fff"/><path d="m178 198h-158" fill="#f1f3f5" stroke="#253540"/><path d="m186 198h4" fill="none" stroke="#253540"/><path d="m10 198h2" fill="none" stroke="#253540"/></g></svg>