<svg enable-background="new 0 0 200 200" viewBox="0 0 200 200" xmlns="http://www.w3.org/2000/svg"><g stroke-linecap="round" stroke-miterlimit="10" stroke-width="4"><path d="m164 152v12" fill="none" stroke="#ffc646"/><path d="m158 158h12" fill="none" stroke="#ffc646"/><path d="m2 120h12" fill="none" stroke="#ffc646"/><path d="m8 126v-12" fill="none" stroke="#ffc646"/><path d="m179 89 8 8" fill="none" stroke="#ffc646"/><path d="m179 97 8-8" fill="none" stroke="#ffc646"/><path d="m44 166 8 8" fill="none" stroke="#ffe8b5"/><path d="m44 174 8-8" fill="none" stroke="#ffe8b5"/><path d="m192 26v12" fill="none" stroke="#ffc646"/><path d="m186 32h12" fill="none" stroke="#ffc646"/><path d="m132.1 128h-64c-4.4 0-8-3.6-8-8v-14h80v14c0 4.4-3.6 8-8 8z" fill="#ffc646" stroke="#253540" stroke-linejoin="round"/><path d="m140.1 106h-80c-2.2 0-4-1.8-4-4 0-2.2 1.8-4 4-4h80c2.2 0 4 1.8 4 4 0 2.2-1.8 4-4 4z" fill="#ffc646" stroke="#253540" stroke-linejoin="round"/><path d="m100.1 198c-9.3 0-17.3-6.6-19.1-15.7l-10.9-54.3h60l-10.9 54.3c-1.8 9.1-9.8 15.7-19.1 15.7z" fill="#ffc646" stroke="#253540" stroke-linejoin="round"/><path d="m81 140h37" fill="none" stroke="#f5b126"/><path d="m84 152h32" fill="none" stroke="#f5b126"/><path d="m86 164h27" fill="none" stroke="#f5b126"/><path d="m88 176h22" fill="none" stroke="#f5b126"/></g><path d="m115 130-7 35c-2 9.9-10.8 17.1-20.9 17.1-1.4 0-2.8-.2-4.2-.4v.2c1.6 8.2 8.9 14.1 17.2 14.1s15.5-5.9 17.2-14.1l10.4-51.9z" fill="#f5b126"/><path d="m142.4 97.9h-72.1c-5.9 0-10.6-4.8-10.6-10.6v-.5c0-5.9 4.8-10.6 10.6-10.6h72.1c5.9 0 10.6 4.8 10.6 10.6v.5c0 5.9-4.8 10.6-10.6 10.6z" style="fill:#ffa2a2;stroke:#253540;stroke-width:4;stroke-linecap:round;stroke-linejoin:round;stroke-miterlimit:10"/><path d="m144 78c1.2 1.6 2 3.5 2 5.7 0 5.1-4.1 9.2-9.1 9.2h-44.3c-.7 0-1.3-.1-1.9-.2 1.7 2.1 4.2 3.5 7.1 3.5h44.3c5 0 9.1-4.1 9.1-9.2 0-4.4-3.1-8.1-7.2-9z" fill="#f45b55"/><path d="m130.9 35c-22.8-1.6-26.2-29.7-24.6-33-36.5 3.7-60.5 40.1-51.8 63.5l59.5 17.5 20.9-35.8" style="fill:#ffa2a2;stroke:#253540;stroke-width:4;stroke-linecap:round;stroke-linejoin:round;stroke-miterlimit:10"/><path d="m133.4 47.1-3.5-10.9c-8.3-.9-15.1-5.3-19.7-12.9-4.2-6.9-6.5-14.6-6.2-18.9-5.1 6.5-2.3 37.1 21.8 44z" fill="#f45b55"/><path d="m96.9 69.2c-22.3-9.8-14.1-53 7-64.9-17.2 2.4-32.5 11.8-42 26.6-7.3 11.4-9.6 23.8-6.3 33.5z" fill="#ffe3e2"/><path d="m85.1 98c21.1 0 67.3-8.9 67.3-36.1 0-17.9-12.9-27.6-27.1-27.6-1.3 25.9-26.4 27-35.5 28.4-10.2 1.6-32.6-1.5-42 10.5-7.8 10.1-.1 24.8 12.6 24.8z" style="fill:#ffa2a2;stroke:#253540;stroke-width:4;stroke-linecap:round;stroke-linejoin:round;stroke-miterlimit:10"/><path d="m78.3 75.5c31.3 5.9 59.2-13.2 48.9-39.1.1.4.1.1 0 .1-2.1 23.7-24.2 26-34.6 27.4-1 .1-1.8.2-2.6.4-2.6.4-5.9.5-9.6.6-11 .4-26.2.7-32.3 10.4-5.4 8.7 2.4 18.7 6.2 19.5-2.1-8.6 1.8-20.8 24-19.3z" fill="#ffe3e2"/><path d="m130 36.7c3.1 4.4 5.4 10.1 5.4 17.5 0 14-15.5 42.2-66.3 42.2h16.1c9.7 0 25.7-2 39.3-7.8 10.5-4.5 26.7-10.3 26.7-26.7-.1-14.3-10.9-23.7-21.2-25.2z" fill="#f45b55"/><path d="m72.1 92v6 8c0 5.5 4.5 10 10 10 5.5 0 10-4.5 10-10v-8-11" style="fill:#ffa2a2;stroke:#253540;stroke-width:4;stroke-linecap:round;stroke-linejoin:round;stroke-miterlimit:10"/><path d="m90.1 93v13c0 4.4-3.6 8-8 8s-8-3.6-8-8c7.2 0 16-3.5 16-13z" fill="#f45b55"/><path d="m132.1 126h-10v-18h16v12c0 3.3-2.7 6-6 6z" fill="#f5b126"/><circle cx="30" cy="30" fill="none" r="6" stroke="#ffe8b5" stroke-linecap="round" stroke-miterlimit="10" stroke-width="4"/><path d="m100 136v48" fill="none" stroke="#f5b126" stroke-linecap="round" stroke-miterlimit="10" stroke-width="4"/><path d="m92 136v48" fill="none" stroke="#f5b126" stroke-linecap="round" stroke-miterlimit="10" stroke-width="4"/><path d="m108 136v48" fill="none" stroke="#f5b126" stroke-linecap="round" stroke-miterlimit="10" stroke-width="4"/><path d="m78.1 22.4c-4.3 3.6-8 7.9-11.1 12.8-1 1.7-1.9 3.3-2.7 5" style="fill:none;stroke:#fff;stroke-width:4;stroke-linecap:round;stroke-linejoin:round;stroke-miterlimit:10"/><path d="m84.2 18c-.3.2-.6.4-.8.5" style="fill:none;stroke:#fff;stroke-width:4;stroke-linecap:round;stroke-linejoin:round;stroke-miterlimit:10"/><path d="m124 198h4" style="fill:#ffc646;stroke:#253540;stroke-width:4;stroke-linecap:round;stroke-linejoin:round;stroke-miterlimit:10"/><path d="m74 198h2" style="fill:#ffc646;stroke:#253540;stroke-width:4;stroke-linecap:round;stroke-linejoin:round;stroke-miterlimit:10"/><path d="m84 198h32" style="fill:#ffc646;stroke:#253540;stroke-width:4;stroke-linecap:round;stroke-linejoin:round;stroke-miterlimit:10"/></svg>