<svg enable-background="new 0 0 200 200" viewBox="0 0 200 200" xmlns="http://www.w3.org/2000/svg"><path d="m136 186h-72l-12.6-21c-7.5-12.4-11.4-26.7-11.4-41.2v-17.8c0-4.4 3.6-8 8-8h104c4.4 0 8 3.6 8 8v17.8c0 14.5-3.9 28.7-11.4 41.2z" style="fill:#f1f3f5;stroke:#253540;stroke-width:4;stroke-linecap:round;stroke-linejoin:round;stroke-miterlimit:10"/><path d="m152 100h-20c-7.7 35.6-36.5 62-71 62-3.2 0-6.3-.3-9.4-.7l1.5 2.7 12 20h69.7l12-20c7.3-12.1 11.1-26 11.1-40.1v-17.9c.1-3.3-2.6-6-5.9-6z" fill="#d6dde3"/><g stroke-linecap="round" stroke-miterlimit="10" stroke-width="4"><path d="m160 106v8c8.8 0 16 7.2 16 16s-7.2 16-16 16c-1 0-2.1-.1-3.1-.3-.7 2.6-1.6 5.1-2.6 7.6 1.8.4 3.7.7 5.6.7 13.3 0 24-10.7 24-24s-10.6-24-23.9-24z" fill="#f1f3f5" stroke="#253540" stroke-linejoin="round"/><path d="m194 182h-188c-2.2 0-4-1.8-4-4 0-2.2 1.8-4 4-4h188c2.2 0 4 1.8 4 4 0 2.2-1.8 4-4 4z" fill="#f1f3f5" stroke="#253540" stroke-linejoin="round"/><path d="m18 182h164c-7.6 10.1-19.4 16-32 16h-100c-12.6 0-24.4-5.9-32-16z" fill="#d6dde3" stroke="#253540" stroke-linejoin="round"/><path d="m100 73v-20" fill="none" stroke="#ffe8b5" stroke-linejoin="round"/><path d="m120 66v24" fill="none" stroke="#ffe8b5" stroke-linejoin="round"/><path d="m132 42c6.6 0 12-5.4 12-12s-5.4-12-12-12-12 5.4-12 12v28" fill="none" stroke="#ffe8b5" stroke-linejoin="round"/><path d="m155.7 66.3c.2-.7.3-1.5.3-2.3 0-4.4-3.6-8-8-8s-8 3.6-8 8v20" fill="none" stroke="#ffd56d" stroke-linejoin="round"/><path d="m148 72c1 0 2-.2 2.9-.5" fill="none" stroke="#ffe8b5" stroke-linejoin="round"/><path d="m63.2 28c1.5-.6 3.1-1 4.8-1 6.6 0 12 5.4 12 12v51" fill="none" stroke="#ffd56d" stroke-linejoin="round"/><path d="m68 51c-6.6 0-12-5.4-12-12 0-2.3.7-4.5 1.8-6.3" fill="none" stroke="#ffe8b5" stroke-linejoin="round"/><path d="m52 76c-4.4 0-8-3.6-8-8s3.6-8 8-8 8 3.6 8 8v16" fill="none" stroke="#ffe8b5" stroke-linejoin="round"/><path d="m100 45v-8" fill="none" stroke="#ffe8b5" stroke-linejoin="round"/><path d="m112 2v8" fill="none" stroke="#ffd56d" stroke-linejoin="round"/><path d="m116 6h-8" fill="none" stroke="#ffd56d" stroke-linejoin="round"/><path d="m162 22v8" fill="none" stroke="#ffe8b5" stroke-linejoin="round"/><path d="m166 26h-8" fill="none" stroke="#ffe8b5" stroke-linejoin="round"/><path d="m92 15v8" fill="none" stroke="#ffe8b5" stroke-linejoin="round"/><path d="m96 19h-8" fill="none" stroke="#ffe8b5" stroke-linejoin="round"/><path d="m36 42v8" fill="none" stroke="#ffe8b5" stroke-linejoin="round"/><path d="m40 46h-8" fill="none" stroke="#ffe8b5" stroke-linejoin="round"/><path d="m100 85v2" fill="none" stroke="#ffd56d" stroke-linejoin="round"/><path d="m48 106h24" fill="none" stroke="#fff" stroke-linejoin="round"/><path d="m171 198h-148" fill="#7f83e4" stroke="#253540"/><path d="m179 198h8" fill="none" stroke="#253540"/><path d="m13 198h2" fill="none" stroke="#253540"/></g></svg>