<svg enable-background="new 0 0 200 200" viewBox="0 0 200 200" xmlns="http://www.w3.org/2000/svg"><g stroke-miterlimit="10" stroke-width="4"><path d="m170.2 30-14.2 14.1 5.7 5.7 14.1-14.1c1.6-1.6 1.6-4.1 0-5.7-1.5-1.6-4.1-1.6-5.6 0z" fill="#fff" stroke="#253540"/><path d="m9 191.2 14.1-14.2 5.7 5.7-14.1 14.1c-1.6 1.6-4.1 1.6-5.7 0-1.6-1.5-1.6-4.1 0-5.6z" fill="#fff" stroke="#253540"/><path d="m-1.6 109.4h188v8h-188z" fill="#6a6dc7" stroke="#253540" transform="matrix(-.7071 .7071 -.7071 -.7071 237.898 128.2391)"/><path d="m185 20 5.5-5.6" fill="none" stroke="#d1d3f5" stroke-linecap="round"/><path d="m185 44 5.5 5.6" fill="none" stroke="#d1d3f5" stroke-linecap="round"/><path d="m190 32h8" fill="none" stroke="#d1d3f5" stroke-linecap="round"/><path d="m121 20v8" fill="none" stroke="#a3a6f1" stroke-linecap="round" stroke-linejoin="round"/><path d="m117 24h8" fill="none" stroke="#a3a6f1" stroke-linecap="round" stroke-linejoin="round"/><path d="m46 2v12" fill="none" stroke="#6a6dc7" stroke-linecap="round" stroke-linejoin="round"/><path d="m40 8h12" fill="none" stroke="#6a6dc7" stroke-linecap="round" stroke-linejoin="round"/><path d="m26 124v8" fill="none" stroke="#6a6dc7" stroke-linecap="round" stroke-linejoin="round"/><path d="m22 128h8" fill="none" stroke="#6a6dc7" stroke-linecap="round" stroke-linejoin="round"/><circle cx="177" cy="125" fill="none" r="6" stroke="#a3a6f1" stroke-linecap="round" stroke-linejoin="round"/><circle cx="16" cy="61" fill="none" r="4" stroke="#a3a6f1" stroke-linecap="round" stroke-linejoin="round"/><path d="m97 86c.6-4.4 1-9.1 1-14 0-23.2-7.6-42-17-42s-17 18.8-17 42c0 4.9.3 9.6 1 14z" fill="#fff" stroke="#253540"/><path d="m88.9 86c.7-4.1 1.1-8.7 1.1-14 0-20.6-6.3-32.4-9-33.9-2.7 1.5-9 13.3-9 33.9 0 5.3.4 9.9 1.1 14z" fill="#c1cbd4" stroke="#253540"/><path d="m166 98h-132c-2.2 0-4-1.8-4-4v-4c0-2.2 1.8-4 4-4h132c2.2 0 4 1.8 4 4v4c0 2.2-1.8 4-4 4z" fill="#7f83e4" stroke="#253540"/><path d="m147 110-1-12h-92l-1 12z" fill="#7f83e4" stroke="#253540"/></g><path d="m55.2 108 .6-8h88.4l.6 8z" fill="#6a6dc7"/><path d="m148.6 130h-97.2l-4.1 50.7c-.7 9.3 6.7 17.3 16 17.3h73.3c9.3 0 16.7-8 15.9-17.3z" fill="#7f83e4" stroke="#253540" stroke-miterlimit="10" stroke-width="4"/><path d="m148.6 130-1.6-20h-94l-1.6 20z" fill="#fff" stroke="#253540" stroke-miterlimit="10" stroke-width="4"/><path d="m150.6 180.9-3.9-48.9h-17.2c-14.5 30.9-44.1 52.9-79 55.7.6 1.4 1.4 2.7 2.5 3.8 2.7 2.9 6.3 4.5 10.3 4.5h73.3c4 0 7.6-1.6 10.3-4.5s4-6.7 3.7-10.6z" fill="#6a6dc7"/><path d="m131.3 128h15.1l-1.3-16h-8.7c-1.3 5.5-3 10.9-5.1 16z" fill="#c1cbd4"/><path d="m166 88h-10v8h10c1.1 0 2-.9 2-2v-4c0-1.1-.9-2-2-2z" fill="#6a6dc7"/><path d="m36 92h20" fill="none" stroke="#fff" stroke-linecap="round" stroke-miterlimit="10" stroke-width="4"/><path d="m154 198h-108" fill="#7f83e4" stroke="#253540" stroke-linecap="round" stroke-miterlimit="10" stroke-width="4"/><path d="m2 198h20" fill="none" stroke="#253540" stroke-linecap="round" stroke-miterlimit="10" stroke-width="4"/><path d="m162 198h8" fill="none" stroke="#253540" stroke-linecap="round" stroke-miterlimit="10" stroke-width="4"/><path d="m36 198h2" fill="none" stroke="#253540" stroke-linecap="round" stroke-miterlimit="10" stroke-width="4"/></svg>