<svg enable-background="new 0 0 200 200" viewBox="0 0 200 200" xmlns="http://www.w3.org/2000/svg"><g stroke-linecap="round" stroke-linejoin="round" stroke-miterlimit="10" stroke-width="4"><path d="m9 69v12" fill="none" stroke="#ffc646"/><path d="m15 75h-12" fill="none" stroke="#ffc646"/><path d="m39 2v8" fill="none" stroke="#ffc646"/><path d="m43 6h-8" fill="none" stroke="#ffc646"/><path d="m111 15v12" fill="none" stroke="#ffc646"/><path d="m117 21h-12" fill="none" stroke="#ffc646"/><path d="m46 122v8" fill="none" stroke="#ffc646"/><path d="m50 126h-8" fill="none" stroke="#ffc646"/><path d="m170 139v16" fill="none" stroke="#ffc646"/><path d="m178 147h-16" fill="none" stroke="#ffc646"/><path d="m58 179-15.5 15.5c-4.7 4.7-12.3 4.7-17 0l-2.5-2.5c-4.7-4.7-12.3-4.7-17 0l-4 4" fill="none" stroke="#253540"/><circle cx="158" cy="79" fill="#d6dde3" r="40" stroke="#253540"/><path d="m152.1 47.5c1.9-.3 3.9-.5 5.9-.5 5.1 0 10.1 1.2 14.5 3.5" fill="none" stroke="#fff"/><path d="m145.4 49.5c.2-.1.3-.1.5-.2" fill="none" stroke="#fff"/></g><path d="m184.9 52.1c-1.8-1.8-3.9-3.5-6-4.9 3.3 5.7 5.1 12.3 5.1 19.1 0 10.2-4 19.7-11.1 26.9s-16.7 11.1-26.9 11.1c-7.5 0-14.7-2.2-20.9-6.2 1.6 2.8 3.6 5.4 6 7.8 7.2 7.2 16.7 11.1 26.9 11.1 10.1 0 19.7-4 26.9-11.1 7.1-7.2 11.1-16.7 11.1-26.9 0-10.1-4-19.7-11.1-26.9z" fill="#b4c0ca"/><path d="m127.6 54.3 55.2 55.2c1.6 1.6 4.1 1.6 5.7 0 1.6-1.6 1.6-4.1 0-5.7l-55.2-55.2c-1.6-1.6-4.1-1.6-5.7 0-1.6 1.6-1.6 4.1 0 5.7z" style="fill:#fff;stroke:#253540;stroke-width:4;stroke-linecap:round;stroke-linejoin:round;stroke-miterlimit:10"/><path d="m77.3 171.4-11.9-11.9c-3-3-3.1-7.9-.3-11l48.6-53.8 28.3 28.3-53.8 48.6c-3 2.9-7.9 2.8-10.9-.2z" style="fill:#3197d6;stroke:#253540;stroke-width:4;stroke-linecap:round;stroke-linejoin:round;stroke-miterlimit:10"/><path d="m103 119 11.1-12.6" style="fill:none;stroke:#aedfff;stroke-width:4;stroke-linecap:round;stroke-linejoin:round;stroke-miterlimit:10"/><path d="m142.1 123-28.3-28.3c-1.6-1.6-1.6-4.1 0-5.7 1.6-1.6 4.1-1.6 5.7 0l28.3 28.3c1.6 1.6 1.6 4.1 0 5.7-1.6 1.6-4.1 1.6-5.7 0z" style="fill:#fff;stroke:#253540;stroke-width:4;stroke-linecap:round;stroke-linejoin:round;stroke-miterlimit:10"/><path d="m78.6 172.6-8.5 8.5c-3.1 3.1-8.2 3.1-11.3 0l-2.8-2.8c-3.1-3.1-3.1-8.2 0-11.3l8.5-8.5z" style="fill:#72808e;stroke:#253540;stroke-width:4;stroke-linecap:round;stroke-linejoin:round;stroke-miterlimit:10"/><path d="m68.7 172.4c-1.1 1.1-2.6 1.8-4.2 1.8s-3.1-.6-4.2-1.8l-2.8-2.8c-.2-.2-.3-.4-.5-.6-.8 1-1.3 2.3-1.3 3.7 0 1.6.6 3.1 1.8 4.2l2.8 2.8c1.1 1.1 2.6 1.8 4.2 1.8s3.1-.6 4.2-1.8l7.1-7.1-3.7-3.7z" fill="#4f5d6b"/><path d="m80 99v-24" style="fill:none;stroke:#93a1af;stroke-width:4;stroke-linecap:round;stroke-linejoin:round;stroke-miterlimit:10"/><path d="m60 92v-36" style="fill:none;stroke:#93a1af;stroke-width:4;stroke-linecap:round;stroke-linejoin:round;stroke-miterlimit:10"/><path d="m100 64v-12" style="fill:none;stroke:#93a1af;stroke-width:4;stroke-linecap:round;stroke-linejoin:round;stroke-miterlimit:10"/><path d="m109 138c-15.3 13.8-20.5 20.4-42.8 12.4-1.7 2.4-1.5 5.6.6 7.7l11.9 11.9c1.1 1.1 2.6 1.8 4.2 1.8 1.5 0 2.9-.6 4-1.6l52.2-47.2-7.1-7.1z" fill="#237ab3"/></svg>