<?xml version="1.0" encoding="utf-8"?>
<!-- Generator: Adobe Illustrator 19.0.1, SVG Export Plug-In . SVG Version: 6.00 Build 0)  -->
<svg version="1.1" xmlns="http://www.w3.org/2000/svg" xmlns:xlink="http://www.w3.org/1999/xlink" x="0px" y="0px"
	 viewBox="0 0 200 200" style="enable-background:new 0 0 200 200;" xml:space="preserve">
<style type="text/css">
	.st0{fill:#F1F3F5;stroke:#253540;stroke-width:4;stroke-linecap:round;stroke-linejoin:round;stroke-miterlimit:10;}
	.st1{fill:#D6DDE3;}
	.st2{fill:#FFC646;stroke:#253540;stroke-width:4;stroke-linecap:round;stroke-miterlimit:10;}
	.st3{fill:#FFC646;stroke:#253540;stroke-width:4;stroke-linecap:round;stroke-linejoin:round;stroke-miterlimit:10;}
	.st4{fill:none;stroke:#253540;stroke-width:4;stroke-linecap:round;stroke-linejoin:round;stroke-miterlimit:10;}
	.st5{fill:#D79400;}
	.st6{fill:#FFFFFF;stroke:#253540;stroke-width:4;stroke-miterlimit:10;}
	.st7{fill:#6A6DC7;stroke:#253540;stroke-width:4;stroke-miterlimit:10;}
	.st8{fill:none;stroke:#D1D3F5;stroke-width:4;stroke-linecap:round;stroke-miterlimit:10;}
	.st9{fill:none;stroke:#A3A6F1;stroke-width:4;stroke-linecap:round;stroke-linejoin:round;stroke-miterlimit:10;}
	.st10{fill:none;stroke:#6A6DC7;stroke-width:4;stroke-linecap:round;stroke-linejoin:round;stroke-miterlimit:10;}
	.st11{fill:none;stroke:#F5B126;stroke-width:4;stroke-linecap:round;stroke-linejoin:round;stroke-miterlimit:10;}
	.st12{fill:none;stroke:#FFFFFF;stroke-width:4;stroke-linecap:round;stroke-linejoin:round;stroke-miterlimit:10;}
	.st13{fill:none;stroke:#D6DDE3;stroke-width:4;stroke-linecap:round;stroke-linejoin:round;stroke-miterlimit:10;}
	.st14{fill:none;stroke:#3CB170;stroke-width:4;stroke-linecap:round;stroke-linejoin:round;stroke-miterlimit:10;}
	.st15{fill:#E52F28;stroke:#253540;stroke-width:4;stroke-linecap:round;stroke-linejoin:round;stroke-miterlimit:10;}
	.st16{fill:#FFA2A2;stroke:#253540;stroke-width:4;stroke-linecap:round;stroke-linejoin:round;stroke-miterlimit:10;}
	.st17{fill:none;stroke:#FFE3E2;stroke-width:4;stroke-linecap:round;stroke-linejoin:round;stroke-miterlimit:10;}
	.st18{fill:none;stroke:#D21B14;stroke-width:4;stroke-linecap:round;stroke-linejoin:round;stroke-miterlimit:10;}
	.st19{fill:#FFFFFF;stroke:#253540;stroke-width:4;stroke-linecap:round;stroke-linejoin:round;stroke-miterlimit:10;}
	.st20{fill:#E3E8EB;}
	.st21{fill:none;stroke:#BA1F19;stroke-width:4;stroke-linecap:round;stroke-linejoin:round;stroke-miterlimit:10;}
	.st22{fill:#C4F0CE;stroke:#253540;stroke-width:4;stroke-linejoin:round;stroke-miterlimit:10;}
	.st23{fill:#81DC9E;stroke:#253540;stroke-width:4;stroke-linejoin:round;stroke-miterlimit:10;}
	.st24{fill:#81DC9E;stroke:#253540;stroke-width:4;stroke-miterlimit:10;}
	.st25{fill:#FFFFFF;stroke:#253540;stroke-width:4;stroke-linejoin:round;stroke-miterlimit:10;}
	.st26{fill:none;stroke:#FFC646;stroke-width:4;stroke-linecap:round;stroke-miterlimit:10;}
	.st27{fill:none;stroke:#3197D6;stroke-width:4;stroke-linecap:round;stroke-miterlimit:10;}
	.st28{fill:none;stroke:#AEDFFF;stroke-width:4;stroke-linecap:round;stroke-miterlimit:10;}
	.st29{fill:none;stroke:#FFE8B5;stroke-width:4;stroke-linecap:round;stroke-miterlimit:10;}
	.st30{fill:none;stroke:#D79400;stroke-width:4;stroke-linecap:round;stroke-miterlimit:10;}
	.st31{fill:#B37100;stroke:#253540;stroke-width:4;stroke-linecap:round;stroke-linejoin:round;stroke-miterlimit:10;}
	.st32{fill:#875200;}
	.st33{fill:none;stroke:#FFFDF6;stroke-width:4;stroke-linecap:round;stroke-miterlimit:10;}
	.st34{fill:#72808E;stroke:#253540;stroke-width:4;stroke-linecap:round;stroke-linejoin:round;stroke-miterlimit:10;}
	.st35{fill:#D6DDE3;stroke:#253540;stroke-width:4;stroke-linecap:round;stroke-miterlimit:10;}
	.st36{fill:none;stroke:#C1CBD4;stroke-width:4;stroke-linecap:round;stroke-miterlimit:10;}
	.st37{fill:#72808E;stroke:#253540;stroke-width:4;stroke-linecap:round;stroke-miterlimit:10;}
	.st38{fill:#4F5D6B;}
	.st39{fill:#F9FAFA;stroke:#253540;stroke-width:4;stroke-linecap:round;stroke-miterlimit:10;}
	.st40{fill:#E3E8EB;stroke:#253540;stroke-width:4;stroke-linecap:round;stroke-miterlimit:10;}
	.st41{fill:#93A1AF;}
	.st42{fill:#C1CBD4;}
	.st43{fill:none;stroke:#FFFFFF;stroke-width:4;stroke-linecap:round;stroke-miterlimit:10;}
	.st44{fill:#4F5D6B;stroke:#253540;stroke-width:4;stroke-miterlimit:10;}
	.st45{fill:#F5B126;}
	.st46{fill:#93A1AF;stroke:#253540;stroke-width:4;stroke-miterlimit:10;}
	.st47{fill:#FFFFFF;stroke:#D79400;stroke-width:4;stroke-linecap:round;stroke-miterlimit:10;}
	.st48{fill:none;stroke:#F5B126;stroke-width:4;stroke-linecap:round;stroke-miterlimit:10;}
	.st49{fill:#EDDD38;stroke:#272822;stroke-width:4;stroke-linejoin:round;stroke-miterlimit:10;}
	.st50{fill:#F45B55;}
	.st51{fill:#FFE3E2;}
	.st52{fill:#F1F1F0;stroke:#272822;stroke-width:4;stroke-linecap:round;stroke-linejoin:round;stroke-miterlimit:10;}
	.st53{fill:#FFD56D;}
	.st54{fill:#C1CBD4;stroke:#253540;stroke-width:4;stroke-miterlimit:10;}
	.st55{fill:none;stroke:#253540;stroke-width:4;stroke-linecap:round;stroke-miterlimit:10;stroke-dasharray:8,8,92,8,4;}
	.st56{fill:#F9FAFA;stroke:#E52F28;stroke-width:4;stroke-linecap:round;stroke-linejoin:round;stroke-miterlimit:10;}
	.st57{fill:none;stroke:#93A1AF;stroke-width:4;stroke-linecap:round;stroke-miterlimit:10;}
	.st58{fill:#FFC646;stroke:#875200;stroke-width:4;stroke-linecap:round;stroke-linejoin:round;stroke-miterlimit:10;}
	.st59{fill:#81DC9E;}
	.st60{fill:none;stroke:#585B9E;stroke-width:4;stroke-miterlimit:10;}
	.st61{fill:none;stroke:#6A6DC7;stroke-width:4;stroke-linecap:round;stroke-miterlimit:10;}
	.st62{fill:#FFFFFF;stroke:#DD9400;stroke-width:4;stroke-linecap:round;stroke-linejoin:round;stroke-miterlimit:10;}
	.st63{fill:none;stroke:#FFC646;stroke-width:4;stroke-linecap:round;stroke-linejoin:round;stroke-miterlimit:10;}
	.st64{fill:#FFFFFF;stroke:#D21B14;stroke-width:4;stroke-linecap:round;stroke-linejoin:round;stroke-miterlimit:10;}
	.st65{fill:#E52F28;stroke:#BA1F19;stroke-width:4;stroke-linecap:round;stroke-linejoin:round;stroke-miterlimit:10;}
	.st66{fill:#FFC646;stroke:#DD9400;stroke-width:4;stroke-linecap:round;stroke-linejoin:round;stroke-miterlimit:10;}
	.st67{fill:#FFFFFF;stroke:#BA1F19;stroke-width:4;stroke-linecap:round;stroke-linejoin:round;stroke-miterlimit:10;}
	.st68{fill:#DD9400;stroke:#DD9400;stroke-width:4;stroke-linecap:round;stroke-linejoin:round;stroke-miterlimit:10;}
	.st69{fill:#BA1F19;}
	.st70{fill:#7F83E4;stroke:#585B9E;stroke-width:4;stroke-miterlimit:10;}
	.st71{fill:#FFFFFF;stroke:#585B9E;stroke-width:4;stroke-miterlimit:10;}
	.st72{fill:#585B9E;}
	.st73{fill:#A3A6F1;stroke:#585B9E;stroke-width:4;stroke-miterlimit:10;}
	.st74{fill:#6A6DC7;stroke:#585B9E;stroke-width:4;stroke-miterlimit:10;}
	.st75{fill:#A3A6F1;}
	.st76{fill:#C4F0CE;stroke:#3CB170;stroke-width:4;stroke-linejoin:round;stroke-miterlimit:10;}
	.st77{fill:#81DC9E;stroke:#3CB170;stroke-width:4;stroke-linejoin:round;stroke-miterlimit:10;}
	.st78{fill:#81DC9E;stroke:#3CB170;stroke-width:4;stroke-miterlimit:10;}
	.st79{fill:#FFFFFF;stroke:#3CB170;stroke-width:4;stroke-linejoin:round;stroke-miterlimit:10;}
	.st80{fill:none;stroke:#FED475;stroke-width:4;stroke-linecap:round;stroke-linejoin:round;stroke-miterlimit:10;}
	.st81{fill:none;stroke:#71BFF1;stroke-width:4;stroke-linecap:round;stroke-miterlimit:10;}
	.st82{fill:#253540;}
	.st83{fill:none;stroke:#253540;stroke-width:4;stroke-miterlimit:10;}
	.st84{fill:#FFC646;}
	.st85{fill:#FFF6E2;}
	.st86{fill:none;stroke:#D6DDE3;stroke-width:4;stroke-linecap:round;stroke-miterlimit:10;}
	.st87{fill:#B37100;stroke:#875200;stroke-width:4;stroke-linecap:round;stroke-linejoin:round;stroke-miterlimit:10;}
	.st88{fill:none;stroke:#FFD56D;stroke-width:4;stroke-linecap:round;stroke-linejoin:round;stroke-miterlimit:10;}
	.st89{fill:#394956;}
	.st90{fill:#FFC646;stroke:#D79400;stroke-width:4;stroke-linecap:round;stroke-miterlimit:10;}
	.st91{fill:#D79400;stroke:#D79400;stroke-width:2;stroke-miterlimit:10;}
	.st92{fill:#FFE8B5;stroke:#D79400;stroke-width:4;stroke-linecap:round;stroke-miterlimit:10;}
	.st93{fill:#FFC646;stroke:#D79400;stroke-width:4;stroke-linecap:round;stroke-linejoin:round;stroke-miterlimit:10;}
	.st94{fill:#FFA2A2;stroke:#BA1F19;stroke-width:4;stroke-linecap:round;stroke-linejoin:round;stroke-miterlimit:10;}
	.st95{fill:none;stroke:#D79400;stroke-width:4;stroke-linecap:round;stroke-linejoin:round;stroke-miterlimit:10;}
	.st96{fill:none;stroke:#E52F28;stroke-width:4;stroke-linecap:round;stroke-linejoin:round;stroke-miterlimit:10;}
	.st97{fill:#FFE8B5;stroke:#253540;stroke-width:4;stroke-linecap:round;stroke-linejoin:round;stroke-miterlimit:10;}
	.st98{fill:#D21B14;}
	.st99{fill:#FFC646;stroke:#253540;stroke-width:4;stroke-linejoin:round;stroke-miterlimit:10;}
	.st100{fill:#4BC27D;stroke:#253540;stroke-width:4;stroke-linejoin:round;stroke-miterlimit:10;}
	.st101{fill:#359E64;}
	.st102{fill:none;stroke:#359E64;stroke-width:4;stroke-linejoin:round;stroke-miterlimit:10;}
	.st103{fill:none;stroke:#E3E8EB;stroke-width:4;stroke-linejoin:round;stroke-miterlimit:10;}
	.st104{fill:#3CB170;}
	.st105{fill:none;stroke:#3CB170;stroke-width:4;stroke-linejoin:round;stroke-miterlimit:10;}
	.st106{fill:none;stroke:#4BC27D;stroke-width:4;stroke-linecap:round;stroke-linejoin:round;stroke-miterlimit:10;}
	.st107{fill:#7F83E4;stroke:#253540;stroke-width:4;stroke-miterlimit:10;}
	.st108{fill:#A3A6F1;stroke:#253540;stroke-width:4;stroke-miterlimit:10;}
	.st109{fill:#B4C0CA;stroke:#253540;stroke-width:4;stroke-miterlimit:10;}
	.st110{fill:#6A6DC7;}
	.st111{fill:#7F83E4;stroke:#253540;stroke-width:4;stroke-linecap:round;stroke-miterlimit:10;}
	.st112{fill:none;stroke:#253540;stroke-width:4;stroke-linecap:round;stroke-miterlimit:10;}
	.st113{fill:#D6DDE3;stroke:#253540;stroke-width:4;stroke-linecap:round;stroke-linejoin:round;stroke-miterlimit:10;}
	.st114{fill:#B4C0CA;}
	.st115{fill:#3197D6;stroke:#253540;stroke-width:4;stroke-linecap:round;stroke-linejoin:round;stroke-miterlimit:10;}
	.st116{fill:none;stroke:#AEDFFF;stroke-width:4;stroke-linecap:round;stroke-linejoin:round;stroke-miterlimit:10;}
	.st117{fill:none;stroke:#93A1AF;stroke-width:4;stroke-linecap:round;stroke-linejoin:round;stroke-miterlimit:10;}
	.st118{fill:#4F5D6B;stroke:#253540;stroke-width:4;stroke-linecap:round;stroke-linejoin:round;stroke-miterlimit:10;}
	.st119{fill:#237AB3;}
	.st120{fill:none;stroke:#FFE8B5;stroke-width:4;stroke-linecap:round;stroke-linejoin:round;stroke-miterlimit:10;}
	.st121{fill:#FFFFFF;}
</style>
<g id="Layer_1">
	<g>
		<line class="st63" x1="9" y1="69" x2="9" y2="81"/>
		<line class="st63" x1="15" y1="75" x2="3" y2="75"/>
	</g>
	<g>
		<line class="st63" x1="39" y1="2" x2="39" y2="10"/>
		<line class="st63" x1="43" y1="6" x2="35" y2="6"/>
	</g>
	<g>
		<line class="st63" x1="111" y1="15" x2="111" y2="27"/>
		<line class="st63" x1="117" y1="21" x2="105" y2="21"/>
	</g>
	<g>
		<line class="st63" x1="46" y1="122" x2="46" y2="130"/>
		<line class="st63" x1="50" y1="126" x2="42" y2="126"/>
	</g>
	<g>
		<line class="st63" x1="170" y1="139" x2="170" y2="155"/>
		<line class="st63" x1="178" y1="147" x2="162" y2="147"/>
	</g>
	<g>
		<path class="st4" d="M58,179l-15.5,15.5c-4.7,4.7-12.3,4.7-17,0L23,192c-4.7-4.7-12.3-4.7-17,0l-4,4"/>
		<circle class="st113" cx="158" cy="79" r="40"/>
		<path class="st12" d="M152.1,47.5C154,47.2,156,47,158,47c5.1,0,10.1,1.2,14.5,3.5"/>
		<path class="st12" d="M145.4,49.5c0.2-0.1,0.3-0.1,0.5-0.2"/>
		<path class="st114" d="M184.9,52.1c-1.8-1.8-3.9-3.5-6-4.9c3.3,5.7,5.1,12.3,5.1,19.1c0,10.2-4,19.7-11.1,26.9
			s-16.7,11.1-26.9,11.1c-7.5,0-14.7-2.2-20.9-6.2c1.6,2.8,3.6,5.4,6,7.8c7.2,7.2,16.7,11.1,26.9,11.1c10.1,0,19.7-4,26.9-11.1
			C192,98.7,196,89.2,196,79C196,68.9,192,59.3,184.9,52.1z"/>
		<path class="st19" d="M127.6,54.3l55.2,55.2c1.6,1.6,4.1,1.6,5.7,0l0,0c1.6-1.6,1.6-4.1,0-5.7l-55.2-55.2c-1.6-1.6-4.1-1.6-5.7,0
			l0,0C126,50.2,126,52.7,127.6,54.3z"/>
		<path class="st115" d="M77.3,171.4l-11.9-11.9c-3-3-3.1-7.9-0.3-11l48.6-53.8l28.3,28.3l-53.8,48.6
			C85.2,174.5,80.3,174.4,77.3,171.4z"/>
		<line class="st116" x1="103" y1="119" x2="114.1" y2="106.4"/>
		<path class="st19" d="M142.1,123l-28.3-28.3c-1.6-1.6-1.6-4.1,0-5.7l0,0c1.6-1.6,4.1-1.6,5.7,0l28.3,28.3c1.6,1.6,1.6,4.1,0,5.7v0
			C146.2,124.6,143.7,124.6,142.1,123z"/>
		<path class="st34" d="M78.6,172.6l-8.5,8.5c-3.1,3.1-8.2,3.1-11.3,0l-2.8-2.8c-3.1-3.1-3.1-8.2,0-11.3l8.5-8.5L78.6,172.6z"/>
		<path class="st38" d="M68.7,172.4c-1.1,1.1-2.6,1.8-4.2,1.8s-3.1-0.6-4.2-1.8l-2.8-2.8c-0.2-0.2-0.3-0.4-0.5-0.6
			c-0.8,1-1.3,2.3-1.3,3.7c0,1.6,0.6,3.1,1.8,4.2l2.8,2.8c1.1,1.1,2.6,1.8,4.2,1.8s3.1-0.6,4.2-1.8l7.1-7.1l-3.7-3.7L68.7,172.4z"/>
	</g>
	<line class="st117" x1="80" y1="99" x2="80" y2="75"/>
	<line class="st117" x1="60" y1="92" x2="60" y2="56"/>
	<line class="st117" x1="100" y1="64" x2="100" y2="52"/>
	<path class="st119" d="M109,138c-15.3,13.8-20.5,20.4-42.8,12.4c-1.7,2.4-1.5,5.6,0.6,7.7L78.7,170c1.1,1.1,2.6,1.8,4.2,1.8
		c1.5,0,2.9-0.6,4-1.6l52.2-47.2l-7.1-7.1L109,138z"/>
</g>
<g id="Layer_2">
</g>
</svg>
