<svg enable-background="new 0 0 200 200" viewBox="0 0 200 200" xmlns="http://www.w3.org/2000/svg"><path d="m118.7 74 8.9-8 8.9 8 8.9-8 8.9 8 8.9-8 8.9 8 9.6-9c-.9-2.2-2.7-4-5.1-4.7l-28.6-8.6c-3.1-.9-5.3-3.6-5.6-6.8l-5.6 5.1-8.9-8-8.9 8-.7-.7v24z" fill="#fff" stroke="#253540" stroke-linejoin="round" stroke-miterlimit="10" stroke-width="4"/><path d="m41.8 118 9.8 8 9.8-8 9.8 8 9.8-8 9.8 8 9.8-8 9.8 8 9.8-8 9.8 8 9.8-8 9.8 8 .3-.2v-20l-.2.2-9.8-8-9.8 8-9.8-8-9.8 8-9.8-8-9.8 8-9.8-8-9.8 8-9.8-8-9.8 8-8.5-6.9c-3.2 4.1-5.2 5.3-5.2 10.9v11.1z" fill="#fff" stroke="#253540" stroke-linejoin="round" stroke-miterlimit="10" stroke-width="4"/><path d="m60.6 158-8.5-8-8.5 8-5.6-5.2v9.2c0 4.4 3.6 8 8 8h12c4.4 0 8-3.6 8-8v-9.1z" fill="#fff" stroke="#253540" stroke-linejoin="round" stroke-miterlimit="10" stroke-width="4"/><path d="m117.9 137c-2.1-1.9-4.9-3-7.9-3h-32c-6.6 0-12 5.4-12 12v6.9l-5.4 5.1-8.5-8-8.5 8-5.6-5.2v-18.8-12.9l3.8-3.1 9.8 8 9.8-8 9.8 8 9.8-8 9.8 8 9.8-8 9.8 8 9.8-8 9.8 8 9.8-8 9.8 8 .3-.2v9.2l-7.6 9.9-7.8-6.4-10.2 5.1z" fill="#4bc27d" stroke="#253540" stroke-linejoin="round" stroke-miterlimit="10" stroke-width="4"/><path d="m118.7 50 8.9-8 8.9 8 5.6-5.1c0-.3-.1-.6-.1-.9v-13.6c0-6.6-5.2-12.3-11.8-12.4-6.7-.1-12.2 5.3-12.2 12v19.3z" fill="#4bc27d" stroke="#253540" stroke-linejoin="round" stroke-miterlimit="10" stroke-width="4"/><path d="m171.8 74-8.9-8-8.9 8-8.9-8-8.9 8-8.9-8-8.9 8-.7-.6v4.6c0 6.6-5.4 12-12 12h-43.7c-7.6 0-14.4 3.6-18.8 9.1l8.5 6.9 9.8-8 9.8 8 9.8-8 9.8 8 9.8-8 9.8 8 9.8-8 9.8 8 9.8-8 9.8 8 .2-.2v-11.8c0-6.6 5.4-12 12-12h12c4.4 0 8-3.6 8-8v-6c0-1-.2-2-.6-3z" fill="#4bc27d" stroke="#253540" stroke-linejoin="round" stroke-miterlimit="10" stroke-width="4"/><path d="m56 146v4.9l4.6 4.3 3.4-3.2v-6c0-7.7 6.3-14 14-14h-8c-7.7 0-14 6.3-14 14z" fill="#359e64"/><path d="m140 30.4c0-5.6-4.4-10.3-9.8-10.4h-.2c-1.4 0-2.8.3-4 .9 3.5 1.6 6 5.3 6 9.5v12.9l4.5 4 3.5-3.2z" fill="#359e64"/><path d="m140 94v1.4l8 6.5v-8c0-7.7 6.3-14 14-14h-8c-7.7.1-14 6.4-14 14.1z" fill="#359e64"/><path d="m171.9 76.7-.4-.3c-.9 2.1-3 3.6-5.5 3.6h8c3.3 0 6-2.7 6-6v-4.9z" fill="#359e64"/><path d="m60.6 160.7-4.6-4.3v1.1 4.4c0 3.3-2.7 6-6 6h8c3.3 0 6-2.7 6-6v-4.4z" fill="#e3e8eb"/><path d="m140 100.6v6.5 8.4l8 6.5v-14.9z" fill="#e3e8eb"/><path d="m140 120.6v6.6 13l2.1 1.8 5.9-7.7v-7.1z" fill="#359e64"/><g stroke="#253540"><path d="m118 27-5 4" fill="none" stroke-linecap="round" stroke-linejoin="round" stroke-miterlimit="10" stroke-width="4"/><path d="m118 39-5 4" fill="none" stroke-linecap="round" stroke-linejoin="round" stroke-miterlimit="10" stroke-width="4"/><path d="m118 51-5 4" fill="none" stroke-linecap="round" stroke-linejoin="round" stroke-miterlimit="10" stroke-width="4"/><path d="m118 63-5 4" fill="none" stroke-linecap="round" stroke-linejoin="round" stroke-miterlimit="10" stroke-width="4"/><path d="m118 75-5 4" fill="none" stroke-linecap="round" stroke-linejoin="round" stroke-miterlimit="10" stroke-width="4"/><path d="m142 27 5 4" fill="none" stroke-linecap="round" stroke-linejoin="round" stroke-miterlimit="10" stroke-width="4"/><path d="m142 39 5 4" fill="none" stroke-linecap="round" stroke-linejoin="round" stroke-miterlimit="10" stroke-width="4"/><path d="m108 90-4-5" fill="none" stroke-linecap="round" stroke-linejoin="round" stroke-miterlimit="10" stroke-width="4"/><path d="m96 90-4-5" fill="none" stroke-linecap="round" stroke-linejoin="round" stroke-miterlimit="10" stroke-width="4"/><path d="m84 90-4-5" fill="none" stroke-linecap="round" stroke-linejoin="round" stroke-miterlimit="10" stroke-width="4"/><path d="m72 90-4-5" fill="none" stroke-linecap="round" stroke-linejoin="round" stroke-miterlimit="10" stroke-width="4"/><path d="m60 90-4-5" fill="none" stroke-linecap="round" stroke-linejoin="round" stroke-miterlimit="10" stroke-width="4"/><path d="m108 139-4-5" fill="none" stroke-linecap="round" stroke-linejoin="round" stroke-miterlimit="10" stroke-width="4"/><path d="m96 139-4-5" fill="none" stroke-linecap="round" stroke-linejoin="round" stroke-miterlimit="10" stroke-width="4"/><path d="m84 139-4-5" fill="none" stroke-linecap="round" stroke-linejoin="round" stroke-miterlimit="10" stroke-width="4"/><path d="m177 87-4-5" fill="none" stroke-linecap="round" stroke-linejoin="round" stroke-miterlimit="10" stroke-width="4"/><path d="m165 87-4-5" fill="none" stroke-linecap="round" stroke-linejoin="round" stroke-miterlimit="10" stroke-width="4"/><path d="m38 110-6 4" fill="none" stroke-linecap="round" stroke-linejoin="round" stroke-miterlimit="10" stroke-width="4"/><path d="m38 122-6 4" fill="none" stroke-linecap="round" stroke-linejoin="round" stroke-miterlimit="10" stroke-width="4"/><path d="m38 134-6 4" fill="none" stroke-linecap="round" stroke-linejoin="round" stroke-miterlimit="10" stroke-width="4"/><path d="m38 146-6 4" fill="none" stroke-linecap="round" stroke-linejoin="round" stroke-miterlimit="10" stroke-width="4"/><path d="m38 158-6 4" fill="none" stroke-linecap="round" stroke-linejoin="round" stroke-miterlimit="10" stroke-width="4"/><path d="m150 115 5 4" fill="none" stroke-linecap="round" stroke-linejoin="round" stroke-miterlimit="10" stroke-width="4"/><path d="m150 127 5 4" fill="none" stroke-linecap="round" stroke-linejoin="round" stroke-miterlimit="10" stroke-width="4"/><path d="m150 90 5 4" fill="none" stroke-linecap="round" stroke-linejoin="round" stroke-miterlimit="10" stroke-width="4"/><path d="m150 102 5 4" fill="none" stroke-linecap="round" stroke-linejoin="round" stroke-miterlimit="10" stroke-width="4"/><path d="m150 115 5 4" fill="none" stroke-linecap="round" stroke-linejoin="round" stroke-miterlimit="10" stroke-width="4"/><path d="m66 146 5 4" fill="none" stroke-linecap="round" stroke-linejoin="round" stroke-miterlimit="10" stroke-width="4"/><path d="m66 158 5 4" fill="none" stroke-linecap="round" stroke-linejoin="round" stroke-miterlimit="10" stroke-width="4"/><path d="m51 93-8-2" fill="none" stroke-linecap="round" stroke-linejoin="round" stroke-miterlimit="10" stroke-width="4"/><path d="m41 101-7 1" fill="none" stroke-linecap="round" stroke-linejoin="round" stroke-miterlimit="10" stroke-width="4"/><path d="m124 19-5-1" fill="none" stroke-linecap="round" stroke-linejoin="round" stroke-miterlimit="10" stroke-width="4"/><path d="m137 20 7-1" fill="none" stroke-linecap="round" stroke-linejoin="round" stroke-miterlimit="10" stroke-width="4"/><path d="m131 18-1-4" fill="none" stroke-linecap="round" stroke-linejoin="round" stroke-miterlimit="10" stroke-width="4"/></g><path d="m175.7 62.2-28.6-8.6c-2.7-.8-4.8-2.7-6.1-5.1l-4.4 4c.8.5 1.6.9 2.5 1.1l28.6 8.6c1.3.4 2.4 1.2 3.2 2.4v5.9l.9.8 7.1-6.7c-.7-1.2-1.9-2-3.2-2.4z" fill="#e3e8eb"/><circle cx="126.5" cy="81.5" fill="none" r=".5" stroke="#359e64" stroke-linejoin="round" stroke-miterlimit="10" stroke-width="4"/><circle cx="126.5" cy="91.5" fill="none" r=".5" stroke="#359e64" stroke-linejoin="round" stroke-miterlimit="10" stroke-width="4"/><circle cx="136.5" cy="86.5" fill="none" r=".5" stroke="#359e64" stroke-linejoin="round" stroke-miterlimit="10" stroke-width="4"/><circle cx="46.5" cy="134.5" fill="none" r=".5" stroke="#359e64" stroke-linejoin="round" stroke-miterlimit="10" stroke-width="4"/><circle cx="46.5" cy="144.5" fill="none" r=".5" stroke="#359e64" stroke-linejoin="round" stroke-miterlimit="10" stroke-width="4"/><circle cx="56.5" cy="139.5" fill="none" r=".5" stroke="#359e64" stroke-linejoin="round" stroke-miterlimit="10" stroke-width="4"/><circle cx="121.5" cy="109.5" fill="none" r=".5" stroke="#e3e8eb" stroke-linejoin="round" stroke-miterlimit="10" stroke-width="4"/><circle cx="131.5" cy="114.5" fill="none" r=".5" stroke="#e3e8eb" stroke-linejoin="round" stroke-miterlimit="10" stroke-width="4"/><circle cx="101.5" cy="109.5" fill="none" r=".5" stroke="#e3e8eb" stroke-linejoin="round" stroke-miterlimit="10" stroke-width="4"/><circle cx="111.5" cy="114.5" fill="none" r=".5" stroke="#e3e8eb" stroke-linejoin="round" stroke-miterlimit="10" stroke-width="4"/><circle cx="81.5" cy="109.5" fill="none" r=".5" stroke="#e3e8eb" stroke-linejoin="round" stroke-miterlimit="10" stroke-width="4"/><circle cx="91.5" cy="114.5" fill="none" r=".5" stroke="#e3e8eb" stroke-linejoin="round" stroke-miterlimit="10" stroke-width="4"/><circle cx="61.5" cy="109.5" fill="none" r=".5" stroke="#e3e8eb" stroke-linejoin="round" stroke-miterlimit="10" stroke-width="4"/><circle cx="71.5" cy="114.5" fill="none" r=".5" stroke="#e3e8eb" stroke-linejoin="round" stroke-miterlimit="10" stroke-width="4"/><circle cx="51.5" cy="114.5" fill="none" r=".5" stroke="#e3e8eb" stroke-linejoin="round" stroke-miterlimit="10" stroke-width="4"/><circle cx="51.5" cy="161.5" fill="none" r=".5" stroke="#e3e8eb" stroke-linejoin="round" stroke-miterlimit="10" stroke-width="4"/><circle cx="146.5" cy="81.5" fill="none" r=".5" stroke="#359e64" stroke-linejoin="round" stroke-miterlimit="10" stroke-width="4"/><circle cx="126.5" cy="32.5" fill="none" r=".5" stroke="#359e64" stroke-linejoin="round" stroke-miterlimit="10" stroke-width="4"/><circle cx="146.5" cy="56.5" fill="none" r=".5" stroke="#e3e8eb" stroke-linejoin="round" stroke-miterlimit="10" stroke-width="4"/><circle cx="156.5" cy="61.5" fill="none" r=".5" stroke="#e3e8eb" stroke-linejoin="round" stroke-miterlimit="10" stroke-width="4"/><circle cx="126.5" cy="56.5" fill="none" r=".5" stroke="#e3e8eb" stroke-linejoin="round" stroke-miterlimit="10" stroke-width="4"/><circle cx="136.5" cy="61.5" fill="none" r=".5" stroke="#e3e8eb" stroke-linejoin="round" stroke-miterlimit="10" stroke-width="4"/><circle cx="121.5" cy="127.5" fill="none" r=".5" stroke="#359e64" stroke-linejoin="round" stroke-miterlimit="10" stroke-width="4"/><circle cx="101.5" cy="127.5" fill="none" r=".5" stroke="#359e64" stroke-linejoin="round" stroke-miterlimit="10" stroke-width="4"/><circle cx="81.5" cy="127.5" fill="none" r=".5" stroke="#359e64" stroke-linejoin="round" stroke-miterlimit="10" stroke-width="4"/><circle cx="61.5" cy="127.5" fill="none" r=".5" stroke="#359e64" stroke-linejoin="round" stroke-miterlimit="10" stroke-width="4"/><path d="m172 193.8-8-8.5 8-8.5-6.4-6.8h10.4c4.4 0 8 3.6 8 8v12c0 4.4-3.6 8-8 8h-7.9z" fill="#fff" stroke="#253540" stroke-linejoin="round" stroke-miterlimit="10" stroke-width="4"/><path d="m151 165.9c2.2 2.5 5.4 4.1 9 4.1h5.6l6.4 6.8-8 8.5 8 8.5-3.9 4.2h-20.1.8l.2-.3-8-9.8 6-6.9-3-8z" fill="#4bc27d" stroke="#253540" stroke-linejoin="round" stroke-miterlimit="10" stroke-width="4"/><path d="m143.6 188h6.6 13.6l5.5 5.8-2.1 2.2h-17z" fill="#359e64"/><path d="m174.7 193.8-5.5-5.8h3.4 2.3 1c3.3 0 6-2.7 6-6v8c0 3.3-2.7 6-6 6h-3.3z" fill="#e3e8eb"/><path d="m160 170 4-5" style="fill:none;stroke:#253540;stroke-width:4;stroke-linecap:round;stroke-linejoin:round;stroke-miterlimit:10"/><path d="m172 170 4-5" style="fill:none;stroke:#253540;stroke-width:4;stroke-linecap:round;stroke-linejoin:round;stroke-miterlimit:10"/><circle cx="158.5" cy="178.5" fill="none" r=".5" stroke="#359e64" stroke-linejoin="round" stroke-miterlimit="10" stroke-width="4"/><circle cx="153.5" cy="188.5" fill="none" r=".5" stroke="#359e64" stroke-linejoin="round" stroke-miterlimit="10" stroke-width="4"/><circle cx="175.5" cy="183.5" fill="none" r=".5" stroke="#e3e8eb" stroke-linejoin="round" stroke-miterlimit="10" stroke-width="4"/><path d="m100 2v88" style="fill:none;stroke:#253540;stroke-width:4;stroke-linecap:round;stroke-linejoin:round;stroke-miterlimit:10"/><path d="m134 198h53" style="fill:none;stroke:#253540;stroke-width:4;stroke-linecap:round;stroke-linejoin:round;stroke-miterlimit:10"/><path d="m118 198h8" style="fill:none;stroke:#253540;stroke-width:4;stroke-linecap:round;stroke-linejoin:round;stroke-miterlimit:10"/><path d="m40 198h30" style="fill:none;stroke:#253540;stroke-width:4;stroke-linecap:round;stroke-linejoin:round;stroke-miterlimit:10"/><path d="m30 198h2" style="fill:none;stroke:#253540;stroke-width:4;stroke-linecap:round;stroke-linejoin:round;stroke-miterlimit:10"/><path d="m197 198h-2" style="fill:none;stroke:#253540;stroke-width:4;stroke-linecap:round;stroke-linejoin:round;stroke-miterlimit:10"/><path d="m106 164v8" style="fill:none;stroke:#4bc27d;stroke-width:4;stroke-linecap:round;stroke-linejoin:round;stroke-miterlimit:10"/><path d="m110 168h-8" style="fill:none;stroke:#4bc27d;stroke-width:4;stroke-linecap:round;stroke-linejoin:round;stroke-miterlimit:10"/><path d="m28 20v8" style="fill:none;stroke:#4bc27d;stroke-width:4;stroke-linecap:round;stroke-linejoin:round;stroke-miterlimit:10"/><path d="m32 24h-8" style="fill:none;stroke:#4bc27d;stroke-width:4;stroke-linecap:round;stroke-linejoin:round;stroke-miterlimit:10"/><path d="m8 80v12" style="fill:none;stroke:#4bc27d;stroke-width:4;stroke-linecap:round;stroke-linejoin:round;stroke-miterlimit:10"/><path d="m14 86h-12" style="fill:none;stroke:#4bc27d;stroke-width:4;stroke-linecap:round;stroke-linejoin:round;stroke-miterlimit:10"/><path d="m183 22v8" style="fill:none;stroke:#4bc27d;stroke-width:4;stroke-linecap:round;stroke-linejoin:round;stroke-miterlimit:10"/><path d="m187 26h-8" style="fill:none;stroke:#4bc27d;stroke-width:4;stroke-linecap:round;stroke-linejoin:round;stroke-miterlimit:10"/><path d="m59 47 8 8" style="fill:none;stroke:#4bc27d;stroke-width:4;stroke-linecap:round;stroke-linejoin:round;stroke-miterlimit:10"/><path d="m67 47-8 8" style="fill:none;stroke:#4bc27d;stroke-width:4;stroke-linecap:round;stroke-linejoin:round;stroke-miterlimit:10"/><path d="m190 133 8 8" style="fill:none;stroke:#4bc27d;stroke-width:4;stroke-linecap:round;stroke-linejoin:round;stroke-miterlimit:10"/><path d="m198 133-8 8" style="fill:none;stroke:#4bc27d;stroke-width:4;stroke-linecap:round;stroke-linejoin:round;stroke-miterlimit:10"/></svg>