<?xml version="1.0" encoding="utf-8"?>
<!-- Generator: Adobe Illustrator 19.0.1, SVG Export Plug-In . SVG Version: 6.00 Build 0)  -->
<svg version="1.1" xmlns="http://www.w3.org/2000/svg" xmlns:xlink="http://www.w3.org/1999/xlink" x="0px" y="0px"
	 viewBox="0 0 200 200" style="enable-background:new 0 0 200 200;" xml:space="preserve">
<style type="text/css">
	.st0{fill:#F1F3F5;stroke:#253540;stroke-width:4;stroke-linecap:round;stroke-linejoin:round;stroke-miterlimit:10;}
	.st1{fill:#D6DDE3;}
	.st2{fill:#FFC646;stroke:#253540;stroke-width:4;stroke-linecap:round;stroke-miterlimit:10;}
	.st3{fill:#FFC646;stroke:#253540;stroke-width:4;stroke-linecap:round;stroke-linejoin:round;stroke-miterlimit:10;}
	.st4{fill:none;stroke:#253540;stroke-width:4;stroke-linecap:round;stroke-linejoin:round;stroke-miterlimit:10;}
	.st5{fill:#D79400;}
	.st6{fill:#FFFFFF;stroke:#253540;stroke-width:4;stroke-miterlimit:10;}
	.st7{fill:#6A6DC7;stroke:#253540;stroke-width:4;stroke-miterlimit:10;}
	.st8{fill:none;stroke:#D1D3F5;stroke-width:4;stroke-linecap:round;stroke-miterlimit:10;}
	.st9{fill:none;stroke:#A3A6F1;stroke-width:4;stroke-linecap:round;stroke-linejoin:round;stroke-miterlimit:10;}
	.st10{fill:none;stroke:#6A6DC7;stroke-width:4;stroke-linecap:round;stroke-linejoin:round;stroke-miterlimit:10;}
	.st11{fill:none;stroke:#F5B126;stroke-width:4;stroke-linecap:round;stroke-linejoin:round;stroke-miterlimit:10;}
	.st12{fill:none;stroke:#FFFFFF;stroke-width:4;stroke-linecap:round;stroke-linejoin:round;stroke-miterlimit:10;}
	.st13{fill:none;stroke:#D6DDE3;stroke-width:4;stroke-linecap:round;stroke-linejoin:round;stroke-miterlimit:10;}
	.st14{fill:none;stroke:#3CB170;stroke-width:4;stroke-linecap:round;stroke-linejoin:round;stroke-miterlimit:10;}
	.st15{fill:#E52F28;stroke:#253540;stroke-width:4;stroke-linecap:round;stroke-linejoin:round;stroke-miterlimit:10;}
	.st16{fill:#FFA2A2;stroke:#253540;stroke-width:4;stroke-linecap:round;stroke-linejoin:round;stroke-miterlimit:10;}
	.st17{fill:none;stroke:#FFE3E2;stroke-width:4;stroke-linecap:round;stroke-linejoin:round;stroke-miterlimit:10;}
	.st18{fill:none;stroke:#D21B14;stroke-width:4;stroke-linecap:round;stroke-linejoin:round;stroke-miterlimit:10;}
	.st19{fill:#FFFFFF;stroke:#253540;stroke-width:4;stroke-linecap:round;stroke-linejoin:round;stroke-miterlimit:10;}
	.st20{fill:#E3E8EB;}
	.st21{fill:none;stroke:#BA1F19;stroke-width:4;stroke-linecap:round;stroke-linejoin:round;stroke-miterlimit:10;}
	.st22{fill:#C4F0CE;stroke:#253540;stroke-width:4;stroke-linejoin:round;stroke-miterlimit:10;}
	.st23{fill:#81DC9E;stroke:#253540;stroke-width:4;stroke-linejoin:round;stroke-miterlimit:10;}
	.st24{fill:#81DC9E;stroke:#253540;stroke-width:4;stroke-miterlimit:10;}
	.st25{fill:#FFFFFF;stroke:#253540;stroke-width:4;stroke-linejoin:round;stroke-miterlimit:10;}
	.st26{fill:none;stroke:#FFC646;stroke-width:4;stroke-linecap:round;stroke-miterlimit:10;}
	.st27{fill:none;stroke:#3197D6;stroke-width:4;stroke-linecap:round;stroke-miterlimit:10;}
	.st28{fill:none;stroke:#AEDFFF;stroke-width:4;stroke-linecap:round;stroke-miterlimit:10;}
	.st29{fill:none;stroke:#FFE8B5;stroke-width:4;stroke-linecap:round;stroke-miterlimit:10;}
	.st30{fill:none;stroke:#D79400;stroke-width:4;stroke-linecap:round;stroke-miterlimit:10;}
	.st31{fill:#B37100;stroke:#253540;stroke-width:4;stroke-linecap:round;stroke-linejoin:round;stroke-miterlimit:10;}
	.st32{fill:#875200;}
	.st33{fill:none;stroke:#FFFDF6;stroke-width:4;stroke-linecap:round;stroke-miterlimit:10;}
	.st34{fill:#72808E;stroke:#253540;stroke-width:4;stroke-linecap:round;stroke-linejoin:round;stroke-miterlimit:10;}
	.st35{fill:#D6DDE3;stroke:#253540;stroke-width:4;stroke-linecap:round;stroke-miterlimit:10;}
	.st36{fill:none;stroke:#C1CBD4;stroke-width:4;stroke-linecap:round;stroke-miterlimit:10;}
	.st37{fill:#72808E;stroke:#253540;stroke-width:4;stroke-linecap:round;stroke-miterlimit:10;}
	.st38{fill:#4F5D6B;}
	.st39{fill:#F9FAFA;stroke:#253540;stroke-width:4;stroke-linecap:round;stroke-miterlimit:10;}
	.st40{fill:#E3E8EB;stroke:#253540;stroke-width:4;stroke-linecap:round;stroke-miterlimit:10;}
	.st41{fill:#93A1AF;}
	.st42{fill:#C1CBD4;}
	.st43{fill:none;stroke:#FFFFFF;stroke-width:4;stroke-linecap:round;stroke-miterlimit:10;}
	.st44{fill:#4F5D6B;stroke:#253540;stroke-width:4;stroke-miterlimit:10;}
	.st45{fill:#F5B126;}
	.st46{fill:#93A1AF;stroke:#253540;stroke-width:4;stroke-miterlimit:10;}
	.st47{fill:#FFFFFF;stroke:#D79400;stroke-width:4;stroke-linecap:round;stroke-miterlimit:10;}
	.st48{fill:none;stroke:#F5B126;stroke-width:4;stroke-linecap:round;stroke-miterlimit:10;}
	.st49{fill:#EDDD38;stroke:#272822;stroke-width:4;stroke-linejoin:round;stroke-miterlimit:10;}
	.st50{fill:#F45B55;}
	.st51{fill:#FFE3E2;}
	.st52{fill:#F1F1F0;stroke:#272822;stroke-width:4;stroke-linecap:round;stroke-linejoin:round;stroke-miterlimit:10;}
	.st53{fill:#FFD56D;}
	.st54{fill:#C1CBD4;stroke:#253540;stroke-width:4;stroke-miterlimit:10;}
	.st55{fill:none;stroke:#253540;stroke-width:4;stroke-linecap:round;stroke-miterlimit:10;stroke-dasharray:8,8,92,8,4;}
	.st56{fill:#F9FAFA;stroke:#E52F28;stroke-width:4;stroke-linecap:round;stroke-linejoin:round;stroke-miterlimit:10;}
	.st57{fill:none;stroke:#93A1AF;stroke-width:4;stroke-linecap:round;stroke-miterlimit:10;}
	.st58{fill:#FFC646;stroke:#875200;stroke-width:4;stroke-linecap:round;stroke-linejoin:round;stroke-miterlimit:10;}
	.st59{fill:#81DC9E;}
	.st60{fill:none;stroke:#585B9E;stroke-width:4;stroke-miterlimit:10;}
	.st61{fill:none;stroke:#6A6DC7;stroke-width:4;stroke-linecap:round;stroke-miterlimit:10;}
	.st62{fill:#FFFFFF;stroke:#DD9400;stroke-width:4;stroke-linecap:round;stroke-linejoin:round;stroke-miterlimit:10;}
	.st63{fill:none;stroke:#FFC646;stroke-width:4;stroke-linecap:round;stroke-linejoin:round;stroke-miterlimit:10;}
	.st64{fill:#FFFFFF;stroke:#D21B14;stroke-width:4;stroke-linecap:round;stroke-linejoin:round;stroke-miterlimit:10;}
	.st65{fill:#E52F28;stroke:#BA1F19;stroke-width:4;stroke-linecap:round;stroke-linejoin:round;stroke-miterlimit:10;}
	.st66{fill:#FFC646;stroke:#DD9400;stroke-width:4;stroke-linecap:round;stroke-linejoin:round;stroke-miterlimit:10;}
	.st67{fill:#FFFFFF;stroke:#BA1F19;stroke-width:4;stroke-linecap:round;stroke-linejoin:round;stroke-miterlimit:10;}
	.st68{fill:#DD9400;stroke:#DD9400;stroke-width:4;stroke-linecap:round;stroke-linejoin:round;stroke-miterlimit:10;}
	.st69{fill:#BA1F19;}
	.st70{fill:#7F83E4;stroke:#585B9E;stroke-width:4;stroke-miterlimit:10;}
	.st71{fill:#FFFFFF;stroke:#585B9E;stroke-width:4;stroke-miterlimit:10;}
	.st72{fill:#585B9E;}
	.st73{fill:#A3A6F1;stroke:#585B9E;stroke-width:4;stroke-miterlimit:10;}
	.st74{fill:#6A6DC7;stroke:#585B9E;stroke-width:4;stroke-miterlimit:10;}
	.st75{fill:#A3A6F1;}
	.st76{fill:#C4F0CE;stroke:#3CB170;stroke-width:4;stroke-linejoin:round;stroke-miterlimit:10;}
	.st77{fill:#81DC9E;stroke:#3CB170;stroke-width:4;stroke-linejoin:round;stroke-miterlimit:10;}
	.st78{fill:#81DC9E;stroke:#3CB170;stroke-width:4;stroke-miterlimit:10;}
	.st79{fill:#FFFFFF;stroke:#3CB170;stroke-width:4;stroke-linejoin:round;stroke-miterlimit:10;}
	.st80{fill:none;stroke:#FED475;stroke-width:4;stroke-linecap:round;stroke-linejoin:round;stroke-miterlimit:10;}
	.st81{fill:none;stroke:#71BFF1;stroke-width:4;stroke-linecap:round;stroke-miterlimit:10;}
	.st82{fill:#253540;}
	.st83{fill:none;stroke:#253540;stroke-width:4;stroke-miterlimit:10;}
	.st84{fill:#FFC646;}
	.st85{fill:#FFF6E2;}
	.st86{fill:none;stroke:#D6DDE3;stroke-width:4;stroke-linecap:round;stroke-miterlimit:10;}
	.st87{fill:#B37100;stroke:#875200;stroke-width:4;stroke-linecap:round;stroke-linejoin:round;stroke-miterlimit:10;}
	.st88{fill:none;stroke:#FFD56D;stroke-width:4;stroke-linecap:round;stroke-linejoin:round;stroke-miterlimit:10;}
	.st89{fill:#394956;}
	.st90{fill:#FFC646;stroke:#D79400;stroke-width:4;stroke-linecap:round;stroke-miterlimit:10;}
	.st91{fill:#D79400;stroke:#D79400;stroke-width:2;stroke-miterlimit:10;}
	.st92{fill:#FFE8B5;stroke:#D79400;stroke-width:4;stroke-linecap:round;stroke-miterlimit:10;}
	.st93{fill:#FFC646;stroke:#D79400;stroke-width:4;stroke-linecap:round;stroke-linejoin:round;stroke-miterlimit:10;}
	.st94{fill:#FFA2A2;stroke:#BA1F19;stroke-width:4;stroke-linecap:round;stroke-linejoin:round;stroke-miterlimit:10;}
	.st95{fill:none;stroke:#D79400;stroke-width:4;stroke-linecap:round;stroke-linejoin:round;stroke-miterlimit:10;}
	.st96{fill:none;stroke:#E52F28;stroke-width:4;stroke-linecap:round;stroke-linejoin:round;stroke-miterlimit:10;}
	.st97{fill:#FFE8B5;stroke:#253540;stroke-width:4;stroke-linecap:round;stroke-linejoin:round;stroke-miterlimit:10;}
	.st98{fill:#D21B14;}
	.st99{fill:#FFC646;stroke:#253540;stroke-width:4;stroke-linejoin:round;stroke-miterlimit:10;}
	.st100{fill:#4BC27D;stroke:#253540;stroke-width:4;stroke-linejoin:round;stroke-miterlimit:10;}
	.st101{fill:#359E64;}
	.st102{fill:none;stroke:#359E64;stroke-width:4;stroke-linejoin:round;stroke-miterlimit:10;}
	.st103{fill:none;stroke:#E3E8EB;stroke-width:4;stroke-linejoin:round;stroke-miterlimit:10;}
	.st104{fill:#3CB170;}
	.st105{fill:none;stroke:#3CB170;stroke-width:4;stroke-linejoin:round;stroke-miterlimit:10;}
	.st106{fill:none;stroke:#4BC27D;stroke-width:4;stroke-linecap:round;stroke-linejoin:round;stroke-miterlimit:10;}
	.st107{fill:#7F83E4;stroke:#253540;stroke-width:4;stroke-miterlimit:10;}
	.st108{fill:#A3A6F1;stroke:#253540;stroke-width:4;stroke-miterlimit:10;}
	.st109{fill:#B4C0CA;stroke:#253540;stroke-width:4;stroke-miterlimit:10;}
	.st110{fill:#6A6DC7;}
	.st111{fill:#7F83E4;stroke:#253540;stroke-width:4;stroke-linecap:round;stroke-miterlimit:10;}
	.st112{fill:none;stroke:#253540;stroke-width:4;stroke-linecap:round;stroke-miterlimit:10;}
	.st113{fill:#D6DDE3;stroke:#253540;stroke-width:4;stroke-linecap:round;stroke-linejoin:round;stroke-miterlimit:10;}
	.st114{fill:#B4C0CA;}
	.st115{fill:#3197D6;stroke:#253540;stroke-width:4;stroke-linecap:round;stroke-linejoin:round;stroke-miterlimit:10;}
	.st116{fill:none;stroke:#AEDFFF;stroke-width:4;stroke-linecap:round;stroke-linejoin:round;stroke-miterlimit:10;}
	.st117{fill:none;stroke:#93A1AF;stroke-width:4;stroke-linecap:round;stroke-linejoin:round;stroke-miterlimit:10;}
	.st118{fill:#4F5D6B;stroke:#253540;stroke-width:4;stroke-linecap:round;stroke-linejoin:round;stroke-miterlimit:10;}
	.st119{fill:#237AB3;}
	.st120{fill:none;stroke:#FFE8B5;stroke-width:4;stroke-linecap:round;stroke-linejoin:round;stroke-miterlimit:10;}
	.st121{fill:#FFFFFF;}
</style>
<g id="Layer_1">
	<g>
		<g>
			<path class="st25" d="M118.7,74l8.9-8l8.9,8l8.9-8l8.9,8l8.9-8l8.9,8l9.6-9c-0.9-2.2-2.7-4-5.1-4.7l-28.6-8.6
				c-3.1-0.9-5.3-3.6-5.6-6.8l-5.6,5.1l-8.9-8l-8.9,8l-0.7-0.7v24L118.7,74z"/>
			<g>
				<path class="st25" d="M41.8,118l9.8,8l9.8-8l9.8,8l9.8-8l9.8,8l9.8-8l9.8,8l9.8-8l9.8,8l9.8-8l9.8,8l0.3-0.2v-20l-0.2,0.2
					l-9.8-8l-9.8,8l-9.8-8l-9.8,8l-9.8-8l-9.8,8l-9.8-8l-9.8,8l-9.8-8l-9.8,8l-8.5-6.9C40,103.2,38,104.4,38,110v11.1L41.8,118z"/>
				<path class="st25" d="M60.6,158l-8.5-8l-8.5,8l-5.6-5.2v9.2c0,4.4,3.6,8,8,8h12c4.4,0,8-3.6,8-8v-9.1L60.6,158z"/>
			</g>
		</g>
		<g>
			<path class="st100" d="M117.9,137c-2.1-1.9-4.9-3-7.9-3H78c-6.6,0-12,5.4-12,12v6.9l-5.4,5.1l-8.5-8l-8.5,8l-5.6-5.2V134v-12.9
				l3.8-3.1l9.8,8l9.8-8l9.8,8l9.8-8l9.8,8l9.8-8l9.8,8l9.8-8l9.8,8l9.8-8l9.8,8l0.3-0.2v9.2l-7.6,9.9l-7.8-6.4l-10.2,5.1L117.9,137
				z"/>
			<path class="st100" d="M118.7,50l8.9-8l8.9,8l5.6-5.1c0-0.3-0.1-0.6-0.1-0.9V30.4c0-6.6-5.2-12.3-11.8-12.4
				c-6.7-0.1-12.2,5.3-12.2,12v19.3L118.7,50z"/>
			<path class="st100" d="M171.8,74l-8.9-8l-8.9,8l-8.9-8l-8.9,8l-8.9-8l-8.9,8l-0.7-0.6V78c0,6.6-5.4,12-12,12H62
				c-7.6,0-14.4,3.6-18.8,9.1l8.5,6.9l9.8-8l9.8,8l9.8-8l9.8,8l9.8-8l9.8,8l9.8-8l9.8,8l9.8-8l9.8,8l0.2-0.2V94c0-6.6,5.4-12,12-12
				h12c4.4,0,8-3.6,8-8v-6c0-1-0.2-2-0.6-3L171.8,74z"/>
			<path class="st101" d="M56,146v4.9l4.6,4.3l3.4-3.2V146c0-7.7,6.3-14,14-14h-8C62.3,132,56,138.3,56,146z"/>
			<g>
				<path class="st101" d="M140,30.4c0-5.6-4.4-10.3-9.8-10.4l-0.2,0c-1.4,0-2.8,0.3-4,0.9c3.5,1.6,6,5.3,6,9.5c0,0,0,9.9,0,12.9
					l4.5,4l3.5-3.2C140,44.1,140,30.4,140,30.4z"/>
			</g>
			<g>
				<path class="st101" d="M140,94v1.4l8,6.5v-8c0-7.7,6.3-14,14-14h-8C146.3,80,140,86.3,140,94z"/>
				<path class="st101" d="M171.9,76.7l-0.4-0.3c-0.9,2.1-3,3.6-5.5,3.6h8c3.3,0,6-2.7,6-6v-4.9L171.9,76.7z"/>
			</g>
			<path class="st20" d="M60.6,160.7l-4.6-4.3v1.1v4.4c0,3.3-2.7,6-6,6h8c3.3,0,6-2.7,6-6v-4.4L60.6,160.7z"/>
			<polygon class="st20" points="140,100.6 140,107.1 140,115.5 148,122 148,107.1 			"/>
			<polygon class="st101" points="140,120.6 140,127.2 140,140.2 142.1,142 148,134.3 148,127.2 			"/>
		</g>
		<g>
			<line class="st4" x1="118" y1="27" x2="113" y2="31"/>
			<line class="st4" x1="118" y1="39" x2="113" y2="43"/>
			<line class="st4" x1="118" y1="51" x2="113" y2="55"/>
			<line class="st4" x1="118" y1="63" x2="113" y2="67"/>
			<line class="st4" x1="118" y1="75" x2="113" y2="79"/>
		</g>
		<g>
			<line class="st4" x1="142" y1="27" x2="147" y2="31"/>
			<line class="st4" x1="142" y1="39" x2="147" y2="43"/>
		</g>
		<g>
			<line class="st4" x1="108" y1="90" x2="104" y2="85"/>
			<line class="st4" x1="96" y1="90" x2="92" y2="85"/>
			<line class="st4" x1="84" y1="90" x2="80" y2="85"/>
			<line class="st4" x1="72" y1="90" x2="68" y2="85"/>
			<line class="st4" x1="60" y1="90" x2="56" y2="85"/>
		</g>
		<g>
			<line class="st4" x1="108" y1="139" x2="104" y2="134"/>
			<line class="st4" x1="96" y1="139" x2="92" y2="134"/>
			<line class="st4" x1="84" y1="139" x2="80" y2="134"/>
		</g>
		<g>
			<line class="st4" x1="177" y1="87" x2="173" y2="82"/>
			<line class="st4" x1="165" y1="87" x2="161" y2="82"/>
		</g>
		<g>
			<line class="st4" x1="38" y1="110" x2="32" y2="114"/>
			<line class="st4" x1="38" y1="122" x2="32" y2="126"/>
			<line class="st4" x1="38" y1="134" x2="32" y2="138"/>
			<line class="st4" x1="38" y1="146" x2="32" y2="150"/>
			<line class="st4" x1="38" y1="158" x2="32" y2="162"/>
		</g>
		<g>
			<line class="st4" x1="150" y1="115" x2="155" y2="119"/>
			<line class="st4" x1="150" y1="127" x2="155" y2="131"/>
		</g>
		<g>
			<line class="st4" x1="150" y1="90" x2="155" y2="94"/>
			<line class="st4" x1="150" y1="102" x2="155" y2="106"/>
			<line class="st4" x1="150" y1="115" x2="155" y2="119"/>
		</g>
		<g>
			<line class="st4" x1="66" y1="146" x2="71" y2="150"/>
			<line class="st4" x1="66" y1="158" x2="71" y2="162"/>
		</g>
		<line class="st4" x1="51" y1="93" x2="43" y2="91"/>
		<line class="st4" x1="41" y1="101" x2="34" y2="102"/>
		<line class="st4" x1="124" y1="19" x2="119" y2="18"/>
		<line class="st4" x1="137" y1="20" x2="144" y2="19"/>
		<line class="st4" x1="131" y1="18" x2="130" y2="14"/>
		<path class="st20" d="M175.7,62.2l-28.6-8.6c-2.7-0.8-4.8-2.7-6.1-5.1l-4.4,4c0.8,0.5,1.6,0.9,2.5,1.1l28.6,8.6
			c1.3,0.4,2.4,1.2,3.2,2.4v5.9l0.9,0.8l7.1-6.7C178.2,63.4,177,62.6,175.7,62.2z"/>
		<g>
			<circle class="st102" cx="126.5" cy="81.5" r="0.5"/>
			<circle class="st102" cx="126.5" cy="91.5" r="0.5"/>
			<circle class="st102" cx="136.5" cy="86.5" r="0.5"/>
		</g>
		<g>
			<circle class="st102" cx="46.5" cy="134.5" r="0.5"/>
			<circle class="st102" cx="46.5" cy="144.5" r="0.5"/>
			<circle class="st102" cx="56.5" cy="139.5" r="0.5"/>
		</g>
		<g>
			<g>
				<circle class="st103" cx="121.5" cy="109.5" r="0.5"/>
				<circle class="st103" cx="131.5" cy="114.5" r="0.5"/>
			</g>
			<g>
				<circle class="st103" cx="101.5" cy="109.5" r="0.5"/>
				<circle class="st103" cx="111.5" cy="114.5" r="0.5"/>
			</g>
			<g>
				<circle class="st103" cx="81.5" cy="109.5" r="0.5"/>
				<circle class="st103" cx="91.5" cy="114.5" r="0.5"/>
			</g>
			<g>
				<circle class="st103" cx="61.5" cy="109.5" r="0.5"/>
				<circle class="st103" cx="71.5" cy="114.5" r="0.5"/>
			</g>
			<g>
				<circle class="st103" cx="51.5" cy="114.5" r="0.5"/>
			</g>
		</g>
		<g>
			<g>
				<circle class="st103" cx="51.5" cy="161.5" r="0.5"/>
			</g>
		</g>
		<g>
			<g>
				<circle class="st102" cx="146.5" cy="81.5" r="0.5"/>
			</g>
		</g>
		<g>
			<g>
				<circle class="st102" cx="126.5" cy="32.5" r="0.5"/>
			</g>
		</g>
		<g>
			<g>
				<circle class="st103" cx="146.5" cy="56.5" r="0.5"/>
				<circle class="st103" cx="156.5" cy="61.5" r="0.5"/>
			</g>
			<g>
				<circle class="st103" cx="126.5" cy="56.5" r="0.5"/>
				<circle class="st103" cx="136.5" cy="61.5" r="0.5"/>
			</g>
		</g>
		<g>
			<g>
				<circle class="st102" cx="121.5" cy="127.5" r="0.5"/>
			</g>
			<g>
				<circle class="st102" cx="101.5" cy="127.5" r="0.5"/>
			</g>
			<g>
				<circle class="st102" cx="81.5" cy="127.5" r="0.5"/>
			</g>
			<g>
				<circle class="st102" cx="61.5" cy="127.5" r="0.5"/>
			</g>
		</g>
	</g>
	<g>
		<g>
			<g>
				<path class="st25" d="M172,193.8l-8-8.5l8-8.5l-6.4-6.8H176c4.4,0,8,3.6,8,8v12c0,4.4-3.6,8-8,8h-7.9L172,193.8z"/>
			</g>
		</g>
		<g>
			<path class="st100" d="M151,165.9c2.2,2.5,5.4,4.1,9,4.1h5.6l6.4,6.8l-8,8.5l8,8.5l-3.9,4.2H148h0.8l0.2-0.3l-8-9.8l6-6.9l-3-8
				L151,165.9z"/>
			<polygon class="st101" points="143.6,188 150.2,188 163.8,188 169.3,193.8 167.2,196 150.2,196 			"/>
			<path class="st20" d="M174.7,193.8l-5.5-5.8h3.4h2.3h1c3.3,0,6-2.7,6-6v8c0,3.3-2.7,6-6,6h-3.3L174.7,193.8z"/>
		</g>
		<g>
			<line class="st4" x1="160" y1="170" x2="164" y2="165"/>
			<line class="st4" x1="172" y1="170" x2="176" y2="165"/>
		</g>
		<g>
			<circle class="st102" cx="158.5" cy="178.5" r="0.5"/>
			<circle class="st102" cx="153.5" cy="188.5" r="0.5"/>
		</g>
		<g>
			<g>
				<circle class="st103" cx="175.5" cy="183.5" r="0.5"/>
			</g>
		</g>
	</g>
	<line class="st4" x1="100" y1="2" x2="100" y2="90"/>
	<line class="st4" x1="134" y1="198" x2="187" y2="198"/>
	<line class="st4" x1="118" y1="198" x2="126" y2="198"/>
	<line class="st4" x1="40" y1="198" x2="70" y2="198"/>
	<line class="st4" x1="30" y1="198" x2="32" y2="198"/>
	<line class="st4" x1="197" y1="198" x2="195" y2="198"/>
	<g>
		<line class="st106" x1="106" y1="164" x2="106" y2="172"/>
		<line class="st106" x1="110" y1="168" x2="102" y2="168"/>
	</g>
	<g>
		<line class="st106" x1="28" y1="20" x2="28" y2="28"/>
		<line class="st106" x1="32" y1="24" x2="24" y2="24"/>
	</g>
	<g>
		<line class="st106" x1="8" y1="80" x2="8" y2="92"/>
		<line class="st106" x1="14" y1="86" x2="2" y2="86"/>
	</g>
	<g>
		<line class="st106" x1="183" y1="22" x2="183" y2="30"/>
		<line class="st106" x1="187" y1="26" x2="179" y2="26"/>
	</g>
	<g>
		<line class="st106" x1="59" y1="47" x2="67" y2="55"/>
		<line class="st106" x1="67" y1="47" x2="59" y2="55"/>
	</g>
	<g>
		<line class="st106" x1="190" y1="133" x2="198" y2="141"/>
		<line class="st106" x1="198" y1="133" x2="190" y2="141"/>
	</g>
</g>
<g id="Layer_2">
</g>
</svg>
