<svg enable-background="new 0 0 200 200" viewBox="0 0 200 200" xmlns="http://www.w3.org/2000/svg"><g stroke-linecap="round" stroke-miterlimit="10" stroke-width="4"><path d="m8 52v12" fill="none" stroke="#3197d6"/><path d="m2 58h12" fill="none" stroke="#3197d6"/><path d="m31 2v8" fill="none" stroke="#aedfff"/><path d="m27 6h8" fill="none" stroke="#aedfff"/><path d="m68 177v8" fill="none" stroke="#aedfff"/><path d="m64 181h8" fill="none" stroke="#aedfff"/><path d="m158 186v12" fill="none" stroke="#aedfff"/><path d="m152 192h12" fill="none" stroke="#aedfff"/><path d="m60.4 155.5-9.2 9.2" fill="none" stroke="#ffc646"/><path d="m47.7 149.9-11.3 11.3" fill="none" stroke="#ffc646"/><path d="m46.3 134.3-7.1 7.1" fill="none" stroke="#ffc646"/><path d="m33.8 146.8-17.7 17.6" fill="none" stroke="#ffc646"/><path d="m42.7 173.2-2.8 2.9" fill="none" stroke="#ffc646"/><path d="m26.7 170.9-19.4 19.4" fill="none" stroke="#ffc646"/><path d="m10.7 169.9-1.4 1.4" fill="none" stroke="#ffc646"/><path d="m31.9 184-6.4 6.5" fill="none" stroke="#ffc646"/><path d="m125 124.7c14.9-8.6 26.1-17.6 37.5-28.8 18.8-18.3 27.8-36.7 31.8-58.9l-32.3-32.3c-22.2 4-40.6 13-58.9 31.8-11.1 11.4-20.2 22.6-28.8 37.5z" fill="#72808e" stroke="#253540" stroke-linejoin="round"/><path d="m74.4 74c-2.6 4.6-5.2 9.5-7.8 14.8l43.7 43.7c5.4-2.6 10.3-5.2 14.8-7.8z" fill="#d6dde3" stroke="#253540"/><path d="m66.6 88.8c-3.4 7.1-6.8 14.9-10.3 23.8l30.1 30.1c8.9-3.5 16.7-6.9 23.8-10.3z" fill="#72808e" stroke="#253540" stroke-linejoin="round"/><path d="m117 34.3c-2.7 2.4-5.5 4.9-8.2 7.7-5.1 5.2-9.8 10.5-14.3 16.2m29.7-29.6c-.4.3-.9.6-1.3 1" fill="none" stroke="#c1cbd4"/><path d="m162.4 5.1 31.5 31.5" fill="#72808e" stroke="#253540"/></g><path d="m192.4 37.6-19.8-19.8c-1 20.2-6.9 39.3-21.5 60.1-15.2 21.7-31.3 39-65.9 61l1.6 1.6c38.2-15.1 56.3-28.4 74.4-46 18.8-18.3 27.3-36.4 31.2-56.9z" fill="#4f5d6b"/><path d="m57.9 114.1-4.8 7.9c-1 1.6-.7 3.6.6 4.9l18.3 18.3c1.3 1.3 3.3 1.5 4.9.6l7.9-4.8z" fill="#f9fafa" stroke="#253540" stroke-linecap="round" stroke-miterlimit="10" stroke-width="4"/><path d="m109.6 131.9-19.8-19.8" fill="#72808e" stroke="#253540" stroke-linecap="round" stroke-miterlimit="10" stroke-width="4"/><path d="m123.7 123.4-22.6-22.6" fill="#72808e" stroke="#253540" stroke-linecap="round" stroke-miterlimit="10" stroke-width="4"/><path d="m67.1 89.4 19.8 19.8" fill="#72808e" stroke="#253540" stroke-linecap="round" stroke-miterlimit="10" stroke-width="4"/><path d="m75.6 75.3 22.7 22.6" fill="#72808e" stroke="#253540" stroke-linecap="round" stroke-miterlimit="10" stroke-width="4"/><path d="m58.7 140.3c-1.6-1.6-1.6-4.1 0-5.7l62.2-62.2c1.6-1.6 4.1-1.6 5.7 0 1.6 1.6 1.6 4.1 0 5.7l-62.2 62.2c-1.7 1.6-4.2 1.6-5.7 0z" fill="#e3e8eb" stroke="#253540" stroke-linecap="round" stroke-miterlimit="10" stroke-width="4"/><path d="m96.7 43.3c-42.7 2.3-63.6 24.6-75.6 52.5-1.6 3.7.5 7.8 4.5 7.3 10.5-1.5 21.4-9 32.5 4.4l.7-1.1c12.1-29.5 23.2-46.9 37.9-63.1z" fill="#d6dde3" stroke="#253540" stroke-linecap="round" stroke-miterlimit="10" stroke-width="4"/><path d="m155.7 102.3c-16.2 14.6-33.6 25.8-63 37.9l-1.1.7c13.4 11.1 5.8 21.9 4.3 32.5-.6 4 3.5 6.1 7.3 4.5 27.8-12 50.2-32.8 52.5-75.6z" fill="#d6dde3" stroke="#253540" stroke-linecap="round" stroke-miterlimit="10" stroke-width="4"/><path d="m151.9 118.7c.8-3.9 1.4-7.9 1.8-12.1-16.3 14-33.8 24.3-58.9 34.7 2.7 2.7 4.4 5.5 5.3 8.2 21.5-9.2 37.2-18.6 51.8-30.8z" fill="#93a1af"/><path d="m194.3 37c1.4-8 2.3-16.4 2.6-25.6.1-2.6-.1-5.8-1.8-7.6-1.7-1.7-5-1.9-7.6-1.8-9 .4-17.5 1.2-25.5 2.7z" fill="#d6dde3" stroke="#253540" stroke-linecap="round" stroke-miterlimit="10" stroke-width="4"/><circle cx="155" cy="44.3" fill="#f9fafa" r="18" stroke="#253540" stroke-linecap="round" stroke-miterlimit="10" stroke-width="4"/><path d="m169.9 38.3c-1.8-4.5-5.4-7.7-9.7-9.1.8 1.1 1.5 2.3 2 3.6 3.3 8.2-.7 17.5-8.9 20.8-3.7 1.5-7.6 1.5-11.2.3 4.2 5.7 11.9 8 18.8 5.3 8.3-3.3 12.3-12.7 9-20.9z" fill="#c1cbd4"/><circle cx="80" cy="19" fill="none" r="4" stroke="#aedfff" stroke-linecap="round" stroke-miterlimit="10" stroke-width="4"/><circle cx="186" cy="129" fill="none" r="12" stroke="#3197d6" stroke-linecap="round" stroke-miterlimit="10" stroke-width="4"/></svg>