<?xml version="1.0" encoding="utf-8"?>
<!-- Generator: Adobe Illustrator 19.0.1, SVG Export Plug-In . SVG Version: 6.00 Build 0)  -->
<svg version="1.1" xmlns="http://www.w3.org/2000/svg" xmlns:xlink="http://www.w3.org/1999/xlink" x="0px" y="0px"
	 viewBox="0 0 200 200" style="enable-background:new 0 0 200 200;" xml:space="preserve">
<style type="text/css">
	.st0{fill:#F1F3F5;stroke:#253540;stroke-width:4;stroke-linecap:round;stroke-linejoin:round;stroke-miterlimit:10;}
	.st1{fill:#D6DDE3;}
	.st2{fill:#FFC646;stroke:#253540;stroke-width:4;stroke-linecap:round;stroke-miterlimit:10;}
	.st3{fill:#FFC646;stroke:#253540;stroke-width:4;stroke-linecap:round;stroke-linejoin:round;stroke-miterlimit:10;}
	.st4{fill:none;stroke:#253540;stroke-width:4;stroke-linecap:round;stroke-linejoin:round;stroke-miterlimit:10;}
	.st5{fill:#D79400;}
	.st6{fill:#FFFFFF;stroke:#253540;stroke-width:4;stroke-miterlimit:10;}
	.st7{fill:#6A6DC7;stroke:#253540;stroke-width:4;stroke-miterlimit:10;}
	.st8{fill:none;stroke:#D1D3F5;stroke-width:4;stroke-linecap:round;stroke-miterlimit:10;}
	.st9{fill:none;stroke:#A3A6F1;stroke-width:4;stroke-linecap:round;stroke-linejoin:round;stroke-miterlimit:10;}
	.st10{fill:none;stroke:#6A6DC7;stroke-width:4;stroke-linecap:round;stroke-linejoin:round;stroke-miterlimit:10;}
	.st11{fill:none;stroke:#F5B126;stroke-width:4;stroke-linecap:round;stroke-linejoin:round;stroke-miterlimit:10;}
	.st12{fill:none;stroke:#FFFFFF;stroke-width:4;stroke-linecap:round;stroke-linejoin:round;stroke-miterlimit:10;}
	.st13{fill:none;stroke:#D6DDE3;stroke-width:4;stroke-linecap:round;stroke-linejoin:round;stroke-miterlimit:10;}
	.st14{fill:none;stroke:#3CB170;stroke-width:4;stroke-linecap:round;stroke-linejoin:round;stroke-miterlimit:10;}
	.st15{fill:#E52F28;stroke:#253540;stroke-width:4;stroke-linecap:round;stroke-linejoin:round;stroke-miterlimit:10;}
	.st16{fill:#FFA2A2;stroke:#253540;stroke-width:4;stroke-linecap:round;stroke-linejoin:round;stroke-miterlimit:10;}
	.st17{fill:none;stroke:#FFE3E2;stroke-width:4;stroke-linecap:round;stroke-linejoin:round;stroke-miterlimit:10;}
	.st18{fill:none;stroke:#D21B14;stroke-width:4;stroke-linecap:round;stroke-linejoin:round;stroke-miterlimit:10;}
	.st19{fill:#FFFFFF;stroke:#253540;stroke-width:4;stroke-linecap:round;stroke-linejoin:round;stroke-miterlimit:10;}
	.st20{fill:#E3E8EB;}
	.st21{fill:none;stroke:#BA1F19;stroke-width:4;stroke-linecap:round;stroke-linejoin:round;stroke-miterlimit:10;}
	.st22{fill:#C4F0CE;stroke:#253540;stroke-width:4;stroke-linejoin:round;stroke-miterlimit:10;}
	.st23{fill:#81DC9E;stroke:#253540;stroke-width:4;stroke-linejoin:round;stroke-miterlimit:10;}
	.st24{fill:#81DC9E;stroke:#253540;stroke-width:4;stroke-miterlimit:10;}
	.st25{fill:#FFFFFF;stroke:#253540;stroke-width:4;stroke-linejoin:round;stroke-miterlimit:10;}
	.st26{fill:none;stroke:#FFC646;stroke-width:4;stroke-linecap:round;stroke-miterlimit:10;}
	.st27{fill:none;stroke:#3197D6;stroke-width:4;stroke-linecap:round;stroke-miterlimit:10;}
	.st28{fill:none;stroke:#AEDFFF;stroke-width:4;stroke-linecap:round;stroke-miterlimit:10;}
	.st29{fill:none;stroke:#FFE8B5;stroke-width:4;stroke-linecap:round;stroke-miterlimit:10;}
	.st30{fill:none;stroke:#D79400;stroke-width:4;stroke-linecap:round;stroke-miterlimit:10;}
	.st31{fill:#B37100;stroke:#253540;stroke-width:4;stroke-linecap:round;stroke-linejoin:round;stroke-miterlimit:10;}
	.st32{fill:#875200;}
	.st33{fill:none;stroke:#FFFDF6;stroke-width:4;stroke-linecap:round;stroke-miterlimit:10;}
	.st34{fill:#72808E;stroke:#253540;stroke-width:4;stroke-linecap:round;stroke-linejoin:round;stroke-miterlimit:10;}
	.st35{fill:#D6DDE3;stroke:#253540;stroke-width:4;stroke-linecap:round;stroke-miterlimit:10;}
	.st36{fill:none;stroke:#C1CBD4;stroke-width:4;stroke-linecap:round;stroke-miterlimit:10;}
	.st37{fill:#72808E;stroke:#253540;stroke-width:4;stroke-linecap:round;stroke-miterlimit:10;}
	.st38{fill:#4F5D6B;}
	.st39{fill:#F9FAFA;stroke:#253540;stroke-width:4;stroke-linecap:round;stroke-miterlimit:10;}
	.st40{fill:#E3E8EB;stroke:#253540;stroke-width:4;stroke-linecap:round;stroke-miterlimit:10;}
	.st41{fill:#93A1AF;}
	.st42{fill:#C1CBD4;}
	.st43{fill:none;stroke:#FFFFFF;stroke-width:4;stroke-linecap:round;stroke-miterlimit:10;}
	.st44{fill:#4F5D6B;stroke:#253540;stroke-width:4;stroke-miterlimit:10;}
	.st45{fill:#F5B126;}
	.st46{fill:#93A1AF;stroke:#253540;stroke-width:4;stroke-miterlimit:10;}
	.st47{fill:#FFFFFF;stroke:#D79400;stroke-width:4;stroke-linecap:round;stroke-miterlimit:10;}
	.st48{fill:none;stroke:#F5B126;stroke-width:4;stroke-linecap:round;stroke-miterlimit:10;}
	.st49{fill:#EDDD38;stroke:#272822;stroke-width:4;stroke-linejoin:round;stroke-miterlimit:10;}
	.st50{fill:#F45B55;}
	.st51{fill:#FFE3E2;}
	.st52{fill:#F1F1F0;stroke:#272822;stroke-width:4;stroke-linecap:round;stroke-linejoin:round;stroke-miterlimit:10;}
	.st53{fill:#FFD56D;}
	.st54{fill:#C1CBD4;stroke:#253540;stroke-width:4;stroke-miterlimit:10;}
	.st55{fill:none;stroke:#253540;stroke-width:4;stroke-linecap:round;stroke-miterlimit:10;stroke-dasharray:8,8,92,8,4;}
	.st56{fill:#F9FAFA;stroke:#E52F28;stroke-width:4;stroke-linecap:round;stroke-linejoin:round;stroke-miterlimit:10;}
	.st57{fill:none;stroke:#93A1AF;stroke-width:4;stroke-linecap:round;stroke-miterlimit:10;}
	.st58{fill:#FFC646;stroke:#875200;stroke-width:4;stroke-linecap:round;stroke-linejoin:round;stroke-miterlimit:10;}
	.st59{fill:#81DC9E;}
	.st60{fill:none;stroke:#585B9E;stroke-width:4;stroke-miterlimit:10;}
	.st61{fill:none;stroke:#6A6DC7;stroke-width:4;stroke-linecap:round;stroke-miterlimit:10;}
	.st62{fill:#FFFFFF;stroke:#DD9400;stroke-width:4;stroke-linecap:round;stroke-linejoin:round;stroke-miterlimit:10;}
	.st63{fill:none;stroke:#FFC646;stroke-width:4;stroke-linecap:round;stroke-linejoin:round;stroke-miterlimit:10;}
	.st64{fill:#FFFFFF;stroke:#D21B14;stroke-width:4;stroke-linecap:round;stroke-linejoin:round;stroke-miterlimit:10;}
	.st65{fill:#E52F28;stroke:#BA1F19;stroke-width:4;stroke-linecap:round;stroke-linejoin:round;stroke-miterlimit:10;}
	.st66{fill:#FFC646;stroke:#DD9400;stroke-width:4;stroke-linecap:round;stroke-linejoin:round;stroke-miterlimit:10;}
	.st67{fill:#FFFFFF;stroke:#BA1F19;stroke-width:4;stroke-linecap:round;stroke-linejoin:round;stroke-miterlimit:10;}
	.st68{fill:#DD9400;stroke:#DD9400;stroke-width:4;stroke-linecap:round;stroke-linejoin:round;stroke-miterlimit:10;}
	.st69{fill:#BA1F19;}
	.st70{fill:#7F83E4;stroke:#585B9E;stroke-width:4;stroke-miterlimit:10;}
	.st71{fill:#FFFFFF;stroke:#585B9E;stroke-width:4;stroke-miterlimit:10;}
	.st72{fill:#585B9E;}
	.st73{fill:#A3A6F1;stroke:#585B9E;stroke-width:4;stroke-miterlimit:10;}
	.st74{fill:#6A6DC7;stroke:#585B9E;stroke-width:4;stroke-miterlimit:10;}
	.st75{fill:#A3A6F1;}
	.st76{fill:#C4F0CE;stroke:#3CB170;stroke-width:4;stroke-linejoin:round;stroke-miterlimit:10;}
	.st77{fill:#81DC9E;stroke:#3CB170;stroke-width:4;stroke-linejoin:round;stroke-miterlimit:10;}
	.st78{fill:#81DC9E;stroke:#3CB170;stroke-width:4;stroke-miterlimit:10;}
	.st79{fill:#FFFFFF;stroke:#3CB170;stroke-width:4;stroke-linejoin:round;stroke-miterlimit:10;}
	.st80{fill:none;stroke:#FED475;stroke-width:4;stroke-linecap:round;stroke-linejoin:round;stroke-miterlimit:10;}
	.st81{fill:none;stroke:#71BFF1;stroke-width:4;stroke-linecap:round;stroke-miterlimit:10;}
	.st82{fill:#253540;}
	.st83{fill:none;stroke:#253540;stroke-width:4;stroke-miterlimit:10;}
	.st84{fill:#FFC646;}
	.st85{fill:#FFF6E2;}
	.st86{fill:none;stroke:#D6DDE3;stroke-width:4;stroke-linecap:round;stroke-miterlimit:10;}
	.st87{fill:#B37100;stroke:#875200;stroke-width:4;stroke-linecap:round;stroke-linejoin:round;stroke-miterlimit:10;}
	.st88{fill:none;stroke:#FFD56D;stroke-width:4;stroke-linecap:round;stroke-linejoin:round;stroke-miterlimit:10;}
	.st89{fill:#394956;}
	.st90{fill:#FFC646;stroke:#D79400;stroke-width:4;stroke-linecap:round;stroke-miterlimit:10;}
	.st91{fill:#D79400;stroke:#D79400;stroke-width:2;stroke-miterlimit:10;}
	.st92{fill:#FFE8B5;stroke:#D79400;stroke-width:4;stroke-linecap:round;stroke-miterlimit:10;}
	.st93{fill:#FFC646;stroke:#D79400;stroke-width:4;stroke-linecap:round;stroke-linejoin:round;stroke-miterlimit:10;}
	.st94{fill:#FFA2A2;stroke:#BA1F19;stroke-width:4;stroke-linecap:round;stroke-linejoin:round;stroke-miterlimit:10;}
	.st95{fill:none;stroke:#D79400;stroke-width:4;stroke-linecap:round;stroke-linejoin:round;stroke-miterlimit:10;}
	.st96{fill:none;stroke:#E52F28;stroke-width:4;stroke-linecap:round;stroke-linejoin:round;stroke-miterlimit:10;}
	.st97{fill:#FFE8B5;stroke:#253540;stroke-width:4;stroke-linecap:round;stroke-linejoin:round;stroke-miterlimit:10;}
	.st98{fill:#D21B14;}
	.st99{fill:#FFC646;stroke:#253540;stroke-width:4;stroke-linejoin:round;stroke-miterlimit:10;}
	.st100{fill:#4BC27D;stroke:#253540;stroke-width:4;stroke-linejoin:round;stroke-miterlimit:10;}
	.st101{fill:#359E64;}
	.st102{fill:none;stroke:#359E64;stroke-width:4;stroke-linejoin:round;stroke-miterlimit:10;}
	.st103{fill:none;stroke:#E3E8EB;stroke-width:4;stroke-linejoin:round;stroke-miterlimit:10;}
	.st104{fill:#3CB170;}
	.st105{fill:none;stroke:#3CB170;stroke-width:4;stroke-linejoin:round;stroke-miterlimit:10;}
	.st106{fill:none;stroke:#4BC27D;stroke-width:4;stroke-linecap:round;stroke-linejoin:round;stroke-miterlimit:10;}
	.st107{fill:#7F83E4;stroke:#253540;stroke-width:4;stroke-miterlimit:10;}
	.st108{fill:#A3A6F1;stroke:#253540;stroke-width:4;stroke-miterlimit:10;}
	.st109{fill:#B4C0CA;stroke:#253540;stroke-width:4;stroke-miterlimit:10;}
	.st110{fill:#6A6DC7;}
	.st111{fill:#7F83E4;stroke:#253540;stroke-width:4;stroke-linecap:round;stroke-miterlimit:10;}
	.st112{fill:none;stroke:#253540;stroke-width:4;stroke-linecap:round;stroke-miterlimit:10;}
	.st113{fill:#D6DDE3;stroke:#253540;stroke-width:4;stroke-linecap:round;stroke-linejoin:round;stroke-miterlimit:10;}
	.st114{fill:#B4C0CA;}
	.st115{fill:#3197D6;stroke:#253540;stroke-width:4;stroke-linecap:round;stroke-linejoin:round;stroke-miterlimit:10;}
	.st116{fill:none;stroke:#AEDFFF;stroke-width:4;stroke-linecap:round;stroke-linejoin:round;stroke-miterlimit:10;}
	.st117{fill:none;stroke:#93A1AF;stroke-width:4;stroke-linecap:round;stroke-linejoin:round;stroke-miterlimit:10;}
	.st118{fill:#4F5D6B;stroke:#253540;stroke-width:4;stroke-linecap:round;stroke-linejoin:round;stroke-miterlimit:10;}
	.st119{fill:#237AB3;}
	.st120{fill:none;stroke:#FFE8B5;stroke-width:4;stroke-linecap:round;stroke-linejoin:round;stroke-miterlimit:10;}
	.st121{fill:#FFFFFF;}
</style>
<g id="Layer_1">
	<g>
		<line class="st27" x1="8" y1="52" x2="8" y2="64"/>
		<line class="st27" x1="2" y1="58" x2="14" y2="58"/>
	</g>
	<g>
		<line class="st28" x1="31" y1="2" x2="31" y2="10"/>
		<line class="st28" x1="27" y1="6" x2="35" y2="6"/>
	</g>
	<g>
		<line class="st28" x1="68" y1="177" x2="68" y2="185"/>
		<line class="st28" x1="64" y1="181" x2="72" y2="181"/>
	</g>
	<g>
		<line class="st28" x1="158" y1="186" x2="158" y2="198"/>
		<line class="st28" x1="152" y1="192" x2="164" y2="192"/>
	</g>
	<g>
		<line class="st26" x1="60.4" y1="155.5" x2="51.2" y2="164.7"/>
		<line class="st26" x1="47.7" y1="149.9" x2="36.4" y2="161.2"/>
		<line class="st26" x1="46.3" y1="134.3" x2="39.2" y2="141.4"/>
		<line class="st26" x1="33.8" y1="146.8" x2="16.1" y2="164.4"/>
		<line class="st26" x1="42.7" y1="173.2" x2="39.9" y2="176.1"/>
	</g>
	<g>
		<line class="st26" x1="26.7" y1="170.9" x2="7.3" y2="190.3"/>
		<line class="st26" x1="10.7" y1="169.9" x2="9.3" y2="171.3"/>
		<line class="st26" x1="31.9" y1="184" x2="25.5" y2="190.5"/>
	</g>
	<g>
		<path class="st34" d="M125,124.7c14.9-8.6,26.1-17.6,37.5-28.8c18.8-18.3,27.8-36.7,31.8-58.9L162,4.7c-22.2,4-40.6,13-58.9,31.8
			C92,47.9,82.9,59.1,74.3,74L125,124.7z"/>
		<path class="st35" d="M74.4,74c-2.6,4.6-5.2,9.5-7.8,14.8l43.7,43.7c5.4-2.6,10.3-5.2,14.8-7.8L74.4,74z"/>
		<path class="st34" d="M66.6,88.8c-3.4,7.1-6.8,14.9-10.3,23.8l30.1,30.1c8.9-3.5,16.7-6.9,23.8-10.3L66.6,88.8z"/>
		<g>
			<path class="st36" d="M117,34.3c-2.7,2.4-5.5,4.9-8.2,7.7c-5.1,5.2-9.8,10.5-14.3,16.2 M124.2,28.6c-0.4,0.3-0.9,0.6-1.3,1"/>
		</g>
		<line class="st37" x1="162.4" y1="5.1" x2="193.9" y2="36.6"/>
		<path class="st38" d="M192.4,37.6l-19.8-19.8c-1,20.2-6.9,39.3-21.5,60.1c-15.2,21.7-31.3,39-65.9,61l1.6,1.6
			c38.2-15.1,56.3-28.4,74.4-46C180,76.2,188.5,58.1,192.4,37.6z"/>
		<path class="st39" d="M57.9,114.1l-4.8,7.9c-1,1.6-0.7,3.6,0.6,4.9L72,145.2c1.3,1.3,3.3,1.5,4.9,0.6l7.9-4.8L57.9,114.1z"/>
		<line class="st37" x1="109.6" y1="131.9" x2="89.8" y2="112.1"/>
		<line class="st37" x1="123.7" y1="123.4" x2="101.1" y2="100.8"/>
		<line class="st37" x1="67.1" y1="89.4" x2="86.9" y2="109.2"/>
		<line class="st37" x1="75.6" y1="75.3" x2="98.3" y2="97.9"/>
		<path class="st40" d="M58.7,140.3L58.7,140.3c-1.6-1.6-1.6-4.1,0-5.7l62.2-62.2c1.6-1.6,4.1-1.6,5.7,0l0,0c1.6,1.6,1.6,4.1,0,5.7
			l-62.2,62.2C62.7,141.9,60.2,141.9,58.7,140.3z"/>
		<path class="st35" d="M96.7,43.3c-42.7,2.3-63.6,24.6-75.6,52.5c-1.6,3.7,0.5,7.8,4.5,7.3c10.5-1.5,21.4-9,32.5,4.4l0.7-1.1
			C70.9,76.9,82,59.5,96.7,43.3z"/>
		<path class="st35" d="M155.7,102.3c-16.2,14.6-33.6,25.8-63,37.9l-1.1,0.7c13.4,11.1,5.8,21.9,4.3,32.5c-0.6,4,3.5,6.1,7.3,4.5
			C131,165.9,153.4,145.1,155.7,102.3z"/>
		<g>
			<path class="st41" d="M151.9,118.7c0.8-3.9,1.4-7.9,1.8-12.1c-16.3,14-33.8,24.3-58.9,34.7c0,0,0,0,0,0c2.7,2.7,4.4,5.5,5.3,8.2
				C121.6,140.3,137.3,130.9,151.9,118.7z"/>
		</g>
		<path class="st35" d="M194.3,37c1.4-8,2.3-16.4,2.6-25.6c0.1-2.6-0.1-5.8-1.8-7.6c-1.7-1.7-5-1.9-7.6-1.8
			C178.5,2.4,170,3.2,162,4.7L194.3,37z"/>
		<circle class="st39" cx="155" cy="44.3" r="18"/>
		<path class="st42" d="M169.9,38.3c-1.8-4.5-5.4-7.7-9.7-9.1c0.8,1.1,1.5,2.3,2,3.6c3.3,8.2-0.7,17.5-8.9,20.8
			c-3.7,1.5-7.6,1.5-11.2,0.3c4.2,5.7,11.9,8,18.8,5.3C169.2,55.9,173.2,46.5,169.9,38.3z"/>
	</g>
	<circle class="st28" cx="80" cy="19" r="4"/>
	<circle class="st27" cx="186" cy="129" r="12"/>
</g>
<g id="Layer_2">
</g>
</svg>
