<svg width="20" height="20" viewBox="0 0 20 20" xmlns="http://www.w3.org/2000/svg"><title>Alert</title><path d="M10 3a2.2 2.2 0 0 0-2.005 1.24L3.24 13.753c-.35.7-.313 1.516.098 2.183a2.227 2.227 0 0 0 1.907 1.063h9.509c.783 0 1.496-.397 1.908-1.063a2.232 2.232 0 0 0 .098-2.183L12.005 4.24A2.202 2.202 0 0 0 10 3m4.755 16H5.246c-1.48 0-2.83-.752-3.609-2.013a4.218 4.218 0 0 1-.185-4.129l4.753-9.512A4.217 4.217 0 0 1 9.998 1H10a4.22 4.22 0 0 1 3.794 2.346l4.755 9.512a4.216 4.216 0 0 1-.186 4.128A4.214 4.214 0 0 1 14.753 19M10 12.002a1 1 0 0 1-1-1V7.003a1 1 0 1 1 2 0V11a1 1 0 0 1-1 1.001m.006 2.996a1.004 1.004 0 0 1-1.005-1c0-.553.443-1 .995-1h.01a1 1 0 1 1 0 2" fill="#C1CBD4" fill-rule="evenodd"/></svg>
