<svg width="26" height="26" viewBox="0 0 26 26" xmlns="http://www.w3.org/2000/svg"><title>Rating Bad</title><g fill="none" fill-rule="evenodd"><circle fill="#E3E8EB" cx="13" cy="13" r="13"/><path d="M8 15a2 2 0 1 1 0-4 2 2 0 0 1 0 4zm10 0a2 2 0 1 1 0-4 2 2 0 0 1 0 4zm-1.048 5.361c-.235 0-.47-.075-.666-.229-1.843-1.46-4.728-1.46-6.571 0A1.081 1.081 0 0 1 8.24 20a.97.97 0 0 1 .138-1.409A7.471 7.471 0 0 1 13 17c1.684 0 3.324.565 4.621 1.59A.971.971 0 0 1 17.76 20a1.064 1.064 0 0 1-.807.361z" fill="#A5B2BD"/></g></svg>