<?xml version="1.0" encoding="utf-8"?>
<svg version="1.1" id="Layer_1" xmlns="http://www.w3.org/2000/svg" xmlns:xlink="http://www.w3.org/1999/xlink" x="0px" y="0px"
viewBox="0 0 26 26" style="enable-background:new 0 0 26 26;" xml:space="preserve">
<g id="_x5F_Icons_x2F_Rating_x2F_1_x2F_Large_x2F_On" transform="translate(36.000000, 0.000000)">
<circle id="Head" class="c-Emoticon__pathHead" cx="-23" cy="13" r="13"/>
<path id="Face" class="c-Emoticon__pathFace" d="M-30,15.2c2.2-0.8,4.6-1.2,7-1.2s4.8,0.4,7,1.2c-1.2,2.8-3.9,4.8-7,4.8S-28.8,18-30,15.2z M-28,11
c-1.1,0-2-0.9-2-2s0.9-2,2-2s2,0.9,2,2S-26.9,11-28,11z M-18,11c-1.1,0-2-0.9-2-2s0.9-2,2-2s2,0.9,2,2S-16.9,11-18,11z"/>
</g>
</svg>
