<?xml version="1.0" encoding="utf-8"?>
<svg version="1.1" id="Layer_1" xmlns="http://www.w3.org/2000/svg" xmlns:xlink="http://www.w3.org/1999/xlink" x="0px" y="0px"
viewBox="0 0 26 26" style="enable-background:new 0 0 26 26;" xml:space="preserve">
<g id="_x5F_Icons_x2F_Rating_x2F_2_x2F_Large_x2F_On" transform="translate(36.000000, 36.000000)">
<circle id="Head" class="c-Emoticon__pathHead" cx="-23" cy="-23" r="13"/>
<path id="Face" class="c-Emoticon__pathFace" d="M-28-24c-1.1,0-2-0.9-2-2s0.9-2,2-2s2,0.9,2,2S-26.9-24-28-24z M-18-24c-1.1,0-2-0.9-2-2s0.9-2,2-2
s2,0.9,2,2S-16.9-24-18-24z M-26.9-17.7c-0.6,0-1-0.4-1.1-0.9c0-0.6,0.4-1,0.9-1.1l8-0.7c0.6,0,1,0.4,1.1,0.9c0,0.6-0.4,1-0.9,1.1
L-26.9-17.7z"/>
</g>
</svg>
