<svg width="24" height="24" viewBox="0 0 24 24" fill="none" xmlns="http://www.w3.org/2000/svg">
<path fill-rule="evenodd" clip-rule="evenodd" d="M12 24C18.6274 24 24 18.6274 24 12C24 5.37258 18.6274 0 12 0C5.37258 0 0 5.37258 0 12C0 18.6274 5.37258 24 12 24Z" fill="#BDD6FF"/>
<path fill-rule="evenodd" clip-rule="evenodd" d="M7.38345 12.0923C8.40242 12.0923 9.22845 11.2658 9.22845 10.2462C9.22845 9.22658 8.40242 8.40002 7.38345 8.40002C6.36449 8.40002 5.53845 9.22658 5.53845 10.2462C5.53845 11.2658 6.36449 12.0923 7.38345 12.0923ZM16.6143 12.0923C17.6333 12.0923 18.4593 11.2658 18.4593 10.2462C18.4593 9.22658 17.6333 8.40002 16.6143 8.40002C15.5953 8.40002 14.7693 9.22658 14.7693 10.2462C14.7693 11.2658 15.5953 12.0923 16.6143 12.0923ZM9.10713 17.5072C9.44097 17.1733 10.2844 16.6641 11.3834 16.5161C12.4383 16.3741 13.7082 16.5671 14.9753 17.5809C15.4066 17.9259 16.0359 17.8559 16.3809 17.4247C16.7259 16.9934 16.656 16.3641 16.2247 16.0191C14.4919 14.6329 12.6617 14.326 11.1166 14.534C9.61568 14.736 8.35908 15.4268 7.69292 16.0929C7.30239 16.4835 7.30239 17.1166 7.69292 17.5072C8.08344 17.8977 8.71661 17.8977 9.10713 17.5072Z" fill="#2E2D2E"/>
</svg>
