<svg id="reaction-okay-lg" width="24" height="24" viewBox="0 0 24 24" fill="none" xmlns="http://www.w3.org/2000/svg">
<path class="reaction-head" fill-rule="evenodd" clip-rule="evenodd" d="M12 24C18.6274 24 24 18.6274 24 12C24 5.37258 18.6274 0 12 0C5.37258 0 0 5.37258 0 12C0 18.6274 5.37258 24 12 24Z" fill="#D2D2D2"/>
<path class="reaction-face" fill-rule="evenodd" clip-rule="evenodd" d="M7.38345 10.6923C8.40242 10.6923 9.22845 9.86576 9.22845 8.84615C9.22845 7.82655 8.40242 7 7.38345 7C6.36449 7 5.53845 7.82655 5.53845 8.84615C5.53845 9.86576 6.36449 10.6923 7.38345 10.6923ZM16.6143 10.6923C17.6333 10.6923 18.4593 9.86576 18.4593 8.84615C18.4593 7.82655 17.6333 7 16.6143 7C15.5953 7 14.7693 7.82655 14.7693 8.84615C14.7693 9.86576 15.5953 10.6923 16.6143 10.6923ZM8.2 14C7.53726 14 7 14.5373 7 15.2C7 15.8627 7.53726 16.4 8.2 16.4H15.8C16.4627 16.4 17 15.8627 17 15.2C17 14.5373 16.4627 14 15.8 14H8.2Z" fill="#2E2D2E"/>
</svg>
