<svg width="24" height="24" viewBox="0 0 24 24" fill="none" xmlns="http://www.w3.org/2000/svg">
<path fill-rule="evenodd" clip-rule="evenodd" d="M12 24C18.6274 24 24 18.6274 24 12C24 5.37258 18.6274 0 12 0C5.37258 0 0 5.37258 0 12C0 18.6274 5.37258 24 12 24Z" fill="#FFDA6A"/>
<path fill-rule="evenodd" clip-rule="evenodd" d="M7.38461 10.8406C8.40421 10.8406 9.23076 10.0141 9.23076 8.99447C9.23076 7.97487 8.40421 7.14832 7.38461 7.14832C6.365 7.14832 5.53845 7.97487 5.53845 8.99447C5.53845 10.0141 6.365 10.8406 7.38461 10.8406ZM17.4556 14.7789C18.0066 14.94 18.281 15.5534 17.9882 16.0472C16.745 18.1431 14.528 19.5385 12 19.5385C9.472 19.5385 7.25497 18.1431 6.01179 16.0472C5.71894 15.5534 5.99339 14.94 6.54437 14.7789C8.28009 14.2713 10.1098 14 12 14C13.8902 14 15.7199 14.2713 17.4556 14.7789ZM18.4615 9.00004C18.4615 10.0196 17.635 10.8462 16.6154 10.8462C15.5958 10.8462 14.7692 10.0196 14.7692 9.00004C14.7692 7.98044 15.5958 7.15389 16.6154 7.15389C17.635 7.15389 18.4615 7.98044 18.4615 9.00004Z" fill="#2E2D2E"/>
</svg>
