<svg width="20" height="20" viewBox="0 0 20 20" fill="none" xmlns="http://www.w3.org/2000/svg">
<path fill-rule="evenodd" clip-rule="evenodd" d="M10 20C15.5228 20 20 15.5228 20 10C20 4.47715 15.5228 0 10 0C4.47715 0 0 4.47715 0 10C0 15.5228 4.47715 20 10 20Z" fill="#E5E9EC"/>
<path fill-rule="evenodd" clip-rule="evenodd" d="M6.15382 9.03383C7.00349 9.03383 7.69228 8.34504 7.69228 7.49537C7.69228 6.6457 7.00349 5.95691 6.15382 5.95691C5.30415 5.95691 4.61536 6.6457 4.61536 7.49537C4.61536 8.34504 5.30415 9.03383 6.15382 9.03383ZM14.377 12.1006C14.9297 12.2557 15.2053 12.8716 14.8947 13.3544C13.8431 14.989 12.0434 16 9.99997 16C7.9565 16 6.15685 14.989 5.10519 13.3544C4.79459 12.8716 5.07027 12.2557 5.62297 12.1006C7.0189 11.7089 8.48616 11.5 9.99997 11.5C11.5138 11.5 12.981 11.7089 14.377 12.1006ZM15.3846 7.50001C15.3846 8.34968 14.6958 9.03848 13.8461 9.03848C12.9965 9.03848 12.3077 8.34968 12.3077 7.50001C12.3077 6.65035 12.9965 5.96155 13.8461 5.96155C14.6958 5.96155 15.3846 6.65035 15.3846 7.50001Z" fill="#A5B2BD"/>
</svg>
