<svg width="16" height="16" viewBox="0 0 16 16" fill="none" xmlns="http://www.w3.org/2000/svg">
<path fill-rule="evenodd" clip-rule="evenodd" d="M8 16C12.4183 16 16 12.4183 16 8C16 3.58172 12.4183 0 8 0C3.58172 0 0 3.58172 0 8C0 12.4183 3.58172 16 8 16Z" fill="#CACACA"/>
<path fill-rule="evenodd" clip-rule="evenodd" d="M4.79998 7.4C5.46272 7.4 5.99998 6.86274 5.99998 6.2C5.99998 5.53726 5.46272 5 4.79998 5C4.13723 5 3.59998 5.53726 3.59998 6.2C3.59998 6.86274 4.13723 7.4 4.79998 7.4ZM4.75 10.25C4.75 9.83579 5.08579 9.5 5.5 9.5H10.5C10.9142 9.5 11.25 9.83579 11.25 10.25C11.25 10.6642 10.9142 11 10.5 11H5.5C5.08579 11 4.75 10.6642 4.75 10.25ZM12.4 6.2C12.4 6.86274 11.8627 7.4 11.2 7.4C10.5373 7.4 10 6.86274 10 6.2C10 5.53726 10.5373 5 11.2 5C11.8627 5 12.4 5.53726 12.4 6.2Z" fill="#262C38"/>
</svg>
