<svg width="16" height="16" viewBox="0 0 16 16" fill="none" xmlns="http://www.w3.org/2000/svg">
<path fill-rule="evenodd" clip-rule="evenodd" d="M8 16C12.4183 16 16 12.4183 16 8C16 3.58172 12.4183 0 8 0C3.58172 0 0 3.58172 0 8C0 12.4183 3.58172 16 8 16Z" fill="#E5E9EC"/>
<path fill-rule="evenodd" clip-rule="evenodd" d="M4.79998 7.4C5.46272 7.4 5.99998 6.86274 5.99998 6.2C5.99998 5.53726 5.46272 5 4.79998 5C4.13723 5 3.59998 5.53726 3.59998 6.2C3.59998 6.86274 4.13723 7.4 4.79998 7.4ZM11.5882 9.49333C11.9205 9.61667 12.1198 9.98667 11.9205 10.3567C11.1231 11.775 9.6612 12.7 7.99999 12.7C6.33877 12.7 4.87691 11.775 4.07952 10.3567C3.88018 10.0483 4.07952 9.61667 4.41177 9.49333C5.54139 9.185 6.73747 9 7.99999 9C9.26251 9 10.4586 9.185 11.5882 9.49333ZM12.4 6.2C12.4 6.86274 11.8627 7.4 11.2 7.4C10.5372 7.4 9.99999 6.86274 9.99999 6.2C9.99999 5.53726 10.5372 5 11.2 5C11.8627 5 12.4 5.53726 12.4 6.2Z" fill="#A5B2BD"/>
</svg>
