<svg width="16" height="16" viewBox="0 0 16 16" fill="none" xmlns="http://www.w3.org/2000/svg">
<path fill-rule="evenodd" clip-rule="evenodd" d="M8 16C12.4183 16 16 12.4183 16 8C16 3.58172 12.4183 0 8 0C3.58172 0 0 3.58172 0 8C0 12.4183 3.58172 16 8 16Z" fill="#E5E9EC"/>
<path fill-rule="evenodd" clip-rule="evenodd" d="M4.79998 8.09995C5.46272 8.09995 5.99998 7.56269 5.99998 6.89995C5.99998 6.23721 5.46272 5.69995 4.79998 5.69995C4.13723 5.69995 3.59998 6.23721 3.59998 6.89995C3.59998 7.56269 4.13723 8.09995 4.79998 8.09995ZM10.05 11.5999C8.39484 10.3585 6.62761 10.9907 6.00342 11.5559C5.69638 11.8339 5.22209 11.8104 4.94406 11.5034C4.66603 11.1963 4.68954 10.722 4.99658 10.444C6.03905 9.50003 8.60516 8.64127 10.95 10.3999C11.2814 10.6484 11.3485 11.1185 11.1 11.4499C10.8515 11.7813 10.3814 11.8484 10.05 11.5999ZM12.4 6.89995C12.4 7.56269 11.8627 8.09995 11.2 8.09995C10.5373 8.09995 10 7.56269 10 6.89995C10 6.23721 10.5373 5.69995 11.2 5.69995C11.8627 5.69995 12.4 6.23721 12.4 6.89995Z" fill="#A5B2BD"/>
</svg>
