<svg width="20" height="20" viewBox="0 0 20 20" fill="none" xmlns="http://www.w3.org/2000/svg">
<path fill-rule="evenodd" clip-rule="evenodd" d="M10 20C15.5228 20 20 15.5228 20 10C20 4.47715 15.5228 0 10 0C4.47715 0 0 4.47715 0 10C0 15.5228 4.47715 20 10 20Z" fill="#E5E9EC"/>
<path fill-rule="evenodd" clip-rule="evenodd" d="M6.15382 10.0769C7.00349 10.0769 7.69228 9.38813 7.69228 8.53846C7.69228 7.68879 7.00349 7 6.15382 7C5.30415 7 4.61536 7.68879 4.61536 8.53846C4.61536 9.38813 5.30415 10.0769 6.15382 10.0769ZM13.8462 10.0769C14.6959 10.0769 15.3847 9.38813 15.3847 8.53846C15.3847 7.68879 14.6959 7 13.8462 7C12.9965 7 12.3077 7.68879 12.3077 8.53846C12.3077 9.38813 12.9965 10.0769 13.8462 10.0769ZM7.70711 14.8114C7.95761 14.5609 8.62601 14.1517 9.50842 14.0329C10.3467 13.92 11.3581 14.0714 12.3753 14.8852C12.8066 15.2302 13.4359 15.1602 13.7809 14.729C14.1259 14.2977 14.056 13.6684 13.6247 13.3234C12.1419 12.1372 10.57 11.8719 9.24158 12.0508C7.95732 12.2237 6.87572 12.8144 6.29289 13.3972C5.90237 13.7878 5.90237 14.4209 6.29289 14.8114C6.68342 15.202 7.31658 15.202 7.70711 14.8114Z" fill="#A5B2BD"/>
</svg>
