<svg id="reaction-okay-md" width="20" height="20" viewBox="0 0 20 20" fill="none" xmlns="http://www.w3.org/2000/svg">
<path class="reaction-head" fill-rule="evenodd" clip-rule="evenodd" d="M10 20C15.5228 20 20 15.5228 20 10C20 4.47715 15.5228 0 10 0C4.47715 0 0 4.47715 0 10C0 15.5228 4.47715 20 10 20Z" fill="#D2D2D2"/>
<path class="reaction-face" fill-rule="evenodd" clip-rule="evenodd" d="M6.15536 9.07692C7.00587 9.07692 7.69536 8.38813 7.69536 7.53846C7.69536 6.68879 7.00587 6 6.15536 6C5.30484 6 4.61536 6.68879 4.61536 7.53846C4.61536 8.38813 5.30484 9.07692 6.15536 9.07692ZM13.8477 9.07692C14.6983 9.07692 15.3877 8.38813 15.3877 7.53846C15.3877 6.68879 14.6983 6 13.8477 6C12.9972 6 12.3077 6.68879 12.3077 7.53846C12.3077 8.38813 12.9972 9.07692 13.8477 9.07692ZM7 12C6.44772 12 6 12.4477 6 13C6 13.5523 6.44772 14 7 14H13C13.5523 14 14 13.5523 14 13C14 12.4477 13.5523 12 13 12H7Z" fill="#2E2D2E"/>
</svg>
