<svg xmlns="http://www.w3.org/2000/svg" width="46" height="46" viewBox="0 0 46 46">
  <g fill="none" fill-rule="evenodd">
    <path class="c-Illo__pathFill c-Illo__pathFillUIWhite" d="M23 32c-6.627 0-12-5.373-12-12S16.373 8 23 8s12 5.373 12 12-5.373 12-12 12z"/>
    <path class="c-Illo__pathFill c-Illo__pathFillUI" fill-rule="nonzero" d="M20.438 13.985a1 1 0 0 1-.75-1.855l.167-.064a1 1 0 1 1 .703 1.873l-.12.046zM16 20a1 1 0 0 1-2 0c0-2.418.96-4.186 2.636-5.862a1 1 0 0 1 1.414 1.414C16.745 16.857 16 18.117 16 20zm8-16a1 1 0 0 1-2 0V2a1 1 0 0 1 2 0v2zm15 17a1 1 0 0 1 0-2h2a1 1 0 0 1 0 2h-2zM5 21a1 1 0 0 1 0-2h2a1 1 0 0 1 0 2H5zM9.565 7.98a1 1 0 1 1 1.414-1.415l1.414 1.414a1 1 0 1 1-1.414 1.415L9.565 7.98zM35.02 6.565a1 1 0 0 1 1.415 1.415L35.02 9.394a1 1 0 0 1-1.415-1.415l1.414-1.414z"/>
    <path class="c-Illo__pathFill c-Illo__pathFillUIDark" fill-rule="nonzero" d="M24 27.402V32a1 1 0 0 1-2 0v-4.598a5.002 5.002 0 0 1-4-4.9 1 1 0 0 1 2 0 3 3 0 0 0 6 0 1 1 0 0 1 2 0 5.002 5.002 0 0 1-4 4.9zM18.48 32a1 1 0 0 1-1 1 1.979 1.979 0 0 1-1.98-1.979c0-.308-.145-.599-.398-.796C11.93 27.745 10 24.003 10 20c0-7.18 5.82-13 13-13 .404 0 .808.019 1.211.056 5.601.507 10.286 4.683 11.491 10.208 1.084 4.971-.874 9.893-4.812 12.965-.247.193-.39.483-.39.789A1.98 1.98 0 0 1 28.52 33a1 1 0 0 1-.02-2 3.003 3.003 0 0 1 1.159-2.348c3.351-2.613 5.004-6.767 4.089-10.962-1.02-4.676-4.99-8.214-9.72-8.642A11.125 11.125 0 0 0 23 9c-6.075 0-11 4.925-11 11 0 3.37 1.634 6.539 4.333 8.648A3.006 3.006 0 0 1 17.5 31a1 1 0 0 1 .98 1zm10.447 8.854A5.002 5.002 0 0 1 24 45h-2a5.002 5.002 0 0 1-4.927-4.146A3.001 3.001 0 0 1 15.763 36 3 3 0 0 1 18 31h10.001a3 3 0 0 1 2.236 5 3.002 3.002 0 0 1-1.308 4.854zM28 39a1 1 0 0 0 0-2H18a1 1 0 0 0 0 2h10zm-6 4h2a3.001 3.001 0 0 0 2.83-2h-7.66A3.001 3.001 0 0 0 22 43zm6-8a1 1 0 0 0 0-2H18a1 1 0 0 0 0 2h10z"/>
  </g>
</svg>
