<svg xmlns="http://www.w3.org/2000/svg" width="72" height="72" viewBox="0 0 72 72">
  <g>
    <path class="c-Illo__pathFill c-Illo__pathFillSecondary" data-path-secondary d="M67.5,23.3v2c0,1.3-2,1.3-2,0v-2h-2c-1.3,0-1.3-2,0-2h2v-2c0-1.3,2-1.3,2,0v2h2c1.3,0,1.3,2,0,2H67.5z
      M56.5,14.3v3c0,1.3-2,1.3-2,0v-3h-3c-1.3,0-1.3-2,0-2h3v-3c0-1.3,2-1.3,2,0v3h3c1.3,0,1.3,2,0,2H56.5z M50.5,34.3v4.7
      c0,10-8,17.3-18,17.3h-13c-0.8-1.4-1-2.3-1-4v-2l14-0.3c6.7,0,12.2-4.3,12.2-11l-0.2-5.7h1.1C47.4,33.3,49.1,33.5,50.5,34.3z" />
    <path class="c-Illo__pathFill c-Illo__pathFillPrimary" data-path-primary d="M32.5,18.3c7.2,0,13,5.6,13,12.5l0,8c0,6.9-5.8,12.5-13,12.5h-18c-1.4,0-2.7-0.2-4-0.6c-1.2-0.4-2.5-0.4-3.6,0.1
      l-1.7,0.7c-2,0.8-4-1-3.3-3l0.6-1.9c0.4-1,0.3-2.2-0.1-3.3c-0.6-1.4-0.9-2.9-0.9-4.4l0-8c0-6.9,5.8-12.5,13-12.5H32.5L32.5,18.3z
      M32.5,20.3h-18c-6.1,0-11,4.7-11,10.5l0,8c0,1.3,0.2,2.5,0.7,3.7c0.6,1.6,0.7,3.2,0.2,4.7l-0.6,1.9c-0.1,0.3,0.3,0.7,0.7,0.5
      L6.1,49c1.6-0.6,3.3-0.7,5-0.1c1.1,0.3,2.2,0.5,3.4,0.5h18c6.1,0,11-4.7,11-10.5l0-8C43.5,25.1,38.6,20.3,32.5,20.3L32.5,20.3z
      M45.7,34.3c-0.6,0-1-0.4-1-1s0.4-1,1-1c6.5,0,11.8,5.3,11.8,11.8l-0.2,7.4c0,1.4-0.3,2.9-0.8,4.2c-0.4,1-0.4,2.1-0.1,3.1l0.6,1.7
      c0.6,1.9-1.3,3.7-3.1,2.9l-1.5-0.6c-1-0.4-2.1-0.4-3.2-0.1c-1.2,0.4-2.4,0.6-3.7,0.6H29.2c-6.5,0-11.8-5.3-11.8-11.8
      c0-0.6,0.4-1,1-1s1,0.4,1,1c0,5.4,4.4,9.8,9.8,9.8h16.3c1,0,2.1-0.2,3-0.5c1.5-0.5,3.2-0.5,4.6,0.1l1.5,0.6
      c0.3,0.1,0.6-0.1,0.5-0.4l-0.6-1.7c-0.5-1.4-0.4-3,0.2-4.4c0.4-1.1,0.6-2.3,0.6-3.5l0.2-7.4C55.5,38.7,51.1,34.3,45.7,34.3z
      M23.5,37.3c-1.1,0-2-0.9-2-2c0-1.1,0.9-2,2-2s2,0.9,2,2C25.5,36.4,24.6,37.3,23.5,37.3z M30.5,37.3c-1.1,0-2-0.9-2-2
      c0-1.1,0.9-2,2-2s2,0.9,2,2C32.5,36.4,31.6,37.3,30.5,37.3z M16.5,37.3c-1.1,0-2-0.9-2-2c0-1.1,0.9-2,2-2s2,0.9,2,2
      C18.5,36.4,17.6,37.3,16.5,37.3z" />
  </g>
</svg>
