<svg xmlns="http://www.w3.org/2000/svg" width="72" height="45" viewBox="0 0 72 45">
	<g id="Page-1" transform="translate(105.000000, 22.000000)">
		<path id="Stroke-1" fill="none" stroke="#C1CBD4" stroke-width="2" stroke-linecap="round" stroke-linejoin="round" d="M-99-18
			L-99-18c0,2.761-2.238,5-5,5c2.762,0,5,2.239,5,5c0-2.761,2.239-5,5-5C-96.761-13-99-15.239-99-18z"/>
		<path id="Stroke-3" fill="none" stroke="#C1CBD4" stroke-width="2" stroke-linecap="round" stroke-linejoin="round" d="M-39-7
			L-39-7c0,2.761-2.238,5-5,5c2.762,0,5,2.239,5,5c0-2.761,2.238-5,5-5C-36.762-2-39-4.239-39-7z"/>
		<path id="Stroke-7" fill="none" stroke="#D6DDE3" stroke-width="2" stroke-linecap="round" stroke-linejoin="round" d="M-44-19
			c0,1.106-0.895,2-2,2s-2-0.894-2-2s0.895-2,2-2S-44-20.106-44-19z"/>
		<path id="Stroke-9" fill="none" stroke="#D6DDE3" stroke-width="2" stroke-linecap="round" stroke-linejoin="round" d="M-95,4
			c0,1.104-0.896,2-2,2c-1.105,0-2-0.896-2-2s0.895-2,2-2C-95.896,2-95,2.896-95,4z"/>
		<path id="Stroke-11" fill="#FFFFFF" stroke="#93A1AF" stroke-width="2" stroke-linecap="round" stroke-linejoin="round" d="
			M-70.5-9h3C-59.492-9-53-2.508-53,5.5c0,3.625-1.334,6.938-3.533,9.479L-56,21.5l-6.296-2.466C-63.912,19.656-65.665,20-67.5,20h-3
			C-78.508,20-85,13.508-85,5.5C-85-2.508-78.508-9-70.5-9z"/>
		<path id="Stroke-13" fill="none" stroke="#93A1AF" stroke-width="2" stroke-linecap="round" stroke-linejoin="round" d="M-73,10
			c0,2.209,1.791,4,4,4s4-1.791,4-4H-73z"/>
		<path id="Stroke-15" fill="none" stroke="#93A1AF" stroke-width="2" stroke-linecap="round" stroke-linejoin="round" d="
			M-58.142,6.5C-58.364,5.639-59.141,5-60.07,5c-0.932,0-1.707,0.639-1.93,1.5"/>
		<path id="Stroke-17" fill="none" stroke="#93A1AF" stroke-width="2" stroke-linecap="round" stroke-linejoin="round" d="M-80,6.5
			c0.223-0.861,0.999-1.5,1.929-1.5c0.931,0,1.707,0.639,1.929,1.5"/>
	</g>
</svg>
