<svg xmlns="http://www.w3.org/2000/svg" width="46" height="46" viewBox="0 0 46 46">
  <g fill="none" fill-rule="evenodd">
    <rect width="32" height="22" x="7" y="20" class="c-Illo__pathFill c-Illo__pathFillUIWhite" data-path-uiWhite="" rx="3"/>
    <path class="c-Illo__pathFill c-Illo__pathFillUIDark" data-path-uiDark="" fill="#93a1af" fill-rule="nonzero" d="M32 20a1 1 0 0 1-2 0v-6c0-2.757-2.243-5-5-5h-4c-2.757 0-5 2.243-5 5v6a1 1 0 0 1-2 0v-6c0-3.861 3.139-7 7-7h4c3.861 0 7 3.139 7 7v6zm-22-1v-5c0-6.066 4.934-11 11-11h4c6.066 0 11 4.934 11 11v5a5 5 0 0 1 5 5v14a5 5 0 0 1-5 5H10a5 5 0 0 1-5-5V24a5 5 0 0 1 5-5zm24 0v-5c0-4.962-4.038-9-9-9h-4c-4.962 0-9 4.038-9 9v5h22zm-24 2a3 3 0 0 0-3 3v14a3 3 0 0 0 3 3h26a3 3 0 0 0 3-3V24a3 3 0 0 0-3-3H10zm16 8a2.998 2.998 0 0 1-1.407 2.543c-.163.102-.336.44-.518.832L25 37h-4l.931-4.651c-.173-.373-.338-.693-.494-.788A3 3 0 1 1 26 29z"/>
    <path class="c-Illo__pathFill c-Illo__pathFillUI" data-path-ui="" fill-rule="nonzero" d="M38.375 25c.345 0 .625.448.625 1s-.28 1-.625 1h-3.75c-.345 0-.625-.448-.625-1s.28-1 .625-1h3.75zm0 5c.345 0 .625.448.625 1s-.28 1-.625 1h-3.75c-.345 0-.625-.448-.625-1s.28-1 .625-1h3.75zm0 5c.345 0 .625.448.625 1s-.28 1-.625 1h-3.75c-.345 0-.625-.448-.625-1s.28-1 .625-1h3.75zm-27-10c.345 0 .625.448.625 1s-.28 1-.625 1h-3.75C7.28 27 7 26.552 7 26s.28-1 .625-1h3.75zm0 5c.345 0 .625.448.625 1s-.28 1-.625 1h-3.75C7.28 32 7 31.552 7 31s.28-1 .625-1h3.75zm0 5c.345 0 .625.448.625 1s-.28 1-.625 1h-3.75C7.28 37 7 36.552 7 36s.28-1 .625-1h3.75z"/>
  </g>
</svg>
