<svg xmlns="http://www.w3.org/2000/svg" x="0px" y="0px" viewBox="0 0 72 72">
	<g>
		<circle class="st0" cx="36" cy="36" r="26" fill="#FFF" data-path-uiWhite="" />
		<path class="c-Illo__pathFill c-Illo__pathFillUILight" data-path-uiLight="" d="M36,72C16.1,72,0,55.9,0,36S16.1,0,36,0s36,16.1,36,36S55.9,72,36,72z M36,62c14.4,0,26-11.6,26-26
		S50.4,10,36,10S10,21.6,10,36S21.6,62,36,62z" />
		<path class="c-Illo__pathFill c-Illo__pathFillUI" data-path-ui="" d="M30,34.5c0-2.5,2-4.5,4.5-4.5s4.5,2,4.5,4.5c0,2.5-2,4.5-4.5,4.5C32,39,30,37,30,34.5 M43.7,42.3l-4-4
		c0.8-1.1,1.3-2.4,1.3-3.8c0-3.6-2.9-6.5-6.5-6.5c-3.6,0-6.5,2.9-6.5,6.5c0,3.6,2.9,6.5,6.5,6.5c1.4,0,2.7-0.4,3.8-1.3l4,4
		c0.4,0.4,1,0.4,1.4,0c0,0,0,0,0,0C44.1,43.3,44.1,42.7,43.7,42.3C43.7,42.3,43.7,42.3,43.7,42.3 M36,10c-14.4,0-26,11.6-26,26
		s11.6,26,26,26s26-11.6,26-26S50.4,10,36,10z M36,60c-13.3,0-24-10.7-24-24s10.7-24,24-24s24,10.7,24,24S49.3,60,36,60z" />
	</g>
</svg>