<svg viewBox="0 0 140 186" xmlns="http://www.w3.org/2000/svg"><g fill="none"><path d="m97.82 115.962c-.482-.927-1.143-1.766-1.42-2.773-.254-.927-.155-1.916-.384-2.849-.377-1.51-1.52-2.78-1.508-4.34h-58.705c-.383.31-.785.622-1.255.765-.476.143-1.044.08-1.378-.28-.13-.143-.222-.317-.321-.485h-6.155c-.29.529-.488 1.138-1.044 1.182-.433-.647-1.193-1.375-1.854-.97-.995.615-.871.422-1.428-.212h-4.103c-1.854.087-3.714.118-5.567.211-1.378.069-2.052.175-2.237 1.655-.143 1.125-.192 2.282-.21 3.45.556.473.364 1.636.11 2.395-.036.106-.061.211-.092.31.043 1.717.117 3.433.105 5.094v.186c0 .007.006.019.006.025.155.46.352.97.136 1.406a1.223 1.223 0 0 1 -.16.236c-.007.584-.013 1.169-.013 1.753.26.349.52.697.476 1.101-.025.218-.142.404-.247.597-.087.162-.167.323-.247.485-.112 12.91-.254 25.813-.297 38.723.476.367 1.032.603 1.625.61-.58.217-1.174.465-1.631.87 0 .814-.006 1.629-.006 2.444a.832.832 0 0 1 .24.267c.093.186.081.404.056.61-.086.857-.191 1.71-.309 2.561-.012 3.246.013 10.957.037 12.562h64.063c.427.304 1.001.317 1.626.342 2.904.118 5.815.124 8.725.087 1.613-.019 3.22-.05 4.826-.081.29-.006.587-.013.878-.025.012-.417.29-.665.902-.261.111.074.222.13.34.193.927-.081 1.841-.23 2.713-.56.204-.075.401-.162.593-.261-.025-.112-.056-.224-.031-.336.074-.336.55-.38.865-.236l.037.018c.186-.149.365-.31.525-.49l.013-.013c-.006 0-.013-.007-.019-.007a1.226 1.226 0 0 1 -.605-.895c.426.006.865.006 1.273-.1a9.588 9.588 0 0 0 .915-3.265c.061-.646.055-1.299.042-1.946.019 0 .038-.006.056-.006v-50.357c-.13-1.387.525-8.463.043-9.39z" fill="#527ceb"/><path d="m97.75 146.402c.18-.354.386-.809.13-1.107-.13-.156-.348-.206-.51-.33-.05-.038-.081-.094-.118-.137v-1.469c.217-.753.516-2.115 0-2.62v-6.509c-.442-.168-.94-.18-1.42-.18l-23.763-.038c-3.02-.006-6.04-.012-9.059-.012-.012 1.058-.012 2.11-.006 3.155.05 6.503.1 13.162.187 19.845 11.355-.012 22.705-.031 34.06-.044v-5.015a.623.623 0 0 0 .3-.168c-.013-.623-.187-1.232-.3-1.848v-2.023a5.25 5.25 0 0 1 .499-1.5z" fill="#a2baf3"/><path d="m100.408 9.354c.363-.509.91-.85 1.462-1.142a12.018 12.018 0 0 1 4.89-1.334c1.628-.087 3.33.149 4.853-.447a4.783 4.783 0 0 0 2.45-2.184c.185-.348.332-.72.529-1.061.958-1.632 3.04-2.222 4.914-2.184.75.012 1.536.124 2.138.57.706.522 1.038 1.422 1.204 2.29.466 2.451-.154 5.101-1.659 7.08-.356.466-.762 1.117-.393 1.57.11.137.276.218.362.373.178.322-.092.7-.35.962-2.77 2.786-5.94 5.131-9.097 7.458-.7.521-1.407 1.036-2.107 1.558-.694.515-1.431 1.042-2.291 1.13-.615.061-1.352-.243-1.45-.857-.037-.224.018-.447.037-.67.043-.584-.172-1.148-.418-1.682-.958-2.091-2.414-3.878-3.63-5.814-.891-1.446-2.648-3.947-1.444-5.616z" fill="#071d58"/><path d="m119.926 4.56c-.155-1.114-.584-2.215-1.362-3.013-.933-.955-2.282-1.398-3.607-1.512a9.41 9.41 0 0 0 -3.06.24c-.31.076-.802.209-1.218.412-.535.145-1.107.696-1.474 1.07-.908.923-1.511 2.177-1.592 3.493-.075 1.159.217 2.31.684 3.374.466 1.064 1.094 2.032 1.722 2.994.131.203.255.488.088.658-.032.032-.063.045-.1.064-1.443-.02-2.873-.317-4.297-.583-1.642-.31-3.327-.57-4.97-.284-1.641.284-3.27 1.19-4.03 2.702-.627 1.247-.926 3.039-.534 4.387.51 1.747 1.748 3.108 3.29 4.026.846.506 2.052.873 2.997 1.12 1.064.279 2.662.525 3.72-.095.21-.032.447-.164.665-.342 1.387-1.145 2.662-2.462 3.949-3.715.634-.62 1.269-1.247 1.903-1.874 1.057-.911 2.127-1.81 3.172-2.734.646-.57 1.293-1.152 1.803-1.855a7.357 7.357 0 0 0 1.188-1.83c.472-1.05.74-2.183.926-3.329.18-1.12.293-2.253.137-3.374z" fill="#ffc65b"/><path d="m98 161v-3.988h-82.782c-.96 0-1.928-.027-2.894 0-.936.021-1.618.083-2.312.745-.006 1-.006 2.001-.012 2.995 8.421.179 60.69-.532 88 .248z" fill="#79a1f8"/><path d="m42.03 132.544c-.005.774 0 1.529.007 2.284.043 7.9.511 15.013.333 22.937-.013.62-.019 1.232-.043 1.87-.253 7.17-.327 15.719-.327 22.832 0 .378.099.768.345 1.053.363.408.986.42 1.528.396 6.709-.273 13.418.278 20.127.006-.345-8.556-.53-17.384-.647-26.181-.086-6.643-.135-13.267-.185-19.743-.006-1.04-.006-2.086.006-3.139.074-7.206.512-14.617.456-21.749-.018-2.21-.603-4.29-1.805-6.11h-19.301c-.013 4.092-.056 10.92-.154 13.416-.16 4.042-.315 8.085-.34 12.128z" fill="#b2c8fb"/><path d="m63.214 183c1.15 0 1.637-.055 2.786-.092-.175-8.674-.706-42.802-.553-46.141.233-4.996.037-10.005-.378-14.995-.204-2.457.044-6.339-.24-8.79-.27-2.366-.691-3.715-1.47-5.982-.712 1.072-.145 3.844-.145 5.138z" fill="#79a1f8"/><path d="m1.526 183.766c2.591-.27 5.208-.292 7.825-.309l63.316-.455c1.507-.012 3.144.016 4.328.866.074.568-.707.871-1.327.973-6.833 1.164-13.84 1.164-20.797 1.158-4.459 0-8.923-.005-13.382-.005-6.3-.006-12.6-.006-18.906-.012-7.118-.005-14.206-.241-21.312-.489-.533-.017-1.147-.056-1.258-.68-.137-.771.868-.98 1.513-1.047z" fill="#071d58"/><path d="m4 73.19c-.927.544-2 1.174-3.08 1.81.04-1.41-1.66-2.578-.429-4.166.13-.164.283-.564.232-.63-2.113-2.447 1.045-1.857 1.379-2.972.192-.656.836.217.966.912.271 1.529.56 3.044.932 5.045zm51.113-21.19c-.97-.347-1.862.21-2.082-.615-.206-.771.653-.909 1.222-1.154.756-.323.924-.908.789-1.59-.408-2.049 1.596-2.133 2.805-2.635.284-.12.659 1.476.924 2.337 1.19 3.836-2.585 2.468-3.658 3.657zm-51.753 8c.085.062.416.167.541.407.61 1.135-1.756 6.648-2.954 6.593-1.62-.074-.644-1.567-.764-2.43-.342-2.51 1.004-4.54 3.176-4.57zm3.64 18.89c-.981 1.058-1.932 2.084-2.878 3.11-.743-1.571-1.92-3.078-2.11-4.727-.185-1.598 1.867-1.468 2.824-2.273.684 1.247 1.38 2.487 2.164 3.89zm29.793-2.917c-.238-1.909-2.507-4.743 1.911-4.97 1.485-.077 1.24 1.92 1.29 2.78.089 1.41-.97 2.71-2.6 3.173-.708.205-.82-.34-.601-.983zm-26.793 9.982c-.67.915-1.643 2.347-2.233 1.989-1.206-.722-2.405-2.042-2.738-3.321-.27-1.033 1.397-1.82 2.307-2.623.886 1.314 1.766 2.629 2.664 3.955zm1.715 8.045c-1.415-1.37-3.019-2.382-3.66-3.74-.417-.883 1.632-2.451 2.238-2.24 1.786.608 2.966 2.188 3.653 3.715.39.872-1.442.972-2.23 2.265zm-7.818-41c.81.397 2.134.939 2.102 1.046-.462 1.43-.905 2.968-1.81 4.109-.514.649-1.875 1.254-2.889.485-.709-.536.026-1.33.292-1.815.69-1.254.646-3.018 2.305-3.825zm55.103 6.36c-.681 1.725-.595 4.11-2.81 4.62-.7.162-1.243-.717-1.186-1.576.166-2.385.95-4.266 3.4-4.402.91-.052.264.853.596 1.357zm-50-13.142c-1.188 1.369-1.006 3.853-2.923 4.74-.478.221-2.326-.493-2.049-.98 1.03-1.824 1.2-4.562 3.872-4.962.748-.114.924.407 1.1 1.202zm45-3.723c.534-1.3 1.637-1.501 2.843-1.495 1.432.007 2.233.923 2.151 2.054a3.156 3.156 0 0 1 -3.213 2.946c-.623-.02-1.178-2.243-1.781-3.504z" fill="#fee1ab"/><path d="m59.92 55.667c.445 2.376-1.057 2.431-2.666 2.287-.47-.041-1.346.343-1.246-.618.181-1.807.006-4.053 2.41-4.32 1.678-.18 1.547 1.242 1.503 2.65zm-42.677 43.333c-1.15-.994-2.871-1.387-3.221-2.977-.199-.88 1.004-1.97 1.873-2.02 1.488-.089 1.81 2.014 3.105 2.527-.566.792-1.138 1.596-1.757 2.47zm27.505-71c1.935.23 3.476.878 4.223 2.31.235.449-.994 1.88-1.87 1.669-1.16-.283-2.647-.69-3.07-2.022-.183-.572.5-1.42.717-1.957zm-6.425 37.151c.672-.033 1.502-.547 1.635.535.303 2.468-1.072 3.7-2.955 4.288-.66.203-1.15-.825-.963-1.224.624-1.313-.278-3.977 2.283-3.599zm13.677-27.929c.322-.988 1.192-1.238 1.991-1.221.645.011 1.36.3 1.657 1.005.702 1.653.483 3.101-1.85 2.988-1.65-.085-.986-1.948-1.798-2.772zm-10.788 26.778c-1.2-.128-2.444-.263-2.175-.72.974-1.636 1.991-3.42 3.744-4.215.882-.397 1.274 1.145 1.213 1.205-1.183 1.152-1.311 3.501-2.782 3.73zm15.788 3.597c-.588.922-1.379 2.166-2.17 3.403-.646-.676-1.88-1.392-1.828-2.028.124-1.524 1.463-2.567 3.162-2.939.98-.212.718.63.836 1.564z" fill="#fee1ab"/><path d="m97.821 115.958c-.48-.926-1.14-1.766-1.417-2.773-.252-.926-.154-1.914-.381-2.846-.376-1.51-1.516-2.779-1.503-4.339h-39.52c.13.08.265.162.4.236 2.28 1.212 4.67 2.244 6.973 3.406 4.62 2.331 9.178 4.787 13.674 7.354.555.317 1.103.64 1.65.963.481-.273 1.005-.447 1.011-.416.05.23-.142.441-.203.671a.62.62 0 0 0 -.012.211c.461.268.93.535 1.385.808.265-.006.524-.024.789-.006.462.031.98.274 1.065.734.025.13.019.273.025.404a336.99 336.99 0 0 1 2.507 1.523c.388.018.776-.056 1.084-.28-.006.33.019.659.05.988a290.77 290.77 0 0 1 5.272 3.344c2.427 1.58 4.86 3.22 7.096 5.06v-5.669c-.117-1.374.536-8.447.055-9.373z" fill="#071d58"/><path d="m14 41.143c-1.324.7-1.463 2.637-3.307 2.847-.62.07-1.837-.239-1.679-.986.298-1.406 1.502-2.41 2.889-2.97.247-.099 1.742-.052 2.097 1.109zm28.048 38.81c-1.248 0-2.667.201-3.038-.938-.141-.44 1.248-1.328 1.937-2.015.66 1.184 2.86.542 3.037 2.043.189 1.647-1.371.598-1.936.91zm9.08-48.953c.7.949 1.729 1.724 1.855 2.633.202 1.51-1.47 1.845-2.38 2.306-.65.334-1.489-.762-1.59-1.805-.158-1.55 1.136-2.011 2.115-3.134zm-35.531 7c-.501-.482-1.857.006-1.553-.688.697-1.571 2.294-2.542 3.935-3.272.47-.212 1.21.47.976.783-.919 1.206-1.742 2.565-3.358 3.177zm30.095 20c-.31-.63-.628-1.04-.69-1.483-.033-.286.244-.74.521-.897 1.358-.793 2.891-1.3 4-2.503.182-.202.864-.111 1.236.039.175.071.317.786.196.877-1.527 1.223-3.122 2.38-5.263 3.967zm2.308 19.126c.357-1.851 2.154-2.565 2.803-4.126.41.284 1.131.53 1.173.872.25 1.933-1.488 2.319-2.494 3.267-.345.322-.488 1.13-1.184.77-.173-.094-.197-.505-.298-.783zm-14.983-50.074c.92-.075 1.89-.07 1.978.72.087.753-.964.401-1.474.535-1.207.313-2.458.516-3.708.69-.243.035-.678-.233-.797-.447-.087-.149.193-.62.343-.63 1.337-.08 2.301-1.166 3.658-.868zm-10.614 5.948c-.88-.016-1.542-.556-1.378-.763 1.014-1.28 2.756-1.542 4.186-2.234.111-.054.844.61.786.72-.768 1.487-2.615 1.454-3.594 2.277zm.13 69c-1.182-.297-2.603-.563-2.53-1.824.04-.748 1.116-1.453 1.724-2.176.773.964 1.731 1.855 2.24 2.924.218.458-.687 1.051-1.434 1.076zm63.574-68c.31.32.947.81.89.947-.586 1.444-1.635 2.423-2.897 2.998-.338.157-1.273.013-1.072-.901.367-1.692 1.674-2.306 3.08-3.044zm10.893-8.329c-.484.896-.963 1.995-2.167 2.306-.513.134-1.216-.36-1.833-.568.916-1.116 1.499-2.633 3.522-2.381.472.059.46.252.478.643zm-23 18.062c-1.527.88-2.682 1.629-3.907 2.201-.462.214-1.208-.107-1.078-.78.314-1.578 1.847-1.59 2.907-2.113.403-.195 1.113.346 2.078.692zm16.474-10.733c-.445-.265-.963-.579-1.474-.893.826-.79 1.415-1.9 2.72-2.093.707-.108 1.454.41 1.244 1.032-.328.947-1.147 1.658-2.49 1.954zm-50.704-4.063c-1.244.26-1.67-.623-1.763-1.676-.08-.927.539-1.402 1.298-1.224.918.215 1.797.645 2.695.979-.426 1.12-.839 2.27-2.23 1.92zm40.23 11.051c-1.029.65-2.136 1.372-3.284 2.01-.085.048-.774-.692-.712-.853.554-1.396 1.978-1.515 3.075-2.1.333-.166.82.12.921.943zm-16.574 8.012c-.477-.182-1.61-.111-1.4-.262.988-.702 2.2-1.257 3.43-1.69.628-.222.543.388.537.68-.04 1.403-1.467 1.13-2.567 1.272z" fill="#fee1ab"/><path d="m139.92 118.758c-.156-.405-.534-.673-.893-.915-7.405-4.907-16.366-6.812-24.297-10.804-6.5-3.269-12.227-7.895-18.516-11.557-3.923-2.285-8.056-4.184-12.177-6.077-7.703-3.543-15.405-7.08-23.108-10.623-1.22-.56-2.658-1.127-3.86-.523-.645.324-1.097.934-1.506 1.526-.7 1.009-2.98 4.377-3.26 4.85a17.547 17.547 0 0 0 -2.243 6.37c-.08.542-.124 1.127.161 1.595.242.398.676.622 1.091.834l1.766.897c.23-.218.589-.243 1.14.08.28.169.41.48.558.779.886.448 1.772.903 2.665 1.351.44.069.886.15 1.282.349.292.15.552.38.713.66.173.087.353.18.527.267a7.815 7.815 0 0 1 1.183-.834c-.018.467-.03.94-.05 1.407l2.318 1.177c.205.006.403.019.595.05.775.118 1.469.592 1.921 1.233 5.33 2.709 10.659 5.417 15.988 8.132 7.907 4.022 15.851 7.983 23.727 12.049l1.11.579c.7.012 1.394.286 1.84.834.05.062.099.131.155.2l1.797.933c.396-.261.719-.716 1.183-.678.292.336.031.834-.006 1.295l.422.218a495.204 495.204 0 0 0 11.594 5.921.984.984 0 0 1 .285-.199c.756-.336 1.94.461 2.317-.274.044.554-.155 1.071-.49 1.513l2.529 1.233c.91.436 1.828.878 2.795 1.19.539.174 1.134.305 1.66.1.366-.144.651-.437.918-.73a16.65 16.65 0 0 0 2.342-3.374 28.985 28.985 0 0 0 3.823-9.913c.075-.368.137-.766 0-1.121z" fill="#527ceb"/><path d="m42.629 134.044-12.053-.019-10.778-.018c-1.74 0-3.475-.006-5.216-.006-1.05 0-4.738-.031-4.864.321-.012 1.09-.019 2.197-.031 3.31-1.226-.451-.39 1.844-.327 2.247.1.65-.226 1.305-.157 1.961.044.377.214.73.34 1.089.037.099.062.204.087.303-.006.904-.019 1.807-.025 2.716a4.983 4.983 0 0 1 -.308.786c-.126.248-.276.495-.295.774-.013.198.044.402.1.594l.472 1.633c-.02 2.413-.038 4.808-.05 7.122.797.13 1.633.148 2.438.142l30.994-.037c.188-7.914-.283-15.023-.327-22.918zm91.042-38.266c-1.005-.813-2.091-1.565-3.334-1.934-.993-.296-2.048-.34-3.09-.32a31.266 31.266 0 0 0 -8.399 1.28c-4.32 1.282-8.267 3.13-12.813 3.555l-.418.037c-.275-1.146-1.105-2.113-2.01-2.908-.7-.616-1.83-1.336-3.041-1.817.093-.086.18-.178.256-.283.262-.364.368-.813.468-1.25 1.311-5.73 2.41-11.73.962-17.422-.7-2.747-2.273-5.6-5.014-6.43-.93-.284-1.917-.303-2.891-.278-1.861.043-3.747.24-5.483.905-4.17 1.602-6.855 5.612-10.652 7.947-.843.517-4.183 2.224-4.851 3.924-.675 1.719-.288 3.037.218 4.183.618 1.417 2.186 2.452 3.347 3.486 1.049.937 2.335 1.565 3.64 2.089 1.767.714 3.59 1.269 5.414 1.817 2.042.616 4.09 1.238 6.131 1.854 1.1.333 2.204.653 3.347.764l-.037.105c-.412 1.213-.032 2.58.705 3.628.737 1.047 1.799 1.836 2.872 2.55.925.623 1.924 1.22 3.041 1.3a3.71 3.71 0 0 0 1.162-.117c.487.986 1.199 1.916 1.698 2.606.762 1.06 1.524 2.12 2.28 3.185 1.267 1.768 2.547 3.548 4.17 5.002 1.624 1.454 3.647 2.569 5.838 2.741 1.536.117 3.078-.228 4.52-.751 4.771-1.713 8.649-5.187 12.22-8.748 1.486-1.478 3.035-3.203 3.072-5.285.038-2.181-1.61-4.029-3.328-5.415z" fill="#a2baf3"/><path d="m91.428 88.617c-.435-.296-.906-.586-1.428-.617a14.558 14.558 0 0 0 4.973 5.3c.354.22 1.689 1.17 2.006.41.204-.492-1.118-1.474-1.453-1.801a30.542 30.542 0 0 0 -4.098-3.292zm7.652 5.325c.299.12.701.057.857-.22.136-.252.026-.554-.085-.812-1.376-3.21-2.745-6.426-4.122-9.635-.181-.428-.383-.881-.772-1.152-.104-.076-.234-.138-.364-.12-.24.026-.37.277-.434.498-.37 1.227-.026 2.536.318 3.77.707 2.523 1.772 6.551 4.602 7.671zm6.934 5.243c.483-.155 1.014-.175 1.533-.18 3.006-.045 6.024.215 8.93.859.208.045.44.115.506.284.12.315-.417.495-.811.515-1.837.095-3.669.184-5.506.28-1.3.064-2.636.124-3.913-.116-.405-.074-1.52-.244-1.706-.594-.244-.464.52-.909.967-1.048zm.376 2.846c.239-.068.495-.012.74.05 2.066.561 3.778 1.993 5.422 3.381.954.809 1.944 1.666 2.39 2.839.098.259.092.666-.183.697-.153.019-.275-.105-.379-.216a18.75 18.75 0 0 0 -3.778-3.116c-.935-.586-1.925-1.086-2.855-1.685-.379-.234-2.64-1.586-1.357-1.95z" fill="#527ceb"/></g></svg>