<svg xmlns="http://www.w3.org/2000/svg" width="72" height="72" viewBox="0 0 72 72">
  <g fill="none" fill-rule="evenodd">
    <circle cx="36" cy="36" r="26" fill="#FFF"/>
    <path class="c-Illo__pathFill c-Illo__pathFillUILight" data-path-uiLight="" d="M36 72C16.118 72 0 55.882 0 36S16.118 0 36 0s36 16.118 36 36-16.118 36-36 36zm0-10c14.36 0 26-11.64 26-26S50.36 10 36 10 10 21.64 10 36s11.64 26 26 26z"/>
    <path class="c-Illo__pathFill c-Illo__pathFillPrimary" data-path-uiPrimary="" d="M36 62c-14.36 0-26-11.64-26-26s11.64-26 26-26 26 11.64 26 26-11.64 26-26 26zm0-2c13.255 0 24-10.745 24-24S49.255 12 36 12 12 22.745 12 36s10.745 24 24 24zm5.008-28.642a1.128 1.128 0 0 1 1.65 0c.456.478.456 1.25 0 1.729l-8.166 8.555a1.137 1.137 0 0 1-.825.358c-.299 0-.598-.12-.825-.358l-3.5-3.667a1.262 1.262 0 0 1 0-1.728 1.128 1.128 0 0 1 1.65 0l2.675 2.803 7.341-7.692z"/>
  </g>
</svg>
